<mxfile host="app.diagrams.net" agent="Mozilla/5.0 (Windows NT 10.0; Win64; x64; rv:137.0) Gecko/20100101 Firefox/137.0" version="26.2.8">
  <diagram id="l8hXMBHkgcEJcSW0mbfh" name="Page-1">
    <mxGraphModel dx="2040" dy="1113" grid="1" gridSize="10" guides="1" tooltips="1" connect="1" arrows="1" fold="1" page="1" pageScale="1" pageWidth="1169" pageHeight="827" math="0" shadow="0">
      <root>
        <mxCell id="0" />
        <mxCell id="1" parent="0" />
        <mxCell id="CGhPLYTZZGcvYnQnzDXN-32" style="edgeStyle=orthogonalEdgeStyle;rounded=0;orthogonalLoop=1;jettySize=auto;html=1;exitX=0;exitY=0.5;exitDx=0;exitDy=0;entryX=0.5;entryY=0;entryDx=0;entryDy=0;endArrow=none;startFill=0;" edge="1" parent="1" target="CGhPLYTZZGcvYnQnzDXN-10">
          <mxGeometry relative="1" as="geometry">
            <mxPoint x="550" y="485" as="sourcePoint" />
          </mxGeometry>
        </mxCell>
        <mxCell id="CGhPLYTZZGcvYnQnzDXN-7" style="edgeStyle=orthogonalEdgeStyle;rounded=0;orthogonalLoop=1;jettySize=auto;html=1;exitX=0.5;exitY=1;exitDx=0;exitDy=0;endArrow=none;startFill=0;entryX=0.5;entryY=0;entryDx=0;entryDy=0;" edge="1" parent="1">
          <mxGeometry relative="1" as="geometry">
            <mxPoint x="602" y="340" as="sourcePoint" />
            <mxPoint x="602" y="420" as="targetPoint" />
          </mxGeometry>
        </mxCell>
        <mxCell id="CGhPLYTZZGcvYnQnzDXN-9" style="edgeStyle=orthogonalEdgeStyle;rounded=0;orthogonalLoop=1;jettySize=auto;html=1;entryX=0;entryY=0.5;entryDx=0;entryDy=0;dashed=1;dashPattern=8 8;targetPerimeterSpacing=0;endArrow=none;endFill=0;startFill=0;" edge="1" parent="1" target="CGhPLYTZZGcvYnQnzDXN-4">
          <mxGeometry relative="1" as="geometry">
            <mxPoint x="642" y="300" as="sourcePoint" />
            <Array as="points" />
          </mxGeometry>
        </mxCell>
        <mxCell id="CGhPLYTZZGcvYnQnzDXN-6" style="edgeStyle=orthogonalEdgeStyle;rounded=0;orthogonalLoop=1;jettySize=auto;html=1;endArrow=none;startFill=0;" edge="1" parent="1" source="CGhPLYTZZGcvYnQnzDXN-3">
          <mxGeometry relative="1" as="geometry">
            <mxPoint x="602" y="260" as="targetPoint" />
          </mxGeometry>
        </mxCell>
        <mxCell id="CGhPLYTZZGcvYnQnzDXN-3" value="" style="html=1;verticalLabelPosition=bottom;align=center;labelBackgroundColor=#ffffff;verticalAlign=top;strokeWidth=2;strokeColor=#0080F0;shadow=0;dashed=0;shape=mxgraph.ios7.icons.cloud;" vertex="1" parent="1">
          <mxGeometry x="495.5" y="60" width="213" height="120" as="geometry" />
        </mxCell>
        <mxCell id="CGhPLYTZZGcvYnQnzDXN-4" value="" style="shape=image;verticalLabelPosition=bottom;verticalAlign=top;imageAspect=0;aspect=fixed;image=data:image/svg+xml,PHN2ZyB4bWxuczp4bGluaz0iaHR0cDovL3d3dy53My5vcmcvMTk5OS94bGluayIgeG1sbnM9Imh0dHA6Ly93d3cudzMub3JnLzIwMDAvc3ZnIiB4bWw6c3BhY2U9InByZXNlcnZlIiBzdHlsZT0iZW5hYmxlLWJhY2tncm91bmQ6bmV3IDAgMCA3MiA5MDsiIHZpZXdCb3g9IjAgMCA3MiA5MCIgeT0iMHB4IiB4PSIwcHgiIGlkPSJMYXllcl8xIiB2ZXJzaW9uPSIxLjEiPiYjeGE7PHN0eWxlIHR5cGU9InRleHQvY3NzIj4mI3hhOwkuc3Qwe2Rpc3BsYXk6bm9uZTt9JiN4YTsJLnN0MXtkaXNwbGF5OmlubGluZTt9JiN4YTsJLnN0MntjbGlwLXBhdGg6dXJsKCNTVkdJRF8yXyk7fSYjeGE7CS5zdDN7ZmlsbDojMUExQTFBO30mI3hhOwkuc3Q0e2ZpbGw6IzFCMUIxQjt9JiN4YTsJLnN0NXtmaWxsOiMxQzFDMUM7fSYjeGE7CS5zdDZ7ZmlsbDojMUQxRDFEO30mI3hhOwkuc3Q3e2ZpbGw6IzFFMUUxRTt9JiN4YTsJLnN0OHtmaWxsOiMxRjFGMUY7fSYjeGE7CS5zdDl7ZmlsbDojMjAyMDIwO30mI3hhOwkuc3QxMHtmaWxsOiMyMTIxMjE7fSYjeGE7CS5zdDExe2ZpbGw6IzIyMjIyMjt9JiN4YTsJLnN0MTJ7ZmlsbDojMjMyMzIzO30mI3hhOwkuc3QxM3tmaWxsOiMyNDI0MjQ7fSYjeGE7CS5zdDE0e2ZpbGw6IzI1MjUyNTt9JiN4YTsJLnN0MTV7ZmlsbDojMjYyNjI2O30mI3hhOwkuc3QxNntmaWxsOiMyNzI3Mjc7fSYjeGE7CS5zdDE3e2ZpbGw6IzI4MjgyODt9JiN4YTsJLnN0MTh7ZmlsbDojMjkyOTI5O30mI3hhOwkuc3QxOXtmaWxsOiMyQTJBMkE7fSYjeGE7CS5zdDIwe2ZpbGw6IzJCMkIyQjt9JiN4YTsJLnN0MjF7ZmlsbDojMkMyQzJDO30mI3hhOwkuc3QyMntmaWxsOiMyRDJEMkQ7fSYjeGE7CS5zdDIze2ZpbGw6IzJFMkUyRTt9JiN4YTsJLnN0MjR7ZmlsbDojMkYyRjJGO30mI3hhOwkuc3QyNXtmaWxsOiMzMDMwMzA7fSYjeGE7CS5zdDI2e2ZpbGw6IzMxMzEzMTt9JiN4YTsJLnN0Mjd7ZmlsbDojMzIzMjMyO30mI3hhOwkuc3QyOHtmaWxsOiMzMzMzMzM7fSYjeGE7CS5zdDI5e2ZpbGw6IzM0MzQzNDt9JiN4YTsJLnN0MzB7ZmlsbDojMzUzNTM1O30mI3hhOwkuc3QzMXtmaWxsOiMzNjM2MzY7fSYjeGE7CS5zdDMye2ZpbGw6IzM3MzczNzt9JiN4YTsJLnN0MzN7ZmlsbDojMzgzODM4O30mI3hhOwkuc3QzNHtmaWxsOiMzOTM5Mzk7fSYjeGE7CS5zdDM1e2ZpbGw6IzNBM0EzQTt9JiN4YTsJLnN0MzZ7ZmlsbDojM0IzQjNCO30mI3hhOwkuc3QzN3tmaWxsOiMzQzNDM0M7fSYjeGE7CS5zdDM4e2ZpbGw6IzNEM0QzRDt9JiN4YTsJLnN0Mzl7ZmlsbDojM0UzRTNFO30mI3hhOwkuc3Q0MHtmaWxsOiMzRjNGM0Y7fSYjeGE7CS5zdDQxe2ZpbGw6IzQwNDA0MDt9JiN4YTsJLnN0NDJ7ZmlsbDojNDE0MTQxO30mI3hhOwkuc3Q0M3tmaWxsOiM0MjQyNDI7fSYjeGE7CS5zdDQ0e2ZpbGw6IzQzNDM0Mzt9JiN4YTsJLnN0NDV7ZmlsbDojNDQ0NDQ0O30mI3hhOwkuc3Q0NntmaWxsOiM0NTQ1NDU7fSYjeGE7CS5zdDQ3e2ZpbGw6IzQ2NDY0Njt9JiN4YTsJLnN0NDh7ZmlsbDojNDc0NzQ3O30mI3hhOwkuc3Q0OXtmaWxsOiM0ODQ4NDg7fSYjeGE7CS5zdDUwe2ZpbGw6IzQ5NDk0OTt9JiN4YTsJLnN0NTF7ZmlsbDojNEE0QTRBO30mI3hhOwkuc3Q1MntmaWxsOiM0QjRCNEI7fSYjeGE7CS5zdDUze2ZpbGw6IzRDNEM0Qzt9JiN4YTsJLnN0NTR7ZmlsbDojNEQ0RDREO30mI3hhOwkuc3Q1NXtmaWxsOiM0RTRFNEU7fSYjeGE7CS5zdDU2e2ZpbGw6IzRGNEY0Rjt9JiN4YTsJLnN0NTd7ZmlsbDojNTA1MDUwO30mI3hhOwkuc3Q1OHtmaWxsOiM1MTUxNTE7fSYjeGE7CS5zdDU5e2ZpbGw6IzUyNTI1Mjt9JiN4YTsJLnN0NjB7ZmlsbDojNTM1MzUzO30mI3hhOwkuc3Q2MXtmaWxsOiM1NDU0NTQ7fSYjeGE7CS5zdDYye2ZpbGw6IzU1NTU1NTt9JiN4YTsJLnN0NjN7ZmlsbDojNTY1NjU2O30mI3hhOwkuc3Q2NHtmaWxsOiM1NzU3NTc7fSYjeGE7CS5zdDY1e2ZpbGw6IzU4NTg1ODt9JiN4YTsJLnN0NjZ7ZmlsbDojNTk1OTU5O30mI3hhOwkuc3Q2N3tmaWxsOiM1QTVBNUE7fSYjeGE7CS5zdDY4e2ZpbGw6IzVCNUI1Qjt9JiN4YTsJLnN0Njl7ZmlsbDojNUM1QzVDO30mI3hhOwkuc3Q3MHtmaWxsOiM1RDVENUQ7fSYjeGE7CS5zdDcxe2ZpbGw6IzVFNUU1RTt9JiN4YTsJLnN0NzJ7ZmlsbDojNUY1RjVGO30mI3hhOwkuc3Q3M3tmaWxsOiM2MDYwNjA7fSYjeGE7CS5zdDc0e2ZpbGw6IzYxNjE2MTt9JiN4YTsJLnN0NzV7ZmlsbDojNjI2MjYyO30mI3hhOwkuc3Q3NntmaWxsOiM2MzYzNjM7fSYjeGE7CS5zdDc3e2ZpbGw6IzY0NjQ2NDt9JiN4YTsJLnN0Nzh7ZmlsbDojNjU2NTY1O30mI3hhOwkuc3Q3OXtmaWxsOiM2NjY2NjY7fSYjeGE7CS5zdDgwe2ZpbGw6I0QwRDJEMzt9JiN4YTsJLnN0ODF7ZmlsbDp1cmwoI1NWR0lEXzNfKTt9JiN4YTsJLnN0ODJ7ZmlsbDp1cmwoI1NWR0lEXzRfKTt9JiN4YTsJLnN0ODN7b3BhY2l0eTowLjgxO30mI3hhOwkuc3Q4NHtmaWxsOnVybCgjU1ZHSURfNV8pO30mI3hhOwkuc3Q4NXtmaWxsOnVybCgjU1ZHSURfNl8pO30mI3hhOwkuc3Q4NntmaWxsOnVybCgjU1ZHSURfN18pO30mI3hhOwkuc3Q4N3tvcGFjaXR5OjAuMzE7ZmlsbDp1cmwoI1NWR0lEXzhfKTt9JiN4YTsJLnN0ODh7ZmlsbDp1cmwoI1NWR0lEXzlfKTt9JiN4YTsJLnN0ODl7ZmlsbDp1cmwoI1NWR0lEXzEwXyk7fSYjeGE7CS5zdDkwe2ZpbGw6dXJsKCNTVkdJRF8xMV8pO30mI3hhOwkuc3Q5MXtmaWxsOnVybCgjU1ZHSURfMTJfKTt9JiN4YTsJLnN0OTJ7ZmlsbDp1cmwoI1NWR0lEXzEzXyk7fSYjeGE7CS5zdDkze2ZpbGw6dXJsKCNTVkdJRF8xNF8pO30mI3hhOwkuc3Q5NHtmaWxsOnVybCgjU1ZHSURfMTVfKTt9JiN4YTsJLnN0OTV7ZmlsbDp1cmwoI1NWR0lEXzE2Xyk7fSYjeGE7CS5zdDk2e2ZpbGw6dXJsKCNTVkdJRF8xN18pO30mI3hhOwkuc3Q5N3tmaWxsOm5vbmU7fSYjeGE7CS5zdDk4e2ZpbGw6dXJsKCNTVkdJRF8xOF8pO30mI3hhOwkuc3Q5OXtmaWxsOnVybCgjU1ZHSURfMTlfKTt9JiN4YTsJLnN0MTAwe2ZpbGw6dXJsKCNTVkdJRF8yMF8pO30mI3hhOwkuc3QxMDF7ZmlsbDp1cmwoI1NWR0lEXzIxXyk7fSYjeGE7CS5zdDEwMntmaWxsOnVybCgjU1ZHSURfMjJfKTt9JiN4YTsJLnN0MTAze2ZpbGw6dXJsKCNTVkdJRF8yM18pO30mI3hhOwkuc3QxMDR7ZmlsbDp1cmwoI1NWR0lEXzI0Xyk7fSYjeGE7CS5zdDEwNXtmaWxsOnVybCgjU1ZHSURfMjVfKTt9JiN4YTsJLnN0MTA2e2ZpbGw6dXJsKCNTVkdJRF8yNl8pO30mI3hhOwkuc3QxMDd7ZmlsdGVyOnVybCgjQWRvYmVfT3BhY2l0eU1hc2tGaWx0ZXIpO30mI3hhOwkuc3QxMDh7ZmlsbDp1cmwoI1NWR0lEXzI4Xyk7fSYjeGE7CS5zdDEwOXttYXNrOnVybCgjU1ZHSURfMjdfKTt9JiN4YTsJLnN0MTEwe2ZpbGw6I0ZGRkZGRjt9JiN4YTsJLnN0MTExe2ZpbGw6IzkyOTQ5Nzt9JiN4YTs8L3N0eWxlPiYjeGE7PHN3aXRjaD4mI3hhOwkmI3hhOwk8Zz4mI3hhOwkJPGc+JiN4YTsJCQk8Zz4mI3hhOwkJCQk8Zz4mI3hhOwkJCQkJPGc+JiN4YTsJCQkJCQk8ZyBjbGFzcz0ic3QwIj4mI3hhOwkJCQkJCQk8ZyBjbGFzcz0ic3QxIj4mI3hhOwkJCQkJCQkJPGRlZnM+JiN4YTsJCQkJCQkJCQk8cGF0aCBkPSJNMzMuOSw2N2wwLjQtMC43YzEuMi0xLjMsMi43LDEuMywyLjcsMS4zbDAuOSwzNS4ybC04LjUtMC40TDMzLjksNjd6IiBpZD0iU1ZHSURfMV8iLz4mI3hhOwkJCQkJCQkJPC9kZWZzPiYjeGE7CQkJCQkJCQk8Y2xpcFBhdGggaWQ9IlNWR0lEXzJfIj4mI3hhOwkJCQkJCQkJCTx1c2Ugc3R5bGU9Im92ZXJmbG93OnZpc2libGU7IiB4bGluazpocmVmPSIjU1ZHSURfMV8iLz4mI3hhOwkJCQkJCQkJPC9jbGlwUGF0aD4mI3hhOwkJCQkJCQkJPGcgY2xhc3M9InN0MiI+JiN4YTsJCQkJCQkJCQk8Zz4mI3hhOwkJCQkJCQkJCQk8cGF0aCBkPSJNMzMuNywxMDEuNWgyLjFjMC0wLjItMC4yLTMzLjQsMS43LTM4LjhjMC44LTIuMywxLjgtMy43LDIuNy01YzEuMi0xLjcsMi40LTEwLDIuNi0xMi45bC0yLjEtMC4xJiMxMDsmIzk7JiM5OyYjOTsmIzk7JiM5OyYjOTsmIzk7JiM5OyYjOTsmIzk7JiM5O2MtMC4yLDIuNi0xLjMsMTAuNy0yLjQsMTIuM2MtMC45LDEuMy0xLjksMi44LTIuOCw1LjNDMzMuNSw2Ny45LDMzLjcsMTAwLjUsMzMuNywxMDEuNXoiIGNsYXNzPSJzdDMiLz4mI3hhOwkJCQkJCQkJCQk8cGF0aCBkPSJNMzMuNywxMDEuNWgyLjFjMC0wLjItMC4yLTMzLjQsMS43LTM4LjhjMC44LTIuMywxLjgtMy43LDIuNy01YzEuMi0xLjcsMi40LTEwLDIuNi0xMi45bC0yLjEtMC4xJiMxMDsmIzk7JiM5OyYjOTsmIzk7JiM5OyYjOTsmIzk7JiM5OyYjOTsmIzk7JiM5O2MtMC4yLDIuNi0xLjMsMTAuNy0yLjQsMTIuM2MtMC45LDEuMy0xLjksMi44LTIuOCw1LjNDMzMuNSw2Ny45LDMzLjcsMTAwLjUsMzMuNywxMDEuNXoiIGNsYXNzPSJzdDMiLz4mI3hhOwkJCQkJCQkJCQk8cGF0aCBkPSJNMzMuNywxMDEuNWgyLjFjMC0wLjItMC4yLTMzLjQsMS43LTM4LjhjMC44LTIuMywxLjgtMy43LDIuNy01YzEuMi0xLjcsMi40LTEwLDIuNi0xMi45bC0yLjEtMC4xJiMxMDsmIzk7JiM5OyYjOTsmIzk7JiM5OyYjOTsmIzk7JiM5OyYjOTsmIzk7JiM5O2MtMC4yLDIuNi0xLjMsMTAuNy0yLjQsMTIuM2MtMC45LDEuMy0xLjksMi44LTIuOCw1LjNDMzMuNSw2Ny45LDMzLjcsMTAwLjUsMzMuNywxMDEuNXoiIGNsYXNzPSJzdDQiLz4mI3hhOwkJCQkJCQkJCQk8cGF0aCBkPSJNMzMuNywxMDEuNWgyLjFjMC0wLjItMC4yLTMzLjQsMS43LTM4LjhjMC44LTIuMywxLjgtMy43LDIuNy01YzEuMi0xLjcsMi40LTkuOSwyLjYtMTIuOWwtMi4xLTAuMSYjMTA7JiM5OyYjOTsmIzk7JiM5OyYjOTsmIzk7JiM5OyYjOTsmIzk7JiM5OyYjOTtjLTAuMiwyLjYtMS4zLDEwLjctMi40LDEyLjNjLTAuOSwxLjMtMS45LDIuOC0yLjgsNS4zQzMzLjUsNjcuOSwzMy43LDEwMC41LDMzLjcsMTAxLjV6IiBjbGFzcz0ic3Q1Ii8+JiN4YTsJCQkJCQkJCQkJPHBhdGggZD0iTTMzLjcsMTAxLjVoMmMwLTAuMi0wLjItMzMuNCwxLjctMzguOGMwLjgtMi4zLDEuOC0zLjcsMi43LTVjMS4yLTEuNywyLjQtOS45LDIuNi0xMi45bC0yLTAuMSYjMTA7JiM5OyYjOTsmIzk7JiM5OyYjOTsmIzk7JiM5OyYjOTsmIzk7JiM5OyYjOTtjLTAuMiwyLjYtMS4zLDEwLjctMi40LDEyLjNjLTAuOSwxLjMtMS45LDIuOC0yLjgsNS4zQzMzLjUsNjcuOSwzMy43LDEwMC41LDMzLjcsMTAxLjV6IiBjbGFzcz0ic3Q2Ii8+JiN4YTsJCQkJCQkJCQkJPHBhdGggZD0iTTMzLjcsMTAxLjVoMmMwLTAuMi0wLjItMzMuNCwxLjctMzguOGMwLjgtMi4zLDEuOC0zLjcsMi43LTVjMS4yLTEuNywyLjQtOS45LDIuNi0xMi45bC0yLTAuMSYjMTA7JiM5OyYjOTsmIzk7JiM5OyYjOTsmIzk7JiM5OyYjOTsmIzk7JiM5OyYjOTtjLTAuMiwyLjYtMS4zLDEwLjctMi40LDEyLjNjLTAuOSwxLjMtMS45LDIuOC0yLjgsNS4zQzMzLjUsNjcuOSwzMy43LDEwMC41LDMzLjcsMTAxLjV6IiBjbGFzcz0ic3Q3Ii8+JiN4YTsJCQkJCQkJCQkJPHBhdGggZD0iTTMzLjgsMTAxLjVoMmMwLTAuMi0wLjItMzMuNCwxLjctMzguOGMwLjgtMi4zLDEuOC0zLjcsMi43LTVjMS4yLTEuNywyLjQtOS45LDIuNi0xMi45bC0yLTAuMSYjMTA7JiM5OyYjOTsmIzk7JiM5OyYjOTsmIzk7JiM5OyYjOTsmIzk7JiM5OyYjOTtjLTAuMiwyLjYtMS4zLDEwLjctMi40LDEyLjNjLTAuOSwxLjMtMS45LDIuOC0yLjgsNS4zQzMzLjYsNjcuOSwzMy43LDEwMC41LDMzLjgsMTAxLjV6IiBjbGFzcz0ic3Q4Ii8+JiN4YTsJCQkJCQkJCQkJPHBhdGggZD0iTTMzLjgsMTAxLjVoMmMwLTAuMi0wLjItMzMuNCwxLjctMzguOGMwLjgtMi4zLDEuOC0zLjcsMi43LTVjMS4yLTEuNywyLjQtOS45LDIuNi0xMi45bC0yLTAuMSYjMTA7JiM5OyYjOTsmIzk7JiM5OyYjOTsmIzk7JiM5OyYjOTsmIzk7JiM5OyYjOTtjLTAuMiwyLjYtMS4zLDEwLjctMi40LDEyLjNjLTAuOSwxLjMtMS45LDIuOC0yLjgsNS4zQzMzLjYsNjcuOSwzMy43LDEwMC41LDMzLjgsMTAxLjV6IiBjbGFzcz0ic3Q5Ii8+JiN4YTsJCQkJCQkJCQkJPHBhdGggZD0iTTMzLjgsMTAxLjVoMmMwLTAuMi0wLjItMzMuNCwxLjctMzguOGMwLjgtMi4zLDEuOC0zLjcsMi43LTVjMS4yLTEuNywyLjQtOS45LDIuNi0xMi45bC0yLTAuMSYjMTA7JiM5OyYjOTsmIzk7JiM5OyYjOTsmIzk7JiM5OyYjOTsmIzk7JiM5OyYjOTtjLTAuMiwyLjYtMS4zLDEwLjctMi40LDEyLjNjLTAuOSwxLjMtMS45LDIuOC0yLjgsNS4zQzMzLjYsNjcuOSwzMy43LDEwMC41LDMzLjgsMTAxLjV6IiBjbGFzcz0ic3QxMCIvPiYjeGE7CQkJCQkJCQkJCTxwYXRoIGQ9Ik0zMy44LDEwMS41aDEuOWMwLTAuMi0wLjItMzMuNCwxLjctMzguOGMwLjgtMi4zLDEuOC0zLjcsMi43LTVjMS4yLTEuNywyLjQtOS45LDIuNi0xMi45bC0xLjktMC4xJiMxMDsmIzk7JiM5OyYjOTsmIzk7JiM5OyYjOTsmIzk7JiM5OyYjOTsmIzk7JiM5O2MtMC4yLDIuNi0xLjMsMTAuNy0yLjQsMTIuM2MtMC45LDEuMy0xLjksMi44LTIuOCw1LjNDMzMuNiw2Ny45LDMzLjgsMTAwLjUsMzMuOCwxMDEuNXoiIGNsYXNzPSJzdDExIi8+JiN4YTsJCQkJCQkJCQkJPHBhdGggZD0iTTMzLjgsMTAxLjVoMS45YzAtMC4yLTAuMi0zMy40LDEuNy0zOC44YzAuOC0yLjMsMS44LTMuNywyLjctNWMxLjItMS43LDIuNC05LjksMi42LTEyLjlsLTEuOS0wLjEmIzEwOyYjOTsmIzk7JiM5OyYjOTsmIzk7JiM5OyYjOTsmIzk7JiM5OyYjOTsmIzk7Yy0wLjIsMi42LTEuMywxMC43LTIuNCwxMi4zYy0wLjksMS4zLTEuOSwyLjgtMi44LDUuM0MzMy42LDY3LjksMzMuOCwxMDAuNSwzMy44LDEwMS41eiIgY2xhc3M9InN0MTIiLz4mI3hhOwkJCQkJCQkJCQk8cGF0aCBkPSJNMzMuOCwxMDEuNWgxLjljMC0wLjItMC4yLTMzLjUsMS43LTM4LjhjMC44LTIuMywxLjgtMy44LDIuNy01YzEuMi0xLjcsMi40LTkuOSwyLjYtMTIuOWwtMS45LTAuMSYjMTA7JiM5OyYjOTsmIzk7JiM5OyYjOTsmIzk7JiM5OyYjOTsmIzk7JiM5OyYjOTtjLTAuMiwyLjYtMS4zLDEwLjctMi40LDEyLjNjLTAuOSwxLjMtMS45LDIuOC0yLjgsNS4zQzMzLjYsNjcuOSwzMy44LDEwMC41LDMzLjgsMTAxLjV6IiBjbGFzcz0ic3QxMyIvPiYjeGE7CQkJCQkJCQkJCTxwYXRoIGQ9Ik0zMy44LDEwMS41aDEuOWMwLTAuMi0wLjItMzMuNSwxLjctMzguOGMwLjgtMi4zLDEuOC0zLjgsMi43LTVjMS4yLTEuNywyLjQtOS45LDIuNi0xMi45bC0xLjktMC4xJiMxMDsmIzk7JiM5OyYjOTsmIzk7JiM5OyYjOTsmIzk7JiM5OyYjOTsmIzk7JiM5O2MtMC4yLDIuNi0xLjMsMTAuNy0yLjQsMTIuM2MtMC45LDEuMy0xLjksMi44LTIuOCw1LjNDMzMuNiw2Ny45LDMzLjgsMTAwLjUsMzMuOCwxMDEuNXoiIGNsYXNzPSJzdDE0Ii8+JiN4YTsJCQkJCQkJCQkJPHBhdGggZD0iTTMzLjgsMTAxLjVoMS45YzAtMC4yLTAuMi0zMy41LDEuNy0zOC44YzAuOC0yLjMsMS44LTMuOCwyLjctNWMxLjItMS43LDIuNC05LjksMi42LTEyLjlsLTEuOS0wLjEmIzEwOyYjOTsmIzk7JiM5OyYjOTsmIzk7JiM5OyYjOTsmIzk7JiM5OyYjOTsmIzk7Yy0wLjIsMi42LTEuMywxMC43LTIuNCwxMi4zYy0wLjksMS4zLTEuOSwyLjgtMi44LDUuM0MzMy42LDY3LjksMzMuOCwxMDAuNSwzMy44LDEwMS41eiIgY2xhc3M9InN0MTUiLz4mI3hhOwkJCQkJCQkJCQk8cGF0aCBkPSJNMzMuOCwxMDEuNWgxLjhjMC0wLjItMC4yLTMzLjUsMS43LTM4LjhjMC44LTIuMywxLjgtMy44LDIuNy01YzEuMi0xLjcsMi40LTkuOSwyLjYtMTIuOGwtMS44LTAuMSYjMTA7JiM5OyYjOTsmIzk7JiM5OyYjOTsmIzk7JiM5OyYjOTsmIzk7JiM5OyYjOTtjLTAuMiwyLjYtMS4zLDEwLjctMi40LDEyLjNjLTAuOSwxLjMtMS45LDIuOC0yLjgsNS4zQzMzLjYsNjcuOSwzMy44LDEwMC41LDMzLjgsMTAxLjV6IiBjbGFzcz0ic3QxNiIvPiYjeGE7CQkJCQkJCQkJCTxwYXRoIGQ9Ik0zMy44LDEwMS41aDEuOGMwLTAuMi0wLjItMzMuNSwxLjctMzguOGMwLjgtMi4zLDEuOC0zLjgsMi43LTVjMS4yLTEuNywyLjQtOS45LDIuNi0xMi44bC0xLjgtMC4xJiMxMDsmIzk7JiM5OyYjOTsmIzk7JiM5OyYjOTsmIzk7JiM5OyYjOTsmIzk7JiM5O2MtMC4yLDIuNi0xLjMsMTAuNy0yLjQsMTIuM2MtMC45LDEuMy0xLjksMi44LTIuOCw1LjNDMzMuNiw2Ny45LDMzLjgsMTAwLjUsMzMuOCwxMDEuNXoiIGNsYXNzPSJzdDE3Ii8+JiN4YTsJCQkJCQkJCQkJPHBhdGggZD0iTTMzLjgsMTAxLjVoMS44YzAtMC4yLTAuMi0zMy41LDEuNy0zOC44YzAuOC0yLjMsMS44LTMuOCwyLjctNWMxLjItMS43LDIuNC05LjksMi42LTEyLjhsLTEuOC0wLjEmIzEwOyYjOTsmIzk7JiM5OyYjOTsmIzk7JiM5OyYjOTsmIzk7JiM5OyYjOTsmIzk7Yy0wLjIsMi42LTEuMywxMC43LTIuNCwxMi4zYy0wLjksMS4zLTEuOSwyLjgtMi44LDUuM0MzMy42LDY3LjksMzMuOCwxMDAuNSwzMy44LDEwMS41eiIgY2xhc3M9InN0MTgiLz4mI3hhOwkJCQkJCQkJCQk8cGF0aCBkPSJNMzMuOCwxMDEuNWgxLjhjMC0wLjItMC4yLTMzLjUsMS43LTM4LjhjMC44LTIuMywxLjgtMy44LDIuNy01YzEuMi0xLjcsMi40LTkuOSwyLjYtMTIuOGwtMS44LTAuMSYjMTA7JiM5OyYjOTsmIzk7JiM5OyYjOTsmIzk7JiM5OyYjOTsmIzk7JiM5OyYjOTtjLTAuMiwyLjYtMS4zLDEwLjctMi40LDEyLjNjLTAuOSwxLjMtMS45LDIuOC0yLjgsNS4zQzMzLjYsNjcuOCwzMy44LDEwMC41LDMzLjgsMTAxLjV6IiBjbGFzcz0ic3QxOSIvPiYjeGE7CQkJCQkJCQkJCTxwYXRoIGQ9Ik0zMy45LDEwMS41aDEuOGMwLTAuMi0wLjItMzMuNSwxLjctMzguOWMwLjgtMi4zLDEuOC0zLjgsMi43LTVjMS4yLTEuNywyLjQtOS45LDIuNi0xMi44bC0xLjgtMC4xJiMxMDsmIzk7JiM5OyYjOTsmIzk7JiM5OyYjOTsmIzk7JiM5OyYjOTsmIzk7JiM5O2MtMC4yLDIuNy0xLjMsMTAuNy0yLjQsMTIuM2MtMC45LDEuMy0xLjksMi44LTIuOCw1LjNDMzMuNiw2Ny44LDMzLjgsMTAwLjUsMzMuOSwxMDEuNXoiIGNsYXNzPSJzdDIwIi8+JiN4YTsJCQkJCQkJCQkJPHBhdGggZD0iTTMzLjksMTAxLjVoMS43YzAtMC4yLTAuMi0zMy41LDEuNy0zOC45YzAuOC0yLjMsMS44LTMuOCwyLjctNWMxLjItMS43LDIuNC05LjksMi42LTEyLjhsLTEuNy0wLjEmIzEwOyYjOTsmIzk7JiM5OyYjOTsmIzk7JiM5OyYjOTsmIzk7JiM5OyYjOTsmIzk7Yy0wLjIsMi43LTEuMywxMC43LTIuNCwxMi4zYy0wLjksMS4zLTEuOSwyLjgtMi44LDUuM0MzMy42LDY3LjgsMzMuOCwxMDAuNSwzMy45LDEwMS41eiIgY2xhc3M9InN0MjEiLz4mI3hhOwkJCQkJCQkJCQk8cGF0aCBkPSJNMzMuOSwxMDEuNWgxLjdjMC0wLjItMC4yLTMzLjUsMS43LTM4LjljMC44LTIuMywxLjgtMy44LDIuNy01YzEuMi0xLjcsMi40LTkuOSwyLjYtMTIuOGwtMS43LTAuMSYjMTA7JiM5OyYjOTsmIzk7JiM5OyYjOTsmIzk7JiM5OyYjOTsmIzk7JiM5OyYjOTtjLTAuMiwyLjctMS4zLDEwLjctMi40LDEyLjNjLTAuOSwxLjMtMS45LDIuOC0yLjgsNS4zQzMzLjYsNjcuOCwzMy44LDEwMC41LDMzLjksMTAxLjV6IiBjbGFzcz0ic3QyMiIvPiYjeGE7CQkJCQkJCQkJCTxwYXRoIGQ9Ik0zMy45LDEwMS41aDEuN2MwLTAuMi0wLjItMzMuNSwxLjctMzguOWMwLjgtMi4zLDEuOC0zLjgsMi43LTVjMS4yLTEuNywyLjQtOS45LDIuNi0xMi44bC0xLjctMC4xJiMxMDsmIzk7JiM5OyYjOTsmIzk7JiM5OyYjOTsmIzk7JiM5OyYjOTsmIzk7JiM5O2MtMC4yLDIuNy0xLjMsMTAuNy0yLjQsMTIuM2MtMC45LDEuMy0xLjksMi44LTIuOCw1LjNDMzMuNyw2Ny44LDMzLjksMTAwLjUsMzMuOSwxMDEuNXoiIGNsYXNzPSJzdDIzIi8+JiN4YTsJCQkJCQkJCQkJPHBhdGggZD0iTTMzLjksMTAxLjVoMS43YzAtMC4yLTAuMi0zMy41LDEuNy0zOC45YzAuOC0yLjMsMS44LTMuOCwyLjctNWMxLjItMS43LDIuNC05LjksMi42LTEyLjhsLTEuNy0wLjEmIzEwOyYjOTsmIzk7JiM5OyYjOTsmIzk7JiM5OyYjOTsmIzk7JiM5OyYjOTsmIzk7Yy0wLjIsMi43LTEuMywxMC43LTIuNCwxMi4zYy0wLjksMS4zLTEuOSwyLjgtMi44LDUuM0MzMy43LDY3LjgsMzMuOSwxMDAuNSwzMy45LDEwMS41eiIgY2xhc3M9InN0MjQiLz4mI3hhOwkJCQkJCQkJCQk8cGF0aCBkPSJNMzMuOSwxMDEuNWgxLjZjMC0wLjItMC4yLTMzLjUsMS43LTM4LjljMC44LTIuMywxLjgtMy44LDIuNy01YzEuMi0xLjcsMi40LTkuOSwyLjYtMTIuOGwtMS42LTAuMSYjMTA7JiM5OyYjOTsmIzk7JiM5OyYjOTsmIzk7JiM5OyYjOTsmIzk7JiM5OyYjOTtjLTAuMiwyLjctMS4zLDEwLjctMi40LDEyLjNjLTAuOSwxLjMtMS45LDIuOC0yLjgsNS4zQzMzLjcsNjcuOCwzMy45LDEwMC41LDMzLjksMTAxLjV6IiBjbGFzcz0ic3QyNSIvPiYjeGE7CQkJCQkJCQkJCTxwYXRoIGQ9Ik0zMy45LDEwMS41aDEuNmMwLTAuMi0wLjItMzMuNSwxLjctMzguOWMwLjgtMi4zLDEuOC0zLjgsMi43LTVjMS4yLTEuNywyLjQtOS45LDIuNi0xMi44bC0xLjYtMC4xJiMxMDsmIzk7JiM5OyYjOTsmIzk7JiM5OyYjOTsmIzk7JiM5OyYjOTsmIzk7JiM5O2MtMC4yLDIuNy0xLjMsMTAuNy0yLjQsMTIuM2MtMC45LDEuMy0xLjksMi44LTIuOCw1LjNDMzMuNyw2Ny44LDMzLjksMTAwLjUsMzMuOSwxMDEuNXoiIGNsYXNzPSJzdDI2Ii8+JiN4YTsJCQkJCQkJCQkJPHBhdGggZD0iTTMzLjksMTAxLjVoMS42YzAtMC4yLTAuMi0zMy41LDEuNy0zOC45YzAuOC0yLjMsMS44LTMuOCwyLjctNWMxLjItMS43LDIuNC05LjksMi42LTEyLjhsLTEuNi0wLjEmIzEwOyYjOTsmIzk7JiM5OyYjOTsmIzk7JiM5OyYjOTsmIzk7JiM5OyYjOTsmIzk7Yy0wLjIsMi43LTEuMywxMC43LTIuNCwxMi4zYy0wLjksMS4zLTEuOSwyLjgtMi44LDUuM0MzMy43LDY3LjgsMzMuOSwxMDAuNSwzMy45LDEwMS41eiIgY2xhc3M9InN0MjciLz4mI3hhOwkJCQkJCQkJCQk8cGF0aCBkPSJNMzMuOSwxMDEuNWgxLjZjMC0wLjItMC4yLTMzLjUsMS43LTM4LjljMC44LTIuMywxLjgtMy44LDIuNy01YzEuMi0xLjcsMi40LTkuOSwyLjYtMTIuOEw0MSw0NC43JiMxMDsmIzk7JiM5OyYjOTsmIzk7JiM5OyYjOTsmIzk7JiM5OyYjOTsmIzk7JiM5O2MtMC4yLDIuNy0xLjMsMTAuNy0yLjQsMTIuM2MtMC45LDEuMy0xLjksMi44LTIuOCw1LjNDMzMuNyw2Ny44LDMzLjksMTAwLjUsMzMuOSwxMDEuNXoiIGNsYXNzPSJzdDI4Ii8+JiN4YTsJCQkJCQkJCQkJPHBhdGggZD0iTTMzLjksMTAxLjVoMS42YzAtMC4yLTAuMi0zMy41LDEuNy0zOC45YzAuOC0yLjMsMS44LTMuOCwyLjctNWMxLjItMS43LDIuNC05LjksMi42LTEyLjhMNDEsNDQuNyYjMTA7JiM5OyYjOTsmIzk7JiM5OyYjOTsmIzk7JiM5OyYjOTsmIzk7JiM5OyYjOTtjLTAuMiwyLjctMS4zLDEwLjctMi40LDEyLjNjLTAuOSwxLjMtMS45LDIuOC0yLjgsNS4yQzMzLjcsNjcuOCwzMy45LDEwMC41LDMzLjksMTAxLjV6IiBjbGFzcz0ic3QyOSIvPiYjeGE7CQkJCQkJCQkJCTxwYXRoIGQ9Ik0zMy45LDEwMS41aDEuNWMwLTAuMi0wLjItMzMuNSwxLjctMzguOWMwLjgtMi40LDEuOC0zLjgsMi43LTVjMS4yLTEuNywyLjQtOS45LDIuNi0xMi44TDQxLDQ0LjcmIzEwOyYjOTsmIzk7JiM5OyYjOTsmIzk7JiM5OyYjOTsmIzk7JiM5OyYjOTsmIzk7Yy0wLjIsMi43LTEuMywxMC43LTIuNCwxMi4zYy0wLjksMS4zLTEuOSwyLjgtMi44LDUuMkMzMy43LDY3LjgsMzMuOSwxMDAuNSwzMy45LDEwMS41eiIgY2xhc3M9InN0MzAiLz4mI3hhOwkJCQkJCQkJCQk8cGF0aCBkPSJNMzMuOSwxMDEuNWgxLjVjMC0wLjItMC4yLTMzLjUsMS43LTM4LjljMC44LTIuNCwxLjgtMy44LDIuNy01YzEuMi0xLjcsMi40LTkuOSwyLjYtMTIuOEw0MSw0NC43JiMxMDsmIzk7JiM5OyYjOTsmIzk7JiM5OyYjOTsmIzk7JiM5OyYjOTsmIzk7JiM5O2MtMC4yLDIuNy0xLjMsMTAuNy0yLjQsMTIuM2MtMC45LDEuMy0yLDIuOC0yLjgsNS4yQzMzLjcsNjcuOCwzMy45LDEwMC41LDMzLjksMTAxLjV6IiBjbGFzcz0ic3QzMSIvPiYjeGE7CQkJCQkJCQkJCTxwYXRoIGQ9Ik0zNCwxMDEuNWgxLjVjMC0wLjItMC4yLTMzLjUsMS43LTM4LjljMC44LTIuNCwxLjgtMy44LDIuNy01YzEuMi0xLjcsMi40LTkuOSwyLjYtMTIuOEw0MSw0NC43JiMxMDsmIzk7JiM5OyYjOTsmIzk7JiM5OyYjOTsmIzk7JiM5OyYjOTsmIzk7JiM5O2MtMC4yLDIuNy0xLjMsMTAuNy0yLjQsMTIuM2MtMC45LDEuMy0yLDIuOC0yLjgsNS4yQzMzLjcsNjcuOCwzMy45LDEwMC41LDM0LDEwMS41eiIgY2xhc3M9InN0MzIiLz4mI3hhOwkJCQkJCQkJCQk8cGF0aCBkPSJNMzQsMTAxLjVoMS41YzAtMC4yLTAuMi0zMy41LDEuNy0zOC45YzAuOC0yLjQsMS44LTMuOCwyLjctNWMxLjItMS43LDIuNC05LjksMi42LTEyLjhMNDEsNDQuNyYjMTA7JiM5OyYjOTsmIzk7JiM5OyYjOTsmIzk7JiM5OyYjOTsmIzk7JiM5OyYjOTtjLTAuMiwyLjctMS4zLDEwLjctMi40LDEyLjNjLTAuOSwxLjMtMiwyLjgtMi44LDUuMkMzMy43LDY3LjgsMzMuOSwxMDAuNSwzNCwxMDEuNXoiIGNsYXNzPSJzdDMzIi8+JiN4YTsJCQkJCQkJCQkJPHBhdGggZD0iTTM0LDEwMS41aDEuNWMwLTAuMi0wLjItMzMuNSwxLjctMzguOWMwLjgtMi40LDEuOC0zLjgsMi43LTVjMS4yLTEuNywyLjQtOS45LDIuNi0xMi44TDQxLDQ0LjcmIzEwOyYjOTsmIzk7JiM5OyYjOTsmIzk7JiM5OyYjOTsmIzk7JiM5OyYjOTsmIzk7Yy0wLjIsMi43LTEuMywxMC43LTIuNCwxMi4zYy0wLjksMS4zLTIsMi44LTIuOCw1LjJDMzMuNyw2Ny44LDMzLjksMTAwLjUsMzQsMTAxLjV6IiBjbGFzcz0ic3QzNCIvPiYjeGE7CQkJCQkJCQkJCTxwYXRoIGQ9Ik0zNCwxMDEuNWgxLjRjMC0wLjItMC4yLTMzLjUsMS43LTM4LjljMC44LTIuNCwxLjktMy44LDIuNy01YzEuMi0xLjcsMi40LTkuOSwyLjYtMTIuOEw0MSw0NC43JiMxMDsmIzk7JiM5OyYjOTsmIzk7JiM5OyYjOTsmIzk7JiM5OyYjOTsmIzk7JiM5O2MtMC4yLDIuNy0xLjMsMTAuNy0yLjQsMTIuM2MtMC45LDEuMy0yLDIuOC0yLjgsNS4yQzMzLjcsNjcuOCwzNCwxMDAuNSwzNCwxMDEuNXoiIGNsYXNzPSJzdDM1Ii8+JiN4YTsJCQkJCQkJCQkJPHBhdGggZD0iTTM0LDEwMS41aDEuNGMwLTAuMi0wLjItMzMuNSwxLjctMzguOWMwLjgtMi40LDEuOS0zLjgsMi43LTVjMS4yLTEuNywyLjQtOS45LDIuNi0xMi43TDQxLDQ0LjcmIzEwOyYjOTsmIzk7JiM5OyYjOTsmIzk7JiM5OyYjOTsmIzk7JiM5OyYjOTsmIzk7Yy0wLjIsMi43LTEuMywxMC43LTIuNCwxMi4zYy0wLjksMS4zLTIsMi44LTIuOCw1LjJDMzMuNyw2Ny44LDM0LDEwMC41LDM0LDEwMS41eiIgY2xhc3M9InN0MzYiLz4mI3hhOwkJCQkJCQkJCQk8cGF0aCBkPSJNMzQsMTAxLjVoMS40YzAtMC4yLTAuMi0zMy41LDEuNy0zOC45YzAuOC0yLjQsMS45LTMuOCwyLjctNWMxLjItMS43LDIuNC05LjksMi42LTEyLjdMNDEsNDQuNyYjMTA7JiM5OyYjOTsmIzk7JiM5OyYjOTsmIzk7JiM5OyYjOTsmIzk7JiM5OyYjOTtjLTAuMiwyLjctMS4zLDEwLjctMi40LDEyLjNjLTAuOSwxLjMtMiwyLjgtMi44LDUuMkMzMy43LDY3LjgsMzQsMTAwLjUsMzQsMTAxLjV6IiBjbGFzcz0ic3QzNyIvPiYjeGE7CQkJCQkJCQkJCTxwYXRoIGQ9Ik0zNCwxMDEuNWgxLjRjMC0wLjItMC4yLTMzLjUsMS43LTM4LjljMC45LTIuNCwxLjktMy44LDIuNy01YzEuMi0xLjcsMi40LTkuOCwyLjYtMTIuN0w0MSw0NC43JiMxMDsmIzk7JiM5OyYjOTsmIzk7JiM5OyYjOTsmIzk7JiM5OyYjOTsmIzk7JiM5O2MtMC4yLDIuNy0xLjMsMTAuNy0yLjQsMTIuM2MtMC45LDEuMy0yLDIuOC0yLjgsNS4yQzMzLjgsNjcuOCwzNCwxMDAuNSwzNCwxMDEuNXoiIGNsYXNzPSJzdDM4Ii8+JiN4YTsJCQkJCQkJCQkJPHBhdGggZD0iTTM0LDEwMS41aDEuNGMwLTAuMi0wLjItMzMuNSwxLjctMzguOWMwLjktMi40LDEuOS0zLjgsMi43LTVjMS4yLTEuNywyLjQtOS44LDIuNi0xMi43TDQxLDQ0LjcmIzEwOyYjOTsmIzk7JiM5OyYjOTsmIzk7JiM5OyYjOTsmIzk7JiM5OyYjOTsmIzk7Yy0wLjIsMi43LTEuMywxMC43LTIuNCwxMi4zYy0wLjksMS4zLTIsMi44LTIuOCw1LjJDMzMuOCw2Ny44LDM0LDEwMC41LDM0LDEwMS41eiIgY2xhc3M9InN0MzkiLz4mI3hhOwkJCQkJCQkJCQk8cGF0aCBkPSJNMzQsMTAxLjVoMS4zYzAtMC4yLTAuMi0zMy41LDEuNy0zOC45YzAuOS0yLjQsMS45LTMuOCwyLjctNWMxLjItMS43LDIuNC05LjgsMi42LTEyLjdMNDEsNDQuOCYjMTA7JiM5OyYjOTsmIzk7JiM5OyYjOTsmIzk7JiM5OyYjOTsmIzk7JiM5OyYjOTtjLTAuMiwyLjctMS4zLDEwLjctMi40LDEyLjNjLTAuOSwxLjMtMiwyLjgtMi44LDUuMkMzMy44LDY3LjgsMzQsMTAwLjUsMzQsMTAxLjV6IiBjbGFzcz0ic3Q0MCIvPiYjeGE7CQkJCQkJCQkJCTxwYXRoIGQ9Ik0zNCwxMDEuNWgxLjNjMC0wLjItMC4zLTMzLjUsMS43LTM4LjljMC45LTIuNCwxLjktMy44LDIuNy01YzEuMi0xLjcsMi40LTkuOCwyLjYtMTIuN0w0MSw0NC44JiMxMDsmIzk7JiM5OyYjOTsmIzk7JiM5OyYjOTsmIzk7JiM5OyYjOTsmIzk7JiM5O2MtMC4yLDIuNy0xLjMsMTAuNy0yLjQsMTIuM2MtMC45LDEuMy0yLDIuOC0yLjgsNS4yQzMzLjgsNjcuOCwzNCwxMDAuNSwzNCwxMDEuNXoiIGNsYXNzPSJzdDQxIi8+JiN4YTsJCQkJCQkJCQkJPHBhdGggZD0iTTM0LDEwMS41aDEuM2MwLTAuMi0wLjMtMzMuNSwxLjctMzguOWMwLjktMi40LDEuOS0zLjgsMi43LTVjMS4yLTEuNywyLjQtOS44LDIuNi0xMi43TDQxLDQ0LjgmIzEwOyYjOTsmIzk7JiM5OyYjOTsmIzk7JiM5OyYjOTsmIzk7JiM5OyYjOTsmIzk7Yy0wLjIsMi43LTEuMywxMC43LTIuNCwxMi4zYy0wLjksMS4zLTIsMi44LTIuOCw1LjJDMzMuOCw2Ny44LDM0LDEwMC41LDM0LDEwMS41eiIgY2xhc3M9InN0NDIiLz4mI3hhOwkJCQkJCQkJCQk8cGF0aCBkPSJNMzQsMTAxLjVoMS4zYzAtMC4yLTAuMy0zMy41LDEuNy0zOC45YzAuOS0yLjQsMS45LTMuOCwyLjgtNWMxLjItMS43LDIuNC05LjgsMi42LTEyLjdsLTEuMy0wLjEmIzEwOyYjOTsmIzk7JiM5OyYjOTsmIzk7JiM5OyYjOTsmIzk7JiM5OyYjOTsmIzk7Yy0wLjIsMi43LTEuMywxMC43LTIuNSwxMi4zYy0wLjksMS4zLTIsMi44LTIuOCw1LjJDMzMuOCw2Ny44LDM0LDEwMC41LDM0LDEwMS41eiIgY2xhc3M9InN0NDMiLz4mI3hhOwkJCQkJCQkJCQk8cGF0aCBkPSJNMzQuMSwxMDEuNWgxLjNjMC0wLjItMC4zLTMzLjUsMS43LTM5YzAuOS0yLjQsMS45LTMuOCwyLjgtNWMxLjItMS43LDIuNC05LjgsMi42LTEyLjdsLTEuMy0wLjEmIzEwOyYjOTsmIzk7JiM5OyYjOTsmIzk7JiM5OyYjOTsmIzk7JiM5OyYjOTsmIzk7QzQxLDQ3LjQsMzkuOSw1NS40LDM4LjcsNTdjLTAuOSwxLjMtMiwyLjgtMi44LDUuMkMzMy44LDY3LjgsMzQsMTAwLjUsMzQuMSwxMDEuNXoiIGNsYXNzPSJzdDQ0Ii8+JiN4YTsJCQkJCQkJCQkJPHBhdGggZD0iTTM0LjEsMTAxLjVoMS4yYzAtMC4yLTAuMy0zMy42LDEuNy0zOWMwLjktMi40LDEuOS0zLjgsMi44LTVjMS4yLTEuNywyLjQtOS44LDIuNi0xMi43bC0xLjItMC4xJiMxMDsmIzk7JiM5OyYjOTsmIzk7JiM5OyYjOTsmIzk7JiM5OyYjOTsmIzk7JiM5O0M0MSw0Ny40LDM5LjksNTUuNCwzOC43LDU3Yy0wLjksMS4zLTIsMi44LTIuOCw1LjJDMzMuOCw2Ny44LDM0LDEwMC41LDM0LjEsMTAxLjV6IiBjbGFzcz0ic3Q0NSIvPiYjeGE7CQkJCQkJCQkJCTxwYXRoIGQ9Ik0zNC4xLDEwMS41aDEuMmMwLTAuMi0wLjMtMzMuNiwxLjctMzljMC45LTIuNCwxLjktMy44LDIuOC01YzEuMi0xLjcsMi40LTkuOCwyLjYtMTIuN2wtMS4yLTAuMSYjMTA7JiM5OyYjOTsmIzk7JiM5OyYjOTsmIzk7JiM5OyYjOTsmIzk7JiM5OyYjOTtDNDEsNDcuNCwzOS45LDU1LjQsMzguNyw1N2MtMC45LDEuMy0yLDIuOC0yLjgsNS4yQzMzLjgsNjcuOCwzNCwxMDAuNSwzNC4xLDEwMS41eiIgY2xhc3M9InN0NDYiLz4mI3hhOwkJCQkJCQkJCQk8cGF0aCBkPSJNMzQuMSwxMDEuNWgxLjJjMC0wLjItMC4zLTMzLjYsMS43LTM5YzAuOS0yLjQsMS45LTMuOCwyLjgtNWMxLjItMS43LDIuNC05LjgsMi42LTEyLjdsLTEuMi0wLjEmIzEwOyYjOTsmIzk7JiM5OyYjOTsmIzk7JiM5OyYjOTsmIzk7JiM5OyYjOTsmIzk7QzQxLDQ3LjQsMzkuOSw1NS40LDM4LjcsNTdjLTAuOSwxLjMtMiwyLjgtMi44LDUuMkMzMy44LDY3LjgsMzQuMSwxMDAuNSwzNC4xLDEwMS41eiIgY2xhc3M9InN0NDciLz4mI3hhOwkJCQkJCQkJCQk8cGF0aCBkPSJNMzQuMSwxMDEuNWgxLjJjMC0wLjItMC4zLTMzLjYsMS43LTM5YzAuOS0yLjQsMS45LTMuOCwyLjgtNWMxLjItMS42LDIuNC05LjgsMi42LTEyLjdsLTEuMi0wLjEmIzEwOyYjOTsmIzk7JiM5OyYjOTsmIzk7JiM5OyYjOTsmIzk7JiM5OyYjOTsmIzk7QzQxLDQ3LjQsMzkuOSw1NS40LDM4LjcsNTdjLTAuOSwxLjMtMiwyLjgtMi44LDUuMkMzMy44LDY3LjgsMzQuMSwxMDAuNSwzNC4xLDEwMS41eiIgY2xhc3M9InN0NDgiLz4mI3hhOwkJCQkJCQkJCQk8cGF0aCBkPSJNMzQuMSwxMDEuNWgxLjJjMC0wLjItMC4zLTMzLjYsMS43LTM5YzAuOS0yLjQsMS45LTMuOCwyLjgtNS4xYzEuMi0xLjYsMi40LTkuOCwyLjYtMTIuN2wtMS4yLTAuMSYjMTA7JiM5OyYjOTsmIzk7JiM5OyYjOTsmIzk7JiM5OyYjOTsmIzk7JiM5OyYjOTtjLTAuMiwyLjctMS4zLDEwLjctMi41LDEyLjNjLTAuOSwxLjMtMiwyLjgtMi44LDUuMkMzMy44LDY3LjgsMzQuMSwxMDAuNSwzNC4xLDEwMS41eiIgY2xhc3M9InN0NDkiLz4mI3hhOwkJCQkJCQkJCQk8cGF0aCBkPSJNMzQuMSwxMDEuNWgxLjFjMC0wLjItMC4zLTMzLjYsMS43LTM5YzAuOS0yLjQsMS45LTMuOCwyLjgtNS4xYzEuMi0xLjYsMi40LTkuOCwyLjYtMTIuN2wtMS4xLTAuMSYjMTA7JiM5OyYjOTsmIzk7JiM5OyYjOTsmIzk7JiM5OyYjOTsmIzk7JiM5OyYjOTtjLTAuMiwyLjctMS4zLDEwLjctMi41LDEyLjNjLTAuOSwxLjMtMiwyLjgtMi44LDUuMkMzMy44LDY3LjgsMzQuMSwxMDAuNSwzNC4xLDEwMS41eiIgY2xhc3M9InN0NTAiLz4mI3hhOwkJCQkJCQkJCQk8cGF0aCBkPSJNMzQuMSwxMDEuNWgxLjFjMC0wLjItMC4zLTMzLjYsMS43LTM5YzAuOS0yLjQsMS45LTMuOCwyLjgtNS4xYzEuMi0xLjYsMi40LTkuOCwyLjYtMTIuN2wtMS4xLTAuMSYjMTA7JiM5OyYjOTsmIzk7JiM5OyYjOTsmIzk7JiM5OyYjOTsmIzk7JiM5OyYjOTtjLTAuMiwyLjctMS4zLDEwLjctMi41LDEyLjNjLTAuOSwxLjMtMiwyLjgtMi44LDUuMkMzMy44LDY3LjgsMzQuMSwxMDAuNSwzNC4xLDEwMS41eiIgY2xhc3M9InN0NTEiLz4mI3hhOwkJCQkJCQkJCQk8cGF0aCBkPSJNMzQuMSwxMDEuNWgxLjFjMC0wLjItMC4zLTMzLjYsMS43LTM5YzAuOS0yLjQsMS45LTMuOCwyLjgtNS4xYzEuMi0xLjYsMi40LTkuOCwyLjYtMTIuN2wtMS4xLTAuMSYjMTA7JiM5OyYjOTsmIzk7JiM5OyYjOTsmIzk7JiM5OyYjOTsmIzk7JiM5OyYjOTtjLTAuMiwyLjctMS4zLDEwLjctMi41LDEyLjNjLTAuOSwxLjMtMiwyLjgtMi44LDUuMkMzMy44LDY3LjgsMzQuMSwxMDAuNSwzNC4xLDEwMS41eiIgY2xhc3M9InN0NTIiLz4mI3hhOwkJCQkJCQkJCQk8cGF0aCBkPSJNMzQuMSwxMDEuNWgxLjFjMC0wLjItMC4zLTMzLjYsMS43LTM5YzAuOS0yLjQsMS45LTMuOCwyLjgtNS4xYzEuMi0xLjYsMi40LTkuOCwyLjYtMTIuN2wtMS4xLTAuMSYjMTA7JiM5OyYjOTsmIzk7JiM5OyYjOTsmIzk7JiM5OyYjOTsmIzk7JiM5OyYjOTtjLTAuMiwyLjctMS4zLDEwLjctMi41LDEyLjNjLTAuOSwxLjMtMiwyLjgtMi44LDUuMkMzMy45LDY3LjgsMzQuMSwxMDAuNSwzNC4xLDEwMS41eiIgY2xhc3M9InN0NTMiLz4mI3hhOwkJCQkJCQkJCQk8cGF0aCBkPSJNMzQuMSwxMDEuNWgxYzAtMC4yLTAuMy0zMy42LDEuNy0zOWMwLjktMi40LDEuOS0zLjgsMi44LTUuMWMxLjItMS42LDIuNC05LjgsMi42LTEyLjdsLTEtMC4xJiMxMDsmIzk7JiM5OyYjOTsmIzk7JiM5OyYjOTsmIzk7JiM5OyYjOTsmIzk7JiM5O2MtMC4yLDIuNy0xLjMsMTAuNy0yLjUsMTIuM2MtMC45LDEuMy0yLDIuOC0yLjgsNS4yQzMzLjksNjcuOCwzNC4xLDEwMC41LDM0LjEsMTAxLjV6IiBjbGFzcz0ic3Q1NCIvPiYjeGE7CQkJCQkJCQkJCTxwYXRoIGQ9Ik0zNC4xLDEwMS41aDFjMC0wLjItMC4zLTMzLjYsMS43LTM5YzAuOS0yLjQsMS45LTMuOCwyLjgtNS4xYzEuMi0xLjYsMi40LTkuOCwyLjYtMTIuNmwtMS0wLjEmIzEwOyYjOTsmIzk7JiM5OyYjOTsmIzk7JiM5OyYjOTsmIzk7JiM5OyYjOTsmIzk7QzQxLDQ3LjQsMzkuOSw1NS40LDM4LjcsNTdjLTAuOSwxLjMtMiwyLjgtMi45LDUuMkMzMy45LDY3LjgsMzQuMSwxMDAuNSwzNC4xLDEwMS41eiIgY2xhc3M9InN0NTUiLz4mI3hhOwkJCQkJCQkJCQk8cGF0aCBkPSJNMzQuMiwxMDEuNWgxYzAtMC4yLTAuMy0zMy42LDEuNy0zOWMwLjktMi40LDEuOS0zLjgsMi44LTUuMWMxLjItMS42LDIuNC05LjgsMi42LTEyLjZoLTEmIzEwOyYjOTsmIzk7JiM5OyYjOTsmIzk7JiM5OyYjOTsmIzk7JiM5OyYjOTsmIzk7Yy0wLjIsMi43LTEuMywxMC43LTIuNSwxMi4zYy0wLjksMS4zLTIsMi43LTIuOSw1LjJDMzMuOSw2Ny44LDM0LjEsMTAwLjQsMzQuMiwxMDEuNXoiIGNsYXNzPSJzdDU2Ii8+JiN4YTsJCQkJCQkJCQkJPHBhdGggZD0iTTM0LjIsMTAxLjVoMWMwLTAuMi0wLjMtMzMuNiwxLjctMzljMC45LTIuNCwxLjktMy44LDIuOC01LjFjMS4yLTEuNiwyLjQtOS44LDIuNi0xMi42aC0xJiMxMDsmIzk7JiM5OyYjOTsmIzk7JiM5OyYjOTsmIzk7JiM5OyYjOTsmIzk7JiM5O2MtMC4yLDIuNy0xLjMsMTAuNy0yLjUsMTIuM2MtMC45LDEuMy0yLDIuNy0yLjksNS4yQzMzLjksNjcuOCwzNC4xLDEwMC40LDM0LjIsMTAxLjV6IiBjbGFzcz0ic3Q1NyIvPiYjeGE7CQkJCQkJCQkJCTxwYXRoIGQ9Ik0zNC4yLDEwMS41aDFjMC0wLjItMC4zLTMzLjYsMS43LTM5YzAuOS0yLjQsMS45LTMuOCwyLjgtNS4xYzEuMi0xLjYsMi40LTkuOCwyLjYtMTIuNmgtMSYjMTA7JiM5OyYjOTsmIzk7JiM5OyYjOTsmIzk7JiM5OyYjOTsmIzk7JiM5OyYjOTtjLTAuMiwyLjctMS4zLDEwLjctMi41LDEyLjNjLTAuOSwxLjMtMiwyLjctMi45LDUuMkMzMy45LDY3LjgsMzQuMSwxMDAuNCwzNC4yLDEwMS41eiIgY2xhc3M9InN0NTgiLz4mI3hhOwkJCQkJCQkJCQk8cGF0aCBkPSJNMzQuMiwxMDEuNWgwLjljMC0wLjItMC4zLTMzLjYsMS43LTM5YzAuOS0yLjQsMS45LTMuOCwyLjgtNS4xYzEuMi0xLjYsMi40LTkuOCwyLjYtMTIuNmgtMC45JiMxMDsmIzk7JiM5OyYjOTsmIzk7JiM5OyYjOTsmIzk7JiM5OyYjOTsmIzk7JiM5O2MtMC4yLDIuNy0xLjMsMTAuNy0yLjUsMTIuM2MtMC45LDEuMy0yLDIuNy0yLjksNS4yQzMzLjksNjcuOCwzNC4yLDEwMC40LDM0LjIsMTAxLjV6IiBjbGFzcz0ic3Q1OSIvPiYjeGE7CQkJCQkJCQkJCTxwYXRoIGQ9Ik0zNC4yLDEwMS41aDAuOWMwLTAuMi0wLjMtMzMuNiwxLjctMzljMC45LTIuNCwxLjktMy44LDIuOC01LjFjMS4yLTEuNiwyLjQtOS44LDIuNi0xMi42aC0wLjkmIzEwOyYjOTsmIzk7JiM5OyYjOTsmIzk7JiM5OyYjOTsmIzk7JiM5OyYjOTsmIzk7Yy0wLjIsMi43LTEuMywxMC43LTIuNSwxMi4zYy0wLjksMS4zLTIsMi43LTIuOSw1LjJDMzMuOSw2Ny44LDM0LjIsMTAwLjQsMzQuMiwxMDEuNXoiIGNsYXNzPSJzdDYwIi8+JiN4YTsJCQkJCQkJCQkJPHBhdGggZD0iTTM0LjIsMTAxLjVoMC45YzAtMC4yLTAuMy0zMy42LDEuNy0zOWMwLjktMi40LDEuOS0zLjgsMi44LTUuMWMxLjItMS42LDIuNC05LjgsMi42LTEyLjZoLTAuOSYjMTA7JiM5OyYjOTsmIzk7JiM5OyYjOTsmIzk7JiM5OyYjOTsmIzk7JiM5OyYjOTtjLTAuMiwyLjctMS4zLDEwLjctMi41LDEyLjNjLTAuOSwxLjMtMiwyLjctMi45LDUuMkMzMy45LDY3LjgsMzQuMiwxMDAuNCwzNC4yLDEwMS41eiIgY2xhc3M9InN0NjEiLz4mI3hhOwkJCQkJCQkJCQk8cGF0aCBkPSJNMzQuMiwxMDEuNWgwLjljMC0wLjItMC4zLTMzLjYsMS43LTM5YzAuOS0yLjQsMS45LTMuOCwyLjgtNS4xYzEuMi0xLjYsMi40LTkuOCwyLjYtMTIuNmgtMC45JiMxMDsmIzk7JiM5OyYjOTsmIzk7JiM5OyYjOTsmIzk7JiM5OyYjOTsmIzk7JiM5O2MtMC4yLDIuNy0xLjMsMTAuNy0yLjUsMTIuM2MtMC45LDEuMy0yLDIuNy0yLjksNS4yQzMzLjksNjcuOCwzNC4yLDEwMC40LDM0LjIsMTAxLjV6IiBjbGFzcz0ic3Q2MiIvPiYjeGE7CQkJCQkJCQkJCTxwYXRoIGQ9Ik0zNC4yLDEwMS41aDAuOWMwLTAuMi0wLjMtMzMuNiwxLjctMzljMC45LTIuNCwxLjktMy44LDIuOC01LjFjMS4yLTEuNiwyLjQtOS44LDIuNi0xMi42aC0wLjkmIzEwOyYjOTsmIzk7JiM5OyYjOTsmIzk7JiM5OyYjOTsmIzk7JiM5OyYjOTsmIzk7Yy0wLjIsMi43LTEuMywxMC43LTIuNSwxMi4zYy0wLjksMS4zLTIsMi43LTIuOSw1LjJDMzMuOSw2Ny44LDM0LjIsMTAwLjQsMzQuMiwxMDEuNXoiIGNsYXNzPSJzdDYzIi8+JiN4YTsJCQkJCQkJCQkJPHBhdGggZD0iTTM0LjIsMTAxLjVIMzVjMC0wLjItMC4zLTMzLjYsMS43LTM5YzAuOS0yLjQsMS45LTMuOCwyLjgtNS4xYzEuMi0xLjYsMi40LTkuOCwyLjYtMTIuNmgtMC44JiMxMDsmIzk7JiM5OyYjOTsmIzk7JiM5OyYjOTsmIzk7JiM5OyYjOTsmIzk7JiM5O2MtMC4yLDIuNy0xLjMsMTAuNy0yLjUsMTIuNGMtMC45LDEuMy0yLDIuNy0yLjksNS4yQzMzLjksNjcuOCwzNC4yLDEwMC40LDM0LjIsMTAxLjV6IiBjbGFzcz0ic3Q2NCIvPiYjeGE7CQkJCQkJCQkJCTxwYXRoIGQ9Ik0zNC4yLDEwMS41SDM1YzAtMC4yLTAuMy0zMy42LDEuNy0zOWMwLjktMi40LDEuOS0zLjgsMi44LTUuMWMxLjItMS42LDIuNC05LjgsMi42LTEyLjZoLTAuOCYjMTA7JiM5OyYjOTsmIzk7JiM5OyYjOTsmIzk7JiM5OyYjOTsmIzk7JiM5OyYjOTtjLTAuMiwyLjctMS4zLDEwLjctMi41LDEyLjRjLTAuOSwxLjMtMiwyLjctMi45LDUuMkMzMy45LDY3LjgsMzQuMiwxMDAuNCwzNC4yLDEwMS41eiIgY2xhc3M9InN0NjUiLz4mI3hhOwkJCQkJCQkJCQk8cGF0aCBkPSJNMzQuMiwxMDEuNUgzNWMwLTAuMi0wLjMtMzMuNiwxLjctMzljMC45LTIuNCwxLjktMy44LDIuOC01LjFjMS4yLTEuNiwyLjQtOS44LDIuNi0xMi42aC0wLjgmIzEwOyYjOTsmIzk7JiM5OyYjOTsmIzk7JiM5OyYjOTsmIzk7JiM5OyYjOTsmIzk7Yy0wLjIsMi43LTEuMywxMC43LTIuNSwxMi40Yy0wLjksMS4zLTIsMi43LTIuOSw1LjJDMzMuOSw2Ny44LDM0LjIsMTAwLjQsMzQuMiwxMDEuNXoiIGNsYXNzPSJzdDY2Ii8+JiN4YTsJCQkJCQkJCQkJPHBhdGggZD0iTTM0LjIsMTAxLjVIMzVjMC0wLjItMC4zLTMzLjYsMS43LTM5YzAuOS0yLjQsMS45LTMuOCwyLjgtNS4xYzEuMi0xLjYsMi40LTkuOCwyLjYtMTIuNmgtMC44JiMxMDsmIzk7JiM5OyYjOTsmIzk7JiM5OyYjOTsmIzk7JiM5OyYjOTsmIzk7JiM5O2MtMC4yLDIuNy0xLjMsMTAuNy0yLjUsMTIuNGMtMC45LDEuMy0yLDIuNy0yLjksNS4yQzMzLjksNjcuOCwzNC4yLDEwMC40LDM0LjIsMTAxLjV6IiBjbGFzcz0ic3Q2NyIvPiYjeGE7CQkJCQkJCQkJCTxwYXRoIGQ9Ik0zNC4zLDEwMS41aDAuOGMwLTAuMi0wLjMtMzMuNiwxLjctMzkuMWMwLjktMi40LDEuOS0zLjgsMi44LTUuMWMxLjItMS42LDIuNC05LjgsMi42LTEyLjZoLTAuOCYjMTA7JiM5OyYjOTsmIzk7JiM5OyYjOTsmIzk7JiM5OyYjOTsmIzk7JiM5OyYjOTtjLTAuMiwyLjctMS4zLDEwLjctMi41LDEyLjRjLTAuOSwxLjMtMiwyLjctMi45LDUuMkMzNCw2Ny44LDM0LjIsMTAwLjQsMzQuMywxMDEuNXoiIGNsYXNzPSJzdDY4Ii8+JiN4YTsJCQkJCQkJCQkJPHBhdGggZD0iTTM0LjMsMTAxLjVIMzVjMC0wLjItMC4zLTMzLjYsMS43LTM5LjFjMC45LTIuNCwxLjktMy44LDIuOC01LjFjMS4yLTEuNiwyLjQtOS44LDIuNi0xMi42aC0wLjcmIzEwOyYjOTsmIzk7JiM5OyYjOTsmIzk7JiM5OyYjOTsmIzk7JiM5OyYjOTsmIzk7Yy0wLjIsMi43LTEuMywxMC43LTIuNSwxMi40Yy0wLjksMS4zLTIsMi43LTIuOSw1LjJDMzQsNjcuOCwzNC4yLDEwMC40LDM0LjMsMTAxLjV6IiBjbGFzcz0ic3Q2OSIvPiYjeGE7CQkJCQkJCQkJCTxwYXRoIGQ9Ik0zNC4zLDEwMS41SDM1YzAtMC4yLTAuMy0zMy42LDEuNy0zOS4xYzAuOS0yLjQsMS45LTMuOCwyLjgtNS4xYzEuMi0xLjYsMi40LTkuOCwyLjYtMTIuNmgtMC43JiMxMDsmIzk7JiM5OyYjOTsmIzk7JiM5OyYjOTsmIzk7JiM5OyYjOTsmIzk7JiM5O2MtMC4yLDIuNy0xLjMsMTAuNy0yLjUsMTIuNGMtMC45LDEuMy0yLDIuNy0yLjksNS4yQzM0LDY3LjgsMzQuMiwxMDAuNCwzNC4zLDEwMS41eiIgY2xhc3M9InN0NzAiLz4mI3hhOwkJCQkJCQkJCQk8cGF0aCBkPSJNMzQuMywxMDEuNUgzNWMwLTAuMi0wLjMtMzMuNiwxLjctMzkuMWMwLjktMi40LDEuOS0zLjgsMi44LTUuMWMxLjItMS42LDIuNC05LjcsMi42LTEyLjZoLTAuNyYjMTA7JiM5OyYjOTsmIzk7JiM5OyYjOTsmIzk7JiM5OyYjOTsmIzk7JiM5OyYjOTtjLTAuMiwyLjctMS4zLDEwLjctMi41LDEyLjRjLTAuOSwxLjMtMiwyLjctMi45LDUuMkMzNCw2Ny44LDM0LjMsMTAwLjQsMzQuMywxMDEuNXoiIGNsYXNzPSJzdDcxIi8+JiN4YTsJCQkJCQkJCQkJPHBhdGggZD0iTTM0LjMsMTAxLjVIMzVjMC0wLjItMC4zLTMzLjYsMS43LTM5LjFjMC45LTIuNCwxLjktMy44LDIuOC01LjFjMS4yLTEuNiwyLjQtOS43LDIuNi0xMi42aC0wLjcmIzEwOyYjOTsmIzk7JiM5OyYjOTsmIzk7JiM5OyYjOTsmIzk7JiM5OyYjOTsmIzk7Yy0wLjIsMi43LTEuMywxMC43LTIuNSwxMi40Yy0wLjksMS4zLTIsMi43LTIuOSw1LjJDMzQsNjcuNywzNC4zLDEwMC40LDM0LjMsMTAxLjV6IiBjbGFzcz0ic3Q3MiIvPiYjeGE7CQkJCQkJCQkJCTxwYXRoIGQ9Ik0zNC4zLDEwMS41SDM1YzAtMC4yLTAuMy0zMy42LDEuNy0zOS4xYzAuOS0yLjQsMS45LTMuOCwyLjgtNS4xYzEuMi0xLjYsMi40LTkuNywyLjYtMTIuNmgtMC43JiMxMDsmIzk7JiM5OyYjOTsmIzk7JiM5OyYjOTsmIzk7JiM5OyYjOTsmIzk7JiM5O2MtMC4yLDIuNy0xLjMsMTAuNy0yLjUsMTIuNGMtMC45LDEuMy0yLDIuNy0yLjksNS4yQzM0LDY3LjcsMzQuMywxMDAuNCwzNC4zLDEwMS41eiIgY2xhc3M9InN0NzMiLz4mI3hhOwkJCQkJCQkJCQk8cGF0aCBkPSJNMzQuMywxMDEuNWgwLjZjMC0wLjItMC4zLTMzLjYsMS43LTM5LjFjMC45LTIuNCwxLjktMy44LDIuOC01LjFjMS4yLTEuNiwyLjQtOS43LDIuNi0xMi42aC0wLjYmIzEwOyYjOTsmIzk7JiM5OyYjOTsmIzk7JiM5OyYjOTsmIzk7JiM5OyYjOTsmIzk7Yy0wLjIsMi43LTEuMywxMC43LTIuNSwxMi40Yy0wLjksMS4zLTIsMi43LTIuOSw1LjJDMzQsNjcuNywzNC4zLDEwMC40LDM0LjMsMTAxLjV6IiBjbGFzcz0ic3Q3NCIvPiYjeGE7CQkJCQkJCQkJCTxwYXRoIGQ9Ik0zNC4zLDEwMS41aDAuNmMwLTAuMi0wLjMtMzMuNiwxLjYtMzkuMWMwLjktMi40LDEuOS0zLjgsMi44LTUuMWMxLjItMS42LDIuNC05LjcsMi42LTEyLjVoLTAuNiYjMTA7JiM5OyYjOTsmIzk7JiM5OyYjOTsmIzk7JiM5OyYjOTsmIzk7JiM5OyYjOTtjLTAuMiwyLjctMS4zLDEwLjctMi41LDEyLjRjLTAuOSwxLjMtMiwyLjctMi45LDUuMkMzNCw2Ny43LDM0LjMsMTAwLjQsMzQuMywxMDEuNXoiIGNsYXNzPSJzdDc1Ii8+JiN4YTsJCQkJCQkJCQkJPHBhdGggZD0iTTM0LjMsMTAxLjRoMC42YzAtMC4yLTAuMy0zMy42LDEuNi0zOS4xYzAuOS0yLjQsMS45LTMuOCwyLjgtNS4xYzEuMi0xLjYsMi40LTkuNywyLjYtMTIuNWgtMC42JiMxMDsmIzk7JiM5OyYjOTsmIzk7JiM5OyYjOTsmIzk7JiM5OyYjOTsmIzk7JiM5O2MtMC4yLDIuNy0xLjMsMTAuNy0yLjUsMTIuNGMtMC45LDEuMy0yLDIuNy0yLjksNS4yQzM0LDY3LjcsMzQuMywxMDAuNCwzNC4zLDEwMS40eiIgY2xhc3M9InN0NzYiLz4mI3hhOwkJCQkJCQkJCQk8cGF0aCBkPSJNMzQuMywxMDEuNGgwLjZjMC0wLjItMC4zLTMzLjcsMS42LTM5LjFjMC45LTIuNCwxLjktMy44LDIuOC01LjFjMS4yLTEuNiwyLjQtOS43LDIuNi0xMi41aC0wLjYmIzEwOyYjOTsmIzk7JiM5OyYjOTsmIzk7JiM5OyYjOTsmIzk7JiM5OyYjOTsmIzk7Yy0wLjIsMi43LTEuMywxMC43LTIuNSwxMi40Yy0wLjksMS4zLTIsMi43LTIuOSw1LjJDMzQsNjcuNywzNC4zLDEwMC40LDM0LjMsMTAxLjR6IiBjbGFzcz0ic3Q3NyIvPiYjeGE7CQkJCQkJCQkJCTxwYXRoIGQ9Ik0zNC4zLDEwMS40aDAuNmMwLTAuMi0wLjMtMzMuNywxLjYtMzkuMWMwLjktMi40LDEuOS0zLjgsMi44LTUuMWMxLjItMS42LDIuNC05LjcsMi42LTEyLjVoLTAuNiYjMTA7JiM5OyYjOTsmIzk7JiM5OyYjOTsmIzk7JiM5OyYjOTsmIzk7JiM5OyYjOTtjLTAuMiwyLjctMS4zLDEwLjctMi41LDEyLjRjLTAuOSwxLjMtMiwyLjctMi45LDUuMkMzNCw2Ny43LDM0LjMsMTAwLjQsMzQuMywxMDEuNHoiIGNsYXNzPSJzdDc4Ii8+JiN4YTsJCQkJCQkJCQkJPHBhdGggZD0iTTM0LjMsMTAxLjRoMC41YzAtMC4yLTAuMy0zMy43LDEuNi0zOS4xYzAuOS0yLjQsMS45LTMuOCwyLjgtNS4xYzEuMi0xLjYsMi40LTkuNywyLjYtMTIuNWgtMC41JiMxMDsmIzk7JiM5OyYjOTsmIzk7JiM5OyYjOTsmIzk7JiM5OyYjOTsmIzk7JiM5O2MtMC4yLDIuNy0xLjMsMTAuNy0yLjUsMTIuNGMtMC45LDEuMy0yLDIuNy0yLjksNS4yQzM0LDY3LjcsMzQuMywxMDAuNCwzNC4zLDEwMS40eiIgY2xhc3M9InN0NzkiLz4mI3hhOwkJCQkJCQkJCTwvZz4mI3hhOwkJCQkJCQkJPC9nPiYjeGE7CQkJCQkJCTwvZz4mI3hhOwkJCQkJCTwvZz4mI3hhOwkJCQkJPC9nPiYjeGE7CQkJCTwvZz4mI3hhOwkJCTwvZz4mI3hhOwkJPC9nPiYjeGE7CQk8Zz4mI3hhOwkJCTxnPiYjeGE7CQkJCTxnPiYjeGE7CQkJCQk8Zz4mI3hhOwkJCQkJCTxnPiYjeGE7CQkJCQkJCTxwYXRoIGQ9Ik0zNi4xLDEzLjJjMCwwLDExLjgsNC45LDE5LjgsMTkuMnMxMSwyNi44LDUuMSw0MS4zTDM2LjEsMTMuMnoiIGNsYXNzPSJzdDgwIi8+JiN4YTsJCQkJCQkJPGxpbmVhckdyYWRpZW50IHkyPSI5LjEzMDgiIHgyPSIzNS45MjI1IiB5MT0iODEuMTMwOCIgeDE9IjM1LjkyMjUiIGdyYWRpZW50VW5pdHM9InVzZXJTcGFjZU9uVXNlIiBpZD0iU1ZHSURfM18iPiYjeGE7CQkJCQkJCQk8c3RvcCBzdHlsZT0ic3RvcC1jb2xvcjojRTNFM0UzIiBvZmZzZXQ9IjAiLz4mI3hhOwkJCQkJCQkJPHN0b3Agc3R5bGU9InN0b3AtY29sb3I6I0VFRUVFRSIgb2Zmc2V0PSIwLjQ4NzIiLz4mI3hhOwkJCQkJCQkJPHN0b3Agc3R5bGU9InN0b3AtY29sb3I6I0Y1RjVGNSIgb2Zmc2V0PSIxIi8+JiN4YTsJCQkJCQkJPC9saW5lYXJHcmFkaWVudD4mI3hhOwkJCQkJCQk8cGF0aCBkPSJNNTUuOSwzNC4zYzEwLjUsMTkuMSwxMSwzOS4yLTAuMyw0NS4yQzQ1LDg1LjEsMjYsNzYsMTUuNSw1Ni45cy0xMC4xLTM5LjgsMS4xLTQ2UzQ1LjQsMTUuMiw1NS45LDM0LjMmIzEwOyYjOTsmIzk7JiM5OyYjOTsmIzk7JiM5OyYjOTsmIzk7eiIgY2xhc3M9InN0ODEiLz4mI3hhOwkJCQkJCQkmI3hhOwkJCQkJCQkJPHJhZGlhbEdyYWRpZW50IGdyYWRpZW50VW5pdHM9InVzZXJTcGFjZU9uVXNlIiBncmFkaWVudFRyYW5zZm9ybT0ibWF0cml4KDAuNTEzNyAwLjg1NzkgLTAuNTY5IDAuMzQwNyAzMi41NzM5IC0xNy43MTc5KSIgcj0iNzQuMzM3MiIgY3k9IjIzLjkwMTgiIGN4PSIzOS4wMTg0IiBpZD0iU1ZHSURfNF8iPiYjeGE7CQkJCQkJCQk8c3RvcCBzdHlsZT0ic3RvcC1jb2xvcjojRjFGMUYyO3N0b3Atb3BhY2l0eTowIiBvZmZzZXQ9IjAuNDA5OCIvPiYjeGE7CQkJCQkJCQk8c3RvcCBzdHlsZT0ic3RvcC1jb2xvcjojRUFFQkVDO3N0b3Atb3BhY2l0eTowLjM0OCIgb2Zmc2V0PSIwLjU1NjIiLz4mI3hhOwkJCQkJCQkJPHN0b3Agc3R5bGU9InN0b3AtY29sb3I6I0Q3RDlEQTtzdG9wLW9wYWNpdHk6MC44NDcxIiBvZmZzZXQ9IjAuNzY2MSIvPiYjeGE7CQkJCQkJCQk8c3RvcCBzdHlsZT0ic3RvcC1jb2xvcjojRDBEMkQzIiBvZmZzZXQ9IjAuODMwNSIvPiYjeGE7CQkJCQkJCTwvcmFkaWFsR3JhZGllbnQ+JiN4YTsJCQkJCQkJPHBhdGggZD0iTTU1LjksMzQuM2MxMC41LDE5LjEsMTEsMzkuMi0wLjMsNDUuMkM0NSw4NS4xLDI2LDc2LDE1LjUsNTYuOXMtMTAuMS0zOS44LDEuMS00NlM0NS40LDE1LjIsNTUuOSwzNC4zJiMxMDsmIzk7JiM5OyYjOTsmIzk7JiM5OyYjOTsmIzk7JiM5O3oiIGNsYXNzPSJzdDgyIi8+JiN4YTsJCQkJCQk8L2c+JiN4YTsJCQkJCTwvZz4mI3hhOwkJCQk8L2c+JiN4YTsJCQkJPGc+JiN4YTsJCQkJCTxnPiYjeGE7CQkJCQkJPGcgY2xhc3M9InN0ODMiPiYjeGE7CQkJCQkJCTxnPiYjeGE7CQkJCQkJCQk8bGluZWFyR3JhZGllbnQgeTI9IjM4LjI5NTYiIHgyPSIzNS4zOTMxIiB5MT0iNTkuNDMyOCIgeDE9IjIzLjE4OTUiIGdyYWRpZW50VW5pdHM9InVzZXJTcGFjZU9uVXNlIiBpZD0iU1ZHSURfNV8iPiYjeGE7CQkJCQkJCQkJPHN0b3Agc3R5bGU9InN0b3AtY29sb3I6I0ZDRkNGQyIgb2Zmc2V0PSIwIi8+JiN4YTsJCQkJCQkJCQk8c3RvcCBzdHlsZT0ic3RvcC1jb2xvcjojRjlGOUY5IiBvZmZzZXQ9IjAuMjE2Ii8+JiN4YTsJCQkJCQkJCQk8c3RvcCBzdHlsZT0ic3RvcC1jb2xvcjojRUVFRUVFIiBvZmZzZXQ9IjAuNDA3NSIvPiYjeGE7CQkJCQkJCQkJPHN0b3Agc3R5bGU9InN0b3AtY29sb3I6I0RDRENEQyIgb2Zmc2V0PSIwLjU4OTciLz4mI3hhOwkJCQkJCQkJCTxzdG9wIHN0eWxlPSJzdG9wLWNvbG9yOiNDMkMyQzIiIG9mZnNldD0iMC43NjYyIi8+JiN4YTsJCQkJCQkJCQk8c3RvcCBzdHlsZT0ic3RvcC1jb2xvcjojQTJBMkEyIiBvZmZzZXQ9IjAuOTM3MSIvPiYjeGE7CQkJCQkJCQkJPHN0b3Agc3R5bGU9InN0b3AtY29sb3I6Izk0OTQ5NCIgb2Zmc2V0PSIxIi8+JiN4YTsJCQkJCQkJCTwvbGluZWFyR3JhZGllbnQ+JiN4YTsJCQkJCQkJCTxwYXRoIGQ9Ik0zNy44LDQ0LjFjNC42LDguMyw0LjgsMTcuMSwwLDE5LjdjLTQuNiwyLjQtMTIuOC0xLjYtMTcuNC05LjlzLTQuNS0xNy40LDAuNC0yMCYjMTA7JiM5OyYjOTsmIzk7JiM5OyYjOTsmIzk7JiM5OyYjOTsmIzk7QzI1LjYsMzEuMiwzMy4yLDM1LjgsMzcuOCw0NC4xeiIgY2xhc3M9InN0ODQiLz4mI3hhOwkJCQkJCQk8L2c+JiN4YTsJCQkJCQk8L2c+JiN4YTsJCQkJCTwvZz4mI3hhOwkJCQkJPGc+JiN4YTsJCQkJCQk8bGluZWFyR3JhZGllbnQgeTI9IjM2LjAzOSIgeDI9IjIyLjYyNzkiIHkxPSI2MS40MTc2IiB4MT0iMzcuMjgwMyIgZ3JhZGllbnRVbml0cz0idXNlclNwYWNlT25Vc2UiIGlkPSJTVkdJRF82XyI+JiN4YTsJCQkJCQkJPHN0b3Agc3R5bGU9InN0b3AtY29sb3I6Izg3ODk4QiIgb2Zmc2V0PSIxLjk2OTA2OWUtMDIiLz4mI3hhOwkJCQkJCQk8c3RvcCBzdHlsZT0ic3RvcC1jb2xvcjojQTBBMkE0IiBvZmZzZXQ9IjAuMTY2MyIvPiYjeGE7CQkJCQkJCTxzdG9wIHN0eWxlPSJzdG9wLWNvbG9yOiNBM0E1QTYiIG9mZnNldD0iMC4xODgzIi8+JiN4YTsJCQkJCQkJPHN0b3Agc3R5bGU9InN0b3AtY29sb3I6I0RGRTBFMSIgb2Zmc2V0PSIwLjczODEiLz4mI3hhOwkJCQkJCQk8c3RvcCBzdHlsZT0ic3RvcC1jb2xvcjojRjdGN0Y4IiBvZmZzZXQ9IjEiLz4mI3hhOwkJCQkJCTwvbGluZWFyR3JhZGllbnQ+JiN4YTsJCQkJCQk8cGF0aCBkPSJNMzcuNSw0NC4yYzMuNSw1LjcsNC4xLDE0LjgtMC4xLDE3LjJjLTQuMywyLjQtMTEuMy0xLjUtMTUuMi04LjRzLTMuNy0xNC41LDAuNS0xN1MzMy41LDM3LjUsMzcuNSw0NC4yJiMxMDsmIzk7JiM5OyYjOTsmIzk7JiM5OyYjOTsmIzk7eiIgY2xhc3M9InN0ODUiLz4mI3hhOwkJCQkJCTxsaW5lYXJHcmFkaWVudCB5Mj0iMzkuNzcxNyIgeDI9IjM0LjQxOTEiIHkxPSI1OC4yNDk0IiB4MT0iMjMuNzUxIiBncmFkaWVudFVuaXRzPSJ1c2VyU3BhY2VPblVzZSIgaWQ9IlNWR0lEXzdfIj4mI3hhOwkJCQkJCQk8c3RvcCBzdHlsZT0ic3RvcC1jb2xvcjojRDRENEQ0IiBvZmZzZXQ9IjAiLz4mI3hhOwkJCQkJCQk8c3RvcCBzdHlsZT0ic3RvcC1jb2xvcjojRTJFMkUyIiBvZmZzZXQ9IjAuMjU0NCIvPiYjeGE7CQkJCQkJCTxzdG9wIHN0eWxlPSJzdG9wLWNvbG9yOiNGM0YzRjMiIG9mZnNldD0iMC42ODc5Ii8+JiN4YTsJCQkJCQkJPHN0b3Agc3R5bGU9InN0b3AtY29sb3I6I0ZBRkFGQSIgb2Zmc2V0PSIxIi8+JiN4YTsJCQkJCQk8L2xpbmVhckdyYWRpZW50PiYjeGE7CQkJCQkJPHBhdGggZD0iTTM2LjgsNDQuNmMzLjYsNiw0LjIsMTQuOCwwLDE3LjNzLTExLjItMS4yLTE1LjQtOC40cy00LTE1LDAuMy0xNy41QzI1LjksMzMuNSwzMi42LDM3LjcsMzYuOCw0NC42eiIgY2xhc3M9InN0ODYiLz4mI3hhOwkJCQkJCSYjeGE7CQkJCQkJCTxyYWRpYWxHcmFkaWVudCBncmFkaWVudFVuaXRzPSJ1c2VyU3BhY2VPblVzZSIgZ3JhZGllbnRUcmFuc2Zvcm09Im1hdHJpeCgwLjQ4NTYgMC44NzQyIC0wLjUwNDMgMC4yODAxIDM5LjUxODUgMTAuMzAxOSkiIHI9IjE1LjM5MzciIGN5PSI0OS4xMjMxIiBjeD0iMjguNjY3IiBpZD0iU1ZHSURfOF8iPiYjeGE7CQkJCQkJCTxzdG9wIHN0eWxlPSJzdG9wLWNvbG9yOiNGRkZGRkY7c3RvcC1vcGFjaXR5OjAiIG9mZnNldD0iMC45MzQ4Ii8+JiN4YTsJCQkJCQkJPHN0b3Agc3R5bGU9InN0b3AtY29sb3I6I0ZGRkZGRiIgb2Zmc2V0PSIxIi8+JiN4YTsJCQkJCQk8L3JhZGlhbEdyYWRpZW50PiYjeGE7CQkJCQkJPHBhdGggZD0iTTM2LjgsNDQuNmMzLjYsNiw0LjIsMTQuOCwwLDE3LjNzLTExLjItMS4yLTE1LjQtOC40cy00LTE1LDAuMy0xNy41QzI1LjksMzMuNSwzMi42LDM3LjcsMzYuOCw0NC42eiIgY2xhc3M9InN0ODciLz4mI3hhOwkJCQkJCTxnPiYjeGE7CQkJCQkJCTxnPiYjeGE7CQkJCQkJCQk8Zz4mI3hhOwkJCQkJCQkJCTxnPiYjeGE7CQkJCQkJCQkJCTxnPiYjeGE7CQkJCQkJCQkJCQkmI3hhOwkJCQkJCQkJCQkJCTxsaW5lYXJHcmFkaWVudCBncmFkaWVudFRyYW5zZm9ybT0ibWF0cml4KDEuMDIxMiAwLjY0OTggMi4wOTM1MTRlLTAzIDEgMTguMDMxOCAxMjMuMzI0MykiIHkyPSItODIuOTIxNCIgeDI9IjEwLjYzMTIiIHkxPSItNzkuNTU4NiIgeDE9IjEyLjU3MjciIGdyYWRpZW50VW5pdHM9InVzZXJTcGFjZU9uVXNlIiBpZD0iU1ZHSURfOV8iPiYjeGE7CQkJCQkJCQkJCQkJPHN0b3Agc3R5bGU9InN0b3AtY29sb3I6IzE2MTYxNiIgb2Zmc2V0PSIwIi8+JiN4YTsJCQkJCQkJCQkJCQk8c3RvcCBzdHlsZT0ic3RvcC1jb2xvcjojNDE0MTQxIiBvZmZzZXQ9IjAuNDQyNCIvPiYjeGE7CQkJCQkJCQkJCQkJPHN0b3Agc3R5bGU9InN0b3AtY29sb3I6IzU3NTc1NyIgb2Zmc2V0PSIwLjQ1NCIvPiYjeGE7CQkJCQkJCQkJCQkJPHN0b3Agc3R5bGU9InN0b3AtY29sb3I6IzdGN0Y3RiIgb2Zmc2V0PSIwLjQ3NzUiLz4mI3hhOwkJCQkJCQkJCQkJCTxzdG9wIHN0eWxlPSJzdG9wLWNvbG9yOiNBMUExQTEiIG9mZnNldD0iMC41MDMzIi8+JiN4YTsJCQkJCQkJCQkJCQk8c3RvcCBzdHlsZT0ic3RvcC1jb2xvcjojQkZCRkJGIiBvZmZzZXQ9IjAuNTMxNCIvPiYjeGE7CQkJCQkJCQkJCQkJPHN0b3Agc3R5bGU9InN0b3AtY29sb3I6I0Q2RDZENiIgb2Zmc2V0PSIwLjU2MjMiLz4mI3hhOwkJCQkJCQkJCQkJCTxzdG9wIHN0eWxlPSJzdG9wLWNvbG9yOiNFOUU5RTkiIG9mZnNldD0iMC41OTc1Ii8+JiN4YTsJCQkJCQkJCQkJCQk8c3RvcCBzdHlsZT0ic3RvcC1jb2xvcjojRjVGNUY1IiBvZmZzZXQ9IjAuNjM5MiIvPiYjeGE7CQkJCQkJCQkJCQkJPHN0b3Agc3R5bGU9InN0b3AtY29sb3I6I0ZERkRGRCIgb2Zmc2V0PSIwLjY5NCIvPiYjeGE7CQkJCQkJCQkJCQkJPHN0b3Agc3R5bGU9InN0b3AtY29sb3I6I0ZGRkZGRiIgb2Zmc2V0PSIwLjgxMjEiLz4mI3hhOwkJCQkJCQkJCQkJCTxzdG9wIHN0eWxlPSJzdG9wLWNvbG9yOiNFOUU5RTkiIG9mZnNldD0iMC44MTgiLz4mI3hhOwkJCQkJCQkJCQkJCTxzdG9wIHN0eWxlPSJzdG9wLWNvbG9yOiNDMUMxQzEiIG9mZnNldD0iMC44Mjk5Ii8+JiN4YTsJCQkJCQkJCQkJCQk8c3RvcCBzdHlsZT0ic3RvcC1jb2xvcjojOUY5RjlGIiBvZmZzZXQ9IjAuODQzMSIvPiYjeGE7CQkJCQkJCQkJCQkJPHN0b3Agc3R5bGU9InN0b3AtY29sb3I6IzgxODE4MSIgb2Zmc2V0PSIwLjg1NzMiLz4mI3hhOwkJCQkJCQkJCQkJCTxzdG9wIHN0eWxlPSJzdG9wLWNvbG9yOiM2QTZBNkEiIG9mZnNldD0iMC44NzMiLz4mI3hhOwkJCQkJCQkJCQkJCTxzdG9wIHN0eWxlPSJzdG9wLWNvbG9yOiM1NzU3NTciIG9mZnNldD0iMC44OTA5Ii8+JiN4YTsJCQkJCQkJCQkJCQk8c3RvcCBzdHlsZT0ic3RvcC1jb2xvcjojNEI0QjRCIiBvZmZzZXQ9IjAuOTEyMSIvPiYjeGE7CQkJCQkJCQkJCQkJPHN0b3Agc3R5bGU9InN0b3AtY29sb3I6IzQzNDM0MyIgb2Zmc2V0PSIwLjk0Ii8+JiN4YTsJCQkJCQkJCQkJCQk8c3RvcCBzdHlsZT0ic3RvcC1jb2xvcjojNDE0MTQxIiBvZmZzZXQ9IjEiLz4mI3hhOwkJCQkJCQkJCQkJPC9saW5lYXJHcmFkaWVudD4mI3hhOwkJCQkJCQkJCQkJPHBhdGggZD0iTTMwLjQsNTFsMC4xLTAuNGwwLTIuOWMtMS4zLTAuOC0xLjUtMC4yLTEuNSwwLjNsMCwzLjJjMCwwLjIsMCwwLjMsMCwwLjUmIzEwOyYjOTsmIzk7JiM5OyYjOTsmIzk7JiM5OyYjOTsmIzk7JiM5OyYjOTsmIzk7JiM5O0MyOS43LDUyLDMwLjIsNTEuOCwzMC40LDUxIiBjbGFzcz0ic3Q4OCIvPiYjeGE7CQkJCQkJCQkJCQkmI3hhOwkJCQkJCQkJCQkJCTxsaW5lYXJHcmFkaWVudCBncmFkaWVudFRyYW5zZm9ybT0ibWF0cml4KDEuMDIxMiAwLjY0OTggMi4wOTM1MTRlLTAzIDEgMTguMDMxOCAxMjMuMzI0MykiIHkyPSItODMuMDc4MiIgeDI9IjguNzMxNSIgeTE9Ii04Mi43MTg4IiB4MT0iOC45Mzg5IiBncmFkaWVudFVuaXRzPSJ1c2VyU3BhY2VPblVzZSIgaWQ9IlNWR0lEXzEwXyI+JiN4YTsJCQkJCQkJCQkJCQk8c3RvcCBzdHlsZT0ic3RvcC1jb2xvcjojMTYxNjE2IiBvZmZzZXQ9IjAiLz4mI3hhOwkJCQkJCQkJCQkJCTxzdG9wIHN0eWxlPSJzdG9wLWNvbG9yOiM0MTQxNDEiIG9mZnNldD0iMC40NDI0Ii8+JiN4YTsJCQkJCQkJCQkJCQk8c3RvcCBzdHlsZT0ic3RvcC1jb2xvcjojNTc1NzU3IiBvZmZzZXQ9IjAuNDU0Ii8+JiN4YTsJCQkJCQkJCQkJCQk8c3RvcCBzdHlsZT0ic3RvcC1jb2xvcjojN0Y3RjdGIiBvZmZzZXQ9IjAuNDc3NSIvPiYjeGE7CQkJCQkJCQkJCQkJPHN0b3Agc3R5bGU9InN0b3AtY29sb3I6I0ExQTFBMSIgb2Zmc2V0PSIwLjUwMzMiLz4mI3hhOwkJCQkJCQkJCQkJCTxzdG9wIHN0eWxlPSJzdG9wLWNvbG9yOiNCRkJGQkYiIG9mZnNldD0iMC41MzE0Ii8+JiN4YTsJCQkJCQkJCQkJCQk8c3RvcCBzdHlsZT0ic3RvcC1jb2xvcjojRDZENkQ2IiBvZmZzZXQ9IjAuNTYyMyIvPiYjeGE7CQkJCQkJCQkJCQkJPHN0b3Agc3R5bGU9InN0b3AtY29sb3I6I0U5RTlFOSIgb2Zmc2V0PSIwLjU5NzUiLz4mI3hhOwkJCQkJCQkJCQkJCTxzdG9wIHN0eWxlPSJzdG9wLWNvbG9yOiNGNUY1RjUiIG9mZnNldD0iMC42MzkyIi8+JiN4YTsJCQkJCQkJCQkJCQk8c3RvcCBzdHlsZT0ic3RvcC1jb2xvcjojRkRGREZEIiBvZmZzZXQ9IjAuNjk0Ii8+JiN4YTsJCQkJCQkJCQkJCQk8c3RvcCBzdHlsZT0ic3RvcC1jb2xvcjojRkZGRkZGIiBvZmZzZXQ9IjAuODEyMSIvPiYjeGE7CQkJCQkJCQkJCQkJPHN0b3Agc3R5bGU9InN0b3AtY29sb3I6I0U5RTlFOSIgb2Zmc2V0PSIwLjgxOCIvPiYjeGE7CQkJCQkJCQkJCQkJPHN0b3Agc3R5bGU9InN0b3AtY29sb3I6I0MxQzFDMSIgb2Zmc2V0PSIwLjgyOTkiLz4mI3hhOwkJCQkJCQkJCQkJCTxzdG9wIHN0eWxlPSJzdG9wLWNvbG9yOiM5RjlGOUYiIG9mZnNldD0iMC44NDMxIi8+JiN4YTsJCQkJCQkJCQkJCQk8c3RvcCBzdHlsZT0ic3RvcC1jb2xvcjojODE4MTgxIiBvZmZzZXQ9IjAuODU3MyIvPiYjeGE7CQkJCQkJCQkJCQkJPHN0b3Agc3R5bGU9InN0b3AtY29sb3I6IzZBNkE2QSIgb2Zmc2V0PSIwLjg3MyIvPiYjeGE7CQkJCQkJCQkJCQkJPHN0b3Agc3R5bGU9InN0b3AtY29sb3I6IzU3NTc1NyIgb2Zmc2V0PSIwLjg5MDkiLz4mI3hhOwkJCQkJCQkJCQkJCTxzdG9wIHN0eWxlPSJzdG9wLWNvbG9yOiM0QjRCNEIiIG9mZnNldD0iMC45MTIxIi8+JiN4YTsJCQkJCQkJCQkJCQk8c3RvcCBzdHlsZT0ic3RvcC1jb2xvcjojNDM0MzQzIiBvZmZzZXQ9IjAuOTQiLz4mI3hhOwkJCQkJCQkJCQkJCTxzdG9wIHN0eWxlPSJzdG9wLWNvbG9yOiM0MTQxNDEiIG9mZnNldD0iMSIvPiYjeGE7CQkJCQkJCQkJCQk8L2xpbmVhckdyYWRpZW50PiYjeGE7CQkJCQkJCQkJCQk8cG9seWdvbiBwb2ludHM9IjI3LDQ2LjQgMjYuNyw0Ni4yIDI2LjcsNDUuOSAyNyw0Ni4xIiBjbGFzcz0ic3Q4OSIvPiYjeGE7CQkJCQkJCQkJCQkmI3hhOwkJCQkJCQkJCQkJCTxsaW5lYXJHcmFkaWVudCBncmFkaWVudFRyYW5zZm9ybT0ibWF0cml4KDEuMDIxMiAwLjY0OTggMi4wOTM1MTRlLTAzIDEgMTguMDMxOCAxMjMuMzI0MykiIHkyPSItODIuNTkzNCIgeDI9IjkuMDE2MiIgeTE9Ii04Mi4yMzM5IiB4MT0iOS4yMjM3IiBncmFkaWVudFVuaXRzPSJ1c2VyU3BhY2VPblVzZSIgaWQ9IlNWR0lEXzExXyI+JiN4YTsJCQkJCQkJCQkJCQk8c3RvcCBzdHlsZT0ic3RvcC1jb2xvcjojMTYxNjE2IiBvZmZzZXQ9IjAiLz4mI3hhOwkJCQkJCQkJCQkJCTxzdG9wIHN0eWxlPSJzdG9wLWNvbG9yOiM0MTQxNDEiIG9mZnNldD0iMC40NDI0Ii8+JiN4YTsJCQkJCQkJCQkJCQk8c3RvcCBzdHlsZT0ic3RvcC1jb2xvcjojNTc1NzU3IiBvZmZzZXQ9IjAuNDU0Ii8+JiN4YTsJCQkJCQkJCQkJCQk8c3RvcCBzdHlsZT0ic3RvcC1jb2xvcjojN0Y3RjdGIiBvZmZzZXQ9IjAuNDc3NSIvPiYjeGE7CQkJCQkJCQkJCQkJPHN0b3Agc3R5bGU9InN0b3AtY29sb3I6I0ExQTFBMSIgb2Zmc2V0PSIwLjUwMzMiLz4mI3hhOwkJCQkJCQkJCQkJCTxzdG9wIHN0eWxlPSJzdG9wLWNvbG9yOiNCRkJGQkYiIG9mZnNldD0iMC41MzE0Ii8+JiN4YTsJCQkJCQkJCQkJCQk8c3RvcCBzdHlsZT0ic3RvcC1jb2xvcjojRDZENkQ2IiBvZmZzZXQ9IjAuNTYyMyIvPiYjeGE7CQkJCQkJCQkJCQkJPHN0b3Agc3R5bGU9InN0b3AtY29sb3I6I0U5RTlFOSIgb2Zmc2V0PSIwLjU5NzUiLz4mI3hhOwkJCQkJCQkJCQkJCTxzdG9wIHN0eWxlPSJzdG9wLWNvbG9yOiNGNUY1RjUiIG9mZnNldD0iMC42MzkyIi8+JiN4YTsJCQkJCQkJCQkJCQk8c3RvcCBzdHlsZT0ic3RvcC1jb2xvcjojRkRGREZEIiBvZmZzZXQ9IjAuNjk0Ii8+JiN4YTsJCQkJCQkJCQkJCQk8c3RvcCBzdHlsZT0ic3RvcC1jb2xvcjojRkZGRkZGIiBvZmZzZXQ9IjAuODEyMSIvPiYjeGE7CQkJCQkJCQkJCQkJPHN0b3Agc3R5bGU9InN0b3AtY29sb3I6I0U5RTlFOSIgb2Zmc2V0PSIwLjgxOCIvPiYjeGE7CQkJCQkJCQkJCQkJPHN0b3Agc3R5bGU9InN0b3AtY29sb3I6I0MxQzFDMSIgb2Zmc2V0PSIwLjgyOTkiLz4mI3hhOwkJCQkJCQkJCQkJCTxzdG9wIHN0eWxlPSJzdG9wLWNvbG9yOiM5RjlGOUYiIG9mZnNldD0iMC44NDMxIi8+JiN4YTsJCQkJCQkJCQkJCQk8c3RvcCBzdHlsZT0ic3RvcC1jb2xvcjojODE4MTgxIiBvZmZzZXQ9IjAuODU3MyIvPiYjeGE7CQkJCQkJCQkJCQkJPHN0b3Agc3R5bGU9InN0b3AtY29sb3I6IzZBNkE2QSIgb2Zmc2V0PSIwLjg3MyIvPiYjeGE7CQkJCQkJCQkJCQkJPHN0b3Agc3R5bGU9InN0b3AtY29sb3I6IzU3NTc1NyIgb2Zmc2V0PSIwLjg5MDkiLz4mI3hhOwkJCQkJCQkJCQkJCTxzdG9wIHN0eWxlPSJzdG9wLWNvbG9yOiM0QjRCNEIiIG9mZnNldD0iMC45MTIxIi8+JiN4YTsJCQkJCQkJCQkJCQk8c3RvcCBzdHlsZT0ic3RvcC1jb2xvcjojNDM0MzQzIiBvZmZzZXQ9IjAuOTQiLz4mI3hhOwkJCQkJCQkJCQkJCTxzdG9wIHN0eWxlPSJzdG9wLWNvbG9yOiM0MTQxNDEiIG9mZnNldD0iMSIvPiYjeGE7CQkJCQkJCQkJCQk8L2xpbmVhckdyYWRpZW50PiYjeGE7CQkJCQkJCQkJCQk8cG9seWdvbiBwb2ludHM9IjI3LjMsNDcuMSAyNyw0Ni45IDI3LDQ2LjYgMjcuMyw0Ni44IiBjbGFzcz0ic3Q5MCIvPiYjeGE7CQkJCQkJCQkJCQkmI3hhOwkJCQkJCQkJCQkJCTxsaW5lYXJHcmFkaWVudCBncmFkaWVudFRyYW5zZm9ybT0ibWF0cml4KDEuMDIxMiAwLjY0OTggMi4wOTM1MTRlLTAzIDEgMTguMDMxOCAxMjMuMzI0MykiIHkyPSItODIuMTU1OCIgeDI9IjguNzMxOSIgeTE9Ii04MS43OTc3IiB4MT0iOC45Mzg2IiBncmFkaWVudFVuaXRzPSJ1c2VyU3BhY2VPblVzZSIgaWQ9IlNWR0lEXzEyXyI+JiN4YTsJCQkJCQkJCQkJCQk8c3RvcCBzdHlsZT0ic3RvcC1jb2xvcjojMTYxNjE2IiBvZmZzZXQ9IjAiLz4mI3hhOwkJCQkJCQkJCQkJCTxzdG9wIHN0eWxlPSJzdG9wLWNvbG9yOiM0MTQxNDEiIG9mZnNldD0iMC40NDI0Ii8+JiN4YTsJCQkJCQkJCQkJCQk8c3RvcCBzdHlsZT0ic3RvcC1jb2xvcjojNTc1NzU3IiBvZmZzZXQ9IjAuNDU0Ii8+JiN4YTsJCQkJCQkJCQkJCQk8c3RvcCBzdHlsZT0ic3RvcC1jb2xvcjojN0Y3RjdGIiBvZmZzZXQ9IjAuNDc3NSIvPiYjeGE7CQkJCQkJCQkJCQkJPHN0b3Agc3R5bGU9InN0b3AtY29sb3I6I0ExQTFBMSIgb2Zmc2V0PSIwLjUwMzMiLz4mI3hhOwkJCQkJCQkJCQkJCTxzdG9wIHN0eWxlPSJzdG9wLWNvbG9yOiNCRkJGQkYiIG9mZnNldD0iMC41MzE0Ii8+JiN4YTsJCQkJCQkJCQkJCQk8c3RvcCBzdHlsZT0ic3RvcC1jb2xvcjojRDZENkQ2IiBvZmZzZXQ9IjAuNTYyMyIvPiYjeGE7CQkJCQkJCQkJCQkJPHN0b3Agc3R5bGU9InN0b3AtY29sb3I6I0U5RTlFOSIgb2Zmc2V0PSIwLjU5NzUiLz4mI3hhOwkJCQkJCQkJCQkJCTxzdG9wIHN0eWxlPSJzdG9wLWNvbG9yOiNGNUY1RjUiIG9mZnNldD0iMC42MzkyIi8+JiN4YTsJCQkJCQkJCQkJCQk8c3RvcCBzdHlsZT0ic3RvcC1jb2xvcjojRkRGREZEIiBvZmZzZXQ9IjAuNjk0Ii8+JiN4YTsJCQkJCQkJCQkJCQk8c3RvcCBzdHlsZT0ic3RvcC1jb2xvcjojRkZGRkZGIiBvZmZzZXQ9IjAuODEyMSIvPiYjeGE7CQkJCQkJCQkJCQkJPHN0b3Agc3R5bGU9InN0b3AtY29sb3I6I0U5RTlFOSIgb2Zmc2V0PSIwLjgxOCIvPiYjeGE7CQkJCQkJCQkJCQkJPHN0b3Agc3R5bGU9InN0b3AtY29sb3I6I0MxQzFDMSIgb2Zmc2V0PSIwLjgyOTkiLz4mI3hhOwkJCQkJCQkJCQkJCTxzdG9wIHN0eWxlPSJzdG9wLWNvbG9yOiM5RjlGOUYiIG9mZnNldD0iMC44NDMxIi8+JiN4YTsJCQkJCQkJCQkJCQk8c3RvcCBzdHlsZT0ic3RvcC1jb2xvcjojODE4MTgxIiBvZmZzZXQ9IjAuODU3MyIvPiYjeGE7CQkJCQkJCQkJCQkJPHN0b3Agc3R5bGU9InN0b3AtY29sb3I6IzZBNkE2QSIgb2Zmc2V0PSIwLjg3MyIvPiYjeGE7CQkJCQkJCQkJCQkJPHN0b3Agc3R5bGU9InN0b3AtY29sb3I6IzU3NTc1NyIgb2Zmc2V0PSIwLjg5MDkiLz4mI3hhOwkJCQkJCQkJCQkJCTxzdG9wIHN0eWxlPSJzdG9wLWNvbG9yOiM0QjRCNEIiIG9mZnNldD0iMC45MTIxIi8+JiN4YTsJCQkJCQkJCQkJCQk8c3RvcCBzdHlsZT0ic3RvcC1jb2xvcjojNDM0MzQzIiBvZmZzZXQ9IjAuOTQiLz4mI3hhOwkJCQkJCQkJCQkJCTxzdG9wIHN0eWxlPSJzdG9wLWNvbG9yOiM0MTQxNDEiIG9mZnNldD0iMSIvPiYjeGE7CQkJCQkJCQkJCQk8L2xpbmVhckdyYWRpZW50PiYjeGE7CQkJCQkJCQkJCQk8cG9seWdvbiBwb2ludHM9IjI3LDQ3LjMgMjYuNyw0Ny4yIDI2LjcsNDYuOCAyNyw0NyIgY2xhc3M9InN0OTEiLz4mI3hhOwkJCQkJCQkJCQkJJiN4YTsJCQkJCQkJCQkJCQk8bGluZWFyR3JhZGllbnQgZ3JhZGllbnRUcmFuc2Zvcm09Im1hdHJpeCgxLjAyMTIgMC42NDk4IDIuMDkzNTE0ZS0wMyAxIDE4LjAzMTggMTIzLjMyNDMpIiB5Mj0iLTgxLjYzODQiIHgyPSI4LjQ0NzMiIHkxPSItODEuMjgwMiIgeDE9IjguNjU0IiBncmFkaWVudFVuaXRzPSJ1c2VyU3BhY2VPblVzZSIgaWQ9IlNWR0lEXzEzXyI+JiN4YTsJCQkJCQkJCQkJCQk8c3RvcCBzdHlsZT0ic3RvcC1jb2xvcjojMTYxNjE2IiBvZmZzZXQ9IjAiLz4mI3hhOwkJCQkJCQkJCQkJCTxzdG9wIHN0eWxlPSJzdG9wLWNvbG9yOiM0MTQxNDEiIG9mZnNldD0iMC40NDI0Ii8+JiN4YTsJCQkJCQkJCQkJCQk8c3RvcCBzdHlsZT0ic3RvcC1jb2xvcjojNTc1NzU3IiBvZmZzZXQ9IjAuNDU0Ii8+JiN4YTsJCQkJCQkJCQkJCQk8c3RvcCBzdHlsZT0ic3RvcC1jb2xvcjojN0Y3RjdGIiBvZmZzZXQ9IjAuNDc3NSIvPiYjeGE7CQkJCQkJCQkJCQkJPHN0b3Agc3R5bGU9InN0b3AtY29sb3I6I0ExQTFBMSIgb2Zmc2V0PSIwLjUwMzMiLz4mI3hhOwkJCQkJCQkJCQkJCTxzdG9wIHN0eWxlPSJzdG9wLWNvbG9yOiNCRkJGQkYiIG9mZnNldD0iMC41MzE0Ii8+JiN4YTsJCQkJCQkJCQkJCQk8c3RvcCBzdHlsZT0ic3RvcC1jb2xvcjojRDZENkQ2IiBvZmZzZXQ9IjAuNTYyMyIvPiYjeGE7CQkJCQkJCQkJCQkJPHN0b3Agc3R5bGU9InN0b3AtY29sb3I6I0U5RTlFOSIgb2Zmc2V0PSIwLjU5NzUiLz4mI3hhOwkJCQkJCQkJCQkJCTxzdG9wIHN0eWxlPSJzdG9wLWNvbG9yOiNGNUY1RjUiIG9mZnNldD0iMC42MzkyIi8+JiN4YTsJCQkJCQkJCQkJCQk8c3RvcCBzdHlsZT0ic3RvcC1jb2xvcjojRkRGREZEIiBvZmZzZXQ9IjAuNjk0Ii8+JiN4YTsJCQkJCQkJCQkJCQk8c3RvcCBzdHlsZT0ic3RvcC1jb2xvcjojRkZGRkZGIiBvZmZzZXQ9IjAuODEyMSIvPiYjeGE7CQkJCQkJCQkJCQkJPHN0b3Agc3R5bGU9InN0b3AtY29sb3I6I0U5RTlFOSIgb2Zmc2V0PSIwLjgxOCIvPiYjeGE7CQkJCQkJCQkJCQkJPHN0b3Agc3R5bGU9InN0b3AtY29sb3I6I0MxQzFDMSIgb2Zmc2V0PSIwLjgyOTkiLz4mI3hhOwkJCQkJCQkJCQkJCTxzdG9wIHN0eWxlPSJzdG9wLWNvbG9yOiM5RjlGOUYiIG9mZnNldD0iMC44NDMxIi8+JiN4YTsJCQkJCQkJCQkJCQk8c3RvcCBzdHlsZT0ic3RvcC1jb2xvcjojODE4MTgxIiBvZmZzZXQ9IjAuODU3MyIvPiYjeGE7CQkJCQkJCQkJCQkJPHN0b3Agc3R5bGU9InN0b3AtY29sb3I6IzZBNkE2QSIgb2Zmc2V0PSIwLjg3MyIvPiYjeGE7CQkJCQkJCQkJCQkJPHN0b3Agc3R5bGU9InN0b3AtY29sb3I6IzU3NTc1NyIgb2Zmc2V0PSIwLjg5MDkiLz4mI3hhOwkJCQkJCQkJCQkJCTxzdG9wIHN0eWxlPSJzdG9wLWNvbG9yOiM0QjRCNEIiIG9mZnNldD0iMC45MTIxIi8+JiN4YTsJCQkJCQkJCQkJCQk8c3RvcCBzdHlsZT0ic3RvcC1jb2xvcjojNDM0MzQzIiBvZmZzZXQ9IjAuOTQiLz4mI3hhOwkJCQkJCQkJCQkJCTxzdG9wIHN0eWxlPSJzdG9wLWNvbG9yOiM0MTQxNDEiIG9mZnNldD0iMSIvPiYjeGE7CQkJCQkJCQkJCQk8L2xpbmVhckdyYWRpZW50PiYjeGE7CQkJCQkJCQkJCQk8cG9seWdvbiBwb2ludHM9IjI2LjcsNDcuNyAyNi40LDQ3LjUgMjYuNCw0Ny4yIDI2LjcsNDcuMyIgY2xhc3M9InN0OTIiLz4mI3hhOwkJCQkJCQkJCQkJJiN4YTsJCQkJCQkJCQkJCQk8bGluZWFyR3JhZGllbnQgZ3JhZGllbnRUcmFuc2Zvcm09Im1hdHJpeCgxLjAyMTIgMC42NDk4IDIuMDkzNTE0ZS0wMyAxIDE4LjAzMTggMTIzLjMyNDMpIiB5Mj0iLTgzLjM1OTciIHgyPSI3Ljg3NjkiIHkxPSItODIuOTk3NyIgeDE9IjguMDg1OSIgZ3JhZGllbnRVbml0cz0idXNlclNwYWNlT25Vc2UiIGlkPSJTVkdJRF8xNF8iPiYjeGE7CQkJCQkJCQkJCQkJPHN0b3Agc3R5bGU9InN0b3AtY29sb3I6IzE2MTYxNiIgb2Zmc2V0PSIwIi8+JiN4YTsJCQkJCQkJCQkJCQk8c3RvcCBzdHlsZT0ic3RvcC1jb2xvcjojNDE0MTQxIiBvZmZzZXQ9IjAuNDQyNCIvPiYjeGE7CQkJCQkJCQkJCQkJPHN0b3Agc3R5bGU9InN0b3AtY29sb3I6IzU3NTc1NyIgb2Zmc2V0PSIwLjQ1NCIvPiYjeGE7CQkJCQkJCQkJCQkJPHN0b3Agc3R5bGU9InN0b3AtY29sb3I6IzdGN0Y3RiIgb2Zmc2V0PSIwLjQ3NzUiLz4mI3hhOwkJCQkJCQkJCQkJCTxzdG9wIHN0eWxlPSJzdG9wLWNvbG9yOiNBMUExQTEiIG9mZnNldD0iMC41MDMzIi8+JiN4YTsJCQkJCQkJCQkJCQk8c3RvcCBzdHlsZT0ic3RvcC1jb2xvcjojQkZCRkJGIiBvZmZzZXQ9IjAuNTMxNCIvPiYjeGE7CQkJCQkJCQkJCQkJPHN0b3Agc3R5bGU9InN0b3AtY29sb3I6I0Q2RDZENiIgb2Zmc2V0PSIwLjU2MjMiLz4mI3hhOwkJCQkJCQkJCQkJCTxzdG9wIHN0eWxlPSJzdG9wLWNvbG9yOiNFOUU5RTkiIG9mZnNldD0iMC41OTc1Ii8+JiN4YTsJCQkJCQkJCQkJCQk8c3RvcCBzdHlsZT0ic3RvcC1jb2xvcjojRjVGNUY1IiBvZmZzZXQ9IjAuNjM5MiIvPiYjeGE7CQkJCQkJCQkJCQkJPHN0b3Agc3R5bGU9InN0b3AtY29sb3I6I0ZERkRGRCIgb2Zmc2V0PSIwLjY5NCIvPiYjeGE7CQkJCQkJCQkJCQkJPHN0b3Agc3R5bGU9InN0b3AtY29sb3I6I0ZGRkZGRiIgb2Zmc2V0PSIwLjgxMjEiLz4mI3hhOwkJCQkJCQkJCQkJCTxzdG9wIHN0eWxlPSJzdG9wLWNvbG9yOiNFOUU5RTkiIG9mZnNldD0iMC44MTgiLz4mI3hhOwkJCQkJCQkJCQkJCTxzdG9wIHN0eWxlPSJzdG9wLWNvbG9yOiNDMUMxQzEiIG9mZnNldD0iMC44Mjk5Ii8+JiN4YTsJCQkJCQkJCQkJCQk8c3RvcCBzdHlsZT0ic3RvcC1jb2xvcjojOUY5RjlGIiBvZmZzZXQ9IjAuODQzMSIvPiYjeGE7CQkJCQkJCQkJCQkJPHN0b3Agc3R5bGU9InN0b3AtY29sb3I6IzgxODE4MSIgb2Zmc2V0PSIwLjg1NzMiLz4mI3hhOwkJCQkJCQkJCQkJCTxzdG9wIHN0eWxlPSJzdG9wLWNvbG9yOiM2QTZBNkEiIG9mZnNldD0iMC44NzMiLz4mI3hhOwkJCQkJCQkJCQkJCTxzdG9wIHN0eWxlPSJzdG9wLWNvbG9yOiM1NzU3NTciIG9mZnNldD0iMC44OTA5Ii8+JiN4YTsJCQkJCQkJCQkJCQk8c3RvcCBzdHlsZT0ic3RvcC1jb2xvcjojNEI0QjRCIiBvZmZzZXQ9IjAuOTEyMSIvPiYjeGE7CQkJCQkJCQkJCQkJPHN0b3Agc3R5bGU9InN0b3AtY29sb3I6IzQzNDM0MyIgb2Zmc2V0PSIwLjk0Ii8+JiN4YTsJCQkJCQkJCQkJCQk8c3RvcCBzdHlsZT0ic3RvcC1jb2xvcjojNDE0MTQxIiBvZmZzZXQ9IjEiLz4mI3hhOwkJCQkJCQkJCQkJPC9saW5lYXJHcmFkaWVudD4mI3hhOwkJCQkJCQkJCQkJPHBvbHlnb24gcG9pbnRzPSIyNi4yLDQ1LjYgMjUuOSw0NS40IDI1LjksNDUuMSAyNi4yLDQ1LjIiIGNsYXNzPSJzdDkzIi8+JiN4YTsJCQkJCQkJCQkJCSYjeGE7CQkJCQkJCQkJCQkJPGxpbmVhckdyYWRpZW50IGdyYWRpZW50VHJhbnNmb3JtPSJtYXRyaXgoMS4wMjEyIDAuNjQ5OCAyLjA5MzUxNGUtMDMgMSAxOC4wMzE4IDEyMy4zMjQzKSIgeTI9Ii04Mi4xNzU1IiB4Mj0iNy40MjA1IiB5MT0iLTc3LjQ0OSIgeDE9IjEwLjE0OTQiIGdyYWRpZW50VW5pdHM9InVzZXJTcGFjZU9uVXNlIiBpZD0iU1ZHSURfMTVfIj4mI3hhOwkJCQkJCQkJCQkJCTxzdG9wIHN0eWxlPSJzdG9wLWNvbG9yOiMxNjE2MTYiIG9mZnNldD0iMCIvPiYjeGE7CQkJCQkJCQkJCQkJPHN0b3Agc3R5bGU9InN0b3AtY29sb3I6IzQxNDE0MSIgb2Zmc2V0PSIwLjQ0MjQiLz4mI3hhOwkJCQkJCQkJCQkJCTxzdG9wIHN0eWxlPSJzdG9wLWNvbG9yOiM1NzU3NTciIG9mZnNldD0iMC40NTQiLz4mI3hhOwkJCQkJCQkJCQkJCTxzdG9wIHN0eWxlPSJzdG9wLWNvbG9yOiM3RjdGN0YiIG9mZnNldD0iMC40Nzc1Ii8+JiN4YTsJCQkJCQkJCQkJCQk8c3RvcCBzdHlsZT0ic3RvcC1jb2xvcjojQTFBMUExIiBvZmZzZXQ9IjAuNTAzMyIvPiYjeGE7CQkJCQkJCQkJCQkJPHN0b3Agc3R5bGU9InN0b3AtY29sb3I6I0JGQkZCRiIgb2Zmc2V0PSIwLjUzMTQiLz4mI3hhOwkJCQkJCQkJCQkJCTxzdG9wIHN0eWxlPSJzdG9wLWNvbG9yOiNENkQ2RDYiIG9mZnNldD0iMC41NjIzIi8+JiN4YTsJCQkJCQkJCQkJCQk8c3RvcCBzdHlsZT0ic3RvcC1jb2xvcjojRTlFOUU5IiBvZmZzZXQ9IjAuNTk3NSIvPiYjeGE7CQkJCQkJCQkJCQkJPHN0b3Agc3R5bGU9InN0b3AtY29sb3I6I0Y1RjVGNSIgb2Zmc2V0PSIwLjYzOTIiLz4mI3hhOwkJCQkJCQkJCQkJCTxzdG9wIHN0eWxlPSJzdG9wLWNvbG9yOiNGREZERkQiIG9mZnNldD0iMC42OTQiLz4mI3hhOwkJCQkJCQkJCQkJCTxzdG9wIHN0eWxlPSJzdG9wLWNvbG9yOiNGRkZGRkYiIG9mZnNldD0iMC44MTIxIi8+JiN4YTsJCQkJCQkJCQkJCQk8c3RvcCBzdHlsZT0ic3RvcC1jb2xvcjojRTlFOUU5IiBvZmZzZXQ9IjAuODE4Ii8+JiN4YTsJCQkJCQkJCQkJCQk8c3RvcCBzdHlsZT0ic3RvcC1jb2xvcjojQzFDMUMxIiBvZmZzZXQ9IjAuODI5OSIvPiYjeGE7CQkJCQkJCQkJCQkJPHN0b3Agc3R5bGU9InN0b3AtY29sb3I6IzlGOUY5RiIgb2Zmc2V0PSIwLjg0MzEiLz4mI3hhOwkJCQkJCQkJCQkJCTxzdG9wIHN0eWxlPSJzdG9wLWNvbG9yOiM4MTgxODEiIG9mZnNldD0iMC44NTczIi8+JiN4YTsJCQkJCQkJCQkJCQk8c3RvcCBzdHlsZT0ic3RvcC1jb2xvcjojNkE2QTZBIiBvZmZzZXQ9IjAuODczIi8+JiN4YTsJCQkJCQkJCQkJCQk8c3RvcCBzdHlsZT0ic3RvcC1jb2xvcjojNTc1NzU3IiBvZmZzZXQ9IjAuODkwOSIvPiYjeGE7CQkJCQkJCQkJCQkJPHN0b3Agc3R5bGU9InN0b3AtY29sb3I6IzRCNEI0QiIgb2Zmc2V0PSIwLjkxMjEiLz4mI3hhOwkJCQkJCQkJCQkJCTxzdG9wIHN0eWxlPSJzdG9wLWNvbG9yOiM0MzQzNDMiIG9mZnNldD0iMC45NCIvPiYjeGE7CQkJCQkJCQkJCQkJPHN0b3Agc3R5bGU9InN0b3AtY29sb3I6IzQxNDE0MSIgb2Zmc2V0PSIxIi8+JiN4YTsJCQkJCQkJCQkJCTwvbGluZWFyR3JhZGllbnQ+JiN4YTsJCQkJCQkJCQkJCTxwYXRoIGQ9Ik0yNi40LDQ3LjhsMC4zLDAuMmwwLDAuN2wwLjMsMC4ybDAtMS4ybDAuMywwLjJsMCwyLjRjMCwxLjIsMC45LDIuMiwwLjksMi4yJiMxMDsmIzk7JiM5OyYjOTsmIzk7JiM5OyYjOTsmIzk7JiM5OyYjOTsmIzk7JiM5OyYjOTtjLTEuNS0wLjgtMi4zLTIuNC0yLjMtMy43bDAtMi43bDAuMywwLjJsMCwxLjhsMC4zLDAuMkwyNi40LDQ3Ljh6IiBjbGFzcz0ic3Q5NCIvPiYjeGE7CQkJCQkJCQkJCQkmI3hhOwkJCQkJCQkJCQkJCTxsaW5lYXJHcmFkaWVudCBncmFkaWVudFRyYW5zZm9ybT0ibWF0cml4KDEuMDIxMiAwLjY0OTggMi4wOTM1MTRlLTAzIDEgMTguMDMxOCAxMjMuMzI0MykiIHkyPSItNzkuNTA3NCIgeDI9IjEwLjgyMjQiIHkxPSItNzguMDE3IiB4MT0iMTEuNjgyOSIgZ3JhZGllbnRVbml0cz0idXNlclNwYWNlT25Vc2UiIGlkPSJTVkdJRF8xNl8iPiYjeGE7CQkJCQkJCQkJCQkJPHN0b3Agc3R5bGU9InN0b3AtY29sb3I6IzE2MTYxNiIgb2Zmc2V0PSIwIi8+JiN4YTsJCQkJCQkJCQkJCQk8c3RvcCBzdHlsZT0ic3RvcC1jb2xvcjojNDE0MTQxIiBvZmZzZXQ9IjAuNDQyNCIvPiYjeGE7CQkJCQkJCQkJCQkJPHN0b3Agc3R5bGU9InN0b3AtY29sb3I6IzU3NTc1NyIgb2Zmc2V0PSIwLjQ1NCIvPiYjeGE7CQkJCQkJCQkJCQkJPHN0b3Agc3R5bGU9InN0b3AtY29sb3I6IzdGN0Y3RiIgb2Zmc2V0PSIwLjQ3NzUiLz4mI3hhOwkJCQkJCQkJCQkJCTxzdG9wIHN0eWxlPSJzdG9wLWNvbG9yOiNBMUExQTEiIG9mZnNldD0iMC41MDMzIi8+JiN4YTsJCQkJCQkJCQkJCQk8c3RvcCBzdHlsZT0ic3RvcC1jb2xvcjojQkZCRkJGIiBvZmZzZXQ9IjAuNTMxNCIvPiYjeGE7CQkJCQkJCQkJCQkJPHN0b3Agc3R5bGU9InN0b3AtY29sb3I6I0Q2RDZENiIgb2Zmc2V0PSIwLjU2MjMiLz4mI3hhOwkJCQkJCQkJCQkJCTxzdG9wIHN0eWxlPSJzdG9wLWNvbG9yOiNFOUU5RTkiIG9mZnNldD0iMC41OTc1Ii8+JiN4YTsJCQkJCQkJCQkJCQk8c3RvcCBzdHlsZT0ic3RvcC1jb2xvcjojRjVGNUY1IiBvZmZzZXQ9IjAuNjM5MiIvPiYjeGE7CQkJCQkJCQkJCQkJPHN0b3Agc3R5bGU9InN0b3AtY29sb3I6I0ZERkRGRCIgb2Zmc2V0PSIwLjY5NCIvPiYjeGE7CQkJCQkJCQkJCQkJPHN0b3Agc3R5bGU9InN0b3AtY29sb3I6I0ZGRkZGRiIgb2Zmc2V0PSIwLjgxMjEiLz4mI3hhOwkJCQkJCQkJCQkJCTxzdG9wIHN0eWxlPSJzdG9wLWNvbG9yOiNFOUU5RTkiIG9mZnNldD0iMC44MTgiLz4mI3hhOwkJCQkJCQkJCQkJCTxzdG9wIHN0eWxlPSJzdG9wLWNvbG9yOiNDMUMxQzEiIG9mZnNldD0iMC44Mjk5Ii8+JiN4YTsJCQkJCQkJCQkJCQk8c3RvcCBzdHlsZT0ic3RvcC1jb2xvcjojOUY5RjlGIiBvZmZzZXQ9IjAuODQzMSIvPiYjeGE7CQkJCQkJCQkJCQkJPHN0b3Agc3R5bGU9InN0b3AtY29sb3I6IzgxODE4MSIgb2Zmc2V0PSIwLjg1NzMiLz4mI3hhOwkJCQkJCQkJCQkJCTxzdG9wIHN0eWxlPSJzdG9wLWNvbG9yOiM2QTZBNkEiIG9mZnNldD0iMC44NzMiLz4mI3hhOwkJCQkJCQkJCQkJCTxzdG9wIHN0eWxlPSJzdG9wLWNvbG9yOiM1NzU3NTciIG9mZnNldD0iMC44OTA5Ii8+JiN4YTsJCQkJCQkJCQkJCQk8c3RvcCBzdHlsZT0ic3RvcC1jb2xvcjojNEI0QjRCIiBvZmZzZXQ9IjAuOTEyMSIvPiYjeGE7CQkJCQkJCQkJCQkJPHN0b3Agc3R5bGU9InN0b3AtY29sb3I6IzQzNDM0MyIgb2Zmc2V0PSIwLjk0Ii8+JiN4YTsJCQkJCQkJCQkJCQk8c3RvcCBzdHlsZT0ic3RvcC1jb2xvcjojNDE0MTQxIiBvZmZzZXQ9IjEiLz4mI3hhOwkJCQkJCQkJCQkJPC9saW5lYXJHcmFkaWVudD4mI3hhOwkJCQkJCQkJCQkJPHBhdGggZD0iTTI4LjQsNTEuNmMtMC40LTAuMi0wLjctMC41LTAuOS0wLjhjMC4yLDAuOSwwLjcsMS42LDAuOCwxLjZsMC4yLDAuMmMxLjMsMC43LDIuMSwwLjEsMi4xLTEuMiYjMTA7JiM5OyYjOTsmIzk7JiM5OyYjOTsmIzk7JiM5OyYjOTsmIzk7JiM5OyYjOTsmIzk7bDAtMC4zQzMwLjIsNTIuMSwyOS41LDUyLjIsMjguNCw1MS42IiBjbGFzcz0ic3Q5NSIvPiYjeGE7CQkJCQkJCQkJCQkmI3hhOwkJCQkJCQkJCQkJCTxsaW5lYXJHcmFkaWVudCBncmFkaWVudFRyYW5zZm9ybT0ibWF0cml4KDEuMDIxMiAwLjY0OTggMi4wOTM1MTRlLTAzIDEgMTguMDMxOCAxMjMuMzI0MykiIHkyPSItODIuNzIyOSIgeDI9IjguNDQ3MiIgeTE9Ii04Mi4zNjUiIHgxPSI4LjY1MzkiIGdyYWRpZW50VW5pdHM9InVzZXJTcGFjZU9uVXNlIiBpZD0iU1ZHSURfMTdfIj4mI3hhOwkJCQkJCQkJCQkJCTxzdG9wIHN0eWxlPSJzdG9wLWNvbG9yOiMxNjE2MTYiIG9mZnNldD0iMCIvPiYjeGE7CQkJCQkJCQkJCQkJPHN0b3Agc3R5bGU9InN0b3AtY29sb3I6IzQxNDE0MSIgb2Zmc2V0PSIwLjQ0MjQiLz4mI3hhOwkJCQkJCQkJCQkJCTxzdG9wIHN0eWxlPSJzdG9wLWNvbG9yOiM1NzU3NTciIG9mZnNldD0iMC40NTQiLz4mI3hhOwkJCQkJCQkJCQkJCTxzdG9wIHN0eWxlPSJzdG9wLWNvbG9yOiM3RjdGN0YiIG9mZnNldD0iMC40Nzc1Ii8+JiN4YTsJCQkJCQkJCQkJCQk8c3RvcCBzdHlsZT0ic3RvcC1jb2xvcjojQTFBMUExIiBvZmZzZXQ9IjAuNTAzMyIvPiYjeGE7CQkJCQkJCQkJCQkJPHN0b3Agc3R5bGU9InN0b3AtY29sb3I6I0JGQkZCRiIgb2Zmc2V0PSIwLjUzMTQiLz4mI3hhOwkJCQkJCQkJCQkJCTxzdG9wIHN0eWxlPSJzdG9wLWNvbG9yOiNENkQ2RDYiIG9mZnNldD0iMC41NjIzIi8+JiN4YTsJCQkJCQkJCQkJCQk8c3RvcCBzdHlsZT0ic3RvcC1jb2xvcjojRTlFOUU5IiBvZmZzZXQ9IjAuNTk3NSIvPiYjeGE7CQkJCQkJCQkJCQkJPHN0b3Agc3R5bGU9InN0b3AtY29sb3I6I0Y1RjVGNSIgb2Zmc2V0PSIwLjYzOTIiLz4mI3hhOwkJCQkJCQkJCQkJCTxzdG9wIHN0eWxlPSJzdG9wLWNvbG9yOiNGREZERkQiIG9mZnNldD0iMC42OTQiLz4mI3hhOwkJCQkJCQkJCQkJCTxzdG9wIHN0eWxlPSJzdG9wLWNvbG9yOiNGRkZGRkYiIG9mZnNldD0iMC44MTIxIi8+JiN4YTsJCQkJCQkJCQkJCQk8c3RvcCBzdHlsZT0ic3RvcC1jb2xvcjojRTlFOUU5IiBvZmZzZXQ9IjAuODE4Ii8+JiN4YTsJCQkJCQkJCQkJCQk8c3RvcCBzdHlsZT0ic3RvcC1jb2xvcjojQzFDMUMxIiBvZmZzZXQ9IjAuODI5OSIvPiYjeGE7CQkJCQkJCQkJCQkJPHN0b3Agc3R5bGU9InN0b3AtY29sb3I6IzlGOUY5RiIgb2Zmc2V0PSIwLjg0MzEiLz4mI3hhOwkJCQkJCQkJCQkJCTxzdG9wIHN0eWxlPSJzdG9wLWNvbG9yOiM4MTgxODEiIG9mZnNldD0iMC44NTczIi8+JiN4YTsJCQkJCQkJCQkJCQk8c3RvcCBzdHlsZT0ic3RvcC1jb2xvcjojNkE2QTZBIiBvZmZzZXQ9IjAuODczIi8+JiN4YTsJCQkJCQkJCQkJCQk8c3RvcCBzdHlsZT0ic3RvcC1jb2xvcjojNTc1NzU3IiBvZmZzZXQ9IjAuODkwOSIvPiYjeGE7CQkJCQkJCQkJCQkJPHN0b3Agc3R5bGU9InN0b3AtY29sb3I6IzRCNEI0QiIgb2Zmc2V0PSIwLjkxMjEiLz4mI3hhOwkJCQkJCQkJCQkJCTxzdG9wIHN0eWxlPSJzdG9wLWNvbG9yOiM0MzQzNDMiIG9mZnNldD0iMC45NCIvPiYjeGE7CQkJCQkJCQkJCQkJPHN0b3Agc3R5bGU9InN0b3AtY29sb3I6IzQxNDE0MSIgb2Zmc2V0PSIxIi8+JiN4YTsJCQkJCQkJCQkJCTwvbGluZWFyR3JhZGllbnQ+JiN4YTsJCQkJCQkJCQkJCTxwb2x5Z29uIHBvaW50cz0iMjYuNyw0Ni42IDI2LjQsNDYuNCAyNi40LDQ2LjEgMjYuNyw0Ni4zIiBjbGFzcz0ic3Q5NiIvPiYjeGE7CQkJCQkJCQkJCTwvZz4mI3hhOwkJCQkJCQkJCTwvZz4mI3hhOwkJCQkJCQkJPC9nPiYjeGE7CQkJCQkJCTwvZz4mI3hhOwkJCQkJCQk8Zz4mI3hhOwkJCQkJCQkJPHBhdGggZD0iTTMwLjQsNTFsMC4xLTAuNGwwLTIuOWMtMS4zLTAuNy0xLjQtMC4yLTEuNCwwLjNsMCwzLjJjMCwwLjIsMCwwLjMsMCwwLjQmIzEwOyYjOTsmIzk7JiM5OyYjOTsmIzk7JiM5OyYjOTsmIzk7JiM5O0MyOS43LDUxLjksMzAuMSw1MS43LDMwLjQsNTF6IiBjbGFzcz0ic3Q5NyIvPiYjeGE7CQkJCQkJCQk8cG9seWdvbiBwb2ludHM9IjI3LDQ2LjEgMjYuOCw0NiAyNi44LDQ2LjIgMjcsNDYuNCIgY2xhc3M9InN0OTciLz4mI3hhOwkJCQkJCQkJPHBvbHlnb24gcG9pbnRzPSIyNy4xLDQ2LjkgMjcuMyw0NyAyNy4zLDQ2LjggMjcuMSw0Ni42IiBjbGFzcz0ic3Q5NyIvPiYjeGE7CQkJCQkJCQk8cG9seWdvbiBwb2ludHM9IjI3LDQ3IDI2LjgsNDYuOSAyNi44LDQ3LjIgMjcsNDcuMyIgY2xhc3M9InN0OTciLz4mI3hhOwkJCQkJCQkJPHBvbHlnb24gcG9pbnRzPSIyNi41LDQ3LjUgMjYuNyw0Ny42IDI2LjcsNDcuNCAyNi41LDQ3LjIiIGNsYXNzPSJzdDk3Ii8+JiN4YTsJCQkJCQkJCTxwb2x5Z29uIHBvaW50cz0iMjUuOSw0NS40IDI2LjEsNDUuNSAyNi4xLDQ1LjMgMjUuOSw0NS4xIiBjbGFzcz0ic3Q5NyIvPiYjeGE7CQkJCQkJCQk8cGF0aCBkPSJNMjcuMyw1MC4ybDAtMi40bC0wLjItMC4xbDAsMS4ybC0wLjQtMC4ybDAtMC43bC0wLjItMC4xbDAsMC4zTDI2LjEsNDhsMC0xLjhsLTAuMi0wLjFsMCwyLjcmIzEwOyYjOTsmIzk7JiM5OyYjOTsmIzk7JiM5OyYjOTsmIzk7JiM5O2MwLDEuNCwwLjksMi44LDIuMiwzLjZDMjcuOCw1MiwyNy4zLDUxLjIsMjcuMyw1MC4yeiIgY2xhc3M9InN0OTciLz4mI3hhOwkJCQkJCQkJPHBhdGggZD0iTTI4LjQsNTEuNmMtMC4zLTAuMi0wLjYtMC41LTAuOS0wLjhjMC4yLDAuOCwwLjcsMS41LDAuNywxLjVsMC4yLDAuMmMxLjIsMC42LDIsMC4yLDItMS4ybDAsMCYjMTA7JiM5OyYjOTsmIzk7JiM5OyYjOTsmIzk7JiM5OyYjOTsmIzk7QzMwLjEsNTIuMiwyOS40LDUyLjMsMjguNCw1MS42eiIgY2xhc3M9InN0OTciLz4mI3hhOwkJCQkJCQkJPHBvbHlnb24gcG9pbnRzPSIyNi41LDQ2LjQgMjYuNyw0Ni41IDI2LjcsNDYuMyAyNi41LDQ2LjEiIGNsYXNzPSJzdDk3Ii8+JiN4YTsJCQkJCQkJPC9nPiYjeGE7CQkJCQkJCTxnPiYjeGE7CQkJCQkJCQk8Zz4mI3hhOwkJCQkJCQkJCSYjeGE7CQkJCQkJCQkJCTxsaW5lYXJHcmFkaWVudCBncmFkaWVudFRyYW5zZm9ybT0ibWF0cml4KDEuMDIxMiAwLjY0OTggMi4wOTM1MTRlLTAzIDEgMTguMDMxOCAxMjMuMzI0MykiIHkyPSItNzguODAyNyIgeDI9IjEzLjI4MjIiIHkxPSItODMuNjYzMiIgeDE9IjkuOTI2MiIgZ3JhZGllbnRVbml0cz0idXNlclNwYWNlT25Vc2UiIGlkPSJTVkdJRF8xOF8iPiYjeGE7CQkJCQkJCQkJCTxzdG9wIHN0eWxlPSJzdG9wLWNvbG9yOiM5MjkyOTIiIG9mZnNldD0iMCIvPiYjeGE7CQkJCQkJCQkJCTxzdG9wIHN0eWxlPSJzdG9wLWNvbG9yOiM5MjkyOTIiIG9mZnNldD0iMC40OTU2Ii8+JiN4YTsJCQkJCQkJCQkJPHN0b3Agc3R5bGU9InN0b3AtY29sb3I6I0VERURFRCIgb2Zmc2V0PSIxIi8+JiN4YTsJCQkJCQkJCQk8L2xpbmVhckdyYWRpZW50PiYjeGE7CQkJCQkJCQkJPHBhdGggZD0iTTMwLjQsNTFsMC4xLTAuNGwwLTIuOWMtMS4zLTAuNy0xLjQtMC4yLTEuNCwwLjNsMCwzLjJjMCwwLjIsMCwwLjMsMCwwLjQmIzEwOyYjOTsmIzk7JiM5OyYjOTsmIzk7JiM5OyYjOTsmIzk7JiM5OyYjOTtDMjkuNyw1MS45LDMwLjEsNTEuNywzMC40LDUxeiIgY2xhc3M9InN0OTgiLz4mI3hhOwkJCQkJCQkJCSYjeGE7CQkJCQkJCQkJCTxsaW5lYXJHcmFkaWVudCBncmFkaWVudFRyYW5zZm9ybT0ibWF0cml4KDEuMDIxMiAwLjY0OTggMi4wOTM1MTRlLTAzIDEgMTguMDMxOCAxMjMuMzI0MykiIHkyPSItNzguMTk0NiIgeDI9IjEyLjA4MzEiIHkxPSItODIuNjIwNyIgeDE9IjkuMDI3IiBncmFkaWVudFVuaXRzPSJ1c2VyU3BhY2VPblVzZSIgaWQ9IlNWR0lEXzE5XyI+JiN4YTsJCQkJCQkJCQkJPHN0b3Agc3R5bGU9InN0b3AtY29sb3I6IzkyOTI5MiIgb2Zmc2V0PSIwIi8+JiN4YTsJCQkJCQkJCQkJPHN0b3Agc3R5bGU9InN0b3AtY29sb3I6IzkyOTI5MiIgb2Zmc2V0PSIwLjQ5NTYiLz4mI3hhOwkJCQkJCQkJCQk8c3RvcCBzdHlsZT0ic3RvcC1jb2xvcjojRURFREVEIiBvZmZzZXQ9IjEiLz4mI3hhOwkJCQkJCQkJCTwvbGluZWFyR3JhZGllbnQ+JiN4YTsJCQkJCQkJCQk8cG9seWdvbiBwb2ludHM9IjI3LDQ2LjEgMjYuOCw0NiAyNi44LDQ2LjIgMjcsNDYuNCIgY2xhc3M9InN0OTkiLz4mI3hhOwkJCQkJCQkJCSYjeGE7CQkJCQkJCQkJCTxsaW5lYXJHcmFkaWVudCBncmFkaWVudFRyYW5zZm9ybT0ibWF0cml4KDEuMDIxMiAwLjY0OTggMi4wOTM1MTRlLTAzIDEgMTguMDMxOCAxMjMuMzI0MykiIHkyPSItNzguMTU5NSIgeDI9IjEyLjA1NzQiIHkxPSItODIuNTg2MiIgeDE9IjkuMDAwOCIgZ3JhZGllbnRVbml0cz0idXNlclNwYWNlT25Vc2UiIGlkPSJTVkdJRF8yMF8iPiYjeGE7CQkJCQkJCQkJCTxzdG9wIHN0eWxlPSJzdG9wLWNvbG9yOiM5MjkyOTIiIG9mZnNldD0iMCIvPiYjeGE7CQkJCQkJCQkJCTxzdG9wIHN0eWxlPSJzdG9wLWNvbG9yOiM5MjkyOTIiIG9mZnNldD0iMC40OTU2Ii8+JiN4YTsJCQkJCQkJCQkJPHN0b3Agc3R5bGU9InN0b3AtY29sb3I6I0VERURFRCIgb2Zmc2V0PSIxIi8+JiN4YTsJCQkJCQkJCQk8L2xpbmVhckdyYWRpZW50PiYjeGE7CQkJCQkJCQkJPHBvbHlnb24gcG9pbnRzPSIyNy4xLDQ2LjkgMjcuMyw0NyAyNy4zLDQ2LjggMjcuMSw0Ni42IiBjbGFzcz0ic3QxMDAiLz4mI3hhOwkJCQkJCQkJCSYjeGE7CQkJCQkJCQkJCTxsaW5lYXJHcmFkaWVudCBncmFkaWVudFRyYW5zZm9ybT0ibWF0cml4KDEuMDIxMiAwLjY0OTggMi4wOTM1MTRlLTAzIDEgMTguMDMxOCAxMjMuMzI0MykiIHkyPSItNzcuODMzMSIgeDI9IjExLjY5NjMiIHkxPSItODIuMjYzNSIgeDE9IjguNjM3MiIgZ3JhZGllbnRVbml0cz0idXNlclNwYWNlT25Vc2UiIGlkPSJTVkdJRF8yMV8iPiYjeGE7CQkJCQkJCQkJCTxzdG9wIHN0eWxlPSJzdG9wLWNvbG9yOiM5MjkyOTIiIG9mZnNldD0iMCIvPiYjeGE7CQkJCQkJCQkJCTxzdG9wIHN0eWxlPSJzdG9wLWNvbG9yOiM5MjkyOTIiIG9mZnNldD0iMC40OTU2Ii8+JiN4YTsJCQkJCQkJCQkJPHN0b3Agc3R5bGU9InN0b3AtY29sb3I6I0VERURFRCIgb2Zmc2V0PSIxIi8+JiN4YTsJCQkJCQkJCQk8L2xpbmVhckdyYWRpZW50PiYjeGE7CQkJCQkJCQkJPHBvbHlnb24gcG9pbnRzPSIyNyw0NyAyNi44LDQ2LjkgMjYuOCw0Ny4yIDI3LDQ3LjMiIGNsYXNzPSJzdDEwMSIvPiYjeGE7CQkJCQkJCQkJJiN4YTsJCQkJCQkJCQkJPGxpbmVhckdyYWRpZW50IGdyYWRpZW50VHJhbnNmb3JtPSJtYXRyaXgoMS4wMjEyIDAuNjQ5OCAyLjA5MzUxNGUtMDMgMSAxOC4wMzE4IDEyMy4zMjQzKSIgeTI9Ii03Ny40NzkiIHgyPSIxMS4yOTg5IiB5MT0iLTgxLjkwOTciIHgxPSI4LjIzOTYiIGdyYWRpZW50VW5pdHM9InVzZXJTcGFjZU9uVXNlIiBpZD0iU1ZHSURfMjJfIj4mI3hhOwkJCQkJCQkJCQk8c3RvcCBzdHlsZT0ic3RvcC1jb2xvcjojOTI5MjkyIiBvZmZzZXQ9IjAiLz4mI3hhOwkJCQkJCQkJCQk8c3RvcCBzdHlsZT0ic3RvcC1jb2xvcjojOTI5MjkyIiBvZmZzZXQ9IjAuNDk1NiIvPiYjeGE7CQkJCQkJCQkJCTxzdG9wIHN0eWxlPSJzdG9wLWNvbG9yOiNFREVERUQiIG9mZnNldD0iMSIvPiYjeGE7CQkJCQkJCQkJPC9saW5lYXJHcmFkaWVudD4mI3hhOwkJCQkJCQkJCTxwb2x5Z29uIHBvaW50cz0iMjYuNSw0Ny41IDI2LjcsNDcuNiAyNi43LDQ3LjQgMjYuNSw0Ny4yIiBjbGFzcz0ic3QxMDIiLz4mI3hhOwkJCQkJCQkJCSYjeGE7CQkJCQkJCQkJCTxsaW5lYXJHcmFkaWVudCBncmFkaWVudFRyYW5zZm9ybT0ibWF0cml4KDEuMDIxMiAwLjY0OTggMi4wOTM1MTRlLTAzIDEgMTguMDMxOCAxMjMuMzI0MykiIHkyPSItNzcuODM4IiB4Mj0iMTEuNjY5IiB5MT0iLTgyLjI2ODMiIHgxPSI4LjYxIiBncmFkaWVudFVuaXRzPSJ1c2VyU3BhY2VPblVzZSIgaWQ9IlNWR0lEXzIzXyI+JiN4YTsJCQkJCQkJCQkJPHN0b3Agc3R5bGU9InN0b3AtY29sb3I6IzkyOTI5MiIgb2Zmc2V0PSIwIi8+JiN4YTsJCQkJCQkJCQkJPHN0b3Agc3R5bGU9InN0b3AtY29sb3I6IzkyOTI5MiIgb2Zmc2V0PSIwLjQ5NTYiLz4mI3hhOwkJCQkJCQkJCQk8c3RvcCBzdHlsZT0ic3RvcC1jb2xvcjojRURFREVEIiBvZmZzZXQ9IjEiLz4mI3hhOwkJCQkJCQkJCTwvbGluZWFyR3JhZGllbnQ+JiN4YTsJCQkJCQkJCQk8cG9seWdvbiBwb2ludHM9IjI1LjksNDUuNCAyNi4xLDQ1LjUgMjYuMSw0NS4zIDI1LjksNDUuMSIgY2xhc3M9InN0MTAzIi8+JiN4YTsJCQkJCQkJCQkmI3hhOwkJCQkJCQkJCQk8bGluZWFyR3JhZGllbnQgZ3JhZGllbnRUcmFuc2Zvcm09Im1hdHJpeCgxLjAyMTIgMC42NDk4IDIuMDkzNTE0ZS0wMyAxIDE4LjAzMTggMTIzLjMyNDMpIiB5Mj0iLTc2Ljg3NjEiIHgyPSIxMC44MTU2IiB5MT0iLTgxLjQ4MDYiIHgxPSI3LjYzNjMiIGdyYWRpZW50VW5pdHM9InVzZXJTcGFjZU9uVXNlIiBpZD0iU1ZHSURfMjRfIj4mI3hhOwkJCQkJCQkJCQk8c3RvcCBzdHlsZT0ic3RvcC1jb2xvcjojOTI5MjkyIiBvZmZzZXQ9IjAiLz4mI3hhOwkJCQkJCQkJCQk8c3RvcCBzdHlsZT0ic3RvcC1jb2xvcjojOTI5MjkyIiBvZmZzZXQ9IjAuNDk1NiIvPiYjeGE7CQkJCQkJCQkJCTxzdG9wIHN0eWxlPSJzdG9wLWNvbG9yOiNFREVERUQiIG9mZnNldD0iMSIvPiYjeGE7CQkJCQkJCQkJPC9saW5lYXJHcmFkaWVudD4mI3hhOwkJCQkJCQkJCTxwYXRoIGQ9Ik0yNy4zLDUwLjJsMC0yLjRsLTAuMi0wLjFsMCwxLjJsLTAuNC0wLjJsMC0wLjdsLTAuMi0wLjFsMCwwLjNMMjYuMSw0OGwwLTEuOGwtMC4yLTAuMWwwLDIuNyYjMTA7JiM5OyYjOTsmIzk7JiM5OyYjOTsmIzk7JiM5OyYjOTsmIzk7JiM5O2MwLDEuNCwwLjksMi44LDIuMiwzLjZDMjcuOCw1MiwyNy4zLDUxLjIsMjcuMyw1MC4yeiIgY2xhc3M9InN0MTA0Ii8+JiN4YTsJCQkJCQkJCQkmI3hhOwkJCQkJCQkJCQk8bGluZWFyR3JhZGllbnQgZ3JhZGllbnRUcmFuc2Zvcm09Im1hdHJpeCgxLjAyMTIgMC42NDk4IDIuMDkzNTE0ZS0wMyAxIDE4LjAzMTggMTIzLjMyNDMpIiB5Mj0iLTc3Ljg1ODciIHgyPSIxMS44NDQ4IiB5MT0iLTgxLjk4NzciIHgxPSI4Ljk5MzgiIGdyYWRpZW50VW5pdHM9InVzZXJTcGFjZU9uVXNlIiBpZD0iU1ZHSURfMjVfIj4mI3hhOwkJCQkJCQkJCQk8c3RvcCBzdHlsZT0ic3RvcC1jb2xvcjojOTI5MjkyIiBvZmZzZXQ9IjAiLz4mI3hhOwkJCQkJCQkJCQk8c3RvcCBzdHlsZT0ic3RvcC1jb2xvcjojOTI5MjkyIiBvZmZzZXQ9IjAuNDk1NiIvPiYjeGE7CQkJCQkJCQkJCTxzdG9wIHN0eWxlPSJzdG9wLWNvbG9yOiNFREVERUQiIG9mZnNldD0iMSIvPiYjeGE7CQkJCQkJCQkJPC9saW5lYXJHcmFkaWVudD4mI3hhOwkJCQkJCQkJCTxwYXRoIGQ9Ik0yOC40LDUxLjZjLTAuMy0wLjItMC42LTAuNS0wLjktMC44YzAuMiwwLjgsMC43LDEuNSwwLjcsMS41bDAuMiwwLjJjMS4yLDAuNiwyLDAuMiwyLTEuMmwwLDAmIzEwOyYjOTsmIzk7JiM5OyYjOTsmIzk7JiM5OyYjOTsmIzk7JiM5OyYjOTtDMzAuMSw1Mi4yLDI5LjQsNTIuMywyOC40LDUxLjZ6IiBjbGFzcz0ic3QxMDUiLz4mI3hhOwkJCQkJCQkJCSYjeGE7CQkJCQkJCQkJCTxsaW5lYXJHcmFkaWVudCBncmFkaWVudFRyYW5zZm9ybT0ibWF0cml4KDEuMDIxMiAwLjY0OTggMi4wOTM1MTRlLTAzIDEgMTguMDMxOCAxMjMuMzI0MykiIHkyPSItNzcuODk5MSIgeDI9IjExLjc1NzciIHkxPSItODIuMzI5NiIgeDE9IjguNjk4NiIgZ3JhZGllbnRVbml0cz0idXNlclNwYWNlT25Vc2UiIGlkPSJTVkdJRF8yNl8iPiYjeGE7CQkJCQkJCQkJCTxzdG9wIHN0eWxlPSJzdG9wLWNvbG9yOiM5MjkyOTIiIG9mZnNldD0iMCIvPiYjeGE7CQkJCQkJCQkJCTxzdG9wIHN0eWxlPSJzdG9wLWNvbG9yOiM5MjkyOTIiIG9mZnNldD0iMC40OTU2Ii8+JiN4YTsJCQkJCQkJCQkJPHN0b3Agc3R5bGU9InN0b3AtY29sb3I6I0VERURFRCIgb2Zmc2V0PSIxIi8+JiN4YTsJCQkJCQkJCQk8L2xpbmVhckdyYWRpZW50PiYjeGE7CQkJCQkJCQkJPHBvbHlnb24gcG9pbnRzPSIyNi41LDQ2LjQgMjYuNyw0Ni41IDI2LjcsNDYuMyAyNi41LDQ2LjEiIGNsYXNzPSJzdDEwNiIvPiYjeGE7CQkJCQkJCQk8L2c+JiN4YTsJCQkJCQkJCTxkZWZzPiYjeGE7CQkJCQkJCQkJPGZpbHRlciBoZWlnaHQ9IjcuNyIgd2lkdGg9IjQuNiIgeT0iNDUuMSIgeD0iMjUuOSIgZmlsdGVyVW5pdHM9InVzZXJTcGFjZU9uVXNlIiBpZD0iQWRvYmVfT3BhY2l0eU1hc2tGaWx0ZXIiPiYjeGE7CQkJCQkJCQkJCTxmZUNvbG9yTWF0cml4IHZhbHVlcz0iMSAwIDAgMCAwICAwIDEgMCAwIDAgIDAgMCAxIDAgMCAgMCAwIDAgMSAwIiB0eXBlPSJtYXRyaXgiLz4mI3hhOwkJCQkJCQkJCTwvZmlsdGVyPiYjeGE7CQkJCQkJCQk8L2RlZnM+JiN4YTsJCQkJCQkJCTxtYXNrIGlkPSJTVkdJRF8yN18iIGhlaWdodD0iNy43IiB3aWR0aD0iNC42IiB5PSI0NS4xIiB4PSIyNS45IiBtYXNrVW5pdHM9InVzZXJTcGFjZU9uVXNlIj4mI3hhOwkJCQkJCQkJCTxnIGNsYXNzPSJzdDEwNyI+JiN4YTsJCQkJCQkJCQkJJiN4YTsJCQkJCQkJCQkJCTxsaW5lYXJHcmFkaWVudCBncmFkaWVudFRyYW5zZm9ybT0ibWF0cml4KDEuMDIxMiAwLjY0OTggMi4wOTM1MTRlLTAzIDEgMTguMDMxOCAxMjMuMzI0MykiIHkyPSItODAuMTI4NCIgeDI9IjEwLjkxNDgiIHkxPSItODMuODQ3IiB4MT0iOC4zNDcyIiBncmFkaWVudFVuaXRzPSJ1c2VyU3BhY2VPblVzZSIgaWQ9IlNWR0lEXzI4XyI+JiN4YTsJCQkJCQkJCQkJCTxzdG9wIHN0eWxlPSJzdG9wLWNvbG9yOiM0NzQ3NDciIG9mZnNldD0iMC40OTU2Ii8+JiN4YTsJCQkJCQkJCQkJCTxzdG9wIHN0eWxlPSJzdG9wLWNvbG9yOiNFREVERUQiIG9mZnNldD0iMSIvPiYjeGE7CQkJCQkJCQkJCTwvbGluZWFyR3JhZGllbnQ+JiN4YTsJCQkJCQkJCQkJPHBhdGggZD0iTTI1LjgsNDkuNmMwLDAsMi43LDIsNC44LTAuNmwwLTEuM2wtNC44LTIuOEwyNS44LDQ5LjZ6IiBjbGFzcz0ic3QxMDgiLz4mI3hhOwkJCQkJCQkJCTwvZz4mI3hhOwkJCQkJCQkJPC9tYXNrPiYjeGE7CQkJCQkJCQk8ZyBjbGFzcz0ic3QxMDkiPiYjeGE7CQkJCQkJCQkJPHBhdGggZD0iTTMwLjQsNTFsMC4xLTAuNGwwLTIuOWMtMS4zLTAuNy0xLjQtMC4yLTEuNCwwLjNsMCwzLjJjMCwwLjIsMCwwLjMsMCwwLjQmIzEwOyYjOTsmIzk7JiM5OyYjOTsmIzk7JiM5OyYjOTsmIzk7JiM5OyYjOTtDMjkuNyw1MS45LDMwLjEsNTEuNywzMC40LDUxeiIgY2xhc3M9InN0MTEwIi8+JiN4YTsJCQkJCQkJCQk8cG9seWdvbiBwb2ludHM9IjI3LDQ2LjEgMjYuOCw0NiAyNi44LDQ2LjIgMjcsNDYuNCIgY2xhc3M9InN0MTEwIi8+JiN4YTsJCQkJCQkJCQk8cG9seWdvbiBwb2ludHM9IjI3LjEsNDYuOSAyNy4zLDQ3IDI3LjMsNDYuOCAyNy4xLDQ2LjYiIGNsYXNzPSJzdDExMCIvPiYjeGE7CQkJCQkJCQkJPHBvbHlnb24gcG9pbnRzPSIyNyw0NyAyNi44LDQ2LjkgMjYuOCw0Ny4yIDI3LDQ3LjMiIGNsYXNzPSJzdDExMCIvPiYjeGE7CQkJCQkJCQkJPHBvbHlnb24gcG9pbnRzPSIyNi41LDQ3LjUgMjYuNyw0Ny42IDI2LjcsNDcuNCAyNi41LDQ3LjIiIGNsYXNzPSJzdDExMCIvPiYjeGE7CQkJCQkJCQkJPHBvbHlnb24gcG9pbnRzPSIyNS45LDQ1LjQgMjYuMSw0NS41IDI2LjEsNDUuMyAyNS45LDQ1LjEiIGNsYXNzPSJzdDExMCIvPiYjeGE7CQkJCQkJCQkJPHBhdGggZD0iTTI3LjMsNTAuMmwwLTIuNGwtMC4yLTAuMWwwLDEuMmwtMC40LTAuMmwwLTAuN2wtMC4yLTAuMWwwLDAuM0wyNi4xLDQ4bDAtMS44bC0wLjItMC4xbDAsMi43JiMxMDsmIzk7JiM5OyYjOTsmIzk7JiM5OyYjOTsmIzk7JiM5OyYjOTsmIzk7YzAsMS40LDAuOSwyLjgsMi4yLDMuNkMyNy44LDUyLDI3LjMsNTEuMiwyNy4zLDUwLjJ6IiBjbGFzcz0ic3QxMTAiLz4mI3hhOwkJCQkJCQkJCTxwYXRoIGQ9Ik0yOC40LDUxLjZjLTAuMy0wLjItMC42LTAuNS0wLjktMC44YzAuMiwwLjgsMC43LDEuNSwwLjcsMS41bDAuMiwwLjJjMS4yLDAuNiwyLDAuMiwyLTEuMmwwLDAmIzEwOyYjOTsmIzk7JiM5OyYjOTsmIzk7JiM5OyYjOTsmIzk7JiM5OyYjOTtDMzAuMSw1Mi4yLDI5LjQsNTIuMywyOC40LDUxLjZ6IiBjbGFzcz0ic3QxMTAiLz4mI3hhOwkJCQkJCQkJCTxwb2x5Z29uIHBvaW50cz0iMjYuNSw0Ni40IDI2LjcsNDYuNSAyNi43LDQ2LjMgMjYuNSw0Ni4xIiBjbGFzcz0ic3QxMTAiLz4mI3hhOwkJCQkJCQkJPC9nPiYjeGE7CQkJCQkJCTwvZz4mI3hhOwkJCQkJCTwvZz4mI3hhOwkJCQkJPC9nPiYjeGE7CQkJCTwvZz4mI3hhOwkJCTwvZz4mI3hhOwkJCTxwb2x5Z29uIHBvaW50cz0iNTAuNiwyNS4xIDUxLjMsMjUuNyA1MS40LDI2LjEiIGNsYXNzPSJzdDExMSIvPiYjeGE7CQk8L2c+JiN4YTsJPC9nPiYjeGE7PC9zd2l0Y2g+JiN4YTsmI3hhOwkmI3hhOwllSnpzZlltQ0U4ZTE5djhDOVE3Q0NUYkVSdlMrNE8ycTFSTEd3VUFBTzdaakI0c1pBUlBFYUNKcHZOeW4vODlTZTFkTG1vVU12dkcwJiN4YTtEWXk2MWJXZE9uWFc3MXkvOXVqSnJkSGg4dm44VmpxTUJ1TDY5ZkZxUHRzc1YzY0c5T25nM21KeHV0NnM4S01iajI4TzRuSVl3VU9qJiN4YTtlOVV6K2VBMzg5WDZhSGw4WjVCRXc1aHVUdkhiTjlyNSt1amw4ZUR4ZkwwOFhSM01idzV1M0lSN1Q0ODJpem5jL1hyMDZOWm9QRnovJiN4YTsvUEttYWhOZTBzNDJjRE81SGVlMzQzSVEzOG1xd2FPdjhQN3MrT2ZaZW4zMHYzQTNMdElxaGMrYTVlbng0ZEh4eTJiNTY1MUJPYmdWJiN4YTtwNE1pSDFReDNQcmlDRnAxN3cvcnVDNnFxTXJ6S0MycUFoNVBobFVFUDJtVXgyVmVWb01pRzhaRlVXWHdmNTFGVVRtb29tRlYxSEVSJiN4YTtwV1dhVldVRkwyNlhCNmR2NXNlYlI2dmx3WHk5SGk4WHk5WDZ6bUQ4Mit4NDhOWHNKZHlaRGI2Ykx4YkxYd2JOWW5id1dzQkU1YyttJiN4YTtSNHM1ek1tYjJXWVFwemhEbzN0eDhxdzVQVm9jUGpoOTgzd09zeFdYR1g2Y1BxTlhmcjJHZDhGcjhkLzRjZm5zM2h2NDVNbDhzNEVCJiN4YTtRWU00eTQvdk5tTlltZVViZWd3K0cwVERBa2RUVkZWUnhuR2N4UEJKVmVaMVZXVlZtaVZWbmVlREc0OUdENTQrZkRBWkpIVTlHT1BjJiN4YTtmd2hQWlVVVmwyVWFWM2tKbjFmMFNabkZlWnluZFJVbDhEMzRwSVNYMUZXUlpWVlNWZVpGNCtWeU1iaTdtdjAya0MrRWp0bnpRejJEJiN4YTs2OFkvSHM5ZkhoRXB3VXIvZUZPT2Q3VThlVE5idlY3elkyVXlxQ08rODNUKzVtUUI5RURybHhiRGZKQmw4SWYrbDN3SzVwYWV1SlhrJiN4YTt5ZUJXR3NlRE5Na0dXWkx5ZmJOaTg1K1A1ci9jR1R4WUhzOTVXVWFyelJPbXFBeldtLy9rTzQ5UEYvUFYxOGRIRzU3cTBiMmExK1dyJiN4YTs1ZUY4QWMvcjcwOFhzNWRyTmNEWS9Na1BQSjJ0WHM0M3VBRVdweHZhSXBWcUFkYjkvdXkzT1JJUHZTMHVuelV3TzhmUXp2RUd1dnZzJiN4YTs2TVd6bjNsalBYdTV1WU9iZ2Z2eDhHUisvSFQ1RFEzbEZzNVdQWWhqV0p0QmtoY1ZrRmRTRE9BLzdNaXRiSkJXdW11eCtWTzJOMXBzJiN4YTs1cXRqbUdEVjVtVTNNRGsrZkNhWncvelFiaVNuUnJBSk5RY2xrTTBqb1BDSHF5T1loRHUza3FLR3Rjd1RKdjY3cTZORFEvdlFwNHIvJiN4YTtvS25tWFJ4RmNWd25VWjNVKzM1UzAwOVp4SGtWWjhrK24vRDh3Skp2WUNCcTNaSm40NitzZlJrTnYzb0NZNEdoajVkdmtPN1d5S2x3JiN4YTtaV0ZMTEpZditaNytOOTJCcjUrZThMd3dEUUNKUGxvZEhlTTd4UU82VXoxN3REaUZXM2RYeTlPVGU4Y3ZsdUlHYytmN1I4ZnpBZDhiJiN4YTswRTFncy9UWmJMWDVaYmw2RGIvZU81elBEQWNhem81T2JtNTk1WlBYODgzQksvK2w4dFB6di9hYitRRWNGckRmRGdjUG4vOExmc0YzJiN4YTtJRmNiUEYzTkRtQ284THQrWnZmcjJ2a0xhRmoyRXI3S24wNk9mNTR2bGlkejh6ay90L3Q5anhhejQ5bEtEMWZON3M5d1p3WkxZVjZJJiN4YTtEODQzMys1K0l4REt5dW9JL2FyKzNxTS9zQzlPWURxb0IrNVM3SHpBdXJWSFE3UE5LemlzNXNlSGEvMXUvdFgwSGVlQlA5djl2dkZzJiN4YTtzVGg2dVpxZHZEbzZHRFNyMC9XcndWTTRJZlM3QS9kMU8vWTl1b1hmM0lOaUQzQkxya0t0dWJkMFEvTGpkNnlOUi9TRjQ0Zkh2Q2JkJiN4YTtsdVFEZmt0d0VQRjMzdEcyOUhkQzdjRE4zMHNiVDM1NzgzeTVPRnEvTVV0dmZmSUllT1BSd1dMKzVMZjFacjRQeDVFVFBEazhBcWJYJiN4YTtzOG0zUHZQa2x4bnc1UHRIejdkdVN4emtpNlBqUTZEUUo2ZEhtN25aaWNzM0p5Z2pENTY4bXAzTWFRVHF5U2Y2aFRrZDQ5YUpkT3VXJiN4YTtxQWJOc1hWZWdleDNlQVJISFVyMXg4ZXpOOERoWDhxUEJuR1MzQlRoaitINFRnYk5vZmlIaU9RVjA1VU5yajlyVnZpeEpWdmdzOUdnJiN4YTtHQlFndGRkWlVwYzVITWhSbGc3cWRKaFZjWnFXV1pKRVpaTGlsK0VFZm5hK0x6ZnJUcXN4ZkJGa3pyUXEwelNMMDZJc2NwQThRRjdzJiN4YTthYWozZVhoMzArb3BWWk8yOXp5bTRYbE1iMExiY2g0L0VRbkl2UWtJL2trVVQrTTJIc1BWeEtPNGl1dTRoS3VJb1VkMEpUSCtSTkVrJiN4YTthdUVhUncxY0k3aHF1a0JQaWtxNENoRVZjT1gySlQ2RGR1Q2ROYnlWMzVuVFd6UDUxaWlhMGpXaDkvSzdSL1EvdjVuZVMvK2JGMmNpJiN4YTt5dlNWOHNYdE5Mb2wxUTYyWXRxWnlIYkdzdjhqM1h2bi9lclZndDZkMkJlMEUwRkxiZFhXN2FodDJuSGJ0cE4yQ2krT0o4a2toU3ViJiN4YTs1Sk5pVWs0cXVPckphTkxBTlo2MEUveVowbUJoc3FmSk5JVXJneXVIcXhEVEFxNlNyb3F1S1kwbzBBcTNvMW9wWlNzajJRcTJNNlYyJiN4YTt1SlY5MittT0pkbHpMSjAyc0FGaHRWRFRoZTJZdlRwRXJaR0lQNCtjN2RHNWdYdHNXS1h5dzg1V3NiNjU3YUVMN3FZOHZKdHkzRTJwJiN4YTsyazFGVVdSRldpUkZES1EweWNkNWs0OXlVSkh6SXMvZ1NrRTlqbUNTSmxtYk5ka29xN01xSzdNQ2JtVlprc1ZFY0ZNZ29EWWRwNk8wJiN4YTtUaXVSbG1tUjVtbVdwa0RIVVVKcmtveVRKaGtsZFZJbFpWS0FFZ3U4Q0g3OFRjd2JRVzFpM215SnNIYXgyZ08xczg4S3VXRjFSOGZRJiN4YTtWZXhvSVR1YVlrZGxON21yRFhmVzZtdEN2WjFDWDF2Nkgzb3NPbDFPcWRPd280Q2dWYWNWOTFGOFF1M2hoS3dUdklleDcvQy9jQmlGJiN4YTtZa0M1M3NTMGdXa28xa0JHMW95bk5PZHFNR00xNXpBTUhFaW1CMklHSXlkZXlJR29vYVJ5R0ZNWXlGUU9SckVodzRwU3pZeGkyRE9SJiN4YTtaa1ZOTkJZT0wrSjFzUGxRS3RuT0p5S0s2YnEwSDNGNXJ6ckRDMmtvTU54NGxJelNVVGJLUjhXb0hGV2plalFhTmFQeHFBVm1Ob1VEJiN4YTtKbTZTSm0yeUptK0twbXlxcG01R1RkT01teGFZMExTWkFnSEg0d1FXTGh2bjQwS015M0UxcnNlamNUTWVqOXZ4WkR3ZFQrR3NpdHVrJiN4YTtUZHVzemR1aUxZbHA3OGxRaGNYckZEOWxUbWR6T1JyS1BzUG9IWWcxREJySXVCUjdEY1E3ZjZ3VEtMTzRkcTJHb284R3piVFQwRkMyJiN4YTtEV1ByZXRBd3JQWGc1UkJ5R0hJZ3pqRE1pdkF3K2xhazBFY2N0Q09jMDBlZG8zenk4TUVHQjQ0NWFENFJjQXBCSytXNEhKVTFYRlZaJiN4YTtsa1dabHhuczN4ZzIyaFRlM3hiam9pbEdSVjFVY0ZvVU5CRUYvdVFXTzU4Q1E4ZE9JMHV2SlZQUEpWdFBrTEh6MS9nTCtCWHpKWmdPJiN4YTs3MHNwZlFsWkxCKyszdVl2OU9iM3BZOVlYZlMxcXF5cXFxNUdWVk9OZ1NBbWNOSkdkVnduZFZibmRRSERSWVBVcUc3cU1WRDlwSjZPJiN4YTt1SlBCcjZUd3BlQlhjSnZ5MTBKZndYYUNYOEV0NFI3NDBQMFVCaDBYQ1l3cVF3dHhCRHd4cWFzOGhZR25hR1NMb3JyRW1jbnpLSW1MJiN4YTtqTXgxdUNwSm1lVlJYVVZwbllRL0taTThxNk80QmtHeEFqazlDUW9XVjlVQkVtRFNHaFFIT0YyeUNCL0R4dUVzQUhLQU4rUkpXYVg0JiN4YTtsalNDNHdrTzBhckk0WmlnRGtZSnZCSTZuU0RCb3NIZWFqZk82UlA0ZnAzRmNWbGtjUDdoSUlvTURocmRJYVZqWk1VUWxnMUlQNHJ6JiN4YTtOSUtQNHdMZWxxT1ZQaTdTcE1qTlJQME8ra3B6Q2hRTGNrUUtYNDBTa1BmUTV4REY4QWh1b2F5c0MrcDVuV1pGRGQySHRjOFM2aWQwJiN4YTtvS2dxRkJDQmhQRVR1MU5WaGFQTFUyZEI4Uk5yS09nUE1pc001RkJIOE1LeXpIUG9pSm5HZDdON0Z4U0VpN0FnWERocXBhc3g5VjVwJiN4YTt6NVY1Vnk1Y2xWSmZoYjVLZVZYeXF1VTFrbi95MWRBMVJwRnJUSXJzQk9Vd3lWTDVCd1hwVkY4b2ZpSXZMK1dGOGh4d041S3Z4L0tDJiN4YTtJeTJlQ2ppSUloTEM4VUxaRmxZVHJvSUV4UXF1R21USEVVaVFZeEtLOFh5TG9BWDh5ZUE0Z0dNRDVNNEtseHprVURoRUJmelJ3c2tXJiN4YTtrWkNhZ01DYWcrQmFnZ0JiZ1R3K0FtRzJoWE4rQ3JPQVhyY0VEcFFNZG1nSmgwd05aOVFZRGxmWU40VWpOdTY2a2kxM1hCWFlXNjMrJiN4YTtsY3U4cGNybCtXWXZWeG5WZ2c0L1BnUWJlNTNnVDlSVVdPYWZxT1dDZ3gra2FLa1Y4SUx4b21WU2F5aUVYckdLcFBCR3IxbEwvNE9jJiN4YTtqaEs3WGpLMVlBVXRtRm91RlBkNXVWcEJvbDlFYTViSU5jdjFtcUhtMEpBT0FVb1JMUm5xRnFtMWFEVXMyRGhyejdJY2V5Nkd2eHlKJiN4YTtzekQrWW5RWHBKRDJsWktXZ25hUDBKdG5KRFdzRVMzRldDOUdheThHNmpOeS95UjZJWGp2NVBaeThGTFVwQm8xY2prYVdJeUpXaEM2JiN4YTtZdElMa1J1YUJhbHBRYXdkSkdoVmVFbDRRUks1alVxNUtDTmFrSWFYQlBZUkxrbEthaDh2Q3UwaVhvNnIwSUgrZUdIb05iZ2MwMmF2JiN4YTthOVJ6MWQ1VkNXbUU0cXZVVjZHdlhGNlp2Rko1SlhURjhtTHpJV2lDQXY3Z0g5U294blExZEtFUkRoV3VpaTdVSkZGN0FSMkFWREkwJiN4YTtEU0xmUiswR054R29iUGlDdGhXZytJeEJCV3BBRVJxUmdscWh5Z0xxRVdvY3dPZEJZUUo2aDNNRzk5K1VXbXhCcFFMVkM5U3JHdlNzJiN4YTtDclN0QXRVTTBMM1NjU0pBRFl0aHcwNnBXeTA4MTRDcVZvUEtWb0hpVm9BQ2w0RWlsOEFPeE0wOWhXNjNvT2cxb1BEVm9QaVZvQURtJiN4YTtvQWltbDdFY25RWHBXNDV6THdndXgva1h4Rm9TdFNDNEhDM3BvN3drdkNBVkxVaWhGeVNsQllscFFhWnlRY2EwSUx3a3BWd1M0UG9DJiN4YTsxNFJrQlY0U1hCQ3pKS1cvSkRSdGdTVTV5M0xzdlQvYzVRZ3ZTSDZXQmVIbHNCZWs5UmJFTEVtNXp4NFJ2RW0yTGtuZXN5VDJMcW5sJiN4YTtMaW1FM0NhcDNpVlR2VXZNb2hTZFJabTRpK0lxdDNtZk5kdS9RWXBMWGNzUHkzUUk1MTBCdWhRb0JrV1oyZGJzYlE5ZFVJZ3Z3MEo4JiN4YTs2UWp4amdkSStYK20ybkxjYUttYWhBVjJ2MFNXSzZlUkR5bTdSdWs1V2ZMdVYvQi8yeXRUa1dTU202OUo1NHRqNEJwMURIV3U2NE5OJiN4YTtMTjRYeHVvTG5jZVJ2dVZYUWkxMDNSN21LN1ozbytqemJoUWg3MGE5ajNkankwTVhvNGVpQ3RJRGZHeDhydEpJcFdSemxzNmxJR2lKJiN4YTtmNmtVL3pLdE5OV1d1dFNTeU0xQ2R5cWtnRmRxYVZ1S3g2NHVwd1JSb3htTUxaMkExeUttOWszcjdEbGdtYk1XbHNhR3dpWjBnZHR4JiN4YTtkVWVqTlJwdDBScWpKZWE2N1JUY1Nqd1NXcWlWclZBN1NLNDJmMlFad2ptdG1ERXlVMlNHeU93d3RVNm1pZVovd1AyRVpIMjVGQTJBJiN4YTs1ZkhoMEpGVnZIUFJQaEg5bGhMZDBrVEtJeU9oaFJIZEZyZVRPSnhmdFdXUHlweSt6T2laeVNzR2IwNWJha2xJd2NkcXlUTWRnbjVWJiN4YTtWRW1aNTNsU1Z4aHVHaVYxbkdVbEtEaHhWVlBnYXBTZ2JTaEdGdzdHN2JMcHpyT0toRDh4ZHJzNExmdGMveGthK2NvU25rMHJhTU15JiN4YTs4N3lMblNPdUVwZFprV2RsRHBvdWtEbDJMRWExdE15aUtNbnJ1a3pvazZKT011aDRBYnkrcURsQWtscFh4anUwTGxXSmJiZ3I2QlBYJiN4YTt0dGNUeDFDbHd3Z21Ja0hYSjRaU21sbDdGenQzSVM2YVZNR0lDL3pZOFJFYmwwSkxIdUphZTRpbEl5SG9JV1p2SmZvcVcrMnJKSWVyJiN4YTtZTzh3T1NqRHZ1RnVlRWZkT2RvajMxTmFkenlsRWJsNzJlR0xkTnpuOE9VdVVDZUU1U05OTEM5cHF6M1Via2hJNmdScWFCYzE5MjJzJiN4YTtaOFR0MWRSeFE0OTZlNFo5MHoxTFNtSE5UN2RmcnU4MjNEY1NnSXhCNXhKL0xsT2R2cGlYMWZHeE9oNjlyai9QOWVhNVFURyt2RGJtJiN4YTt2bDFPdndybCtoV1gwYk1KU3lGNzltcXZmbUczeE01KzdkR3p5Y1NjaStRN1NLb0NQVFRBVXNvY1B3R21CM1Jid0xFRFowMEpuOENKJiN4YTtsRVY1RmxVVnNMZzhGZVNtSVJkTm5kZkEvUXFCWGhuTEJZUFdQL2hFSGtISVNHUDh3RG1ZVWtmU1RXQkhsbjNTYnVBbW5VMTVHYU1iJiN4YTtTWDJlMWNNOHJ5cGdTUkdLVkttbFArMTRzUE8yb2hoR09UU2JsOERreVRzWGZsbmd1UXZ5L3l6TS96UGsvNW1Xb3ZFbnhpd2lNb1pYJiN4YTtKTmVPU1laT3lHaGFrSjEwUk15YXBXVzBoYktZVEVJeWVRN1lCbDNBR3BNQkd1MmNFK2t0TUw0QzlCT01MVDhCK2doeU9HcllUekNDJiN4YTt3NmNGRWlNL0FWd3BIRTFGVVFwWTRLcW9peEZvd0tndXR5QzZvV005SW5FK3dmQ1lFdDVOWG5UOHFlaXFTOWd1YUE9PSYjeGE7CSYjeGE7CSYjeGE7CXlrQzdSOWxTRkFXSzFIRVZDUndQbXRTQk15ZVlXVlJCNDlBRy9sL3d0NnNLL3EvaHFxb1IvSW43YWtSL29zdDVURzdudHBKV25Hb3EmI3hhO0tLWU1WY1NwY3ZQVXNieklUSXpFTDY5TVh1WmY2TE5XVjhHWGdELzBML0lxdmF2cVhPR2ZFVjZDL3dwY2RlK2RyWmVvbTh1OTN1WUwmI3hhO2JhdDZMRDBSN0dlb1NYOHpPaU5UUE5OOExYVkVxVHBSaEZncWxVTlFENFgweENpYnY3TDJLd2NNVy9wYnZRZHM1d3Q2eXhxOUUySVMmI3hhO3N4SWh0ME11dDBNbFhXZThMY2E0TmZDU1NtSkNteVNqVFFLQ0s0V0h3QmFRZTRWMmk2QU4wMUE0U1V2YkJrTkxwbnI3NEFhSzVEWksmI3hhOzBTdElXOGxzcHB4Q1U0cXlWTnRLMEw3aXFCVkZoeU82eHJUVGVLK042YmRXWGhQOXIyazUwWmMwNkdFd3pLU0t6RlZPYVcrYUsvRismI3hhOzUzM2J2ZUtLNUN6QmZ3V3VyUGZPMWt0VTJlVmViL09GTHAwbm1zNHJzaUVRVnlmYkJFcmdhQkVwU2FCa1l3UWFLaWZTK1poWVpwQ3gmI3hhO3BuUEo1Rk5ONlRhZFQ0SjBYaW8zSTlLNW9uV204MVRTZVNIcG5Obi9pT2hjMGZvVUk1YUl6dFdCZ1AvbmRDd29pcWNEd2laN3ZzYjYmI3hhO3NCaEw2cDhTL1JQbDA1K3h0T29nN1pzZFFIdEF5RTJRVVZ5VzJRNDViUWV6SmRSWjQxNjF0VGZrdndUODBjaXQ0bTZZeHRzNDl0VUcmI3hhO0xybWRSUEFtUDNDT0M4N0VjbnE1MTl0ODRUdnNKYlg4NGlMZ0h2Y0RFMXpmdDIxak5MYk5zYkw2Q1dYMkMvcTNNK1BkbHFiT1NqdTQmI3hhO2EyMXh0S05FSmdLTmVXd3kwNzV1eFFGU3VqSjU1ZnJpK0JFVlExTEowQVI1Q1drM05kZll1OXJPTlExZGFwWkVYMFFPT2RuUGZxVWkmI3hhO3ZlU2Z0L2xDdG0xT3ArMTBQQjJSTHd3OVhnbFpOOUdtaWRaTXRHU3l2UlF0bUd3blJjT2xNcEN5OTZtVnJzQUtnM2tMNlcreTNYL3MmI3hhO1orbzYvdGpERlBERndwVUFVVVgxVktENXRtN3JNWWhhTEZGV3hQUUtrbWd6a25wUkFpYjVHSzRKQ2M5aktWU1BwSmlOckxNZ0lUem4mI3hhO0V5MGw2WnpQZjVJTXBBRFJ5dkJaeFVGSG1zMHkrK1dmUXJOc1lPR0NlRGdMTjRwOFZUeU84Z01wNStKRVg2Mit4dnBxK0JMMDE4aTUmI3hhO1BIR2RUaVQzS29NWC9YQjRiL2duUDg4bFNDeTh4T3Z0dlZBNnR3SjBIbHQwWHBHOVh0SDVSTk41cVowT0hJa3dWakVJaHM3WnErckcmI3hhO0hmUlJ1cUZ6UStsSTUwRHBvcDRTbmUrbTlOaWo5TEZENllyV2djN3pEcVh2cHZWUmtOYUoyb1dXVnhTMXAyRnEzMEh2bXVLRlRmVHkmI3hhOzJrNzFJYnEzcUYvMGJJSnlDLzF2L1JIbjJ4N2JOczdiZXFGUDU3VkQ1eFB5VVNrNno5QW5KZjFSSEYvQWppanBYTlB4TmlPazgzSUwmI3hhO1I5OU82UzVQbDdRdWtLbExXaDlMV3EvM29QVXdYd2RxRjRhMWh6aTdSZThUVGU5OTNKMW9YdGhFenl3K1NQV0c3a09VYjlHKzhNamYmI3hhO1p2bmp3QjdvN2dOdlA0akF4dGkrUGJaZld6Yk9PYSszOTBJNzh1QVRJY21uMUdRVEU3a2dvU0NSNEpJeVhRQTlFQlcwdE9xVlRJekomI3hhO2FERlZXZ3pNdWxCWk1WWmVZeXZ6R2xVdVMySWxDNDdJeE9ibE5WS1VoUFRTQ0xMTEtSZU42NlJoQjVMdHBxbkpnOFNlbW94a3lwajkmI3hhO05lU3htYkpVclVSc2R0Mnc4NmFTaE1qaWVTWmRPQ1lmT0pIaDN1eTZtY3JvWW5Mc0NCM2c0b1c0Nkw5clkwQnhJbHNLTjc1Rng3azQmI3hhO09jVk8wcklWdGV0ZjRlRGZTOVNkckovZjFRczVHU2tqcmhaTExqWW16bFVSaTJKMmhFdlNFZzBqNzBBU3prbitpV21KcGpJdHF5WnomI3hhO1NKa1h3dmhmaVpyN2ZLRFRucVJYUmNpUlZLa21nbHloSSsyUFpaOXM3aVMvR2twdXZTVFlXaWJoVjhaREtzZ1JxU2pZVUhGQ3FtbEUmI3hhO1diMG13MzBpdzdSYmo1Z1ZTVmNjZEY5NmRHeUN3bDFLN3NiMUIrTC9BOG55TzRQWnI0eUszdjBYRXAzTDlFVThtemw1TVpmSExoSUYmI3hhO2NtbTJ2T0ZaeUVKZFJrYnFXTFBxbHFpYzZieklNNHZPZ1dPUGU3S2lYVisvb25QT2k1YnNXdEs2cFBOVzB2bElSaDZVa21Nbk1wdy8mI3hhO0FrcmwvT2hXNW1ENGxGNHFsaTBrMTg0ZGVqZVUzcVYxUmVVcW85MndiV0xZUXZQckxxOTI2YnhMNVRhbEp6YWRuNDNLZDFENjc0b3MmI3hhO0wvMkZST2RBVmtoT1k2SWdwSjJZZ0FIR01scWxrREFBa1k2K1VIR2xQZG15WW44dWMrWU9YODdQSHkvOEwzdWhTaEJITjBwTlhIdEMmI3hhO2ZwR1VIQjRsT1REUUN6RWx0em02MEFyeWpLTW5YS1ZkdTNuYVRUMFdPdWU2RytYVEY3VVNpcWJSY1N1QzBraFU2RXJ0NU85ei9JcUsmI3hhO1lFa3BFeUluQlU0QkV0UVV5YW1pV1ZwT3AyQnNBcFhXcnpCeU1uYXZ5Z1QvVW5yM2E0bGxNNUlKQTJNWnFkMU8xQThuZk1oZ1doWHcmI3hhO3FnM1pWa1MyZ3FQSk5jWkJZV0hmR0hRYW1TSGtKa2I0YVJQZEJJdHg4S0t3VnNGL0JhL0plUzYwWWx6cXo5dDhJZE41VGw3Q0VYa0QmI3hhOzBmdU5ucjZjWEhnajhyOU55UGVNOFNBWUIxSlIxQWZHZWJnUUJocGFRTGpJQW1lT0dYT2pzeVNkRjJUNjRCQXRGZFZtQTI0WU9sZG8mI3hhO0ZRWjRZMFNwS0liT3B5SkE1UzZkbDVyT2E0L09EWlVyT3VjOE14VXk3dEc1VCtYWlZpby9BNTN2UytVNzZmeGNWUDY3cFBPU3ZPQk0mI3hhOzVSZ2VsVmxVM2xLMGhhTHlza1BsWFFDTmliQ28vS3lSa1c0TW9veENGQmVnOHJwRDVUMTBmaFp1M3JyYzNLYnpTK0htVE9lWHlNMHYmI3hhO244N2ZLbGxlK2d0dDg2Sk9nMU51eW9ZTTI0MDJiNk9CVzdsejJNeWRhN2VPZE93Z2haTzllMUszUWpsNEpDYVV0SVFydjgrWUFzcHEmI3hhO2JROHZ5QjdPOFh3YzU2ZXM0YmFmYzZROG5FTGF3VGxTUjl2UzdlL2JmbExiZjZSczZwVzBnOHNYMmNaMG9henByS2kzcEtLWGhDd1UmI3hhO2tXS3V6RTZnanBQQlNWbE5NMmt4YmFYdWpSSHRCS3dta2NnYXhuNHJ5TFRFWHVtZWtKOVNnMEhZWVo0TUJwSHB5TGFhWW4zR1pBeWcmI3hhO0tKOGlGaXJpazkvZUgxTFU5M1lUTldmZUx0OWRKQUs3am1GeS9QYnp2Um5mMjNremRabjhPeGlJNU9RSUlUd01ndnBRY0c5Y0ROR0kmI3hhOzRBWWo5ejdSckVYc2ZWekZRelE2cUMvMzNhYm80K0I3czJ5SUZwQWRyYXVuNkQxUkJaT2prdnl5YWhpVmxQTmlFbzNDOTNkR0xmdjQmI3hhOzROaGVEeDVyczVxdDE0UEg4UHRzY1ZPNHYwS3pPb3RGRzhMdGZEbjdhZ0pYRzdpazNWMW9BN3lPdVhFdmFhbzNmNnBvbk5DVkl0SWgmI3hhO3A2cnBhSjFVbXBNNGFzZU8yeW1jeUoxYXVoQk05QTRINnpIT1N5dklqRFZodEFvdmppZVJRSXdwL1cxSDhoVDBaeWxCQSswb25wRkkmI3hhO09JZEVmc09PODI0MXZBV2lFWllVSUVuWU1CSmpCQkZHY2cxbWdZQXdzSmZrVGlKRFg2azM1MFFHOXFVeWVOWFdRRGttTDZWd095TzUmI3hhO2NHU28wVUpyVVRVcW5USHJKSUxiVnlqQUtBNWNlbkdGK1dmd3ZBejl0SUZyckM0aDgwdThKSFBPZGxTcDVuYitQK2RaeHRvSk5OWGcmI3hhO0RKeDV6cm1YWTBIU2tBSnE0RFIwVGtTdlpEeWdjbWptR3JxQkU5TlRHWDRWeTR0dGxsTXgxaUN2bll4T2pTclFhRVFCTjhKaWkrZFomI3hhO2JJTjFVSUZFVmhTUk9sMXplVEx5dVRveDU2bW9IRkE5Snc2dWtEdklqbnRUdUVqdVJsR2JoRGVHQWtncU1CbXIxRkZ0STRueTB1Z0EmI3hhO3RvbEVUREp3TDRtTzJjb2tFby9DNDVFQU1JSzJTNm5qaW1zTnJVUVg3N2lSYmdQRGJkVjdNL21PU29QSW1NQnlPNzNDcEZqSWMweEkmI3hhO0lUWFNCN0JCWktwbHFPMkVoTmRJN2tTMUZ5dnlaRGVzUmVnOW1RZ3k5ZU8yVkpHdWpjcXR3TzJwUVBrYUM1UXZkWUQvRkNDZnF6U3omI3hhO01qSFd5Z1NxRXBsU0pRVHBFclllWVl4Qk1ybEtHb0F5YWZaQkZVRWxMcUUya0pQMGp4SS9TUG00dVdQZ0NUbEo2aWlJajBscXRvWEwmI3hhO3R4ZGJ1ZytHa285YzVVT0xrY2RBZU1oaWRxd29Sb29Tc3hrN2FjOTFMK1NJdzI0TUNvd0RjRUZKM3JWbUxJYXBHUENSUkRFU2lYYWgmI3hhOzhDNFU0c1ZJbzE1SU1CS2hJV0lVK29VRUpXRU1EQnFFZzV2aFlzdGtEdXZaQlpraGcxK0VWaFlhclI1NDhTOU8rRXZqc0NQRGtEUkwmI3hhO0VvNlV6L0o1b1FOZEpGQ2wrWkI4eEJUeHdsN2lodUpiREFobzJnOERhdEEvaFlYa3lmQ2ZwUlg3RUR0UXlhTjl2TVppYStwczdlZSsmI3hhO0l3ZUlpWjlVaFBVWGxXa0NyQzFKQ3NSZVJJVEFPRTJMb283aUNpVE1MRWs0dmR6T2t5Wnd5OXJPNFVzdzVicHkwL29zMU1BU0U4cHomI3hhO084bjlDbnZCMG5HSjZVQWxmQ1ZMNHBJU3hndG9FSEVvNDdxTU1rWkJUQ3NVY3lxWWU0U05wQjQ0eUp4VTRzb0NVNFJWSUR4RjU4ZjAmI3hhO0lLK0dTR1BXUEZ4bEwxamJTS28wemVzYTZDNG1LSUVoc2l1NFRla2RzQ2NHQkRnQWMxcms1S2V0S2VkeFdIcFFBdmc5ZXlWS0dvdTYmI3hhO2pkMVZIWWdST1RYemRLbXI3TVZaOGpUYjA4VmlRSG9NNkRQV0w3QXF1VWE2U1lPWHBVN3NjVmsvSXQ3MUV6eVVPTTg5WVZ4eWxEZEkmI3hhO1FHMmxKeDY1UnlORm1FcmlsS1BVd3o4b3UwUTZpR3FxTTk1YklVVXBqcWlxU2ZWZ1JTVFhVVldaalNIUGtWVnNNWWxJQmtSZVcxSGcmI3hhO1dDYlpxY3RNQzBaVDlwaG9TY0VJaVF4RElNNHBmTlpKRWxOTDJYbG9sWEdoRGpUTFZLQS9vK0RWbk9FYTI1ZHdmKzFjSVJXamxkbmgmI3hhOzlMcXA5cHpGTXQ4aTFURGU3RVJUcGxkMnBTa0RySEtvdGNxcEJscUExSWZaR211OGE4b21XMGo5d3ZXeXNkVk1tcGhUNlVycHc0Uk8mI3hhOysxR2hYZCtoT0Y4cXZxMGZFSkV5TEdhdFpmQlN5dVNsdEd3Vk1td3Frd1RNUkJ4VGNFbUVpQmFHbkFYcEFXTTZJQnVIbEFzZElHaEMmI3hhO0JEMVNKbG1ydFFvajFJZ0paQ0tyZEhnZ3oyYU1EbGpLbVd4SjJoN0xvRmdWSXNraFpwbU1kbzBvd1cwaWcxZ2JTZnNqR1lCZGNEeXkmI3hhO2dnU1B5QkE0a1J0Q1lZa3pBQWhEZ09RRURVNGhsWEozVEtSb3djSUZpQmVDTElhOFZWakdnQTJqUXAzTnp3U29xcEZoendWcDZuWjQmI3hhO3YwcGppWjJ3Wnc3dnoxVWFDMElXTkZyMTdBdnRWektmQ25aR0lsY2FwOUkzVWNScjBkcUwwcDFSTlJPVXBWa0RNREU4alJOeUdRN2MmI3hhO0NRZnNXTkdVb2pjMDU0SXFoZnNoc1FLZkRTZ21rQVdaZ004Q0pvb0ZxUDB2SEFaZ2IzOXY4N3R1bVg2dmpIQ2NNdElsdzdTZXlGemQmI3hhO1RDZmpWNUo3akdUcVBhZmRUMldPZlNMNVNDYlQ1VXVaQ0Q5U1RscG1LY3hVMkkzRnJFVXhGM1puMWRKbE1DYmRZRUllR2VZeWlkUkcmI3hhO2MxSW1TbUVoYkdnL0xpdnZ0UVpUVnRteUJwaTNMMXQyaXdsYTlOcWdBeFpvcmJZcmxJVFdLTzNFRzBCV0ZtUkxxNlczdXlXVlBiSjUmI3hhO3BMYUdjT0pmYnF3aFZycWZNWWdZczBoclpmWkpzd2lPWHppMkVaVTZiQzVsSDFHWER0NjMwcTlyK1NlWlNnUUxHeXlWR0c5RExkUHAmI3hhO2tTbXhJVzFLbXpHUnJFdGwxQnZ2QUdmVTR6V1ZjQlBhLzVETGVKakNwTkhMQ2VYOGVjNmJWNkFUdVdVTUdaRTVwSkY1dTZBWFJ0b20mI3hhO1F1U0pwQ2t0SUoyd0FmZDBNMmViZjdKeHNFQ09LUi9LK2pIVjFnL2NsNVVNZGtIclIwdzdEamRhTGNGYXB1VEs1TW9VTlhrZHBlbEQmI3hhO25OWDJjUVpRYUJHMGF0aVdEVHY5MVFWTnQ4MGJHb1JiV0RZT3gxSXh0bXlodmlYVXQ0TDZObEJqLzdSc0Y4WjY0ZHN2S3BtalhVZ1QmI3hhO1JpNFpyREpqSkRJRklCS1dMY095U0JpYmhJMnYya29QcGpGTUdLK2w4VmhHeWx1cGZaVmJVM1JNNnVWRUdsREhsak5SSjZPUlY1SzkmI3hhO2lldytQS2R0b21PYWtFVkdoRmR2YW0vYlJKOXBRdmkyQ1ZDYlZBYTBCRUFrdXkvRGQ4VEthNm1Zci9ML2FRYk1PelYzTGo1V3BKUFcmI3hhO1NQMEtyN0N3VUJFcEs1Rk5WZ1pZdDJPU1VwNVo5N0tTL2oxVFN4RmpZSFVGREw1TU1nS2dBNVV6TGtESGpkRkZPMEM5Tnk5aVhQaUUmI3hhO3dxeWxidS9YWjZoWXFaZWZvMjNFVXZYeDA3NEtKVmZVQVdsZ3laT3FpbUxnekdsSjVTcVNITHRTZ3lRS2Y1R09Yd0NCUjNtSkZjNkImI3hhO3ZMangySGsxNmZnK2pHRnU2L3lKVloyaUtxRlplTVN5cjF4ZEo2N1d2Sklqc2xWVXZBTW1GdFVUQnBFRUlSMGhUUT09JiN4YTsJJiN4YTsJJiN4YTsJWVBiVE9rSXpWUUp5UUp6VkJZZ1hzRm80MTNrSmZBZCt3MUx2cWF5YVU5blVGbVB2eTg0YVpVNFpuY1NpeVdxWUF6T3kwQ0t2c2hkeSYjeGE7ZDFRUnpET3lVRGc4Y1VjbEtSd0JhVlVoZWlSd2Yrd0JVR2dNNndNOVFPMjJqekk3SmxGM3diVGhMeCttZVJrVHhjZU9DZktLZTNJVyYjeGE7ODl0MGRqZ2ZiSmFEWmpFN2VIMVRlTDhidU9sb0NCU2RnQ3lTNEdyQ091SW5aUVk4cnE1Z20wZVl3WTY0ZERCa3hBTXRnSzFWaUYxWCYjeGE7Z2pxU0lrb29lcnNSQWk5MlMrTVFCZHVRb2ZTQlk0dTFUd0N2RTROT0p3YWRUZ3o4VGd3Nm5SajRuUmgwT2lHUlhmMEQ0UjNwRCsyQSYjeGE7cSt3TFVpRldSM28zWmtiMzVpdzc0ZTV5Y1FnYmdQN3FHSjk5STdKS1M1M3FOS2RRcXBPZG82b3pWSVZqT2RuUFlxTHFTd2FNWlNNeSYjeGE7bUpXV3RTelgxU3hWanlPc2FXa1YxMjFsdnhxaHUyYVEzRE9kckNNclcwcXpqR1dhWWVPRU1qMmozSXpHQ2VQTlUrYm5tZ0x1Q2twRiYjeGE7NTR4UFYxSzI1T1I4S3FnaXE2ckVwNHIzSlU3MnNzbUZVNFZPSjBvTTlZSldkK1lnaENPemRheXFxcnZneHFlNjBhaCtrS2xTR1h2TiYjeGE7UVdGalVDZ00zWVRteXBxS2J1VmdIeEZmRjRtVVliYlVaK1ZyUGF1eDJRZWtkYlJ4Y1I3YzEzSGpHSitWdjBUNVRCcHBqblpOMFd5RyYjeGE7VnVibjFESS94NDRuWlNKMFZucGpXV0pzWDRvSzhQS016MEh6OHdpTno3Vmpmcll5SFRtbXZKSFlCcFhXOXBpT3BjYW44NWRiQ1I5ZCYjeGE7YWVzeEszMnM5bW1pRmxyM2MrM0dxSkd4L3FjMHdFYmlTbGM2MTVPMFFHbUtuNmhFVDBIanJuU1dwODVtbG40am9MK0drR1c0ZWtpSyYjeGE7d1Y0VXM2VXdOMndVcFlsRWwybDhDSGhkeTZNVkJrN0pqb0dTUVFoKy9KUEMzVkJSQnh4eElLTU5PTkpBa0JxdndndzRIbGdGR0pCUiYjeGE7eHM3djkvTkVYZWE1VitLK3VKd2NSSXREYnJsRlN2RnViOVFvYUlwV2htalBGU1VDcHVqOWpOSGhKSUZTdU9ab096dUFMUU8rc2JtVSYjeGE7dkVSeEU4bFBORWRSUEVWeEZVNmIwTHhGZEtyWSt0bHdmcVpRcHl5dm0wUWhySXc0bFVNaDgrSFlRRDF4b3RYMkEzSGNFaGt0THNjcyYjeGE7YmF6U3dwaWxmZitoelUxN3NQUzZJVk0yY0VEaFZPOXdUSXBDRjlab3BLelFhc0NDVUMxR3U2UklKbG1saWQyVitlSUtmRy9VQWQ2YiYjeGE7ZUpoN2RxU3VqYm1uak84Rm90WmI0YmthWDIvc1dkMG50dTJkMHVGakRaTEhwbmR0Z0Jka0dPL2EybFZBSXA5UlkzMEJKWVZOdzY2cCYjeGE7dHh1M3h2VVZTeTlNVGRYdUd3czd3RG9BYVpqcWVpYXFWbC9WQ2VlMDV6RVJlZ0o1K2lvZHhxbG1UQVp0V3VHVkhHQnBUMGV0aDk4SyYjeGE7T291bVZLNVBsYjAwTzZOdy9BOWp1VU9VL3lIVy9vZk0rQjhFUWZycTVBY05jSnA0UUw0SzhocGhmR1hPd2tSYUxXTmFROVVIM3A4ViYjeGE7QVdzM3N2MkpEUHZrSGloTTRVb0dmbUxqWThHN1ZiZWZFcGh3cm1NLzJlL1I2b2pzaUd5L2lRUkRMZld1SFRPWUw0TnFtK0JzSllUWiYjeGE7Z2FDS2JUTERSTU8xOHZVbld2aXFqZmdGREZKR2c2WW1HbFFMWDh3UytVaEJab2lIeUtqakVrbGwvaGpsaldFWnRRa2RBbUVvZTVReiYjeGE7bFhla1l1L0lPd3cwK2k2OGNKOXcxaTArb0hESlhDbnB1QUVFU3VNd2lXNHFJODR0THFlTExEcTE0M1RWT0dFVmpkdGFVakZRTDY1YiYjeGE7TVE0RXg3NkkvbkE4LzdaWWZ1bTZFcDczcWp5TDl5cmd2Qm9MejN0VjcvWmU4ZFNiNmJRblU1WGZNM09vNXErL2tCVE5sdGdaZmh3SyYjeGE7UFRiMUo5M2FlbGlReVFzNU5nSEhhc0JXcUxFVlo2eWpqSFhRc0N4L0tFam1xcDBhaUJ4Sm91T0hyYko3WVY5ZGJvR2pKc0oyMWxsZyYjeGE7ZWh4UEhFd2ZaRm5aRE1ERU81dHFtbWx3QUkzc3ZTbXBxU09mUmFkZW9KMkNVVGpwa0NvTncwN0VjRk14c0pkT05vYkpiN1RpbnIwZyYjeGE7NTdBclVUc1RSZENidU5XZjJBbDJkbHlLNHV3K1JVZkdERmYzdHE5d1dla3MvSFQ0aGQxWCtIN3gza3YwdkNKYzZucVBjWWdkY0hEYiYjeGE7S3FOM3E2aExscCtxWDFtRU1hWU5GYzlLa3FxVVhKVWMyMnJiUnVQWU5tb1pnVkpJTktkYzZCaTdURXJPU3BKbU95QkpobExlbmxpSSYjeGE7ZkkyVXlsVjZIVXVYVkJTNjBKbDRMTnVic0ZzUHBvOEZWaTI4c3M1Z1cwR3BiS1R3b3NaVTNGZ2VWTjVkRlI3L2ppMzF2WHN3YzVJSCYjeGE7czF5N25sN2wrS2FsZDFwWDBodGJkZzJib3lZcXhNNU8yK2lHMmltdmRpc1pqbUkyTHJxb3lhOG9oVFoxK0JsZXlGb01XMUVjaGJtSiYjeGE7NGlXNDRwRUZDMWxqRVFvZkY5SU84TTIzY0kyY09FYmlGRFNUdk1LM3JtNHBIOXlmc3IvbENwZko3Y095Mk9NU25rbjIvSmRHdWpnbiYjeGE7UklhZFBOV1RzQy9OeEY3Y3NiTDJzTDFIeFI5YkFZamE4aFBKSk1WRTIzL0l0Q0YwUUdJdUphVFNpa3F1cEJRMWtsZWpyVUpqS1hhcCYjeGE7QU9xcHNnOEpiU0tLcGRSbU1GT1VzY2pHbEZDb0VsMzhGR2s5RWlGNENjOU9IN0xTaDJ6MEhwTEVTTnE3blhxbDR6UEVIdlpFSG9vdCYjeGE7MmUvbk12RUkyOGJUYitMWjMycnZJKzljdUY2YkNCdnVLUUFucW9zc0xTT3NjOHgxdzZKaGtzSEptcFJ3RXVXZ0MzUDFybWpvQkRSayYjeGE7Rk9CU0IyTWEvQWlidDlXQ0RCTEFpcDhwaUZ5d2dQUWRPQ0Z6ekhnQ0FrZ3I4amptR0xrUzVWUURDeUVFZWdKNG5BcHMyNUtEQWlFMCYjeGE7VjljSkRxRko0U1VaNktzVkhPclVnU3pHMHlmRlVDUWdjSFRXMWlCZjVJVFhHdFZaUVlFczZFV0FwckdQYVV6aENlNTBZL1NCRTZxQiYjeGE7SS9NV2FWZEl6YnZXTTZhYXk2ZEpHYkNSNUVNNDBPdTNTdjVlVXp5aXVNVGl0TUNTNE9YNHlpRklXQ2dRWkNRVVVONGNCcXpFcUF6RSYjeGE7RmZBL0x1NGFhTlEwaUM1NG5OaE9TVnhKZzUwNG1TdnN4RmtDQSs0ZkhjOW5xOEZkWFRId3BnaDhabGRtMS9ZZ1ZYTXFseGIzMnFrOCYjeGE7WldwVlp6cElVNFZwcWxyY1hpWHVXbFhpdGlwUTJhZWFlNmFsVHFWQnkyVWg5R21XeTlPTXp6TDdKQ3RrMExjeWZab3FnenVjRlpHdSYjeGE7SnFoT00vYzhrMmVhbGJUZ3B5ekFqMUE1QytSSWtra0w4cHlMcFI2VXl0UUZQdk1LV1V1cTBpa01CdmNJL2hZeW8wRmRTaEJpS1dVcSYjeGE7Y3h3aTZZS2lYQWZYM0JuTDlVeWxMbG5vTlZXMXlLV1RSRnJ1RTEyQnZMUURjSVZWZjF5VkZzb3NxV1hrMWRGelYxaXRNYTB5bTcrRiYjeGE7VlZCU0NTN2IwSUNhanR6Q2dmN0swRjZMbnRLU3FiZnNDZzl6NTdvTFM1UnhGOTRzdlJGclZMYUt1L1lUeTVHWUNMMzB1Vno2UWkrOSYjeGE7V2Z5UmhMK2k5VDdQV3FvZG1rajNsaHRLVFd1cEs4bnJsV1EvUzcxREF1MlJRVVZIQ0IxckQwcWZCR3F2SlY5S0VzMnhIa2hwUENkRyYjeGE7SU5YMURoTloyazJ0cWxyWHhxeXNsRTdsMmdwYVhEOGJxWkhyNjY2d1dXTjdsWldyV0s2MThCWmJMN2ZjN3J6aFl4M1lBWlAyZTNkRCYjeGE7YkFPNk1LNUNVd0ZOVXFWUVpHa2RIVDVSR3M3Q3RNaGNwV0ZQbnp3dm1BSnJMUFdna0lwU2lWTEV2SU5MY0dia0l4dHBjS0tVM0dFMSYjeGE7blFVTWk0dEFpdVR5QWdJaG1Vd1FmdUtFY0hBemNtMDFvSEJHNU5BcXlKWFZBcGRGSDFZT0traU5RQ2JLcnpFaEh3WW5SRlprV00vSiYjeGE7b0o1UWJNcFVSNmVNdkZ3REs5dEFWdnNpYUk1TFJldHBZckdqK05lWkVYdUVZeUxlam9LeFY2NkpPSk54ZUh1MkNkbUd4YTZFazA0bCYjeGE7Ky9TaWF4bFl5YllTbDd1U1RTUXVGM21wcXNUbG9wa1VJSjFkeGlydWoyZGlyeUZYQTRpbi96MXI2ZU5vdlcxc21ndXVwampManVUViYjeGE7ZEcwNFZ4MlkvUzZGMEh2Mm9RRmZNVjFHWmRSOTdidC9GbTN5d2Z3WG96WSsrV1cyT1hnMWlHTlFLWHR1MkhxbEZCcFovRGRteSsyeSYjeGE7dnlrbVA5YkY1RG1wdHhMN1JhSjVWa290NFN1VXR1Mm0xb0RLWXNYVFZiSWtzb3JRc2NwKysvQ2xyU3oySFRhMXlsR1k1SE9sSnZmMSYjeGE7eXBRa253UU13RTVKY3FHbnMxOEFkOVVwMVR0V3FDNVZYclZDVnJjSmtMWlNVK3VZUHEzV3NBZmlUTXkybDlkcVRpdk9jbXgyK2F6eSYjeGE7aXB6eEVBajJTNThBNHF6SHVkc3Y3dE81RHFmK3MwbWNUOUJRUFhQNU9URENDbTFlMnRSYkRXczArR2tHMi9jQVdRS1IxZ3ZycHNXWSYjeGE7dTdjdXpPZVNQajVIOXJOTXA5eU1MdmM2L3d1YjhDV3NYOFpiTDQwb2FuQlZ2ZHJTZEFscFBiQkRYUlhLUkcyeE14WGJpdkdhcVdmNyYjeGE7VTBjREhRekdLc1RuUXF2S3pVdTlEaGlYaExrc1pCbUlDUVUxTXVEMFhvQmFaN2pPLzhJdzhsZmFCd2xteHlMYmFNSjJYTEtLVEZaLyYjeGE7VTdLSGtCRVFOa0NxRlZkclFhUnl5U3kxVEtVVml1d1k3b1NsYTZ2REJuMm4yQ2xjR054ZHJHeEh0Q2k1Tk02MS85Y1d3RjRDdFFDNSYjeGE7blBwSzV0bEl4Q2MxK1IyTVdzelNrVXVBbVR0Y244OWRncEV2aUFqYUlwbkVpelhudlZxQ0RKWmdSQmEyS2UyTVZGazhmdS9tcGQvYiYjeGE7QzExVEdFZ3dITW1UWE81MS9oZkc0VXRZdjBUKzVjU1VHR3c2ODJNRHRFaTRhaEhBYU9sQ3l0clJuU3EyMHdnblNqd2g0VVJvNllSbCYjeGE7RTVaTVZPclZTQ0tBY1N6U0JNU1FFVVVnWlRVN1BtU3d4NlZkNTMvaEhpdmFYWjlkaXhGWUNHSEJocnZCeHJrMFd2aUxZQ1B4QmlSRSYjeGE7UVNLaUVoQk5aSmhaZ2pxOEJMd0EyZVZlNTMvaEhpdTZhOXVFRnFPekVNTENWM2FYd2QwTDRaMFFXQVNoa3hCeEVWaEdOMmg0S0owMyYjeGE7SkptenZoQVRDaDdtSFpaTzlPdEVwajNGc1VsMktxVG9JRStMUnNjNXR1VGNsVFVTK0V2OGlLbThNRGErUXVzUm5jVTgxZ1kxejZURyYjeGE7VkdFL29xeHUraUYreE1TY045bzBwOS9rWUp4eFhWRGJZb1NIdnFyZGJITE1LeGtZYXZBWXN3QVFxd1pXOVRIOXVnelN1MWh0anlnYiYjeGE7MThyRTFVbTRHY2x2ZGxZNzFaclVPZmltcU83WVpPRUxMeEYvNzB2Mnh1cFBZL1ZISlFTYnNkT1FkMkVCS0NJSlZlUFlla25hY0lETiYjeGE7U2xubHpHU1ZUd1A1NVAxRnpVYVlWUjdBWE8ySFZmVUFWbVUrWmJjdktydjBUSDI1Y0c5Nit5THpYRGw0MFdTNDlwZkEwb0dLb2RaMyYjeGE7L3JpcU9ZcjVaVjBWb0FlVU9hRkRvU3lLSnQwNlRVQUZwMC95Sk1xQndIUFF3d2c0SjRvUkdpWUc2VFlxYTBJSGNneWJqQjdqUjhEayYjeGE7dFd2c0RKdGEzNUgrTUc0UjhBVTBNNkxjRjB2QWNoQUdxN1JDdUNSRUZhZFBDa1FyUjV5Y0tpOFlNY2hEQTRKUFBFd2MvTVFPbE10ayYjeGE7NjFVNXlQSWhmTjJDTGJyQ1RuQWdGa3h6bVVSUlVaRktpTTBCcTRNWDFZZ3VoU2hZR040RzZrdFdnRTZKRTk4WEN4ajRKQndNV0E4TCYjeGE7NkVSY0RMTXNzcXhFVjk0VHBvb3l3eWczb0VIRVVXQ2pQWncxWlJaRlNRN25Na1h1SldqM1IyOEE4T0tDWThJcW05b2k3TDBGcndZZCYjeGE7S2VnVEczTk14WVFsOFRBaDNES0xLcTZ3RXhjMnNhVjlKcmIwSmprdGxJbk55ZEZtRmR4THpXNmxzWW9QZDFVVlJ0bWxhbDBFaHV4UiYjeGE7Z2s1RFA4UjZoNitDQlNOVFE4cmtsdU9aYWt3Skt1MjVvdjlIT2toTzRobnFtQWN5eldEU2N5NXhweXZIRXpEdEQ2cmExaE1HbUZjOSYjeGE7WWRHdnNOS3Z1Uyt0Q3RtVGhxS0V3L2JzZ0tEYU5sRlFQd0o5VVpKZzRTUUdtbEFIdXlwSks1MnJLb1ZGUlQwWUQ2djJzUXFad3VKYSYjeGE7c25mWXNsbWFMSjAweFR6WW00bDA5Sm9rUlNXM0c1azlWcGlpWWRYVkpDTUdlbVBLUlZWZWN1a0ZlcVBRVFpYNnNGZHZ2SUI0OU5aVyYjeGE7d0JIaERNMkpWUUFmclVsRWpPdWNrUjN4RTNTNFZTVXNzQXhoOWFBTzhSTWJFYkljZE90d0dLYVp4ckNScTJFSnJUckY1NjYySnh4YSYjeGE7WHVmb2s0N1FySndTd3dPK1VXR3pTVldqaTVjK0FZbWl6a0RWaU5ITlI5MG9PMFZIdWppQTVWN3U1Q3Zyd1lVNWQ5Ykh1VFBIQ2R6QiYjeGE7dUdDVGM2dzlBbmFwTGVVWmFJZ1Z0MlNEbnJwbzI4S3BWYWw4eU1hTEhNdGlXWVhsU2JaOXlhbU1GdGF1V0xIRm82eGlESFhrcUk0dCYjeGE7SkoreVZyejBwUTRmUmdQSkxSanVTbkozdytHUnIwNmx2OWRDZGhHZHFFc1ZKMjFjMGlaYVdybWxSeEpDVzAwRU93PT0mI3hhOwkmI3hhOwkmI3hhOwkwMmtxUk1BQnJHcDNxdmhMRlUrclFpL0h0bnU2VzVUUXh1bXcvVDYxZGM0MnN0VGFWUHAvSWxweEdLS1FrQjJGQnUwWXliTzMxUWkvJiN4YTt2TnlKTThSYSt0NWJSc2dnT3pnNXVRMldqUm1vOW5NenZsWEgxMTI4RFYvM0dTM0pmVDhkT0FaaGs1Z0Z3bURjNWdxa1phVE5PcmJqJiN4YTt2SU13MEMzdVZXL050NDhjUk9TeGtDZWRuV3VmR1U5eU1QclFqWFh5SE1waTM0Q25yaDllcWZlbUhLSVpiSGlnL2pBRE9mbkNTOHJmJiN4YTtkNUJ1UnI1Vmkwd0UzT1puY2VrSHFqNmViWkRlV2dvTGVhRHBRUjZJbTFCS3NCdTFwb2NwZ2hYWHJKWGNOejRnVCtJU2RGbE1LVUpPJiN4YTtpemxWYVpMZzNrNHFqR09qVDJMazhtVmQ1eEZ3RkZMMTBCVlcxbWxjbHpGbnBIVUVoZHdSRk9nVDc4UzAwOCtBOWVBUWNwQ2EwOUljJiN4YTsxKzlrNzY1SUZWVVMxWldxb3FZVEZ4Wm84ajZCSm5jRUdzb0s2QmJFeE9RT3ptTmxQYkdUMGFSeW1wU2drcXBLTlc2SWZDY0xaODhqJiN4YTtpcUVlT3dHZGZqUW5GMGIzNDNrNmU1YmppUHhnMTA1RWtSZXFXZFJSQWNKc2tjR3ExV1Nkd3dSUldMWUNwb0UvQWRHVHJESWdRNEZVJiN4YTtpK0k2SG5nSlNMcTBzOGdhbDNheDFsMjQrVUVYbGJ3bldQTmQ2UkZ0VWVCMUlDN2h6YWhPQ0dNY3hTYzR0ck1zanFxYTBrV0JNbExRJiN4YTsxb3NDRllPMG90MlJkVXI3RmZibW9EZFZkaTVsbE5nWmhIV2FXVG1yVjltSkMyL1JvbStMRnU0V1ZjbFpqYTdZNHRWclViWHhqQkJkJiN4YTtXaHRVUngveDNsTnBjZ2JZanJkb3BRSnczc1lXalIzb0liTkJ2UzNxUjZOM1F2NDZXN1F1Y1pIS0l1WUNFRmdPdkFZdW5lZWcyc2dOJiN4YTtVU0F2U3VGMEtRcXF4SWtiQWc2OGlPcWowYW0zMzRad24rbmRvdTlHaitRV0JhcXVRUGVHOTJkMEVNSGhqcnAzbXBaMVhLYThPOUljJiN4YTtlNUpuR1J6QnZadkRqdkNtc3FTTzB5SGV0a092ckE4WDNxQmwzd1l0YnhJQXZOeWc1NGdCOTdSMlYyVVhUaFM0aWdNUGFPdzZFZEJPJiN4YTtBNXo0dWIwSzhPaHNNZUgrS0x6UWErRWtQbTZKQ2Uva083bzVyRExYa2Z0NDFoaHhyVDNyQ2x0T0w0V3JONGQxWnRkRVlHWGNkckl6JiN4YTt6NnRkOTZNUmd1NHJBcXF2bHdpN0plTlFWeFJTR1lkYzIrbk1NZEhiUTZMRi9sSGsrMlRyY0IvUEZidmQyODljbkNYV2ZYY3ZWZkhDJiN4YTtjOGFZQi90WmlyUEc1Ry92cHgxTG9zMFFpWFBVcXNZWjRvcEJyangxdlFPZnA5UHE3TzZvRHJVRysycHJNcGFkamtXQ2dhQUV5WW1VJiN4YTtDeFFtdTV1RTVhUmdtVElIUEVGbWtreS81RVFSbUJsUGxwbXU0TUlLcjRzS3Fjdk5BYlJUT2NlRUlsL3JIbnQ5RnBRNWhwMHVkTjVZJiN4YTtiQlhvSFZOVjRzcWtqZkd3Q2cxUGFLWTNEZ3hERGNRTXhZVXJuSklyUmtJV21qbFh3OG1zNHFxUkxxMGF5b1ZMSlJTWnpJWVRWckVIJiN4YTtPeGx1SXNzSE5Mck1zc3lGVTNVUUpYWVpQYXJHWGxBZDVrU2o1S05CdGRZQStha01lWm80WVVmb09ja0UrZjVpV2UyRHEyZVlpaDRHJiN4YTtmMTVCMTNVeDU3MUlxRE56YnhxV05qYjNRMDd0aXl0TzU1MjRJT3hVcDF5RU9DdndGQS9MU2U3YWdxTzFaNHFhNkJuU3VTdGdpTE5pJiN4YTthZkd3OUNydGdBYmJNK3RPOUt6U3VZdDZpTFBDZ3puaGtGb3U2QURZbE5JamJ1QnJqRnhnNDdJNTZEWENpUmh3NHdWOExBd2pFZHB5JiN4YTtGdGN2MVhLdDJDYllhb25LbG12SG5seWJTb2dMalYvU0s5ZzZvRFVqUGVlbXlLNkNycERHcWJMalZQQmhSa3lzZ3cwRjFFVVpvZG5jJiN4YTtsWDNwenVyRW1WZGJSMitWamk1NlFHTU0yRjEvRHFZand5cDVXL1FMM0pvRHFVbnZ3Z1hKV2VlNTY0ZmJjV2V2N0prOUZjVWlnME5FJiN4YTtGeWhRRStYK1VJR1d2clZyN256SW5UNGRRTStoNkZjRWdqTnB3YlNZbXRIdnBFUE8vYkd5V2ZmTGFLMUNHYTJ1c1ZmMEt5Z2FFcVYxJiN4YTtJRkdVVGpyUmhtYWV1L01BSFd6RE9SQ1htMHNxY2JVdmx1WHFTdnJpTXNyY3Z2TnpkeG1adU4zWkU1ZFJKSmpuN2x3UUc3MnpSOGozJiN4YTtsNXJITE00TG1PTE5ucDYvU3lteUhFaHZxSU1KRGtyYU55a0dxUkwyamFEdjV5WDRlUUNabHdjUVdWWDJPTmlmdElUZENRV1psZHJnJiN4YTt2c1NvR29XYkNkQWY4eDdMYVBkdVVZOEpvZTNHTzBQNG5hRDVIYS9aOVpKMCswdW1TZENLMEdkRDZOWUpDRmtRRkpVVndpTzB5ZDcyJiN4YTtBMVdpc0xDb2JJS1ZZb3oxUU5WekMxb1A0QUR4NFZ0Y05LV1lsTkVKVUtscmFPZzNNOFQ3R1JsWUx4ZEJTMGpZeEJEU3hXMWtHaHdXJiN4YTtBWU9IeGpYV09GSGJjV2xxUXF2bk9ueU1TNU5FdmkxaW15Vml0eDJpSmRtcEVibzhYMG5ybDIreFF0Z0YrbnhNSGcyS0x2WW95dTRVJiN4YTs1QXVPdlRTWVBHcmtOdFI2MEZqQmI5akxWSUhzUStoRXBDNzMyRzZvOE13VWIwZlE0eGU2Rm8wTFZrbFRXcks0Q0lUMnBlaklmYVV2JiN4YTtDY3A5TXA0QzIvYU5IcGN3N243clFIZmMrNVg3ck1WbGpoclBLamhwUEx2SXhVZU5neGFYdDlxODJPSnl4dzNEYmxNdkdBdTJheDdGJiN4YTt3RXBxWUlOYzBUdUc4Y00yQnU1VGtsTTFLMEZQcldQS09xTDBHWXpCVFpLb3lpa1ZDWi93SW5jd2FNcjNUR1k5anNtNkhxWlZrZHZlJiN4YTswWGVsU3h4Qlh0VEErdUFWY1ZyVU1iNEkyQk9pZ1lHbVZrY3BZbUlQWS9Sd0E2Y3JFbXlFcTZlWFhvNFJPcWNkQis2MmlKS3FoTy9iJiN4YTsyVkJYMmd1dTVwMVNYRWxVbFNBUzBoUWpORGJPYmNicHIvaEpVbEM5Wm5SdnB5bjFzc1N6b3l5U3VJQXRrUVhkK0tuWFB1Yjh1WFhtJiN4YTtYU3owTWgxR3FSMno5KzUxalhQcDRQUXM0S0NFemlRZ1A2RlRIMmcyQXpFaFFzQjk2bGFFc1V0cFRNZHNGWEVnVHQzcFJ1aVRualZMJiN4YTs2aUZHREZoNUdGZlppNnNLWEl3R01ZVU4xbGNhdVdoNjhhN3NJQWRQNngzcHo0VkRVcXEra0pUS2lSbmJvYndicGFyZHp5UExOY3lVJiN4YTsrTzBxSHA1S0ZZVENWSHEvaGhjUUV0T0F6WHdPUWllWFJ3cGpkTzdwYVJWYUUwcDBzZkt0aUtzOXlBY0thY0RJOXR6ZFhTcWJtcmRpJiN4YTtQdytxMktxMnFjNVNWem5GY1lzbEk5RGRuUnJIR2V0dnZ6MkxObGUzUHJQb3VGMXlGQ1E2bmtGdzNHVlVFY3Ftd3QyOXhLNlNjL1pzJiN4YTtVdTV1QzVCUUJpRHU3djRkM2MvcGVzYXU3akpYWlVKWnE2NDYyZE12am5SRkhhRGo5QjBBajNpM29Dd3U0U2l0KzQ3UzJqbEtMOThvJiN4YTsyZzJyT2p2R3RYV0NYNGtCazAxNTdmNEg5MXN5TnJvQlQ5clFTTWJWN2VGT3dmUDZyUm9HSnhLVHFKR2xPQ3ZMTExpUFlUQjJqc2xMJiN4YTtOK0pkckJKZTl5UzVZb1Bibm9meVd6S09YYXBwYk9SVkFreUIydEVDQkdjTS9KT0tkMVZsVVlQYVV0Y1lYVit3NmxKaDJrOUtZaU1YJiN4YTtNeXNjM1lXQzZwMDhQZVM0UldrZlQzMkg0WlgxNEEvbDh1MHBsMzI2cGF0YXl0TEgvbFY3MThpNkdubTFJZmdFb1JFVURJYUNqNktnJiN4YTtFSlk1YllHVEFoaEpJWktwOWFrT3FnSmROWVNsWU9kanFBd0J1ZXZET1JrTUJid0xXTHJWS0xucWNvR21QU2dGb1FFSFVvbWw0Q0lxJiN4YTsySmdLR0NVemx2TTE5WEVWWkl4VUllVDhjQUJObzJmSHBFeTRSYTNDeVIwY2JkMFpWbmR3MWdBRGd6UzQyZ2s3MmxLSkZaeEo2QWlGJiN4YTtybERTNFdsQWVVWVNZY0dRaHNKWWlLMlFNTkNURFVHTUpEazBhcmhFRGh3ZGxtcjBiYzRTOFliOE80akt1c0FMUFptQnd3U3k0SlY2JiN4YTtWMkpkc1kwLzRNTXRDSjJqYjdMMGZkUUZPMWZmUlY2WWR0TDFRVWNQd1JMRWU4TVNLT1FGR213UnZITHZDazFFRW9KZUVBR2dpVDZvJiN4YTtpUzVBUWR3ZHNyRGdKZ29kN21NSC9MZ2hQejJKSlR6WU1uaHRHL3pXUVFzUGNPTENReFlCVkFZVDRkUTM1Tklmc3VmSmc0T1VJUEJDJiN4YTtza25vSm9rTlZaeW5tRzlKTjByOFBhb1FBUStPVzh0MnZ2V3BpeDZ4ZlRvbnFaeHhwTTlZL3pUdFAxdTdwNngvMnNJbHZFUFhRUy9TJiN4YTt3R3l4ZFFxYms1alBZblVleXpQWkhEdDhOUFBoWXgvUHJRUW5udXFET3BLUTlJbkV3dUU0YU00NkxJVUVRZUl6cXBiZzhHTkpxeE9kJiN4YTs1cWRBa1ZLZGxKakxBNTBqZmtjeVU2TVZUc0MwQ2Z2TlpOZ3Zudk51Y1VhVzhFM0NvaXE4S2VOL0JRbjhDa2RKaFFDSGFqVzZZY0M1JiN4YTtGVmhkY1pGTURxNFdwQkswVmszT1dDc0hSa0V3bFRrNXhuM2NLZGM0UllhQWlvTndLalZ5aFU1Vm9yVzBMbFduVTVkbnRhcXptaXF0JiN4YTtzQ1dGVzV4MVM2SFdIdEVoTEVBRUJBbGZtQkJzNis1VTZ6QS9tWlNpYkZ3cUpXUVVXcUxTY3FtUTV2UkdTaHRqdVVYR2hLSFlTbVFuJiN4YTtJMmlwL1pCSWdjdVhTMG53S2kzNlozbWtzZWpmRlZLVm1KcHF5aTgwOGhmS0tiV2dva2V0VE5tZmFucFBpTjRUM2l1UzNrc3J2dDFrJiN4YTtKdWs2VGF6R0NpblZKbVFZeWNoRVVwQzVwQ0tURG11MVhGM1lUZFJsRFZmcHVFckxyWVJGODI3b3U3SWJKRHA3dzZRU1ZQMGxTb1dzJiN4YTtVU3IzdkZPSHRyYXluVlJXaDhuczBOVm9yVkswbERMa0ZpUHVyMGJiUzVRQnd1eVZkajJDRFpGcHFxOU1YNFpnUzNrRmxDamhjUFd4JiN4YTt2R3o5YVdvUmErU1FhaHBTcEhZVDdFVGowKzBtV09EUVFsYnBHaXN0eTJMUWljNGE5MWwwclluV3htNGp5NHZRK1JtR1dYT1docDFqJiN4YTtweGkyazdOdHNleEVKMnhJbGwxYVdScyswN1p6TjFRbVRHcFYyYlhyN0FJWkM0ZU8zV0s3aW5tNzVYYTlncnQrdlYzeDMxQnk5MTE5JiN4YTtvVzlkN1Nib216d1lBMU9uOG1IeXFCQU9YcDBwOXRaSTRIazdmVitsU2FXeUpvOUpsV29raEMxd0hxR3hkTzI4UFpWbXByQW1PV25HJiN4YTtwTTAwVXQvbjNacmI4QWpDcXE3alZ4UU8xUlMycXdvakt5K2Rvc0k1NXJBakRzMWtqN3JDSGUyeVg5ZnNhcDJlOW9tWDBFcW9yWW9xJiN4YTtEYVcxOUJTbHF4ak5sSFVXcGJkSTNVVkk5VVdwTUt6RXNMcWFTb2JMOXA1SUs2NVRpVlBmU20yT2RSc0pyU2VrVnNlcXJGSjBXS0ZWJiN4YTtHcDVVYTVVd0pSVWZwZUN5UkZZcnJVOW9YWmNGT1lWUUYxTmc4ZFJDMUZHd1YreVBVc2c2eGlmRlhxbFlhQXhDZGhlTlRjYS9jazk1JiN4YTs3aG5sbkdFUGxlczJLc3RDYlBmUFNOZVJjaDZGNHQrTkE0bGNORUw2YUd3Zmt1dWw4WXUwZG1QQ25jQVU0VVZXOUJkUDdsZ0krcXdGJiN4YTtlNXBRUkppU3Q1SndtSHdsOFFwRHV6dEpOMHk0SHRrS0NRbkpSRnZ0U2JSYlNGWkl4VjJuZU5uTzA0Nzd0RXV3dWVWRUpUZXFrSDdVJiN4YTtDUjI2eHIvcGVqaTc1S3A4aVg2dVNhNGlvNUtkeEpvNXZrNlRJbVo3RTRGV2hTSFZqa014VUU4NG1MNVFXT0ZLc2RpN1FuU1BvU3RzJiN4YTs3dW9qWkl0NFJROHIza2E2WWNLVlhGYzRUTGQwQ05jbjJ6Qy9OZHgycktCYUcwMjBkWWRvODdNU3JaRG1OV05UOUlnMnlHVnJUYlNGJiN4YTtKbHJKWTRXRjg5ckhZL09nV3o3RVlRdkZZVlBIT3oraEpWWWtXMi9scjY0REhJaFdXQjU2M3djZUtvRWR6cmhSSkF0RUt3SnhhMXZLJiN4YTtZSDhpdG9ZaTFsdENFWHVTdTBSZmRwZEtRV1FmYjM5RTRmWWd2WjdFS3RHWFdhWEM4N2pWdnNEQTdRbE5SVjlTaytqTGFsTHRzckp3JiN4YTtvZmkrM1pKejl3RUtMVHR2N0Z0UGVvZllGVTdHclo0MzJxNG5vVVRzaXJWalJNTnpSdmYxSmJHSVhmRjk5Z2JhdXdpNWdaK1R6czR0JiN4YTtyczY5cTRqN1NHemJYSXI3bHdIdndEdW8wYndGMTEzSVJiWjNRdmFla0YvODBuMHp2ZmZFRXVPWFhpSjhnZXRhK1VUc3dKWnBIR3laJiN4YTtFTEtNcW80c1Yxa29EQlJldU4zb0t3WS9wTFphZEJGWWRLc2FnWVhmSHNRbkNZSVJWejN2dGpGS0tsM0pYbFdGT1FzYXdGWWtCUVlDJiN4YTswQlhndWI3S1dkNitFNnVCbFFVaUZNWXpDR01abkFYTndHbEJWMlYzenZXem51Zm03RTFEdVFYQ09uaWpudFFDYy9LWmNQaGVVQUUrJiN4YTtrYmVkLzF1eDI0SXgraU1tUXY4MDNwMVYwSXRad0RHSVcrU0Y3VkJzVmgrVkFJUWlrSjZ6M01wNjJKRkdzQTBTd1pVekx1bm44azErJiN4YTtKQ0djT3hhLzc2dytaeVIrSHhLRHdraSt0QjZpTVBHV2VybXRmK2RJMmhYbjZ1RVdUQXNIZ21UTHlhU0ZHaCthcXc9PSYjeGE7CSYjeGE7CSYjeGE7CUNNaFJNbkJNOUl0U0tscXNlMWFaRW1SOVlHRzljTGVpWDhwU1h0Y2ViTEtlMW94VEtBaXZKZm9Gc1ArWUQ4SUxXK285UFh0bG9DMFMmI3hhO2tPaVhycFJCWmV1SkhXeHppOVFsK3NVdUZieHpuaFo3WlQyeEJTL0kyaFplRGtOdHdRWjFTNXo0NEVGZCtLQ0prT2EyWHRqVlhiQXUmI3hhO1BxcUw2SlVUOW9SMU1kaERuSFpnMjdhNzZSQmpLL2NDZTU5N3ZYZHRoREFHb2JGTjNJUUQzOXJTaStiaWc3bUlpNks1R0dtREIyeWImI3hhO2xCU1FyTEtDYnN1cE1MQzREbjZMOEliWnRZU3ljYVVYeE1VM3NZaUxncmg0WmhaNkFjNVhJa25BcmExTlg3R2tuVTZLaHBPaFFmV2kmI3hhO0dibWw4cEJic2wwUXMyZGhkZWZsbWxSNDRWTHlGRXdpaGJpc1RBVWxFSWpMQWZGQVlZQUhmS25EUllUci9ZYTd0M1ZKWE01Z3BhM24mI3hhO0UzRjVRK1dSaXIxVzlnekdOSEZadzIwZExmSmNvTFpVQ0ZlQjJycVl0dUxpb0xaK2ljWCtsVGhic1lZSkw0ZHdWc1FPZ25JZ2JVMkYmI3hhO3BiUEExc1lkMGRCQnJSVVhncTJkV1BVWjVmd0pIZVdqSW56T1d5WkN6cWVReEcyVHR3dGF5L3Y1TTIyKzJoK1lWaGRaTnFLNmcwc3ImI3hhO0xnUk1hNWVua0RxRWNLdG9YS0JBaFl6VEV4WTRyVTJDaGlGdzJ0eTdHRUxVaWJzUlh0RE54VXBqdEJ4UDQ5b01EUUkyVXIzVXZ0Z0EmI3hhO2QyR0FWRmRrRjVkam5iWExTbDRZWE5ZVno4Vis4Sjd2NE93RTVtZGIwYzF6elkvWUQvNlVaK2VzQUxFN1praGN5TG9mb0NCeFdmREUmI3hhO2FvN0VmaEN4am05QjdmcUV0alp2N0ZJSHpWbWVCNWRieGZJcnpBOXNUaUJkQ2RzZVY2MVlyRU9hODZmVDZXVGFUc2ZUWmpxYTF0TnEmI3hhO1dnSnJ6YVpwRi9xWExlaVg4SGdlK29LVDJSSk9hUW5tc3NnUGkycFlncG96cU9vaEhCaVpuY2ZTOHdTWEJ2T1NaS3BzbU1MazltZlImI3hhO3FBZm8yeVdvY1FTNkptK1d4YkMwRWR4Njd0TjNnZW9pQkdmVDkvSmhtdGRXQWs3ZkE5enZ3cHFNY3BqVmlkWGw3cjF1M2cvZTI1cnkmI3hhO1l6M0FtSGh3d09hVmRSTzdZN1hhYzUvSEdtZFpiTTFETmN6aDZMZG11ZThCK0xZMTk1b1NuTS9Pa292MGFMazRXcithSHc2YTFXeTkmI3hhO3ZpbjhEK0IxdVVvK2toRjBJNG9TVjBrK0xCZXlrczdscmpQU3Q1WENMb09YS0dzelFoMWM0eTVOaFl5Nkc4dmtDNlhOVjF3S1FCb3kmI3hhO01wblJrU2ozaVhaUVRDZ0thU3pkRk1Dd0JFVnJzeStsVUNqUWJQZUlVZGloWkp5V3hKOXh3UGFCQXBPMmZNRC9KcHFta1hrUkdsSkMmI3hhOzJDWWVXZHR3SWpNdHJLQkY2ZURLWlY1U2d2S2VqRnRrbzQrT3JoRVVQTS9HRURhSHdFNVJETVA4VERUalVGd21Cb2FCN0FLUEdUeGsmI3hhOzhJakJtZUVEUm5rYzBUU1Q4ckdDS1pxTlBsSE1jZUllSnVvb1VRY0poa2VwWTBRZElYaUFVS2c2SGgvbThFZ29nMFBxSksyTWVEYmwmI3hhO2VXcHBQMkgwVzRXQWErQXVjaDFPblZuUUYyUmRFVDNHbFhPN21ZS0NxaXJ4TmFXZXg2U3dKaFNLeGtGcE9hbXVCWVdzVmFUQTFoVFYmI3hhOzFwQWFPNmFvTjQ2Qm01SkNHM0g2WkVKNnJVSTZ5aWtXcnlSWFJrVVIveU55YURRVU5kZVNXMk1DaTRpdWpZaVNUeEx0NEVBWFJ5N0kmI3hhO1MxdVNwNk9pVElHUlBHRzBDbVRybGpwVGdRTFBXcVZoU2dXeld6ZkZxcHdpcEdYSFRiQlI2VFdGazFHanNLRmFUaENUcGg2MmY3QkomI3hhO29HaEtRZUY1ZHRSTDI3QVNhM2tuK2tKT3V2cFZOK3pFT0NmY3lCTlB3em9Icm9jSVFvL1lza3d0NVFrV1FwRHN4MUtHYWFVS09tRUYmI3hhO2hWU1VTS1lBcURTQVJLWmF5b3pJT0JlVUUxQktQYjZVMm1wRjFnKzhYT0NCRU5DQW0zaVVDV0tuekZoVlloeXpXenZUeUUwZEhlc3MmI3hhOy9BNUlnNEpwc0ZQajNKOVFxbWlwSVJ4Sy9UY2ZKaFY2OXl0OThVa3pzaktUNkU5MmNuR1IybHpuVFZSeWJtb3k1RGFXUGovUjh4SEwmI3hhOzVLdEVwbHNWR255Z0ZoSmtvWkc2b0lsUGlpd01Db00vb2ZyWGFQOGNKL2FwMHBtSmtNYVJqTGk2cXFGWms2Vy9rU1RhYWxPSm54K2wmI3hhO3NxTXFtYjVhWTIxTmxScUZaODNVUzEvTkxlTkFSZUdmdG9HZ2RaTDRFcFVIcFJKWE9RZXFvUndQbVFHRjhuM0Zhb3cyZ3hoRGtTbk8mI3hhO3cvcHlKaGRTN1UvS0diUHNRNXg3TXRMN2tpc1B5NUdhT3FqS3VNYjcwZXhHMkl2VWZkNkpoZXl4TGhLbDBIK1E0VldTelRHRE0vWk0mI3hhOzEzQnJLaVViQzZiaVY4Q3BCQ1d0TUpkQ0RqWFZka3RqdFRRMlMrVHM3SmhHUG83OEcvbDJRcHdhR2ZSb01oYkF6N0d5UW9Jamg3TzcmI3hhO1F2WUlCOFRFSE83dnBDM21FbDRZVHFjeVVYYUI3S28wa0YzbFpGaFpseElqS25VSm5YUGxzbUtUZmNXYUlhWFNjaDY2U25kbnpzbFkmI3hhOy9WTjU4UStkeHpvdmcrUFBLWGg4SXZQMEpwV2dvNWdzYTNRNGN4aFZUbnAvUm9JWlg4dzdtVm5MOHdCUGVoTFpKaVMyOGM5WWtEREEmI3hhO3lSa2pHZDNGRjJVOWVKQU9kaGkvbTNXaW8vVkZGN0hEQ2RNUHBVWnRqZEVYUFlsUlZxZysyMEVxUFN1NXRJT2tjaGJVNkNmU0lqTFcmI3hhO3c2MzFJQXM5TkI1VUxIZzhjaGhxQUQ0S2hjR2dzTE5mSWlmclJZSlFDQXVId2lCUjJDa0RKbUhBVFJmUVNWbVdDVXJXTU5xVjMxSTcmI3hhO0NWa21XY0M0MmExc0FXR1hZYlU4N2lyUEphMVlYemlidVcyM0xVbGNwRUp3eUpJa3psOGhPR3hyRTZGS1Y4SGFJWGJrM0piaUlhS1QmI3hhO2Z0TnhPM3VPcVVSSHhYV3ZtQ3FWeGxMV296OVovdk11eFFzbXd2d3phZ05YRTdoR2dhdFdsNUN4ZzFySHJxV3dweExOYlpRRVRrVm4mI3hhO0tVbkpqYkhTdkJsbEdQNmNjRmFxU2dWaUFiVFJ5bmhEeHZaUkxOT2ZwY2hhYU4yOElKRXRWMUt1bEhoVG9kVDFSdE1JVWdoS2RsTlomI3hhO0lFaFJCZ29iaWk2UUttclgra3Jrb0lpaDVCd1Bwb01KY2NoR1IwL21WblFuQjFxd0pKcHgwSURFZGJUREJqS1VvaE1WL0d1UzlkckEmI3hhO0ZmcVpkaTlEQmNJaWlTRFdRT0JLQTFlbUxqam1PRHBjYWFPUlhEUWwwS2RhTGMza0dWSm81VlFwcUpVOGQwWmFUVzJFenE1dHRiNDYmI3hhOzRYTk1FcStDVFVpMDdwcktrNUJQUlhWRzhvbUp4NmNLeXJua2dJTkxDamRRc1lmQVlwM3RyNVUxK2JmQ3k1SGJodU5RN01EaDBpbDgmI3hhO1RLVEY4YWc0dmt3bk9ocXNXUHdmK3ExSWJxU3Z4cmtrSWZKeUs3TkZYK0ViZk1oRHFFbTBTenJYdmxNYmFibk1rNnFLWXRnQ0tleEQmI3hhO1JDck1TOWhFTlF3Yy9rTGs0N3dBM2hMbFpVUmp6Qm5vMks2MGtkUlVhOE9ITTh3OU1HUlRoU1FiMWxsYVdXakxWOWdKTnZ2Q0hLSFomI3hhO0dYaEpUR1VpaGlpUUF0R2ljUUcxakFFVms0Q1hGemthUGVIOFM1TkFnUkg4bm8zdVRNVkxUUE41dHJQaXg1WDNSQmI0UUJkelRKeVUmI3hhOzBTb1IyUlBVNHlRQmZweWcrWHdJeW5OUlFLTlZpY1VDRWw0UkQ2K3lpM1lkRFNzUEZWU3ZTQVk5aVdQTDJINmx2ZUI1S09IQWhMTXAmI3hhO3FiSWtMcW0wUmdFTnBsR1Z4WFVaRVJvMm5EVVZxdXdWeUIxVW9RZmJjOEN1WXlxMllSTXI0Vjk3Qld3TThta0Y5K3JVM2g1WDJBczUmI3hhO0QxVUU5SWJuSzJobk9POUpDZ3c3clNvNGZwR3pFWjQzUW41WFJaR2gyU0RyMjZHZHRYRUpWL2NBSFNzbFlhbkNXKzI1dU9LZW5NVVImI3hhOzgyUXpueTl1Q3ZrMzlLUFVtRytYRktTdVl0VFJpdFRxMnBkN2hxTUhVL1A4OEJZQ1dGVnYzamZ3ZkpkNWw5NHZzQUZkYUhOdmRXWXYmI3hhO3h6aUJhYWphbS9zcVMzdTUzUVc5WG1LZTdQdnV2ZHo2QWh1d2hSQ3BPNms0NjM3TlNVbkpLc2JhTGpTWnM3S0VZaVBtR2ZWbkpXK3YmI3hhOzh5SVRuSDBVZUNRL0IyZGRJM2hzcTRvU1VNcnNlT0J3RVJjbnZKZFF1S2hIckJMbUZoWjlKSVZrRTVFOGtnWmFWaEF6SWo4MytWdkwmI3hhO2NVTDJSL1dHZEFVcncwcm1nVkd2VEZxYXlYdW5BaXo3b0x2djdlRzZrTEdQaGUvTEVid3ZKeGFVaGVKdUgzYjNZa3VLbE5BOTJkMlgmI3hhO2J1bEFwMUtLM3d1L0g2NGk0dmZFcTBNejl2cmk5OFpYU2t5cXU5RkVmQ2hxRjUwdWxoR3l5dk5SU0lBNUUvazV0a0NXNGJRUlZrNlEmI3hhO1lzNkdQZmNoU2JQM1RTRnpHdWNiN0gvUlFkYzJNWTNiL0c0S1dKUHMvZXo4eWFYVHgxeWxkdi9VNUI1VGJpQ2VqREdGQzB4Qkc3WGQmI3hhO1lxazYvQVNkZnVha0d1bUF3TlpDMUxNaEgyMEk4aEd4QkhOcXdjUUllVEM2a1ovK3dXekZ4MHJjUnVPY2hDbmlvU3J0MGd5WXpTZ3EmI3hhO2NyVzJCb3VYTlZqTDc2VzhnSm1RdnI5U0Qza2tEMmQxUEpzQm85ckFBOGIvUzMxSTI0bi9yWkFvMjdFejVJcnlXUml3RlFldVBWMHkmI3hhO01EaVJQaTRKWFBsN2QzN3NRb3l6ZkJsc0VmZnQvdExtMzJQL3RxTURFOC80UFZhSjEwcWtVRUtGRmlzc2tjZ0lGcTVvRVJCZStpeTkmI3hhO1o3SDFCb2M2Y1liYWFNK0dQVmgzdUxGR25tNFJaRnhCVHRmQkFmdVNWSGZJbGp5Rmd4WjdRWWwzaCswTW5JZHFlWFhPT1dDZFZNL0ImI3hhO090WVM3eHF5bHdmWVhXY1l0UER3MDQwY0hBeWk5U3o3Y3VEMm1lUGdndG1lRW45Sy9VblZpSFh1eEFvbjVkQW1xcWt5ZzFsQVg0NFAmI3hhO2dhekV0aGVoRTVCcUM4Uis0bUh1cEI2cWpEMFZ4cVVFUmhCYmhZVTk1MklqcWVBdEZ4M0pXUDdzREw3Y0NJMUNTb3kyektoczlOMDQmI3hhO09MYkVtemk0cVk2Q2t4ZkxLSGFTNXNqQm1ySlROZDJzeDRrTWpuUDlNSldhUllVMmxlcnN3SW5FQ05ZSmtJNXJ4aTRLRlZzSmdxUVMmI3hhO0NKcGFwWGRrMWdRbjBsa3pkV0xrS3BrZW1kTUJZL0Q5Smdic3lRWDVLM1U0WWlvdCtZa09QMVJ6YmMrMmlqeFVucEJNU05lSFFXMncmI3hhO2d3NVY0T0dZanQyYTBDVnFLWUVZTDRmbDYxRGl0U0plREZNb08rbW5ESmFNN2pDRFZ1Y20wVmJ5ejV3RE9GS2RzaGx4Q2dndHkwUUcmI3hhO0xhcGxLU1ZTTHFlbTZucFlHUDZrRjRaME5hR0RGNDBIemNwV0phVnRrcmxZZHFWVTNMaStoa1Npb0dXWm9IREFvdEZJMDcvS3lNeWwmI3hhOzhoOWJjYUVxUmRkZEdLUFFrZXVGbzBFamd3UnVMYzNZY2tFcEI1UmFrcUR6aVRWRGhpSEJ3YlV5R1JkM05NT1BLSVZYZ1g3bGxtUEkmI3hhO3ppZTFrbENGM0pjbXBkUk5LdlhCTXd4OFJxM2pJcDBDWUtLakk0YjF4RXNRWk03NWM4a3ZaS3lUUUVqZlhoRjlQVEY5Ym9KZWY3SmsmI3hhO0tGM1NyOWxGR3JLZG9OZXJvRm9xYXVxRlREckZORkU5RkZhOHBJeVdKR1hWaFFoVFNtS3M0MUp6cVNqYXFpSXBpNEwxUlV0anRLTlEmI3hhO2Q4V2d0cjVQajNlTHV3QjlRWldoSmZBVlBGb0RFY2lUdEZMVTlETFllYXUyaDlBMlZaQ2hRR2gwYlFNVmJ5SllUZnhxSHREVVhWMWQmI3hhO2F1dGl5M0tRenI3SGdvenM4R0JoeHdhZklUQjRISGExOHJMWU95SWM1YnJuZ3BoWTEyMzd3azRrTmp2RHRoMTV1YXNpa0x4cVFvcEQmI3hhO3U4TmVra0E0c2FBRjZkOGh4cEN5eDVMZ2lvamdMam5IUG1FOXdMSE4ySnE0S2dDUVMxdE1xVU52alJyZWRpcDcyV0duSTZIalRvMGwmI3hhO1JwbmlqY1hCelRhTnJlRFN3cW9TUWNZWXNTVVQxODR2dFptbUtYamlKK0VDZ1lnQTMyeVlPanpiWXU2d1RWUFN3ZHV0SXNBNWlUWmsmI3hhOzNaR0VvcldVYWEzdzY3UzFuVkJnZXpHTVdjeFVJVE5tTVcwVkVkSU81SlFma3pacFU0N09XSU1vd1p4c0l6RUpFMndieVUwc3NQQXkmI3hhO3BpTlp4U2F6N0VLS3Y5cGIybXhxM3RpOGFQQy8wTUcvdGozTlhUOVZDSUY1cm52OE5VNEJEMWhOWVVVRzhIcXFHaDRtb2NCT1d2L00mI3hhO3B2Wk8vTG11eTFKWUppaW0vTEVzdktJbjJ4UjZFOUlHbFpOUXp6SWtaeUkxZXJLVlF5cVNVNTNxTWtLVjNnMDZzMS9JU05LRUpOdlUmI3hhOzJLRmt2TFdwUmRHU2dNeVRiZVNLVkJlZ0tBZ3JmeVEwTzIwN0JZTmltVmFrOHJGeitwT252SlpaMmEzSFl5TmhoV1NZNE9aQ2FneHEmI3hhO0FScDVGbzUrVC9hemJaWXlOK3JYanZZdHJWSUtJeG5NMndvcnE5L2tleHN3UjUzeDdlVHpGOUxYcVR5U0twRS80MUtDbG5OVlVsTW0mI3hhO0JWRkpQd1pEbGIxN1hjdGRPSGExeDNibm0zV0VaYnRURHNlSlo5VXBMZXRkWDRVNGJkSVJFci9heEdwdU5XVlo1Zz09JiN4YTsJJiN4YTsJJiN4YTsJRmovM1Y1cGJSQ0JtYy8rb1RkdlVJc00yeGRuaU5sV2txeDBKM1RXanVaYkRiWFkwbVhxZWpuc3E4d1dyMUxtMUNOWEVXL1l1WVVHSCYjeGE7dThhdUxzU1dQZjNHaUdvdlFJVmdQQzVVbFkvbTVGYkg5aTFlNCs1Q2lNNUtkRU5vcmNVdzZQSjVaNnE3azkyZDdsQlFkaXdzMjZWdCYjeGE7c04wMTVhNkowY3B4Rjlhays4YmJmbVF6WTd2dVZFd1huWkxweGtCakZ4TXdJRm8yaEpadmJJUkhSTEFzZWJjb3VZSTlzK1ZJNWVSeSYjeGE7ZUp0eUZPVU8yQVU5d0xmTXR4cm5XeFJQbU12MGhNUUdKMkI3TnVjcGVIZ0ZUQVltWk44Q01SQi8xS08ya3ZIaHlDOXlPUE9UQ0dVSCYjeGE7aXNaQzgxaVpSVkdTMTNXWjBDZEZuV1R3anFLTWk2S20xcXZZRGpqQ21DMnI2UXlvaWo2eEl4aExLMXF4SHRaMXp1ZHRITnNCVVZmUyYjeGE7SFQwWldWVVhVVlFEM2FleXJiU2dsUDY2QXBtcXBxQXpoQWRJSXRBWEVwVGVjTm9qNkhSZXBFa2NaYmdsS0h6TmlVeWpZQ3M3T2d2ZiYjeGE7bk90WVJ2clU5S1lxaHdXYzZXWk8zcWxlTWRGRVpaVkhaUkVCT1dZVmhYRENwTVB2SmJRUlZkeStIOXFHSzJBRmJFWko4QU5uMldMViYjeGE7ZmoyRTFVOEdlVGtFTWNpYW1xdnVDQ05LeEhrT3pBdTNaODZyZ2ZPZW94aGVZa1FyeHpOaVVTclVnR3FLWnh5bXdLZFJQc3VBRTRQNCYjeGE7VDN2YzNhdndqT29ReC9IaEoxNE1KUGNxaTRjb2Z3K1NZZ2hMbEZ0WUZ1OWF6NWg2RWpoNVVwQlB5ZjlCWWE4UmNMd2lqWktzUUlLbSYjeGE7UFk1M1lkK0RRaFhYSFBSWUZmWlBHUWg3aFU5U2k0RDFxaFhBVjJyc1pSUmxYSjRSemt6Z0t4WWhYVm1mWkVncTRvYWtXWVR6bDhWTSYjeGE7dFdrSm4rRWhEZnNmUDZtQkZWWTFSc1RHOUF5KzJnbUt6b2x1N1IzTnBHMkhrZGVkOWswdzZ0WDE0U3hocUY4Zkg4L2V6QThITDFVZCYjeGE7WXRDVGJvcnd4L0RxUkFXcFhnd29sdlJlUjRBVk85V0lyVUN4WFp4WTBRR0s3UWxpbElqeWJkSXRXS1A4Z09SbUV0SzMwNEdVbDRBaiYjeGE7RjhHUjlaQzJFR3ZMa1JCclQxTkt0ZE4wb3QybFcvTGJPSGpSTFM4VkRxUTBXUG83Y2V1RkJaYzZ0ZjFhbkdseUlaaFpYZnVUYTI2QiYjeGE7d0NvQzByS3JOYnBJL2g2dWJoZFdWNUNyZUJ1dWJxa2Q4UjFzM1JCT2ZtZyt5TXVuNnA5Y0FJWFdjUlhTbEFpSm05SjFFNzd6RGtJRyYjeGE7TmIwVUtGUGpmUWlGalo0aFo2eUxVU3N1bWpYbUk5YUxQbEI5bm85TG5RMHNQM2FwczJHQ1ZpOXBOaWF4NkNzeHdQTng4Wmx3WXByRiYjeGE7WmM0RlRvWFljeTcycm1ZZytvb1p1Q28yY0tZTVJhT2c5aHU2eVVsc0ZpNVpWaU8yV0FWbldJUkhqWlZNdFBXcEMwa1ZaVWltS0c4TyYjeGE7WWlOUlNIZWxDM2lxWUdGOVoxVGU4VlZPL0p4R1laVWVkemRIQ0dUWER1NTJ3N3MxWlFqSFRlazRLaTN2c1hKV2FyY1VrWXp5V0k2cyYjeGE7ME85V3lEeE80MDJPSmFpQ3pEcndBS2dLamNwQVBoZ1RMSndUU0hKaEFRY1Y4cXhXZjFZeUtNWEVTby8wbjQwT0pZWS9CVm1MRkphTyYjeGE7Y2FLMXlzUGorSGxTaWF5VDZZd2l4dGNwWkN3YjR1NTdJZGFOZFByNHBjc1RDM01uazg1UEUzS3RNSUZnY2xWcUxhZUtUS1d2amQyaCYjeGE7L0ZOSUFKcFNWdDVVamlBS1VyZjlKckh6cHpvdUU4dExFZXNqTmZYK1pmc3VDS2pNbk1SOEtqUDRaS0lmRHdHYzJQaG42bC8wbVRuZSYjeGE7WFlBMEd5ZUYrMlArWlE1Lzg2OUkvVnZJSVVaNnNKRXpDZDEvKzJjMldnNHZDM0JXU2NKaU8rRHMyVEVleEI0RkZmdXJLWVRxcSs0dCYjeGE7cEkya2dGYlFncVUwN1N6ck9DZ2xkdFhlL3RLbi9mVjZ4M2owTkpLVnVNVlAvZktuQnMyRWplaWhjdE5rVUJkV0xWVDJJeG1JRXc3aSYjeGE7TlVBbnBpeHFJZ3ZVcXhMVVV3bU1ReENCWTZjV05WdmdUWUZmZG9DWW9GOEdRbEZXZVJsYTdTTHdHQlFlZzhSam8vRVFJbysrU24wcCYjeGE7MElGQ2FIUWVnOUJqby9RWXBCNkQxbU1oOWxnUjNqTEtXMmpVQi9OalNwQTMxalhTVjYydnlyb2s4b0t3d0gzY3VyMmhLcjJkRXIyZSYjeGE7S2I0Qy9UV1A0SFFyNFZoTTJaaUhXNkpLTUtxellBTk9WQlpKbmNkUm5SVTVHOEp6MTFhSHliQ2VGUlBGak5xMmZocTdwbTJJdjVyMiYjeGE7MllZSVBLaXNFc3hSUmtrQ0RXb1I4YXl5cnFPaXlzaHN5YTExYkxhVmpRbVE1ejF1aHJmV3dsbWtyTCsvT3RyTVB4bzBpOW5CYTVDdiYjeGE7bkY5dFc0MW03aTdlY21VaExrKzg2b2pLcDJURDVLc2lBcW5RVlJkVUJKUEs4ZlZ6ZTkzTTNoNVkvRHdTT3Jvd3R3dHJPV0NOZHNwWSYjeGE7ZjRDU2xBaUZKUks2UUJkZG1YQnNoU2o1MFowNnZsTm9BVkZYWWRDQm5ySGtocW5FeUdSeHNaRGNzOUw1aVNQTlkrRnZvVVhJc1JRayYjeGE7V3dtak9iRkV5a2lLbFNSWWJrZTNMbngwYTZzQWdnK05iNEhqaXpoVUlhSUlBdi90cWdkTE1JZ2k4MnRyZEZQVDdhREZKaGkwYUdrQiYjeGE7U2pWMnF4N0VsSnRnTDd1S1N0dTU3c0lOSlEzQ29ycWh2U3FtMUt5OUhhdVdDTDMwdVZ6NlFpKzlXWHhlZnJubTUxbEx0NVNGWCthQSYjeGE7MWpKVUJtNVgwVGs3MmRQTHhCZWRUTSt4amx2ckM4bDJJNEx0RUVPS1ZiUGpVUHNxZnJqUndWNDRxaDl6cU5CcjNMaFVZd0V3SzJ6VyYjeGE7MkY1bEZUa3MxMXA0aTYyWFcyNzNTQW85aWRuMHY2ZElyTkRQdHJnc3UvQ0dWM3BEN0ZGN3czQVdHeG1DcS9Tbzg0SXBzRWJGYnF6aiYjeGE7cnppS2ozbUhBZzR0Q0RSMFROUVZFNC9BUUx5R2tFNlJIYUJOQUZrQWx0dEpnQ1pLQko1cnFnbUJnbWF3eURVR20wTGZFd0lDcldCSCYjeGE7SWdSb0RESXlZbi9XSUZXM1o0VHM3eFI3Q0paN0VKY0wwT2VXOS91UFEvVHRCZEluenF2QUJmUTNtZTExWmhYdW9tc1pMTnh4M2xLTiYjeGE7dmZnZTRqS2hGbkVaeGRuVjhCMWxYeTRUYXJIcml0cFBEZit2V1V0bk5jVjVqQ3BiaTlSY0xuQm1Xb3V6RzFWY1BiV29NYUlDRHB3UyYjeGE7TzBPQlYyVUd2YTJyTW9YT0ZCaDlWS1FWOUR1cGl3SzBQb0p1Z3dNalN6RndDY054R092TERxSElPTURBMVJyallGQ0ZyOW05SS8xQiYjeGE7UFZicWtERmRBUjI3Ny81NWRjaEI0bW1SZytTeTlNaHU2YjYzcTBlcWJCY0RQTEtmRnVrcEZLS1RsOVpmdzI4UExWS0psLzFhWk5wUiYjeGE7SlpRTnJxdFFORXFQOUxYSXJnNXBuQk5KazE1Y2p3d1VXWHVMZXFSYmFkRFdQVUlKb2IxRkhvU1QvVGJwVkJuMDh4RzNyN3hWT0RTayYjeGE7UzhZQlhkSmtQSVYwU2FBQkVUUWwrTVlFUjZPOHVCN3BXd1QrYzNyazFLOFl1V1VsdldLSW91aXJobWk3Q04wVjlYTk03YVJHeTFubyYjeGE7YjJsL1ZVUDZZOVcxRkFoWGQreG9qcW0zMWVINnY2aEhwZ0U5c25UUERDRUxwZXlvNENnTE9CcEtIT2xNbmxobVM1YXF6aXRYb3VBcyYjeGE7bm9xS2I3U1MxaGdXc2FZY3lLbUVveXFrRmptaGNoT1lKRmRUVXR3VUNBUXo0Q3BCYVl4VFdQNk15a3FNWUdXbnNKSXByQnBxa1dQSyYjeGE7U01ReUVnWFFEZGFQbUZ5K3ZQcTI5Y2h6U3F6dktOUjdyOHdxenU0SS9PL1JQZjdRSS85WXk5L1ZXbHA2WkJsRlpSbUJGRkVuUlVtUSYjeGE7MW9qOUhNVXdYT2h4UmtESWNCcGdIbTVTMVZtY29vOXVXR1lwZkN1cm9qaUg2Wk9nMFE3b2NWQnhDMmQxdUI3Q2Q2TS9WNkpIcHI0ZSYjeGE7bWI0OVBUSmxnRVBXSWtjOVd1Ui9YSS8wb2hWRkZ5Mmh4eHM1OFdMVVFxWGdSMWdDMnRFaE9RSmpEejJ5M3lIVjFSM0QycVBFWElEciYjeGE7YmVpUmphMUh1dHBIYVVsOVY2UkhXcnFINzcxaWoyVEhnTkFCVWduWUVNUVdNOEkyUGJKWGt4UWRQYVBybS9SMHljdlhJOGUySGhuLyYjeGE7bCtpUnhXWHJrZTFaOU1qc0R6MXl0eDRwdVlxaFJCOFJRbm9qU1krMDBDQ01OM0tYSG1tOGthUkhramNTOWNoYTZaRUo2WkhralNROSYjeGE7VW5rai95TjY1Sjd5Nm45YWo3d0N2OGZiTGhubXk2eC82QjcvcDNTUFA5YnkvODVhT25va3FHblFSbDBDMzY5WmJ5dlNySUF6RzJzdiYjeGE7SlZKdlM4c1lqcUlxaWFPUy9IOFpUZ2tNQUpFRUdGYkJEVkU5dnhyNUxuVG5TclRJek5jaXN6K2lXditJYXYwanF2V1BxTlkvb2xyLyYjeGE7aUdyZDljSS9vbHIvaUdyOUk2cjFEODNqSGRjOC9rdlc4cjhzcWpVTXo5REJaWWpOSi9vcDU3TnR1aE44OE96Qjh2alI2dWg0YzNUOCYjeGE7OHRZdFM2V3liNGdISjNpbjVqdWoxZWJKNXJmRmZDMXUvL1Y0K2NzeC9USzRJMjc4bzUyL21KMHVOai9lSE54K01Ic3pIM3drYmo4NSYjeGE7ZW5PeW1LdEhvc0ZEVHd2OGRnWWZQQlpVWWJoTTRxeWdqSHVKbFlqaE1yQjJzRWdaeGI4V1pRVDNDamd3cXhwUnE3RHlicHpsSlJCSSYjeGE7SHFkRkhNdFhmenNTK0g3NXkyL3d5NWZ3ajMvQlI3L0F2QTIrR3Z6angyaHdDQjkvKzFoUUp3N0Y3VWN6R092Z1l6RzREYU9BdjJtOCYjeGE7TUVGbXREdW43TkZzTWQ5czVqVENSODh2ZVV3My92RVkybGh2VnJQTjBmTDR4NXMwZzkvK3IvQS9GNDhPc0dYWVExRU1lanJvNmhtRCYjeGE7TkZaUm1tSytlWjFuSUFUUU93dktRazJqR1BaSkZTZjU0RmFTRFc1bDJlREdvOUdEcHc4ZlRBWkpYUS9HckROLys2dndQdWFtRUIwUyYjeGE7NU1ZeXlhRlJ3alhNRUVDekJ2TEdzc0pVRGprakl3THNKVVlkSnpTM0xNTGl3cmpSb2l3QldoMWlHSE5kd1hkZ1IySWk3NjNFOUdPOCYjeGE7WEM0R1FMeS9EWUw5Y1c5anY1cm5JaGwwOGxrVjNmSGYvR2Z6RWhhc2FiemtWL09PQi9OZkJtcmJESjc4TXRzY3ZCckU5YzYzOVh3dCYjeGE7M0RlMlMremRPN1JyNlBmY1B6cWV6MWFtcldUbnE3cmYyRDdhNmx5RHJYYTg5WHhUV085YW1maDhLeE5iNzUzT0R1ZUR6WEpQc25HZiYjeGE7M3RHNzNZdlQ4N1VkN3ozZkVzVjZqUlJUYmw3MU5wR2VyNGwwVjlkM2szN1AxOHg3SHkwWFIrdFg4OE5CczVxdDF6dmY1ejBlbkFLNiYjeGE7TlhnTWpjNFdPMS9vUEd5NmRYZTVPTno1WFhySWZLYzlYU3oySEliMXFQbStyZ1crOWF1eWNuaVlGKzJtVVQvalkvc0M1K2RiNEx5diYjeGE7ZjdzSjBZOGsydDYvNG56OUszYTl0enpmZTB0Njc2Tkd5eHRLckRpTGJIWWZKQUpiSU91SU0vVEFlWVRBT09KYlQzNTc4M3k1d05mOCYjeGE7UC9reHZNajdzT2Zsc3EvdDh1RDBEWXk4blcxbUlMWGVWcitEbklpL0hSMmdRRE5iL2NhL2YvdlYvUWZMdzNudzVzZURHNysrV1J6RCYjeGE7N1Z1enpXWjE5UHgwTTRmOTh4RStPbHFoV1BDZmVNVWx2Tjk2NnVEVjBlSndOVC9tWjVMQjdYc3dNL291L3JINTdXVE9kMis4Zjd4KyYjeGE7OXZOc3RmNFlKTzhuOFBiamwrNmpQODhXcCtwWi9IemQ4eHlpcS9GanNpZHI1N2ZmNmV3Y0w0L25lMHpNWW5ud2VuNjR6OHlvSnorNiYjeGE7Mm5FOVB6bytoSTdHZTR3TmlPUEpmUE9BQnJGN2ZQYlRsN1Q4RjV5SmVPdE03RFgrbzluenhYd2Z3dCs1cXIrbmpYN241NzIzT2o1NiYjeGE7eFJTTnd6czRYVytXYjY2V2s3MDlPcnl6bnFGQkJNODgyR0w3a3VOYjN4ZlFsM2VvSy84WGR1bjZ4Uy92OEdsOHhkdGd2VGc2K0wzeiYjeGE7NGhwdVA1N1BGdjJqL09Yb2NQTnFuN1dWRDE0dDg0M2pmSmhsZFZYbWVSR1ZkYjFyZEsvbVJ5OWY3Y00xOUpOWE83NWJjVEtzMEsxTCYjeGE7VlNYeXN0bzF3Ti8yR2R0djc4Q3dkZzNrMTczNHkxVVBCSGhLZzJiYzNtRThYMjVBTUxnL2Y3RjV1RG9DL1hHZlVYVy84dzRJQWNUOSYjeGE7bml4UFZ3Znpabmw2ZkhqbFVnQ2NWVmZkaFRmenpld1FoS0tMOXFPK1lELytkQ2l0RVB0UWwvVXdmaExKdGtmMzRuaWdyUmtnejV5ZSYjeGE7RE83UGpsK2V6bDdPQjQrV0o2Y25jczZ3YktUK2p2ckNlSGI4ODJ6OTVPaC8vWDFCcjMyMG1xL25xNS9uZzZmelh6ZUR5ZUhSWnZiOCYjeGE7YUhHMGtYd0l2WW1WZm1VOW1LMDJ6NWV6MWVIZ1lMbFlyZ2JKWUtYMDFpTFAwN3oveWRnOHVmT2RMMWR6TmYwN24zMnVwenB5eHFWbSYjeGE7Y3ZENkdKVHI1ZWtHM3JwVUU3V3pyMVlQZWw1N3RGNHVacHM1dEQ4bnBibnpjRDA0bVozTVY0UDEwWnZUQmZuU1hNTHV0dXN5TmJ5LyYjeGE7V2MyTzF5Y3pJTWFEMzZCUFI0ZndOcldNTzhmZ3pBdzlObDR0VDBhcitXd0VUUGpuZVZmQTg3aXpKcFI3NjVGOHVRPT0mI3hhOwkmI3hhOwkmI3hhOwl0UDhaVGI2SzgzeFF4Vm5CWjhhajVSSDZncDhOYmp3K1hjeFhObzlVbldpUDFpZUwyVzlmelZhdjVSWlJMeCtnNGVIcjQ2TUQyQlpxJiN4YTtxNWlXWW5VcVBSbzk1ay9RRFdrMSszaStlTHA4ekUxU0Z4NHQxMGM0SHJxYnFGN1UrMzhuOWppRTZpaE5tZXo4UDc2YUh4NmR2aGs4JiN4YTtuZ05CbkVwWHFqK0swQWFlQWxGczVzZEFJYlFGTndOcnFIbWtCb3NyKzlWOC9XcndlTGJlekZkSC8wdVVaTFhHMzBnajV4c1BUemNuJiN4YTtRUEhidjlPNzNPdVRwV1JBYWFIZWVqSTdsTHMzaytzSVpMYnlpSDYyT0ZycnBlR25EaytPaHQ1VGIyYnIxNXJqamU0TlJxZWJwZTZxJiN4YTtuSUc4cWl1MVVSN05WK3VUT1pIc1hkZ0N6L0R3YlRSdG8zdTM3SGx5dWxndVY0OFYyMG5NclBvUGZyR0VwcGZIWDFoeVpaejNQVHllJiN4YTtMeFpqT0dibGcvMXZwZVlmbnN3T05EZTFlVWswZUtFcEFOalQ0dWg0UGxodlZzdlhXbkx3TlJOSGtuZ3lYM3d4MndCTndjam5xM3Z0JiN4YTsyaUxLbmlmdkx3OW1DNlF5KzFuN2dhZW9MbU9ya3JhVGFCZ1BJK3ZnZWoyNk56MWRMQlFsZndNRGhnN0MzZTd3Q210NHMrUE4wUUNJJiN4YTtZN1pXMUxwdGJzMUp0V3U2Tm5CazdWb0VFdFhzTmNoNkYvWXhydjUwZGpBZkhiOWM3RUZlOVB4ZDY2enE3UVE5NmZSaUo5a2FDczhyJiN4YTtRaVhIbndTNTdaYUJUbjdkZElTSFlGL00yKzFqSlBpbzJUODlUejIxSk83WVB3YjhoNThBQ1o1dFhOUUplMkJaMVR2UDN4ek5md0ZDJiN4YTtoU05tTXpzKzBFZFVIUStxTE52ZHQ4MU1zLzd0Y3dqc2ZXT21id3VmTXBOWEpIRzI1VUdMalBvSkZCLzA2RFBMcTdMdnZVUkhkeDFKJiN4YTtaaHVqZXZGaVBkOHhidXpBbzhYc2VQN04wZnFJeFVTY3RQbjJiOUhyKzc5V0ZXWHNFQUl0Mkk2MUlxcjRablo4dEg0RkM3N0hrbG55JiN4YTt5TDNqdy9tdjA2UFZlbk5HQXFGR2FTQU5xWUZXczJXZFIwTmRVU0pKQjFVYWQyU2kzdWxFdG1lVCtONDkwbS9vZEdqZmVYZ3lQMWdlJiN4YTtIMXJObHZWWkp1THA4c1NlaFRMV3MxQml4WUY5bGhMSEVGckp2WHVqSjhIdFROeHplcHdvaldmNTgzeDFnbzVrZVN3aDR1VlFoK3FYJiN4YTsxVjVyYUtiQ1gwUU1xTlQ2bTkyQkZjazZ0MzZHdDRDZy9ueTJNTHlxcjg4SGk2TVRFT3pSMHY4cktGSXZnVTJ0MVRyZnlxTm9aeS9uJiN4YTtxSUw4UEtldGVLWnRvNGNYM0xzQmc0NzJ3c09kMjVOZlQ1YXJEWW9Wb3pWd2wvVmY1MHB1cmhYenQ4U0xKOS9jZllZNlNyUDgxUmJGJiN4YTticFRKMW1mL2JxeWROOVJiQnoydnh4TUN2dkx0ZDByNmdZazdXSzRPNTRmZDhReHVQMWh1bk51MlFKSWJnZjdSMGEvekJjemNpN2tTJiN4YTtuWGEvaDJiN3RyRVczZjdYOHZudytkSG16UXpwMHhIVTQ4RFRKeS9mdkI3Q3RNNFBseTllREUvWGMraE1nNzlLc3RDQ2UrZExiMER4JiN4YTtXdU9YMkpUbEhRMzliWGlQZDNyMDRuZ3pYSjgrVjB4MWp3NnNMR203NTRXSGl6ZWdSbTF2OUhCeHNucXgxTHQ0ajRZM3k1TzluMTBBJiN4YTtjOWw3anF3UjdmRzA3a1ljQlo4K1dCME8xeWd2RFgvZTg3bFgvVFBGRDUwc0RuN3JuM0YrNXVCNHZmOFluT2tKdnZBRnNLNVh5OVgvJiN4YTtTcUd2NTZrVHFYZHZhUmdmVzY1ZVdvUHNmK1pucFliMjlRb1VQdGk1TTZmSjdvT0wxVkFmRXM4NWVITjcwL0R3WW5haW1nKzlrNlp2JiN4YTtmb3dzOFhEUHQrMVkxUTB3WldWL3V0SE9YNEJtZERoNC90dWdYUUVUWDNXTkVVNXZUbFpEWTRFTTl3U2ZzUnhLL1EvWmJwa3RyMXE2JiN4YTtnbWJmeSt6SHlqd0praUk4ZC9SbTluTHVNS2U0MnY2c0lkazBDczNwcnlmRGxjK0N5N3EzQS9hb2k3ajNNV3NHZy93Y0hqbGs0NXJjJiN4YTtLSFcyZlJnN3VPZDZzMUF2UERtUmxIWmpPekhnVnpoWVFuOGpORCtydzlYYXBlRDlqR0RlSER0azE1MlA5UkJXSHdXZzQvbGFHWlZDJiN4YTt6QVBlNUV0UWdWbGJEOTFYSmVFM3JVOVA4UFJkLzRMeG5vbzdwMkd1aXoxOE5UdWNyNVM5SmcwUFl6SC9HUU5vK3dZS3JZSUFEaHQxJiN4YTtZNndaUFJNQ3oyMG84a3piQ0VOdmUrblRicy9iRmpIS2s3TXRUY0xMbGlmckxZdEVEeHdzZHp4d2VMcGpWRzlvem5WL2QxQXBrZC9zJiN4YTsrSGk1dmVkb2N5S1RrN0hORDVPODkwQ0RyWUltSld1WDd1Z0dmUXRrdHMzUlJ1bmkrM3lEOTllTG84V1dhU1grUjZiLy9tZFFXanljJiN4YTtyNDllSHU4NHcvQkJPcitXcHRFUTlldm5ua3NQWXU5bW9nVlFxc2w2UngvcGxiTTFDN2JiVDFxNURkRDZ2T1dsK0tTUkNYZE1PZlpnJiN4YTtCNS9CUlRrQmZucDAvR0lMSWROakt5c3Zhc2VqNUlONVBsdHRHUWcvdDlJeTRBNGVqdk00WCszTngrWHpadkJPTXQyV0wwUFBGM1BTJiN4YTtYWXcvWXAvMlRnNXhWUlk3WmhzSW0zZkFqbmtoK1hMSEVmVGk5UGlnZis0TVgyV2orbFllOVB3SU5iV3RqeHpQWDg2TTE2eXZSWkIxJiN4YTtkNHhzamNIeSt3a3FXajh3S214bkV1elpERzNyZ3pkREpBVGJLQko2WnJ1V0JROG9vOGx5ODBwUlljK3IxSk1IYjM1VERyNnZoMCtHJiN4YTtnNy9QbncvR3k5a0doTk1mYmp6NSs4TkhQOXdjL0p6c0lFWjhuY1c0UHRaT2F4alFZS1FlSEJpZmhmR3V3bU9UUjA4R0R6MGp6emsxJiN4YTs4L1hyb3hQUUFJNWZiMXNSWW5pd2NzQzZYMjZaVG54c0JWTEJhajNIaGxmYm44UU5xZTB0ZS9BNzVRZTJPaEZhS2NPY0Y0djlubEl2JiN4YTtYb2ZXNHN2bDgzdkFRUU1yY1grMjNpakg2YjNXRWw2VXV4Sms1dEU5azdZeU96NlVIczl0UGs3K0VpWWVEdURsOUNVS1lQQy81TGJFJiN4YTtKSEhXcHZoYmU3UmxPLytQbDhhK09EZzZKdU1kNnJpYUhRZEZac2RoaksxdTh4SmJ4aWlhallmU0xmYkU5aUtXSmthQW4ySlA2KzF2JiN4YTsyUHJZOUZrZnVma3gyaDNIMHU3NDJMVTc5clQrVkl1eHNkZXl2eFZkZHlGNmd0RlBPSEtFdHQzelJLL2VjNW9rU3dqTlU5VDdtRE1nJiN4YTtkOHo3VFU5QnJ3c016bDRiYm5PZnhlbTRyWTR0eWFybmtWZkxYNzQ0c2xpODZ0dVQyYy96cjBBb09JSVJqTno5clZidnlUZDNwNkI0JiN4YTtQRGw5RHZPNjZVYTZ3UDNSNGZMNW5CekxKN09EZWZEcjZIczJPeVV4TnlmSHdNejBXMU56ZzdMS2pHL1JidS9wSEdaYzgwU3JKVmo4JiN4YTtnNk8xTFo1WjMvbDE4L0Q0MGN4WHdyRUxiNTdQRDNubVhWWU05OXFuYldDOHA1dmxYMEc0Nmd3R1J4cnU4cmV6RTI4WnNic3ZYeWhlJiN4YTsyam1JREdDQW05YUdwTUxwYmpnaWRVL2N4cy90VC9Cd0d6MFozN3RYNWUwY3p3dDg2NGVmNVQrVkgzNyt6ZlBiMGUwUHY3cjE0ZWV2JiN4YTtOaW4rSzhrKytkdWRWTi80bS80WDNmZzQvZnpwcG1sZjFIZGZmL0dueDUvTzJoZlJkNS9wdThtSG56NHVYbDI3bVg3eDZiVmJ0ejk0JiN4YTtMSzVmKy9DejE1OWN1L25nKy9yYVI2K080TlpQTDRiWFBqeTk4K1RhUjE5OTIxNjdGWDJWUkxjLy9lNEdOWjlmRzkvOFc3Wk8xbDlCJiN4YTs1OXJYMmVjUGYvb3NiYXEwS3I0djNuei95YTJmcHN2eTcybDBhTzVHWHp5Ymo4WDExZXF6VDUrUFBqcDU4T1gvL0xWZWYxWjk4Y25mJiN4YTtoOVBsOTlrM2s5VVAzMGZ0OTlQdm5rNC9IWDE2RVA5bFZCN0xWdEkvbjIxb01HTTh1TlVxdS9iUk4vKzhkKzFXZGF1Njl1SEI4QW1PJiN4YTtxc0xQSnRjK2VuYVlYN3Q1OUhweDdlYW1PY0toM2JTSGxuMzBPTHFkUFhtc1crYUJ5N0g4ZEgwaHJ1T1RKM0kxUHYwdTQybHRsdXNIJiN4YTsvQy81eGZ0cjZFWUxEWHo3dXZRZndXNnVmcGo5SXh1bTk2dlREeis3ZSsxOU02bkQyK3ZxcnJpZW5INzMwM1A0NE80aU9uei91OVorJiN4YTs3Y2ZyYjFjLzNteS93bzQ2M1lPcGh1OSsrSDMyWG5MbkwvQzFtS2J5b2RYb2oxOFhyV2xVWFBlYXpmK1d2bDcxTmZyVDZzZC9iNzd1JiN4YTthWFQ4dkhnOHU1V0VHb1hWWDFkL2ovdkcra1ZXWHgrOURqZjZ5WHZ2cnovNDgvSWsxT2pxOUtmaG4yODgvL1BqSDZoUlhoZXIyV2dhJiN4YTtmZjVKVDZQRm4vNWNmZnlpRGplYWZmZEROSDNhL0MzVXFMaStmbTk2Y3VmNnc2T3ZIb2ZHR3QzOTAvSitiNk1mZkhrLys2cHZlcjllJiN4YTsvWENRZkltTjNnUks3a3p3ZTM5UHIrZWJEK0NMMmJLenFuZisvSmxzOU5FSEgzaHJtajB0N3k2b1VkaGN6eWVtVWR5Vkg2OS9YUDM0JiN4YTt6WE9pK1p2ZFJ1ODh5NzgrZkhrNzJPZy9iejE5ME50b2VmdkZrdytvVVhIZGF4WldGYmJvK3M2SDYzQ2pqOHAvWnQrK3V2OVJxTkgxJiN4YTtCNTk5RjRjYUZkZWgyZnpWelErYStkM1FXSEZWdjR1bWRmUWcyT2g3MDVmbG54Ky9TUjZHR28ybVAvNDRwVWFSSi90akxmNTAvZlh4JiN4YTtWK08rUm1mUjNZOSsraWJjNk4xbzlNSDhSdm1kMTZqa1k2dk5uejc2WEk3MXUxczN2RTN6K1lQczB4KzQwY2tQcjZkT285OS9FdDB2JiN4YTtiOFhZNkY4NmpYNHhYOUpPRmRlaDJmTEVIK3Y5ZjN3LzYybTArRlA1K25ENno3NUcyK2lydi94WWU0MUNLOXpzdlgvZitaOS9yUjQ4JiN4YTtEamI2NU9NUDB0NUcvenAva2tZOWpmN2pWdlRrMmMzM29KWGdXUC82eGZ6QlA3Ni9lU1BZNkRjZkhML3NiZlRKcTc5Sjdtc2F4VlprJiN4YTtzM2VqYi81NjhrbTQwZnZwOWErbi8vUEpwK0ZHVDc1OHI3ZlJiNTdkZlc5RDUzNXdyQStqdjMvKzF6YmM2RmVmVFo3OTgyOC8vaGhzJiN4YTs5TWVIcis5NWpWSXJzdGwvZlpjZlRuc2EvYUdLZmx3dmJvVWJmZkN2a3pjUDZ5b05OdnJzM2kzZ3liMWpYVjEvOHVHMW5rYS8renFhJiN4YTtITDM1TXRobzllRFdlOWYrNThkYkUyajB6citwVVRqRkRGYzZmVlkrazQwK1QyOTZtK2JtOS9kbmY2RkdrdzgrdS9HRk85TDcwVTkvJiN4YTt1VFBDUmovcW5EVFAvdlZ2Y2YzOStNdG5UNkhaVDFjK0sxd3YzLzlVTnJyNS9FTnZwTmZnb0wvSmpUYmZ4ZmRjUnZqUmF2MzFaOWV3JiN4YTswU0UxQ21PeHVkSzlXMnFzNDQzWDZJY2ZmL0Zld1kxK0h2LzFsdE5vL3VxamsrekJUOVJvK3VjNzQ3KzZqZjRaT2YvcytURTJHL2xqJiN4YTtYWTNtUzBXL1gxN3orVy8rcnp1TmJQVE8zNGJlOUw2M25QLzBsSSszK2V4WjRVa1grUmRmdi8vUDVSMXozN3Y3M2QvaU45LzAzWDJGJiN4YTtzdGRwNks3ay9NQjYyL2Q3dmcxcjhQNkg0K3Z5N3IvbXBYZTNxT0pucXQvcjE1Vi85L2pWZTkrSzY3MzN5MGYzN3Z6UWU3ZEsvdkw0JiN4YTtwLzY3cjJiLy9NRGM5V2FzK05Nb2VmLzdnOTV2My8vdytQT2svKzd6aHk4K0R0MmxHU3YrOVBDOWcrZGY5SHk3K3VMOUx6NzVlczEzJiN4YTtYM3p3NzlwNzk5Y2ZIbjM4TDNrM2Z1K09mL2Y1bDArTzFZd0Y3bi9UZnFpa3pNRGR2MTkvZnZ0YS85MGYyanVmbXJ1ZEdmdnArai9MJiN4YTtQL2QrKzErYlJ5ZGY5TjU5L1UzUy9DMTBWODdZbTlmVHovN1o5MjBZN3Q4K3pudnZmcGxrbjMzYmUvZmcrUG1UKy8wejl2NjE5Ky85JiN4YTs4SmZldTVQUlY4L252WGUvVEQ1L0wrNmZzZEcxNU04MzcvUjhPLzhpbW56NkZ6WG0vOC9lZXk3RWphWFJvay9BTzRBQmt3dnRvSVFEJiN4YTtPUmhqR3dkc2NNSmdhR2N5OTV6NWM1NzlyclczcWtwWnF1QnU5MHgxVHpPZ1V1MzQ1Ymd3ZVMvMTZjeXI1OWVMMGFlcmpmdHByTng2JiN4YTs5V2x6ZWpudmM0T3owMk9MVFhFNDc5UEZ0MHZQNHA5Q05ZdHBocXR6MDZ1VVlTYmVyYmFWczdocXRuSG9scWhtOG1hTW11L3F5TngyJiN4YTtlQUROOS9zci9tancyY2JJN05xTFZmNTRBMUlYamxFYWo1UkJTMkdpK1k1ZXJEVHA1dFVkT2ZGZ2R5N2lCbUk4emlFZWppcWkrUFl2JiN4YTtxK3hBTll0aDAveVQ0R3dDYXVUK0xXa3kxQjNNK05mOTFueWo4OThlSEUrQnR0MVpwN296bHlEVzhVbG43c3N2endzbTlVWkg5eTUrJiN4YTt2b3Z6L2ZhMFpMZHZDeWNGQy9vdUNpZDFOdjU2K2pKdjBnaGZ5REEvNSsyVms1N0VKOVV2eDJLVEJrOVhYc1ltUGJsN2Q3UTk2ZlhvJiN4YTsxOU1YTWI2dlVnZjg4SExzMTd2bXBKcy9FNU5PSFJST2l1TjlJUE1tamFSeG96dTA5cXBTQjB6ZDRXUEJwQWNmaW5kNlorTmFKL2grJiN4YTtjcTlHZHlpY2xMckQxL3hKNzQ4MDhpWTF1cGlaZG1laThJQ05SRkk0S2VXUlY0azdQUTJiMDV2Zm90dUhzTFg2OWc9PSYjeGE7CSYjeGE7CSYjeGE7CTVGZjVtL2E5ajdlL3ppcmY4MFl2UDY3dlA0dFRtSUkzM2E4UjNFWDBZZ1Y3ZnI4OEU3Tkl0UkgzMCtTdnBMVUg1SC9qOXNvUUZ4ekwmI3hhO3k2V0lKcmUvT1A5dGRHRzIvZVBoeGVUSnEwalZOL1lxSE9yRGk2bjdGekg3RVFkNEdHNk5mVGRyZUJodXZsc0QyVHBhNTh5cXFmSEYmI3hhO0Z2QndmVHo2TWZ2a1BKckFDTkROQ2RxcndkWWVYTmhYRXBZeVEvUlc1citlcm8yM2ZyeElhaGFSeWV0WjYvVTF6cklaMys2bjdjWG0mI3hhO2t2ZDI4ZWRkS25PMzA4M1RzVEoveWxEMzNPaklkMk5IbURwNVo5c2RIemMvQ0pKdnFwYjBJM3lVdDZTaDhXaFJoN2NUQU4wbnMzSmkmI3hhOzBYblV0dGlrREpYbTBPV0gyNVhIN1VQUFAzTCtpSmF1ejYxTktiMUQyZ0JHYXV6UC9LaTh2NWZRWHF0dmNMUzF2K25DL1ZIdzNTdTgmI3hhO1Aycmk5VzZROTNlZWd0REt3NHFHb25TUkhVeE1yM3pmcUJxc0RyRGZtMnZ4L1o0aGEvUDlaZm01RDlVL2VZaEdiN3ZFbkNUdTQ3RGsmI3hhO3l0dHd1OHZEU3BLZXFUYnBpZmcrMXZOeFBYbTFxdHZiV0gvLzZDcCtnQml2cVlrblFQZXVJVDRGWi9keHZYVzhCYXVaWForMVA2S3omI3hhO2ExcDZzMUI3TUpmRXlqalp6c2RLWTh2TDNkcEJDaXRidDlISjF0VGk2MWRQeWcrYTk3TDUrQzdYL2FKZ0tXc3pkWFoxdXR1NEc5MSsmI3hhO0J0alh6U3l2ejN2ZUVGWEIvZGdhV2tpWXBEQ2ZwdTVpZWZ0ckJkYzBleUdPeGlhMnFpQ3c0Rmc0UzNRd1R1SEJ6SDg5bjNuUWhKMFcmI3hhO0pCdURVUDRaaTlSUUxUdE12Y0dTZURlZFpmbEhHM2xZWnl5S25lTGQwWjM5MjlLYkhCV3plMktXUDk1RmU0bThEUm5BQUdXY1hIOWMmI3hhO2VLSE42K1FQWEdmYmlKMkZqYU1OekpLaWd2SEJuajF2TFNxMk11emxaak4zWFE4M2o2L3pOZ2xJeHVkTHp1bk4zbnhHQ2l1NWtwbnMmI3hhO2xaeHNGdks0b2ZGQzRwTVAweitDNjBLQm9GQmliUEhLeFAxQ21ubDNVOHFZMHZkYmRMdWJQSkd0cEFTYllreTFwYWVUelNTZFRyT2wmI3hhO0lRdTZiY1pic3FpYnhlMkNKVDE3RWEybVlFbHgyNFZkVkxGSTE3cTZXdmNYanFWay9veGdVUzd6Sis3dnJGeWdzL2NIWGF6T0RXN3UmI3hhOy91b0ZHR0ljbVlPOVBPc1haQ1hZaWFWalBReDJVSzdFZEhaaUZYSmRaeWQyZU5XM0U0dFR0QzVPN0NJUmlPQmZaUlRYbTRkcEloVG4mI3hhO1lwMUl4MXVkcUlJdkN1all5djdYa2JxS1RUNVczaXplNlJ0V3J1eGZqdFZRbEszTS8ySW01czNOT1oxRjhYaW43dW5rcldab1hLNGMmI3hhOzNMbmI0K2s4dkc2eDVVS2EzSllwOGtYRHJXcWlVTEVRem9LbDFGZnhpaGRTUWdXR3h1dWVTVksyN0d3aFZycllxa2I3bEdZNFU4QTEmI3hhO3YyelJkUDB1QlNwdFhTeFBON1JPemJhUiswVjdSUG5oK3JnUk0yZmp0MGVFK1BWU0MwbDZBaHRxa0RrN1NJSjFqQm94NGtIMGlDSlYmI3hhO2tuZjV5QWdlSGVqRHhVc2FyZEwzYXhPQUR6ZmpGWGFXR0l5VkU0QkhuUkNBOVA0UytqNTJPTkg1b2VjZmVVSlN5T1V2S2FndGt1Vy8mI3hhO1A2SkQ4RTJOL1EyTlY5N2cybzFZLzNDOVdkK2VrZFhKSTQwUDBQOVY5ZTJ3TWdpZWE3dW9kVmc1S0Y0SURBYVNFNGVWUkhFMUZ2NlkmI3hhO1Q2TDRkaHJGYzVXMGhIV3B3RUlDcUwzVHF5MWh1MjJTYmZzc2t1dXByVlQ4Mms3Szc0VVdrb1JSdG1ockU3MXN6VkwrYlVZMVBLblUmI3hhO2g4dk1HNHRpK3piSmxsV1NWMVlhT015U0FRZVhzc3NOeFNCNU84TlZ1N0Q3L05xbVkvZ2dkU3c1WEt6eVlLcHNmU2xTQUgwK1g3YmsmI3hhOzZYZzFUaWRHQ2hLV2hxUW92WFJyNDhmaXdqVGdvSTR4c1ZxVWZ0d1dwWXZ3cGNiWkxUd2ZMMTlObXcwMjdaWkZqRkF0N3ZrVDFSQlImI3hhO3dRWXR2anhPTThLdXRqWlZ1TFdoOFpwVTZYRkdVZTRBenR1UWZQRTR6Zm02MnRCSWt1VVYydnBLQ2NEaTNyamJPUUZJUkVGSEIzT1kmI3hhO050TjNKY3ZpYkZxTXJoU1M2OG15ZEZaTnhLTTN1Q3M4bTBwcGZOM2kzU3BXMDZoajhXNXFmUG03M24rWmRrRjJ4KzJNTkk3QittVnYmI3hhOzVWQloxT3VVSmhOcGFqZ3BVcENhakU1djNsc2gwNnNMOFdhVXRoclpqTzdvY3B3Y0RNd2J4VXF3SmVQMDRLbG9qd0o5djJQT1Z6aFkmI3hhOzBqOVlLRjNVOGxRd25XQjJNaWx2cnBvUTEwTE1pYnlpTmUxZXF5WjB0WE4yazZ0WGNqRFo2TkRIVjNpVTMwK25hWWNwT013Q04zY3AmI3hhO1JiditNWldoYU5jL1pvWXFlSGRkaW9hRFdicXN1SmRxYVc1L3J4ZUtsckxBWTdDK1ViUzlOa1hyWGxLaVhib3VSU3ZGZmR4Ykh5aWEmI3hhO3VmMmthYXpiY2NvcDJsRDljWHIzdlpweFN2eEJzeXVUTFQvT2ZDN21KQzhzcFVFYlAzTE1LUlJ6SGVaTEtWR2dWek1LRVJwUHhqYk8mI3hhO1owa0hiTmN4VjNTQzF5SkNsTXdvamVlTHJLdkE4MmZsbExFMmtRV01yYjkvUGRLelZOOWMxOEdkWXQ5clRhVngvM1dYdW5UeVhuaHYmI3hhO3FiQ21ib2dDUjBrSTluR0xZbWZqbElaQXBFWXBpbFF4NDJSVjZtNVdzekQ1dHRURFd5cVNwd2NyTTJUbHhZK1ZjVVBzYnliTkRmRnMmI3hhO3JoeHpodXB6dzZNN0wzSkRCRHJTK1BiZjlFZSt0ME1sZVdFaGpOWGhobS9xcXRaRDQyVWc4djZ5Yy9rK1ErOXdhMFBqdlhORGpsUE8mI3hhO0MrdHhNVE5PVGZtK2pJdVpjWHFXN3psS0hpOXM2ZnVkY2NQM2wyVm9tT0dGMW5KVnlnMFBzNTVpUHVza0NKRDNVc2dORnlacnhtRzEmI3hhO3d6RHlkMitpMUE2dlNxNGtmcFFGc2tBY2gvYnpjRHVwSTlmSDd2Mk9KRjE3TDRYWXZWOEx1eXZKZG5SaXRWQzhXcm5FVFRieXNMd28mI3hhO1NxMUFyc0Y1dnA2dkJ4SFZsbDZ6cUpvUWtZOWNTYmJFS0xYVnhseUdNYTAyaXBmY2taSW1WL1pQYm90alIrdEVyaVhYVmV3Rm9NYlgmI3hhO0FYcVpDSlQrUmR0eXNHcnZUUjNmRFljYUdsZGo5eDd2OUFHSVZ4dCtMWHR5a1c4Z2VaZUhkU1I5TzFTaGpueFFHbnliZ0loYVM1SXAmI3hhO24zaUhnYThXY2R2ODdLSDc1Q3hYczJqaHZzbVh1LzR5TW5mMi9OQVdVWmxiVmgrWk9iZGVONGV1ZFoyNUdYU21Ta0FmY3VqS00raUcmI3hhO3h2dVRRNWVaTkpGQlo2bGw3emwwNVJsMHpCYnNSdzZkeGJXaURMcElzK2c1aDY0OGd5N0tGdXc1aHk1MzBsWUdYVjYyWURjNWRPVVomI3hhO2RNM2FIYjNtMEpWbjBMVnozM3JMb1N2UG9DTWQ2MGNPWFpwRUplT2g4LzJWbmVmUVpWbFpQQnpaV0VpS01vRjJKemFxTk9pNHpsYWMmI3hhO0I4Ulp5b05kRW9zcVdWSlovTlJRSkJyV3lwamF1QzROZWlvMk1hVTlpV3RwK2JmeW5JcWszM2RyYlY3ZmpGWG84cHhTSnFac2VMczkmI3hhO3BhSHFOTHg3MHdtQXpZa3plM0E4V1o0S1pueDhUTVA3ZnZxNlAvQ1VGNGVWMWw5cXdzRzl1WTcyRi9PL1pKUGRrcGFyb2tPdlh0SjgmI3hhO3lqUFN6YUZIUzZxeVhKVXRxakJwcmpsRWRjcWNnYkZxZ0YxUHgxVjNiUFV6bXZqc1RkMWdrUEpRa0VLamNkclNXOE5zdk41NUtFaE8mI3hhO3J1akIzR2pQeVc0NWtaRGRKYnQxRWdwU21KTTRlOUdMcWFxVm56WmZJdk4zY0RERm9TQXhOV1NvaG02MFhwaWhWVk9udVVoR0VYd1MmI3hhO1daL05zYnlzZ3ZONk5QbG9vM08xTi84NmoxVnVBR1hUb3RoUmt1blJuU2Zwck1OeXc1bTUvU0xkSG9kVjRzdXVZVGhybWcyYkhQbmgmI3hhO2orQWlaU2JCdC9mNmxBNWpLK2tWaVYxVmVXQ3BMTEJDb2F1TFBMN2JLbzdVUVI3ZmNYbit5MmpDYUZXY21uYW5KQWErUmptS3hKSysmI3hhO2poWXRhU21XWTFVcm9ha2lCcjZES0lLVHphUUZNMGNjckgxL1YyMExacUZzMmNGZ1ZUckd1cW5UVzIrd3FoU1pzblVsdmFJY3JFclImI3hhO3FML0p0bm0xRHlkV25pYmE0WWxWbFVLb09MRlU5c3pLL3NGY010UnBxekI3cHE0czI4eE5vTlczSnJMbjh2anliTGxXSllxS0lYN2MmI3hhO3FWakRKL2xSOE1lblBOeU94WTF2OVUzWis3S1ZOT3ptMWJwcEtYdUZRMVNSaDh3QUtRcnpaYXU4T0VyOHBqdElsRXZuakZUZjBLRlQmI3hhO1YrTXB3bjJtdU5VMU1oU2RaNTRLVjZSWEZoOUhWV3Bzbms4bVIrYkhoaXJ4UEdFTktBbmxYekExaFYra2NxeldianBSTTRzemZWTG4mI3hhO1hnYkpGZWxINWVseENhclRxam1jbDlOMmZWUEl6enVTeHg1eEwzM0MrTytQVWhpZko0L1ZPNmVhNXAyVW9KMkpUMmJtMkh4L1FLQ3QmI3hhO0ZMWnlxK3N0S21kSnNzYVNZcEhEWlJsb0hWbGtTalBzZEovT3FUTHZ0V3hSU1l0TUkydVIrYlZkYUpFcGdMRUNpOHgybHhhWkpJVVImI3hhO2o4ZjZZNUZSWXd1TnUzVnNGelVzTXR2OWlDRENFSk45U0JuYzNQM1ZjejBsM0htMVJXYW9UaHBhenhZWmVxdkRTOTJQZ3lsSnpzbmsmI3hhO3ZKY0Z1ekJKTDRseU5VTkttaHc1bFllNitPckdTUXJMajZ2eVVNdUU1WGdsQ3JXNE56UGFJekJjUE00ejZTUWpWV3BxTFdBeXRWSkgmI3hhO1d5YWRFbzZNclMxTTlydzFJKzdHY0w4TENHWDZXTEYxcWIyaG9lcTh1cDdyaGwwOFp0Uk5CMkd6UmRjMFVoNnRWeXQ2a0FmVFMrcG8mI3hhO1hFdDZYR29FclV5dVN3ZnE3Y2I4cUMxSTV0TnE1ME9YK1hDZDErdnJKaCt1MEpmVTEzdzR6dEpyTW1wMVBsek5QSXNlOCtGYWVSYUomI3hhO2pMaXVzMGNLOHVFNnpFanRNaDh1UDF1dzMvbHcxZFN5SC9sd0xhbXYrMVNOR3Zsd3RldVE5SlFQbDNNdjMwK24rNTBQbDZ6UTNzd2QmI3hhOzZ0bXRFK1d4OVo1WlQvWlcxem5VOWxZWG1TdzVXSzh4a1czSy8vcThWa3hrVmNhWHlqdnRyTWVxVEF4WXpRWklkSldOYnNhWjdWVnMmI3hhO1hrMkZNNVRraVZlUDA1ZE1Mc1l5Rk9yTkhkVWlwVHpHNUxwaWcxaW5FYytVdktaVFNHamxzWXFMcUltR3J3czE2R1FGcXNwY3BpNTkmI3hhO3REa1dSUTdXcjlEa2d3dURoTDFKNHp6dE90cGloVFMrMnBkcXdEWmJjSzBpRWFzTyttQ1VZdlNwWGJ0anRSM2YwUGxxWWhMc2FubEomI3hhOzRJNGl2MU1sZ2ZOckQzWlFZbVpxTm12RFl1cFpRcUhPeVJlckYwdEYrMS90QXl5all4MlhGaTdMU0QyNmM1aWJSdHBGUnVyUm5lTmMmI3hhO2cwRm5HYWx2K3BPUit2NnlIeG1wSEtVZkdhbk1GK3RIUmlySDZUMGpsYU9rTTFLTHlrQlg1Mis5eWVqWGlZQUZVc3ZLTUtNa0dzN2wmI3hhO29PRit1VjJyZnJSdEw2bHdlVnlzLzZsd2hmZlMxMVM0ZGgzNE9vcDd0Nmx3K1NmVzcxUzRtbnBsajZsd1E3VVgxVXNxWENZaW9zdFUmI3hhO3VITEJNSlpiZlZEbVhPbXNJdnhxS2tBaTdSbnBQSzh1VnkxS2VXeUd4bXY0YkRoWXJVcGRSVEdCaVNyTkdLd244MlQ4eEJJbGhvdDkmI3hhO1NkWE9CWlBDVnFlKzJtamtyeXhnRDhmWFpTNmMrc3pCVnRNNnlOVDY3alFHTlc0QittcDd4czNteDVCRWQyQWFaRDU4OW5YejUrdWomI3hhO3c3WFJrOXYxalhCczZlUEdxNGU3NjB2ek54T3JHNjhXL1FQVHpuenQ3ZnJWMHZLVzkycDdkYVh4ZVhWMVpmNHhteEM4dkdneW8vR2YmI3hhO2FSdHNaSE5LWm1PVjVKM2RIM2xYM0xrdGVMNndtN1FvSnBQZDduMSs5aVJ1Zm81TjZuNmRIcjgvY2w2VTdMWmZrbUYzZldmalpENk8mI3hhO0lLbGt0MWNyeFJsMmJLcDlWRFRwcDlJTXU4MjVNRFpwdXAvWndzeDFhOUowc2h0YlRiZTZHc1lUd0d3L3ZzbXlaRGZSS0p4MDV2NjkmI3hhO1gwVVpkdDdvNktWMys3NHd3KzdnWFZuZTJhK3lETHZ6VjYveUptMzI0OXM1L1hwU2xHRjNXcFpMK0h5L2VOTDFwKzgyWTdwWStvREgmI3hhO3p0Uzl3NkpKbjJkQUNlZ2FUVzkraStCOEllZjI4OSs4VjJ0RS9YNm4vRDNPRXVVNzd0bzNJOWE1NCtXSW9rM0UzYmo5bVdhblpiWFUmI3hhO2xtTFJ0alhML3MrY1pjTGtkKytlbDhkc0ROWE9vNmxWeEQxbU5TbnJZM1ZadnFqYVMwcVdjNitNdWVxNGsxeWU5R3Q1WlQ4N3llVXgmI3hhO1JPdEhyaWk2WHZlY0NrTWtPNHVIV2F2UmNTUWhZSmIyZmV1eWlWemVVQVkwRXpKTXQzQlEyV3lFTWt4Mmg3bUxxdWcxVUxha0dOOWYmI3hhOzZ6U1lzbVJKS2N0eEQvaXllVnJSaHFnZDdCclBnT2hQTmwzZUN0UGVoTjZ6NmZKeTZUSTlVM3JPcHNzemVEVjdjZll2bXk0dmw2NVcmI3hhOzVjbU9zdW1LL1pYOXpLWXJvcGI5emFicnlXcGRPNXN1VC9uSWdlUWVzK2tTUWtLVVM1ZkUvWDVrMCtYbDB1VlJtQT09JiN4YTsJJiN4YTsJJiN4YTsJM3JMcDh2VG1vYjVuMCtYbDByVjhyMzNMcG9zRXcwUXVYVFBhdG4vWmRIbTVkRzA3VEwreTZmSnUxMWl0KzVwTmwrOFY3WGMyWGQ2UyYjeGE7aG1McjZVODJYZDc5NVZZMjdpbWJMaStYcmx4UzZpYWJMbStvb1E0SHE4Nm1xK25oN1RHYkxqMFVJYjVmSjFZdUUzWjRZald5NmVxZiYjeGE7V0MvWmRIbTVkTmI3MXM5c3VyeGN1dnhPZWIxazArVU5rTTBaNlRXYkxuWXNMVzlKVWM1STk5bDBlYkx6VUxvZ1djL1pkSG01ZEJWOSYjeGE7UmJ2SXBzdTdvWklhM1YxbTA4VzMyOHlscTZkWEZoNUh6ZlNiWXM5N3Q5bDBlUnRLMTdUdktKc3V1YVFTQmJBa0l6V3BBT1o0WEw4LyYjeGE7cWx1NnFVSkxlbFRWcHJKZUxoWk83TVAxWlJXeXg0Ky9xbDlkdm5UUjczNTF0ZnNtVlBhcnE1dXpkak16a1l5RDdmYWMxbTdLQll0cyYjeGE7UloyU1ZtN0pCSVZPbDlTVStldTBxcXViM3BsdFFWdWNLVnh4VHBVU1FLcktXY21paWtNcE9sc1M4YVhjL3BsSE1wTWEwYUxZdms2WiYjeGE7eXRWWWVKSGkrOW40b3pwbXNFN2EzQlhUNU8yK0ZRYi90WjArc2E3akVVdmIzTlcyWGZUVTVxNkZMMldON21xbktSVzF1ZXNzUHJuYiYjeGE7Tm5lcEtnSDVqZTQ2TTd2bHRMbXI3alJSRUtiUVVadTdKcThzYlhTWGRoNVZ0N21yV3hmdTRuSFBsam0xdUNmR2sveWw2d0RFeHpVeSYjeGE7aTRacUN0MFhqM3VKdzQ4Z0dadDdNTlZ6SWwxaDVHRUhzZFlta2E2N3BLSlVGdWQ0enhtd2ovTkNPRHJQU21OdnVvWEp0MVdJbXdnaSYjeGE7SytxUml0T3BsUVJUTDUvSXdOam9SRHFqaUVWVHl3TnRhL2w3Tm5kL3BmV1hMaFBFS3FMQk80aUd3bUMxWXBGclJVTmhzRG9SM2VYeCYjeGE7NVlieTlTWHpzZE1la3kwWVM0L1RjMDZ0R1NWaWVjWFVzdVk0eFVGVUhmVko3RWVqeVdhZnhMNG0xcjVNQjAyWXZna3Z6L3BWRlpCRCYjeGE7NWNoM09mbVZkVEpPc05vNnhDelphYUl3Y3U5VnphT01LNUk1SWtUYmNqVTFuZFhvbVl2WGZXMkFkUFpUSHpKVDBuV1BjK29xMUU1bCYjeGE7d0dBNzVWa1JIWFF3eEVlN05aekVWUjM4V3ZKN2I1bVBkUk1aeW5zTWNaeGV1K1p5bEg1VUNiRHQ1TXFFK0haMGV2VTRTVFRzcENsZCYjeGE7dGs5aWFTcER4NGtNTTlIdEo5SHdkWC9RTU5YaHJ2djh5azQ2M0VXekZLTmhYenJjV1o5RmNZKzdUdEN3dU1OZGg1bVBYZVlUNVhUSyYjeGE7NngwTk14M3VldWlVMTRFdVhkb3ByeGdOTyt4d1o3di9GRmNLcnhnc25UMVIwT0d1S3VxbVptTHRtL0x3cHJwMDdQMWxMMkpPSnZldCYjeGE7YjRtMTd5L1RYUUM2N0w1V3UwdDZlZWJqa3o3a3BXT1VSdTh4VjJhY0NoMXFxTzQ0UGFsUFRXcVpDYTdwT3IvZHRzc3JpMUhzUEw5OSYjeGE7WVhJMmc0WUxrK25NNUp5NHZscG91TjlSRWxPdUZTNlpFZmF4VUppc25jVFU2bUM0TUZuY0hxd2pkeE9IU2x0ek1pZFd0N1E1QjZ1RCYjeGE7bGNWMnkrU0puZFVvSFZkTHI5eXZtOFpVbHNSMGVGWElaODBzbmVXNDduZWV4R1J5cTR0Rnc1eHlpU1pWcWtQQnNLZ2YzMnFqOXppNyYjeGE7NWxHeTcxdi9jbHdQQ2owMkxYbXNmbzdyUWVlbHFZcnJYQjMwcDkxanMxTmVuM0pjVnh2emhRNmNvZkhNWUVVNXJwa3dqRUtJeUN3cCYjeGE7VzRPSWkrcER1OGZJQXNScjJQRzVsN3hEYUlwK3pIamJldkJxN1lkWVhabmZmck0yZXJyOWNtMXg1dVdyQitlZlpqejh0cmxyYy92MiYjeGE7MzIrY3lJbUhkOVlzNHpHRzNmaUpOWDlQcE9FOVhYd1JuelNSRDNjOSt2cGdOMjZxU3ZaaFcxaDlkNURLaDR2bEpSV240VjNkZmxvUSYjeGE7aFpNNkc4NTBVZWFmTnpybXY1ajZFTmRla3dsYjc0c1REdTlzWEtqaVNUZEgzKzZsSmpXVXY5bUg3ZEZ4NDB0Ukg3YXBrdFMwWGJjNCYjeGE7SCs1NndyOTdGWXUxVnFrc3g2bkp4WGMvQzFMVHBrbzd6aDJsTS85TWhHcnJnQi9mM3kyWTFCc2QxMC9YUGhYbHd4MldUTG81NWlYdyYjeGE7SmQzbzd2bm8yNEpKZzYxRWFtVjYwaGVwU1czY1JRdCtINzh1bm5SOWZXOGplYXRqL0hTMjlWdVVnbms3L1dBKzlaNDlzZXliYXRXcCYjeGE7TWFMemFYcGh1Y1o3T0xHRjg1djFOcHZFcmc5ME9tcWg1YTdKWVoyckplcFRyREpZemNCSkhLbzdsZlFHcmRVTm02elJ4ZXhCZVdwVCYjeGE7eGtLU2svMWpaZjYxRGtPcmlwZTBtaHZYRnF2Y1VqZTE2YnJ6V1BKOEdTWmowSzBYV3BXYkpVVytYak1Tc3VLY1hsWUVvTlhQU3FzUiYjeGE7V2xVM0s2MGlSck1PUERXSGlydThLbUo2cTdMdWFrWnBOVFdMa2tWbDRyUTZYNUxKNHJ4NzNsR2NWdG1TOHEzRVhlRExlVW1VVnJTYSYjeGE7bkU0VEtYSzEvdjdoZEpKY3JmZHNZNDYwVjR6OXFJYkRzQ0t2ckpBNmQ5ejc2V0N1SWhRbVQvMHRvREI5TUM5L1hHL0wrVjNieHpvcSYjeGE7R0Zkc0gxdnZoOHY2NDdxeExKZldJS3FWc1hsUm93anRVSTJENlZacnlZUGt0WnBLY1oyZ2tiU0ROZXBoMTVjeTBCdDkxSkdQTmpvMyYjeGE7QmhmWitabHdWeUpuZFdRSU9Ockkydms3clR5VXRLbm95MHpWaFIvQlZYWDMwdHFKWlB0bFZjNnFhMFFrVWdHcjVMYmMyODJMVkRuWiYjeGE7ck14dnI1dkpGSTYwc3dYcjFEa296bTRycTR4YVF4cFBMS280V0w5R0ltRGNPb29UL1RIV3AxVE9wRS9SZUhtNlRnV3NibnBsaDRwMSYjeGE7bVNrYnJMeXZjZVc2MmhtcEhDemIyYmpiVFdiOGxUME5WcFhMMDhtSlZYZ3VPenV4Q3M5bFI1dmMwZThMVHl5VExseW96SGJVVVMvRyYjeGE7WDdySUFxeWJBNWpBeW82ekFMTnJ5TThCVEVqakhXY0JsbmllNjltVGEyVUIxczBCck96QVhqUkVSeDMxY3FPaGFtY0IxczBCeksvVCYjeGE7V3pjTHNPNTU1dkhLK2xtQWRYTUFhK2pJSlZtQWRYTUFLN3h2NVZtQVMzWTEyVjJsbS9MWkdNVkU0c0Z2YU1wWENja1ZXVnYxbXZKViYjeGE7VmFMb1QxTStTMkVlL2VhbWZLbCtTYitwS1Y5QmYrUStOK1hyeEFyWGZWTytkQzIxMzlPVUw4SEZmbHRUdmx4SnFlNDVlU1d5czFsTiYjeGE7ZFcyb3p2cjZkVllicXR1K2ZuRVNsZTNxMTNWdHFGUmZ2L0xneFlxczU5cDkvVXEzTnRsN25OSjJmMnBEMWVyclYxa2JxaTk5L2NxNyYjeGE7K25XUVg5bERMa1JPVG1KWGZmM3lCUFoyVjc5VUY3TStCQTNuZGZYckpwT3I4MmpGNGt5dXp2cjZsWGYxNjdsL1pkVFhyemU3WmQyKyYjeGE7ZnVWWmQyYVdQdlQxSzQvWHJ4ZWhXdDNYcjI1K1pXOTkvUkw0a01tWXlZWGtMdnI2dFJQMzhoaGRtVHpXU1YrLzhwc3N5a3JyVTdwNyYjeGE7MU5XdmhwMi9WbCsvY201WE53cTZxcTlmL1g1OFBlZThGM2IxNjZvZlg4Y3NMNzhmWHk4WTJCNmxUYnRMUFZZZDlQV3JwcGI5Nk90WCYjeGE7bnA1aUxmQzk5L1VyRHlxSWR6SnlldWpybHpuS1JGZS8wbnVKZVdxcSt2cVZkL1hMenhqcXZLOWZ1VGhZbFpYV24vVE9pRmYyTGU4aCYjeGE7djZ0Zng3aGYwTmV2WEF6STdjZlhSVisvbkZGbXEyNi84NzUrNWFOVTlPT3IzZGV2dkt0ZmlZK3ZzN3lIMDdLdWZvYU85YUd2WDNsWCYjeGE7djZIeFR0Q3d1SzlmaDFscGZjdXlqbmYxcTB2SHF2cjY5U2FOMSszclY2Y2ZYKzk5L2NxNytuWFdqNjliOUVuMzQrdTJyMTl5bEhTWiYjeGE7di96TWxNNzcrdVVaMHpxcXFGT3JyMSs1UW0zcVd2ZWhyMTk1Vjc4SzdiVitNbnhwVjc5WTUrS2UrdnAxVkxXcDY3NStxWFRFbEQrciYjeGE7KzM1OG5WaXpTdnZ4OVo0TUgzWDE2elhtcXRuWHI4Q2NIUVhVUkpFcVBmZjFxMU03dmZlK2Z1VjJyV1JQcnU3Nyt1V2xqN1YxclJ3dSYjeGE7MWxWZnYzSzEzVVlPOTk3WHIxeHRUMk5sdDMzOThrNnNaaVJrQjMzOWF1cVZQZmIxcXhVOTJITmZ2NHhnbU9qcTE1cWx4NzUrcll2TiYjeGE7N2VvWHF6YmZVMSsvOG9UWW9TcGx0MlpmdjNLUFRlekVldXJybDF4WDJqalp0UXlUNnV0WDdseW9xQTVVdTY5ZmVWYy9XN2VuOTc1KyYjeGE7elNYbEo4UmFuM2pudFZMbWM1akQyMExtWUhONDkrb1VNWDI0K1RWVFVkRThLL1poTmdQdnMzMFNjeElYVS9Ca3o2UnR3M3I0NENKRyYjeGE7Y3lPUkxacHFNc25GUGpYTzJ3Zmp6RDg3OVZxWC9EU2hpKzVjWDEzSjY2OGpZQ3ZiSXpQdm5vNDU4L3MvZlBzSzg2bEd4cDQ4Zk5SdyYjeGE7SnM5RzVqKy91OURxNnV2MkJrN3M1NGZ3K2Q3MDVOeXZxWW1WeXhWbjY4dlQ1ZEhMMnhWdjVQM1JpY0p2bjViR2dudTM2M2VmUEx0OCYjeGE7NFY3K09Iam51dzM5T1hpeXNkOTQzTGdhY1hjMjlhZVZGei8yRms5ZVB2SGVmSDExK3RTOWZEMTUrdGZZbStVcHZmYjl6cXNYajRmRyYjeGE7Znl6OHZMOS9mcm80ZVhaNTZGK09YeTJkZVU5SDNqeGRuQmhUazV2ZStGL3ZIajJhdXYwNitrNmZ2ejlkTUZkck1qc2Y3cjE2K1hxayYjeGE7TWZOeGFVUit1WHc5YzE5TkxEa2JLNDlYbkkyL1BtODdtOTdkRjFkWG44TEpxK3ZnRGZEbGV2U2pkM3p0SHIvYmJhVUN2cHA1TUQvMyYjeGE7cHFGMndqdk50TGZ2ODFmWDc4L1piQzRjemZmNkpySkw3NzNkT1F5WFB6Ky9JSmw4ZWRHNkYvYVR2UDBreHFlWGwzYTI4dzdMSEFlMiYjeGE7ZTNQMzZrcU5qWlR1OU92azBjVHA3dWpydDY4ZWpwMWR6ZU5lN2tyOTVYYjA1OG5JQ1hOSnQ1dkpvU08zc3hmNktlUFZucHlabk1TUiYjeGE7NVkxWHI4YWRzZE1UUE5zOVR3cnNGeW4wd2RaMlY5dVcxY2llYkhsbHJMOGx5RnJlU1R6MHhsZHYxOTV1bk82YjlwbXJIelpmN0h0UCYjeGE7VjAvdUxNM2YzTjllbXI4K3ViY1JqdjdZWFgrenBEN2kyTTRlYnY1OHZmOSthSHg1eXhzNXhqaXZMNXZEMmdhYWsyTG1oODlreG9PUCYjeGE7Uy9kMlJxN01ycFovbmU5Y0x6OSs4K1p3WnYzMS9oWi93M1ozZnphWXREdHJsZnFIN3NHVjBaeWMrWnRKeGlJYzNqUjE1SG0zTWRIOCYjeGE7VFV3YTJ6SE94RC9Ebi82MHlmc0Z3WGwwZ1Q4ZnpKby93Y1hlWGVIUDFVYnpheHZ6Ryt2eVNZQmh0NXladGRueDI0M0pyVWVQeE96RSYjeGE7MThPaDhlWkNIMC9GUHdwdmpsb2Z6TVEvMkpuNTNQcGdMdjdCUi8rMDljRjgvSU9MMVMreFdVVHNvODJWUytZWFBKMk9QOXViUEc2KyYjeGE7L0hRMi9zRVhmZEw2b0dINkc0cXRzU1dITEdGTWJNMXRLTVAzbndyUW92TWZZbXZ4aGNLZnorTmpIMytaNGRrK243V3ZmQjd6RnlMcSYjeGE7QlZKSThGb1JuK2NlQ0w0eXo2eWxYK0x6NGlNZTIvTm8wTS9QOSt3c3o1blVlbitVNXozRDdHTERtTWJrMUp5bTlQOHFkakJ5YW5IcCYjeGE7SG1lNVI0ZjNpNVdmalMvVHk3dWYvOXBaZS94bzVHVWJJRnRPZ2RWWXJFSmNlMjJpd0lxYzJ0cTQzL21JZWVOWi9RVWpQdDk1MEJweCYjeGE7eGIzWkhUdmQvUEEyK0xMODhuYnMyL3JiazEySHV4SnQrSlVmYmo4dXJYNDdtaGZPL01GSDFRU3ZWenEyOGJWRjM0S0tPYkUzYytZSSYjeGE7NWRyelZmTEFOL05Od0grRHNZOC9zRGZiR3hGSnZlNGJ3dzNPK1p0cS9hYnRBT3YzZm5uNDgyMDAzdUhuRGQ3ejIvbFdqcFg3MW1uOSYjeGE7Rm9NMmhzVithd0xRV3hYL1lPM0gyUHJuSDVlaE0vL2p1OXZjeTl1b3VhWXpOUlk0OHVmTDhmWFpjT29qSWRsNVBSWTMxbnlhakh5cSYjeGE7ZGtQdEg1SHBMN0xXUFhRL05OcVRxcnRUejNpb0gvRGo0TTBrZnhPdDN5aGR4TjU4OGtYenFjNVp6L09OVDY4UFZ0ZG1ncW1OamZVbiYjeGE7cjRPSXA5NzhjcDNUNHdXUDhObFFZL2Z2ZjlvNG5IcjNOc1crRXoxVExBT1BXUDRLNUxxWjlVaEFhZExhR0p1NFd2UW5GdTZlUzczKyYjeGE7WnVYeU5hamw5TnBNNk9yN1RicDVzWWdQbm15djNSN3RQc01zb2Z0Z2NTTWNlM0d5K21GN2RPdmg1ZGl2blhUcGd1akN0bjlGTkF2ciYjeGE7dFloOWRHZDd5cUJaODVYWGx3VHNCcytZaC9YK21wL3k5cHZBK1I0UC9DdERMVTJHczBsRlRsRExsOXFNVFdYbk1ycDRkMm5PSkpveiYjeGE7SEIzeTJPenJpQnlmN3ZyM3JiRDgxOTdDdTJRbGlwWnA5NitQUysvVHQ4OFBTR0huYzBqcmpLV3F6UVYvaUFqNHc5VTVybkRTOUlBNCYjeGE7L3JIeTg4N1pScEt1QWxqODExdXJuMzRzbjBBTnZWaUpNSEJ6WVlxWDg4UUlhamlkUU5pekF5ME5jTHRmbmxsYWFrZ1l5S2hyS0NqMyYjeGE7WWdqbDJOTDgydmI5Y3dmalBITzRnQ2sxZHUvTGNuUHNQY2xuUEx1WlZDcjVhdHppRHc0WWwrcHVKaGZNekFiM0R3PT0mI3hhOwkmI3hhOwkmI3hhOwliOHI1OE9wS3c1R0FtSU9ueTdNWHpoSmtrNmNiYTRzejd2Ynk3UG5TbEdsakRZNzc2ZW5LcHlkdlZzUDE0UFBzK3RYSGhSUkhkdDg1JiN4YTtoTHl2aHU4bkpBU0MxNlpwZUwzOUs2bzJzSEVZNjMrdFZnSVZlS01YcTZzclB5Yk8zcTgxL0lucmU2ZmgxUStRdjVHdi91WFdpNTMxJiN4YTtvNk1KbkJoSTRaMnZSdXlDc0JYY1dpbDAvUHpEYWtwM3FEL3B3czZMcFlYMTAyOHJQeVlubjY5djdYNFRvRENYeS9QTGE0OStmYnZlJiN4YTtXUHNwVmlKSldLOTlBNWw1Y1VPWitLbVYveDdlM2gzcGN1YWg4WHVQeDliZXIyMXVQdml4L0dwTlhlWnR1SEM3SEhHK3JlZWtoS0JtJiN4YTt4WWI1cUs1Q3cvRFNKc1ovQW5IMVJxL1haNzY5L2JyODZ2V2JxNDVubHFCTzRsRlNSODdPWFREekc3bldhTngvczNGNDgwRXMzZHYrJiN4YTs4Y0ljZW8wakh4cTNoNzU0NytIZHJxKzdXeGliL25LZFNWb2c5dEk1UDJFclRFUkZOcDZja2VqTnhYaUZjNzEydHZKc2QrbkR4cHJyJiN4YTtmbHArZGU4N0tNemFvM2ZlTnVhZXZMTjBmM0dqMGNMRnk3aXVjamk5WHZlbTgwNmJ1Ti90ZWQ5TU5QVFc4aSt4L3Y2bEx0ODRaK2xnJiN4YTs2NTFzUEFab2JlMzFkd0lhKzd6SHR2NCtUQ2craHZORnJwQk95ZWllQTJiODlZMGhvNkF3ZjcyNnVMZCs5ZUg0bWZ2eitPT1k0ZE5MJiN4YTs4MWMzWXl1Zm5zcVgwSG5jaDIxK2ZlLzJ5OFBabFlhK2VpMG5GcWMzNjU2RG9meTlJM3NGOEprdU00VjNNRFlHNG5yNWZrR3RyaDB1JiN4YTt2MXI5K0w0dXNrZFZhTHFpTUYxdmQyZzhqN3AxTUhPdDdacm9EbU5hdVptWU81c0xmam9uNDJkckVPa1ducWQyM2N1ZXdaR0xkZzFpJiN4YTtkakZXam0yZHcxalhaTDBHVVk5cVEzWEV4VHZuNFhHZlJSOFpTZ3Jhc0pmZkliUVV3VmluUjkzUmRpSERsRzQ0RDlBNm4zbG92TU5MJiN4YTt6c1dyWG1Hc1Yybk5JbGZMUGpaNWNoQTM2Q2I5bnVhTHMyc3Y1TWpjL01UVGtabTNrMHNqTXovMXhzanM0Y2syLzV3WW1mMzYvY1BJJiN4YTt6T2NHUG4xKzU5N0lYREQzYkdUaVltOXNaUGJ5QWpJL1RiYjRYVzY4SEpsYlZnLzU0MlJrOXNuKzFzalUxZFhzeU96SXB3bmFjbCszJiN4YTtacjVycmduYTFvTVpXcytpb2wvcjd6Y3VXelpmWTV0WVd2MjJjZmRxNmZYRS9pVzQyUG5XMWNIRzRlelc2UEt6TC9kM2NEQjZiTzJ2JiN4YTs1OWN2akpKNlBmSmhZaTI2Z3dkdlI0MThvSmF2UnRhU2U2NlkyZnI0N056clI1L1dmeXlkWGM1L3dnSmVITlFWSithL2pwL1Bsazg2JiN4YTtWTGpoNTJ0LzNiMFlKVVUveHZTZkR6dVk5T3dxS1VLMDRtRjZFQnhyekR3MDNndEZyOHZLaHNiTEJNZVZpWTR1dWZDMHdjVjZrQmwvJiN4YTtwNlRVT1JOdFY5THJpN2hVSUQwa0k3cC9pN0NNbVlmR082ZXcvZFBFNWMzZHVHcDJPWHJWQzdBYkxhbXprMDlQWDJQUFZyYnNpYXVNJiN4YTtUSC84ZWRGQ3M4bk1rZXZaRjV6bDZISStyYkRGL1hrMzNzalUwN2NobWNjU2Y2eVFUVHkxZjA1UGpONG5COWtoNDlraEUzbk1EeHBrJiN4YTtOeS81NThiSTFQMm5DK0F2czY4L09yK0R2OFFJQURUeGJnaHVsYnFhSXJmTkNOVWVDRzZObVpzVlFVdEkvZXZUcGRlUEh6d0NCcjRhJiN4YTtXZi9rUGZ0YW03SCs3ZndsajdkMU9uUFZkb2ZHMnhzbWhkbjlMY2FZQ3Y0Q3N2NTZiQzFyRXVsdzR3a1lrNThQcDVmdXZmOTZ1Tlo0JiN4YTs4ZWxxOWE4SFo4ZjlFYUVZZDlFcGYrMGN4TE8xTzM0SHRFVXhpcjBnZGcxb3crMTNnbDVkYnBlU1VoZlVwQmNZNjRTYWRJUmNOZWhZJiN4YTs3VXN1UnE3dVlhd1Q1Qm9hcjBBdmVsaE1SRnFLdlNmOGNGLzhoUSs3VDhMbExjOWJ3by83S3l1Zm5vNCtOWCtHNjhHdEhCcmZkRy9GJiN4YTt5L1UzS3k5M2x1WnZGaDh2YjdsN2piVzNHNjlmNGs5blkrSHUrZHJDMnVpSjUvUmkraXUwOC9mVkxCUEY5ZlhSVHZHYjdQdzF4S295JiN4YTtPMzkzbW1xdk9uTDNVblJrRys5R291eEFpYkhSZy8wMHYrWk4zN01OdGhiRTU5bkhjaVRxSHBVWXdGZzlYMHRQTTBmMnNiNnFFci9UJiN4YTtCbHVtdlNYdFl6L0M2YTdzWXhOWEkzUGI0YjVWU0tDYStDbE5oZnBMSDNTVjVZM0RIeituTjVaL0huM1BRM0Q2TEJJb2JuN0RPRE1iJiN4YTtWN2VmZHZ6SVVYOTAyZWdLemljbVY3K052SnVxc3NHMmo3b2RzamczZGJXNjBEV0Y4UlpmVEw5ZmZyWDMvV010NkRhL2JSeU80TGQ3JiN4YTtzK1VPam5KZlVyVGhMclk3ZmZmUnZlNjVXSGZicFNkUlR4MTM3OUdwdFYzREsvdHd2K1hicGJlNkgvZGJ2dDJoOGY3Y2IvbDJoOGI3JiN4YTtjNy9sdDF2RDF0YzlPTGR1dHl1UFZjZmJ0Unk1OS9zdDMyN2tGNnU2WHozN2dpUlQxZzFJVHF4MTVpeVI4MjZUdkZyVjdhMmJPL3JpJiN4YTtUTHh1aEtIVG1VVHRpQmt4RGpZZWgyVTBDK2dUODkvYmtvMXplc2VkYjA5bG5ySDF5L09tOG5FMUUxK28wU3p1TDc2TURmRG8vV3dqJiN4YTtPY0RYbHAwL0VwejNFdDE0Yk96K2FJelQzbjBydDJPN3Q3SHI5NSsxQjNpZUhlQjJORTVoUnU1dTNkMktCNW5wbDdhdGpBbGFtM2s0JiN4YTsrMVN5UndEMHM5bXRHZjdXYUQyYmJ6MXo4TnZMU3dhb1hkblFQMmV5OFRhV0ozNjN0ZXV2MCtQM1J6NDE0OVFmeUprb1JOMzlPbms4JiN4YTs5dUk5TGt4dk1tQSt5VDlOTUtnQlhkTzFKeHd4UzUrNWYrL1hpellrVHgzWVlIM3owYjJmZTAvallBSFFqZTVsWmVyeFRMTkIwTmFIJiN4YTt4cDN2ZTAzMjNXQ1k4ZTU1dG5NUWMwWnNvd1J6WXNwLzlpTktIWkMzb2czVE0vYytQM3ZDM0lzN3pkWEVHaWxOeDQ3ZzNaVTZqdlZ4JiN4YTthaDNCMFBqVTZ0dVRqODFEd0hyaWgyQnFsTnREK0JnL0JQbmxlZXNJM3NhUEFLdUpIOEhOdzB0ekJJVGt3a000dXYrMGZRanEzVThSJiN4YTt4S29CZjdnK2JzUW5qVFZTeWh5QjVaV3BRMmkwb1g5LzVIeCszUjdDMWNyQnUzcHdzSFRiQk96YkVYTUVUYys3dm41M3QzVUkreVZ3JiN4YTtZR3MxMlZOOG53S2x3Z0dTRk1aMm0rOXdpTVFBcjgvekJzQmU2Zzl4Y0ZHSUVlWDQwTEluTStXM3QyMGNYaFVPRU1QSzBpR09yN3ZjJiN4YTtSak5mak5WcmU5ekcxelJRcFVES1FuTHBFRDlIeW9lb0dtRDM5Wm5SeEh2QTd0MkQ4eG9EV0R0TTBSRHZMM3BjdytGbEsrSXVOVVRkJiN4YTsyOWc5dnNwZlEzd0F1NFlJOTdORG5GNVgzc2IwV0d3Tmk2dVg1NGtCdnNaQXlwNVl4OXY0Y2RzUlZHSXZtU0hPUjZwUG9wVGxYZDFwJiN4YTtEbkR3SzA0dG5hMG5CNThUTXRQN0Z1d2N4RmJyYkh6WVNtUkRIaHpXQUpEOUpJeWxGblZ3M0NQVk9UaTlLb0t4dW1CNjhMVWFRS0kxJiN4YTtGTUhZd1k4ZXFjN0JXUnRBUGlaaHJQWTJyanFqT2prd2RuQjdwemVNZnpzNldzMlI1Zlg3OWhBakU2Ky92b3dQY1h6Y0JkVkpjdVRqJiN4YTswOHVxazZoWXc5ZGNxa09PWFBja2puOWNkd2tSTFk1OGZIYlRHK0U2dml5bU9oVWNtU3JYMXFRVkV2OWFtQXhqUnJuSmQ5T2FWcmg5JiN4YTtHMFV3KzJUL21aWHE4STFZVGg2VGZPWWpXMStzQjJQVHl6TmpzMmVtVjhXOUtBbG00L0N3bVlPemU5NU1FSHQ1SVdhL2ZIazRZd0t6JiN4YTtiZTdtanpzTjgxMDFGdjY2b1dZeGIvUDR4bGpQWlRMNjdmc3BCZXl0S1R2Zlh4T1gxSkczWnFJL0Z5Ym43R3J0bjFob2xLdTB0M0RUJiN4YTt6RlY2NUxSeVNqODRXMGMzSVcwWFpxRVAvYW4yUi9FZFBId3dFL3ZnYUd6MVFmT0QxYm4yQjNMbDdkNWk4NE5IOCswUFRFWlFlNVpuJiN4YTtvdlhSeDBnSjMzd3czWDRXbjNsemRUYjJRV3ptelVjTlpuSk55NVg5OXpOR2hZUFUvdjJXdDcvNVF0aEVwTVc5RWNESjdsSjc3RU5UJiN4YTtTQXZQTmt5MjZ6U1VnZE1WSS9QVEJrQVZZQ2VBU1A0TVdMTDdiSjRPdWxsTWNEbUdQL2ZNb05QbWNqakw3anMxLytUbEQ2WVB2cHFKJiN4YTs1WE9lM0cxQThqN1lhUi9NcCtZc3hwYndkbTV0L3VqKzNZVXZaeE43Ry9mWDlmZVU4c2ljL3VjNVZRSGxUb2lWbmExMlBrNXFsSVJsJiN4YTtZMnA3YUR4NEhnYWJHMHNUcDYvV0hwMDhHSWtBKzJCZnRCSXpaVHdqOWVmaGFBUktCMGU2dGNrakEwclI1UncvTTdsb3MxR3E4ZkhlJiN4YTsvTkI0Qk9USCs0NDQzbmswaGQvZWlTaGQ3L2lqZkJnK2tyaVg0eVBWL08xRW15R2lTL3p4d293NFp3cUc0TS85K2VpN1A5NDV6ZDgrJiN4YTtpcUh4MW5xTzVjVGl6c05vUFQ5T1ZPeURqeVBxa0JtTmorV25KNWZqemR6TlgxN01EM1g2Y2VxdjFhL2V4ck9WbjhGb2tES1lzSjdTJiN4YTt4THZWWm9wZjg0Y3RudEcydWR6c04xcVRmbzdBNHVhakl6YkYwaVIrT3hMTjMwNWsrejA1OGVBRjdRdmZkY0l2WnRmajNyemVtSjU2JiN4YTtlTTkvUFhmbnljYW5KK09oU2JkVWR3K3ZmV2Q3YzRhcGVSKzhLRE53MzdFKzRhU3RheUtpVHN2QmhNR1JkdDdyN25sMGp2cy9MQWtEJiN4YTs0SCs4dGxUcDI1M2R1eTJxZE4wa0pJMEowelluUWlsWFQ5bUV5ZlgzUy94ellVWnNqWDBuZ2R1YWplZFg0anV2bWJ1NjFUQTFNRmlvJiN4YTt2R0hBVkd4K2JMQXUwOVo4UWFIUkxhZVZqM3czVmszcm9mdlkwbk5XYlhMT1ByWHlIYWR0aXVMczZ2aEZ0T1NIU3didEo2TlRCcEZ5JiN4YTszT1BIVElKNTNFZ21uVHRSVW1PYVdHMHZ0aWcvYUZaemgwOW5EUExaSkhCc2cwVDQ2UnhiZzF5SnpZc0ZabkUrblc5bFg1NkNVcDFjJiN4YTtHenJWSHJ0TnJKbzFDNjcvMzhPaFFManVjQ0NWTnp6LzR2Ym42ZFd6cTI5ZnZwME56dzdkRzVwZmZpVEUzdG5KK2NiVjZlbXIwLzk3JiN4YTtzM2IrK2ZiWDZkbk44TUx3L1BMTDFVZVBBbmZ0OVBQNXllbndySTBSOVZzVVlpN2FRZ1RXOGJvZUNRT2h6ZWhlK3l2Yy9MRTErdUxCJiN4YTswZHBmenNIRHRDOXJTbTA5b0MvcmhZM2N2bThqOUdhL2ZzTkhuLzVxak16Y0xyd2tNMTBibVhPZVNITE0zTEpOTVN2dlcrL1gyL3R6JiN4YTtuemJPL1RmS09VbUZMVkFlZnZqZ2VIbjI0dW4yMHVQdyttR3dkZjlOWStQOHJYNjlmdlgrcmJQMmR1UGcxY2FENVFlZkRmV3BuM1RhJiN4YTtxZzRTcnlxZkNENjh5d0JDemIyKzVrN1hSc2JXZ3ZtUjJhbWxKVDdiWmpUN1V4dlhqZzhXWTNHRjFrOTRkQm1rUklXSXYvZEhXQ2dVJiN4YTtGYUpjM2Y0SUM0V2lRcHUvOTBGWUtCUVZESC92bDdCUUtDcUFqL1JQV0NnVUZVeGR2bTZGaFlrRWsyOVZNMnVXTkd1emUxREZlbUpEJiN4YTs3UkZUQW9RUkg0YkdmN01BRVZYSy9jMENST3oyZjZNQVlZaFFVeUw2YlFKRUlyNmlTd0dpM0ZFVlZXdmJXVWhVeXMyTGQ1aitzSEhMJiN4YTtPT3g5eGw2dmd5aSsyU2VibUl6bzV1M0NMZ25xRm1qcDRxdVJxVzgvSDQ3TW5UMS9UMW9hVW9jYmkxV1dqZ0ljN0pXQmwxZ0t1djUrJiN4YTtlZEtnWEZPY2VYa1J2WEowU1NwbkN1VG95WGFCbkZaTm13bXJDNEphenJTb0paMG9NV3A1Y042d3RYRW1sa1krbUl0bkdUU1dzZHVkJiN4YTtsUjl1N3orYS83Wi8wN0FpeWJmWmhSbFRId04wYkgwN3I3YWFXbno5OUhIbTl2blJYbFI3SWtWY0RRcUFxamFYL0RncXhqQzdKN2lYJiN4YTt4MjNKNGlSQlZYY2N6TktVYjFLVmM3eFdaWWZwMXY0b3Y3MWZia28zcTdQMkdjdWtXZ3BxNkNZa3Z1KzJ0c1RXM0FaZE9rOUZ2TjVJJiN4YTtySEpPblpKZjhTSmhiaHB5a29TSjFjeWE0R2NjS3pNUFhxNmZOSDJRbis5bWZaQ1AzN1M5TUhMMTFiRk9PVEZITDczYko4MEJQbzBuJiN4YTtNN1ZOUGF2ajNjdHlIK1RJeUlPRHBwOGx6NG1wRCtMUnFYZmQ4NDJFSmNSNjJSNjlhdy94MGc3UnhDelgzclFGZ1kzRENUbjFhOFduJiN4YTsyMmtTWXVZWGgwTExWUFRzNkhJNmV2Ymp6Z3c5V0c1TTZqNUpuRHlsRCs0NmNzcFo3OWpYNmFVMzAwYzFYSVMyTWxEQzNwTG5IL3U1JiN4YTs5N1RJUlRqWnVYY3NsUm5VT08vTkQzRU1EaEVkd1pKcUg4SFF1UFhhUm9lZzU5dUh3UFg4aUxrSWlmdlJJYXhkdjJ3ZHdmdjRFZHkrJiN4YTtlOVk2Z3YzMkVWZzZObHZqRU5UUzg4bko2QkNPRnA4bGptQ2h3Z3hYNmMxWkZOdlh2YmlLVFF1bXBoVzBLMWZ4aEkzN3FIYTA4c1NLJiN4YTtob2hCWTZXdk5tOEFvN1FtcmFBZEQ5RnltVWZIWDRZUHVmNWkxaFhhbk9sbEczR0F4QUJGV0ZrNmhHbUNXM01iWmc9PSYjeGE7CSYjeGE7CSYjeGE7CUFHUFBUd3pSaWVjOGJ3MlFtSC9NcDBESzFMV29EMVMyTlZqSFVCbVRZU2JqY05rcGR0c0JZbENaR0tBWkgxNDlSQnN1dTZVd2szRzQmI3hhO2pBOVI5elltNDFDWkhhRGxNNHF2SWoxRUd5NkxiMk54NGNkWmM0RHBGRWl4bmxVTUxyc0Jxc2thVUVtZlVka1FiYmdzT2NveWxoZW4mI3hhO2xzN1cyc3ZqNWhBSFo4azNwOXJBNTJ5OFdtbXQ5dUJEK3IxNk1GYXlxNms0akhWNnNoYkdwb3BnckM2cVRMVmhMQTlBV2pCV3RvMFUmI3hhOzdlc1lRS2FTTU5iVk50b3dWZ2puRlRBMlZRUmp0ZGRRaXlPUFRLeTlmeDROSWE4L0pvZVlya3Y1WWh4NVB6MUVDeTY3WEVPU0kzZHomI3hhO0V0TnhxT3d1Z211NkhDNnJDZGQwOXh6WkdDcWhrTTRiNDNtNm9QSGNkdmlXTlRQZVVqMkd5dnhzYXRabzhkUkpUOXExVXJjYXpiTEsmI3hhO08xNG1PK0JtS1RBQ1g5dGNGbFBoanNaK3ZiZm1qWWtIQjI3VEYzQm85TUU1VTUvUTJKT2oyb2xOaFh1clZZYVI3bFZhT1U2dmZ4Z0QmI3hhOzVIUmtZQlIzWnUyRzdKK3JqVWEwek9ocjgyMG5nYWxQMkxZbzZzbVlGZkprY25LaCtjSENkRXhSWHYrNGNMLzV3ZEpzek5RWU0rUTgmI3hhOzNHakVQbUFkMHZZc096RmJaNnBBb3RGOTR6TnZMczNFVEkyeG1UYzMycmE4anpqQVBlanptenZ6clhxOG04OGN3dmRNWkJwc0YwaHMmI3hhO0c3OTJWMmVNTVRGUyszWWZ6VFYxMHR2cFNEdmYzV2xZZStQRWczM29BYnN2SE5JZllXby8wcld3dTIrSEJVVTRhMFRWWmNjYVU1SHQmI3hhOytPQ1J1Y3VadU8zMDRGbWpLLzlYMnNEUk5sOGR2Smp2eUNDV0dtOG9aOFE5SitZbDJIdXdzTHE4ZC9mZXA5V3YvdU9MNVZmTFoyK3MmI3hhO2VYTGwzZlJIQzc5VG4vZGJSVnRmcVhZQjJ2YnRHb3Zpem16TUNtbnRiTWN2YklGbHR0bVpzcjhkM1hsdGpaSTQ5SmZUOXJlVnQyckwmI3hhOzVQc1lNNUQ1TGJyWTR5K3V0VGMycmRZLzlob2tLYUxsZTV0ckdhM200cmJxSDBjeVptcU0yWE4rZk5HdDZySnVheS9IYW5GdlkydW0mI3hhO1ZRdWlybjJYYm1IN0kyM2Z2UitIeFp0Mzg2WU1MRmE5YlBiY01CSEMyelAyYVd6ZE4xK1VlZFlzL2hxM05udHZmMjM5WFB0ci9QclYmI3hhOzB2M0ZmZDEwVG41d1FVMmVXd3VldXZ0dC9LNHhwUnBpWm1hSnJPMU9YMnE4NWxWNE5UazdmYTN4bWxmaEZiZmY1eHF2ZVJWZURVM3UmI3hhO2E0M1h2QXF2cHBaZFpZM1g4Ly8zY09qZTBEZzlsSWZyWnlkeDcrVFErRGlldkR5OXViM2dDKzdoeXVtWGIyYzdSLzg1dlJvU3cvWmYmI3hhO0IvL3lweDhPQ3hrTVM5ZkZIeTZmN2h3UFRacDNoOFhVOE03WmtETzh2RDQwZmppL2ZIV3o5dTN6emJmenM2T3Ivd3d2OE5IK2s1MjkmI3hhO1IydkRDOFAyQzRmNHdyM2hTU3pKT2NUYitHaUtmdEZETFBPUXcrQy8vZi9EWDA2SGJ2UC9UeVJlYVA1K09lUkVLOGF6LytDUGJmenkmI3hhO0hZLyt6N0J3aHA4TXYvdmdESi93L1JkRFNqVkNCLzhJVjdxQkg0VERVZzMvR2xLNm9maFVPYTd3WFIvYlZRMHZ4RDllcUFPcHBSemUmI3hhO0dWSnV3elh2QkVKN29hOXdKTVBLYnpqSlo3S2grRDBWaEo0T3RCNCtHTUk3WmtaWGFjZjFQVGs4SjJRalNNeTJNeVREaHM2OHBCTUwmI3hhOzNjbGQrODdRMTZFM1EyZVpZMXJEcjgrR25JWXZQUWM3Q2J4QU9sTGlrQm9lL2dsRUVMaStDR1VZOG9tTExXTFJmaWdkODhBUHBOS3UmI3hhO0RIWG9TaFVxUEJHT0NEM0hEN1FTeXNmRzZ6elpQNHF1UmRwcndmSjljMXJZWDZoQ0Yzc1VEWmVuN3paOEhsb29sZTlndWRFSE8va2YmI3hhO0pDK0t0OEkzQXUxcklZVVlsaUoxU0RoL2QxajZEUmtieVIxZUhWSkI0cEUzakR0SURxWEMxQnRLREd1bklST2JVREwxMHVxUUZxbXImI3hhO1UzcFl5NGJIWjFJR0FVN2ZQRWgrRHcrU205VnVReVJnRUNNN3FTUEVPMllVRjU4clR4RWU4STVycGt0OFY0V1pOZG5kYXM4TnRWUTQmI3hhO3lmUjVZR2ZtYjA4RXJuS2t6elB6TFhqN3ZoQWlFRHlSOUR4ZStnMG50UXZlR08vRFMrME40T0VTZjV6a0hXU0JodnNyZ0tYVm9iL3kmI3hhO0taRS9QUC9vN0daNDh1WHJ6Y09YWDQ4dVRsLzk1K0kwUm53R3NEbUF6VDhWTmtuRVhWd0wxdTI0MmcwOVE4UmRyUno4ZElRbmZHMkkmI3hhO3VBQUh3Zyt0QllnM3FianZlaURGVHVDNnJ1ZFlLdTRHSU8yazdFTDRYcTBub09JRDVCZ2d4NStNSEZvNmdSYmFiU01IZHVKSmlETXEmI3hhOzlDaTNBam1jMElGa0JaaDJuTkFnaHhmNGpzSldzRnVzd3dCK0dEZ3FsTUwxQW55NTFwTUJjbVNSSXdrMEErVDRoNUZEQ2QvQmlvTXcmI3hhO1VOb2loNFFhRXdvZmtPK1NLWGdhQzhOWlNMQ1RpSEY0d29WcUFKekNGVWd5RjJFa2VoMUdFbjZ0SjFXNGtmUEJUdjRIV2R6SXhZY2smI3hhO0pCVGdSbUx3WE54STRvSEJEWkdBOFh6Y1NDM1NvRUpTWDh6RmpUVGNEM0RqYjhRTkVlS0dYQzNJQzZ4cTdFQ0VBb0hIVXhsWTNIQzAmI3hhOzFJRXZ0TlprQUQ3RUxzL0JnYnJnTHE1RkRkL1Rma3RvcXZWa2dCb0QxUGpEVVlOV0tCL3FBelpyMUFJY2pDc2NvVnlJVXA0eU1wVU8mI3hhO0hBY0xCdk5Rcm5uSHgyVnE0SWNQZHVJYXVHOEtTaHJ5VjFEalFZUVlPV0xUUUo3cVRKNUt2NU9IR0lsdDVDR0ptNHNZS1pET1JReWQmI3hhO2VKU0hHS2szOGhBamVXUDVTSko4cHdPRXlRR2xYaEJHR0VWQ2hOcHBJUXhPeDFlZWxBSkt1RVVZTC9RZ2tFa3BmU1VOd21CSkVvdmwmI3hhO3QwTnJRNDFKVUZxSldrOEdTRE5BbW44cDB2Z2FERU1HQXVEbVdLVEJTajBjbTRPYmpKREdEYWlrWXhzU0hNZ2dEZjBXT2hBT0gxaUUmI3hhO3NMYXFTTVNxOVdTQU5BT2srWmNpalJ0b2dIR0FXUnpYSWcxWWphL0JFMElaZUJacGRLQWdtUU1rZzBnMHl4akpoRXI4VSt0SkZkSU0mI3hhOzlKYTZlc3NBYVpwSWt3S20zNFUwV29ibXZuRi95amRJbzMyQnkvZGs0S2dJYVRBYnpXSlFlNVRoUnI3d3RJUU9KTEdRU1BSS21MaDAmI3hhO3JTY0RwQmtnemI4VWFYRFRuZ1RxdU1BU2l6UUswaGprc3lBSXJkTVJpdzc5RU16R0MxM0RqSHduOEtIbFFHUUxaQkFheVVzbnpGKzEmI3hhO252eGVuSkcvRDB0U2R6WEFtZjg1bkJHZW83WHZHanV5eFJtSmc5TGdNcm9sblFrSGZBY3lXaEJFak1ZUndxRmZCbTlBclRFSTRjWmQmI3hhO2piV2VESkJtZ0RUL1VxUng2RjdSZ1hZb2NVWCsrdEQxc0l6STcrS3BNSEE5M0xVU09qUkt2eGNxcWFRYnVxR0VHbVMwbGJoVnpPQmUmI3hhOzlaTUJ6Z3h3NXQrSk0wNm9oT3VDL29OMUNOLzZLclVUZUhnU2lORGlUT0JMWDNsZUtNbDYrQ1J3cGVjcmdJaDBQRzM4TDI3Q0xsYnImI3hhO1NRWE9KRThvaGpQWkR6STRrN3hwaXo4cG8xZ3UvaVF2SVE5L1V0ZVV4WjhDakVuaG5jR1lKRWJuWVV3SzB0M1ViUGtZa3h3bEgyTXkmI3hhOyt6SVlrd0x0SEl3SkVnL3lNU1kxZGc3R3BBNHhCMlBjMUQ3L0tJd0pKTlFVTUJHd2tnaGpmQ0NIVUNiKzNRWUFLSitxamdLNEM5K2kmI3hhO2pPOWo5emcxWHpwNGJ0Q2g3YkIwYk9SWTVaTUJ5Z3hRNWwrSk10aCtvQ0JvQlY2VHliZ0J1QWo0czhDaEd3UUIrZ0FvdGFEblJ0c28mI3hhO21sQzQrQVorZ3MwWWRJaWxoZWc2RHdiNE1zQ1hmeVcrUUNBTEJXVGUwUEd0M3FLeGhOQlJmdUQ2a2JkR3ViaGN2S1VjcWp0NVVXY2kmI3hhO0hpeG1VS3I2eVFCakJoalRDOGFrbEtHL0QyTzBENVJSSG9nL3RCVnJVb2JXS0RCRHFOMElZL0MzQTJnSFFBckxZYWpHYUtFQ09qTXQmI3hhOys0aUxXN0xXRTRzeFNlL0o3MWI5a3cveVZmL2srSG1xZi9KQm51cWZuaWRIOVU5OUtjOFFrUHhLbmlFZ3VSS0RRY2tEYlJvQ1doQ3omI3hhO2t4TzJtWU5CeWRpRXBsR2cvVVpnb05IaVRPb2prVDVCTC8xR0ptUWlmYW00S1QrMXMxNXdKZy9HZXNJWnBRUFBDd0RJV2x0TkgvcUsmI3hhO0NoVGxMU2NLcEZFeU1COEhJRENlWnptUnBMdlRCV1B5QXNOQ0VuNUtWZXRKQmRJa3J5MkdOTmtQTWtpVFFoYURRS21rN0Z3RVNzSngmI3hhO0hnS2wwQ01IZ1p3RTZPY2prUG1TZG5HY3l2TnpFU2lad1oySFFLbVFtd0VDL1VNSWhJbUZ4QkhoWm1TQmVSbS80ZW9rOC9qRE1CTGMmI3hhOy9ORDNSQmdBRzZ3TWxvanExN1dlREJCb2dFRC9CUWdFaUlZb0pUUlJJckkxZTU2bkZNQ2Q4VFI4SXJrd1I1djRUWXRBMHBlQmNrSW0mI3hhO0pXdnpMUkZQcGpTcFo5VlBCZ2cwUUtDdUVTajFUZzRDcFFIcjl5Q1FGNFpLZVZJNXZxc0RWMXJMTStReVhML0UvanhoMFNWUUV2djEmI3hhO1JSaHhLUkg0K0lieXdha2N6K2cwYlpzWlpiUmFUd1lJTkVDZy93SUVDcHhBaHk1amJaeEFXVHUwRXBETEFzaGJrY1lqM1pES1B1UXUmI3hhO1AwSXkzRGRZa3ZSb1l2Q05maE92ZGFIOVdrOHFFQ2hoTENnd0VLVE1aOWFrbGo3K0xLTGtvVVlXR1FBNnFaalFYR1JJb1ZRT01tUmcmI3hhO1AvUGdmODhJOE9jZ2dPZjdFdk5pUEdDQTFVK2MwUFdGNjByWlJBQU5yZDBMY2JFdUdBZWZPRUs2Z3JWa29Od29ZMnNPTXltWmxVOEcmI3hhO0NEQkFnRDhBQVFEb1FqT2FCVGhnT1FEWXY0SStBcUhKdFo0VktiVUhpQStWNXpvbURjd05wUTZsSzUyQUpUQ01naDVtZkpHVlR3WUkmI3hhO01FQ0FQd0FCTlBSdHlYQVY1WGdXQWFTQ2tFK1U4QUxmNmhEQ2tmaGR1VUhnR28wQnFPSzZVQ0tFZElBSEJHN1orbThBMWhWZ0xZb0EmI3hhO09mRW9ENUJUbThzRDVPU0RDS2hUVVl3NVFKMTZJdytvazNmeWh3TjFPcXJYZzVMc0NBRkM3Z1hDRmpDRlBxeGRvVmlhQWdoQW9JYnUmI3hhO2JOUTIvR3VjaURKaE14SzFuZ3lnLzM4RSttTVAvampvbDFLNkxqTjhwVGJpdVlkN2M0TFFoNmpUTmdKcExGTm96NEd5eXlldTUzb2UmI3hhOzVINUkreHFLcmdIdG1MVGl5RnBQS3NCZjUzeXdrLzlCRmkxU3gwdTBTSmw4Y3REQ1R4YzdEbE5Wa3dFMktZVElRWm5VVjNKUnhueW4mI3hhO2JUcktRWm1rNFNnUFpWTGhKd1AwK1VmUVJ5Z0hhd3NDT2g0TTg0RHdJMTJscEtlRjUxZ1RFRlBod1daQ0o3S2h1aTRkRndGdTFIZTAmI3hhO3NaaktSREtpcXZWa2dENy9nK2hUUTZINFY2RVBhOTJGSWhReUFHdXhCaVQ4QmdrTUduYWdMUHBnejBKRCtJS2dac0txWE8yN0t0UmcmI3hhO0l6NVR0Z3hxeEtQZmRhMG5SQi85TjRwYktiZ2VpRnYvQW9EWGZRRHhBSHFGbHVBRmptcUNPRU1KUWNTMUVLRnJCU3dvRVlwUkhxNkUmI3hhO1hFVVFWOUNuZ1JlZWNHaGRNdUFidHdpNXRaNE1RSHdBNG44TGlJUE5oZ0hyL1FvM0VvSWNTRVlpd0pXRlZtUHdCR1NXRUtzRHJmZU4mI3hhO0g4eVZZWURWaFJDWDhCSGZrWEdmbDRrcHJINHlBUEVCaVA4dElBNHhSREpranlLRXNrcHg2QXJQRDZUdldhbmVjMWgwZ1paUEVRYkcmI3hhO2l3VVZHdks5RDExYTZkQWdob3lGZzRzSTZLdWVaRUQ4VDVUc3c3Uk1QcERzLzBnVTBYMUZDcWkxT1BuQTF4TElrYXZxUWg1aEZ5Z2wmI3hhO2dnRFhZdWcrOWdleFBYQThCdXNacElnSEN4bkhjdldUQVZMMGloVEpNUVpJMFRla2tLRGFUQnR5bE90WXBIQmRwUmpUTGFIRzJwZ0kmI3hhO2MxVllIOVpzd0J0djRpYWswWWREazhDYWtIUGNlazhHU0RGQWlqOFVLUnppQXlRbFJnWlpwTUNkU0FkMzQ3S3ZnVUVLYys2WTI0R3UmI3hhO3dIY29NMkdGcnNUdFFOb3lBSi8ycUZVOCtBTXdJa2ozYS95VE1DSVYwL28vamhFcHRmQzNZZ1FVQjR3clBkYjdkRXhMVENHd0FaK0YmI3hhO1FUeGhLdVhRWkJTeWxnNVJ3UGptR0xrTmZVSkEwUTU5NjFOTFJGcUxXazhHU0RGQWlqOFVLVHpHWHJCRkRsUm9VKzNUQ1FMWEVZRVEmI3hhO0RyREFxQS9Rd1JWamlYVGdTMkhZQkhma09nSFlDM1pxN0tDSlFnV3kxcE1NVWlSdk00WVUyUTh5U0pHcVEwQ2srSTBlczlUTjU2QkImI3hhO09qZ3VEdzN5OFNLT0Jxa2VoSVZva1BoZUFScmtnMzRPdU12VTB2T0JQeFcxbHdQOEtYdGJ6UmlsdnhYNFhXWjVPcUVFcGZZczhFTlImI3hhO2tLNm5XTlltQW41UEF3RW9Nem1PWnpnQzIzc0lobTdvSURBRnBXU2lSS2VxOWFTZndEOEE5d0c0MXdKM0JVTE9ER2RXYjdiZ1RqWU4mI3hhO29pNGNYd2NXM05uVUhQOVJDN0RnN2pJNENlQU84ZDZ6S2tHaU00MnU5V1FBN2dOdy85dkJIVUFJS1p5eFFxNEJYQT09JiN4YTsJJiN4YTsJJiN4YTsJNkx2UWdmRlVpYVlSQ01weEVQaUNCaVJ0bW1EU0QyQXlMeW5zK0JhVTQ2bGhicTBuL3k1d1R5d2hWNll2bHVJVDhKeCtrQ3lHbEF2ZyYjeGE7NldwUXVlQ2VyS0hVQXZma3V2L253UjFRSEFKdUljbTRuZ1YzQnc5TndoaWtHRVBkQTFCanBpUkRPdzFOaUk0R0xqQ0dBZitHcGhTbSYjeGE7akpkUEV2V2VHR2hQWFdRTTlwTlFFSVA5N0FkMXhQcjBNNy9odG56RktXQzM4SjRFa3pBRlRVbzIzRHhJeEk2cUNIYk9nMlRocmx4SCYjeGE7V0xwbVdhNFdHeWJIeWRGaVU3dkkwV0pUVUI1cHNRWW1XeVdidTRzWFRjN2RxeGFiQ3ptOVlJSUhoZFgxZmFWMUVHcHR5RHc3SFR1cyYjeGE7YUJsbFJMcUJCeGhURVB5VjlFeUxWdzN5TFh4V3VuQTlFUnFpN3NYLzhXczlxVUNGM3RoQUdrTDlGdkRuTUlJVUt1UXhnalJpWkJpQiYjeGE7MnlMKzFiUStnd29aNGo5QWhYOEFGUUxOOHZvUVpYeGJwZFVOZmRaNkZZRHhGaXBvR1NqaEt3ZS9HQ2NYMCthMUZtQVY0Q2MyMmpOdSYjeGE7dVRFaGRkVlBCcWd3UUlVL0NoVW9JWUgreTlDM29qNkVJandRUG9SLzRJYVZqNlFyMkE3WlpiVmpnd29pVkQ1TFYwb1dlelhHbm5pbyYjeGE7a1BVYlZ6NFpvTUlBRlRwSGhRekEvQzdFWUNjajZRY3h4QUJXQ0llR29SWmlBUG9WL3VNSHhzQ2pyZS9NMDByN2ptOTVSRHI1ck9MQiYjeGE7Znh0V2ZJNndJcVhSRHJEaTM0a1YwSExaOWw1S0d6TEhaR1hBdXVzVGdFMDlZc0JhRUFqWEFZMFgyaGlZVEFBU3RHMWZhbCtZWUR5WiYjeGE7cUNva2FqMzVMOE9MeEh3dFkxSVNtS3R0UjNrNGtwZ3FIMGVTWDhySGtVeURvZ3lPcE43STRraW15bmd1eGlTUEpnOWprbS9rWUV5bSYjeGE7bXZpZmhER09EanhBbXUvYUN2ZHV3S0JzNXRkNGdTMng0dnBVU0FEbWtJc0NVL2dSbDYyaGp3Z2RobGlPMGFnVEJieGxyU2NWR0pNOCYjeGE7a0JqR1pEL0lGTkJPM1VBR2Y3enNIYm14KzIvZlN3NDJwUUFpQjV0U0VKS0RUV25qYUI1dVpSaFNCcmVTZmJ3R3VQWEg0WmFMSTFXdSYjeGE7RDkzRThVd3pWZGUwL1FLdlVkb1Z4b0RsUWpxajUxcjV3aGJaVjBIZ09QVGxDUzFzK1R5WjZJdFg3OGtBdHdhNDlWK09XMkJQOVBncCYjeGE7RmwyMUJqRmZPOUQ1YVFsV0ZyV2tERUkzd0VJanpISUN6MlVWU25BNlU0VXYwVHpQS0ZIVlR3YVlOY0NzLzNMTWNoVVVmWWViRU1KeSYjeGE7TFliZ2VzeEwxVUZnVVF2QXBXUUlFQUZXR1pIUWg0SUZ6cVpDVHlwcGtTdGVIdHl0OVdTQVhBUGsraTNJbFZLUy8wSGtvdlFYK0Y0ZyYjeGE7Zld1MVkrNjNCdXk3ekFzMzZoWSt3MXA5cDQxYm5zZktzWTZpU2RzWUtGUmMyalBZVnYya0FyZnlQdGpKL3lDRFd4blNsY0d0VE54RiYjeGE7RTdjU0JvUmMzRXJhbzNKd0t4TTdrb05ibWFpVE5HN2xZbE9GOFc2QVRmODRObUUrcmk2VVRtVGM4MzNHQTJnQXBtUENBVnlMTzN6byYjeGE7T3FiNEI5aVlaaFZhckYxWng0K0t1MEJOOTR2cUp3TnM2aDJiTXIzS2k4emx5VjdsR1d3eUsyeDNKUzh5bDhmN2xtZjRjWExRZkd6SyYjeGE7OUMzUFlGT21iM2x5REprZTlBL0RKc2RqQ1Nrc3c0MlFCNGlrZlRhUHhiRkU2T1E2Z2E5RW9LVmpIS3ZBQ0tZU3VvSjVpb0ZCbElSTSYjeGE7Vit1SlJhYWtNVGx1TzgvNVlDZi9nd3d5WlE0M2cweXBOMXJJbEl6SnpFT21WTlJtbmwwOWlXNjV5SlNOU1U0aFUwN0ZrelJxWldPUyYjeGE7czZoVjhjNU9UbGhuSmpMT3llMmVtZkVlNUhUUFRLRmtUdmZNMUNnNXlKUmhUVjVxbDEwaWswN2ZRQjdBOVlKWTJsUkYwY0p4SGQ4VyYjeGE7eFhWQ1laS3hYT0g2RnE4VU0rR2wzeW9VcXJUcktDOE1sT2EyK1NCZTJNR2lXdVdUQVdJTkVPdS9HckU4TGZ4UXVBRzcwQm9yb01jTyYjeGE7bWtBQzRkbEVHTmVUU2p0NENrWElOZFlNcFNENGFaK1ZmSlUwbVdBcTJRbXcxcE1CWmcwdzY3OGFzOUl0YVRPU244czZYajdqVVRXdCYjeGE7Z1FhemNBN2tQSGpGNXVxcmRMK2FxZ2NWYUpVRXE3Z0JNUE5CMWdDWVJJNDhBMkR5amFSYTFVcDhMMVNyMnQzTDhneUFpUVVXR0FEVCYjeGE7Uzg0YUFNMGI4VDdRR2JSS0hOMEFyY3JRS2cxbWZ3ZGFpWkI5bmpUdGdNcGlrV0kxVXhrd3lzSndNTXp0aE95Z0Z2Z20zVlBoSUJUciYjeGE7bkFxRlYrMlRSSjVtclNjRHhCb2cxbjh6WW1XNlJOTUxIR3BnRjVpTHdTUFhkVm1BTldEWW55ZXQzT2N4Z0VrUVMyd0plcFgwOXRaNiYjeGE7TXNDc0FXYjlWMk1XOXFaRGlHYzZsSUhsVUt3cDcwaXR0V01UcVYxMmJmT0FmdUE2MGpxZmhNTXo5bVVBYkZIRzVwZjhwOWFUQVdvTiYjeGE7VU91L0dyVThDSFNLb2JTTXR6V0k1T1BHSmNzbGgxS2JKMkJXMUk5a1NIWmp1QlkwTGo4TTJGUFVjY1BJb2hHWDltbzlHYURXQUxYKyYjeGE7cTFGTDQ2Z3dQS1JCMjNEVWhkSmwra1FvQnloZ0pFUU45SkhRczloVnhjaU1NdlJjWHl1cEZWWnYxU2lkYUNaVTYwazVhc1dRcWNEOSYjeGE7bS9oaXJ2czMrVVlMZlpLZ240YytLZVRJYy84V3VYd1RjMlpSUnFUYml1YWdUS1pveUQrTE1obFhiQTdLcEViSlFSbXptTFpyT1FkbCYjeGE7a3M3blB4aGxhRFFQbWVvUmRYTjBYVDdRWUVqUXFxeDVYU3RYQ0NjRXQycWlUQUFDYVpJUVBUQXNGVG11WXU3ZFdrOEdLRE5BbVg4aiYjeGE7eWtoMmRXY0NydS9iL25RdWk1Y280b2JQL1pvbmpvZDllWXBGck1Jb3V6QlUwbmVaUVdWekVwVk9wRy9VZWpKQW1RSEsvQ3RSaHBXYyYjeGE7cGZTRkx3UFhkcWxqZW1ISXBxZSs1U2t1OXEzWlZoaVNtV05UQjFrUjNhTnhEN0taNlhhWHFPZ2ZCTFdlREZCbWdETC9TcFJSQVFRbSYjeGE7Ri9xbzR6dW02NTNXd0FjcTlMNnJJcFJSSHRCR3NUaTZhOHMyZUNGajg2U3ZkV2k3YWFoNFgwY1Yxbm9Tb1V6aWJQL0JNTmNVK0dkQyYjeGE7WHBXVEcrU2FCUGk4SU5lMFdwc1g1SnJLclpBNUFGNFVNaDREWnAxZVRsNlFheVlRTmgza3FwMXM0YnRNa0d1bVpKNTV3Rkt4T3RBNiYjeGE7cWg2UXhDT1JIaVdkRnRNMEVrQUdVUUREa0lpVkhLTnBKR2k5c2NxcW10MmlVZzdrOVlSS0FsdjNvT1F3bXNGeUh4RUd6TVVWTGp2dSYjeGE7R1ZRU0NxZ1dTRGNNQXQrV2k2TVJHempuS1p0OTRjVWJkTmQ0VUk1RnY0WHhaREVseFdLY1hMYVR4WlFpN0Vpem5SUjI1TENkREs1ayYjeGE7aTRnT2NPVVB3aFVSQWhWY0lhWG5XQmNPZ3hEY3dQT3hlQUdaYXRqMHBtUU1YUUJ4elJPR05VbTJ2SGNGR0pZamhLbldxN3hFQjRGYSYjeGE7VHdZSU0wQ1lmeUhDK0w1eFRyZytKclVJZ3l2MFRIRWhMTWV3RzhoV3REZmpsY0NMRUFiNDQwSDlFWjduR0V1MVNvaGdzdGFUQWNMVSYjeGE7VTJ3R0NGT01NQ25nK1RzUXhnMk1vT1U3clhiZWdyMmVBdWo1ZmhOaHdFNEM4QklOSHVGRm5aeDhQeEJTYTFkNDFqU1djRzJxV2s4RyYjeGE7Q0ROQW1NNFFKZ01EL3dUQ0FGM1kwcWFOTUJrQnpPVnNPZ2k4TnNJb0gxY1dzT21UNTlyNlhZbGNCbDNyeVFCaEJnanpMMFFZNGJKViYjeGE7R2ppRll6c3ZRd0J6cU9CTHpaZzFpekRBS3ZJR2VtNXNUV3dUSXNETVY2a2RIWlVPaXZmTHJQV2tGR0hTOVVoYTZKUDNRZVlnazVpUiYjeGE7aDB5cE4zS1JxV2t1eXplUnBSN2tJbERLakphRFFKbVdOeWxjRU9sczdnRUMvVmtJQkJ5QnlpOERLQnpLcEppNjlNc0lObWxvOGhkbyYjeGE7K3k0bE1pMGNLV3cxT21BWFZ5MGxFTWtHQlFTSjNwcTFudnlqQ0tUVFY1U0RRQ2tVTWNpVWVwYURXRW5ZelVlc2xIY2pCN0dTWDhwRCYjeGE7ckNUc2xqaDE0dVdDaXB3NmJUeEtteVd3b3pDOTJud1hUM3pQUlM2ZTFub0xYVHp0VVlwY1BLMHg4bHc4Znc1aXVUN0FTU29aT2xIUCYjeGE7UW5iMGNaWFVtREdxM3cxbWdpWFNmeFBhY3NaU1VEVUtmYUZDdGd3eVNKT29RMXpyU1JGaUpmZGNnR1RKbHdvUUx0a3FOZy9oVXVwbiYjeGE7RHNKbElnMnpDSmRHMnh6MHl3QnJCdjNTb0ppSGZpcUpTem5vbDdMVjVhQmZEbC9McjlhVjVHc1o5TXRVTzhtZ1g0YXZaZEF2aDY5bCYjeGE7MEMvRDF6TG9sK0ZyR2ZUN25Yd3QzZStzQjFTVUFiUUFzcTlRdVVIRTBiVFBhRkFLZ1BhSjlLUVhTQThRTFZ5TGlveUtveHlKWjZZciYjeGE7VjF6Nmk1SmJLNS84Q2FpWXVvNEJLZzVROFo5RFJUWjdaSlhrUUR1QlJUd2RCTUErc0VFZGxmUVhXTEgwZmVVSVA3QUZraDJXekFPbyYjeGE7QWFPaVlMa3c0NUd0ZkRKQXhRRXFEbEN4aFlxdUJSanRNbWZXdGh3RCtEZ00yZ01EOUswdVNLUlQrSU1kTmt6OGtIUUVNNVdFRHJFUCYjeGE7RS8rcVcvOTFnR0IreFVzNytTOWxFU3dYcVpMb2tJOVVxZmk3SEtSS3ZaR0RWQ2taTnhlcFVxaVpnMVJKSXBHSFZNbGhCMGoxcHlMViYjeGE7M3BBekxJWWQ4Ky8rZjRiTS81ME1lY09UVThQN2I4eW5pUWZQaDhLaWovcnh3QmxlUGgyNnJmaS9OZnozRE5SQStMZ2VZRG5kMUk0cCYjeGE7ck1RbWJLeTREdTBWQUN6TkV5K2tXVFgwZk9HeHNDYWVCWEZwMTBqSkNWWFVVSWdnMFhqTnFxZGVneDNPbGM4cnhzRVAreVpwTUdSaSYjeGE7Q3ViUUpCUGFiM0FZTnZ3Sm1CSTU3SXRHcUNoQlNJTXc3ckRyTmtLMi9zRXJ3QmwvMkFXVUtEZUVNQUdWV3ZyaDhQODM1T21HUTdrZiYjeGE7U3JnSVhjOGIxcW9CRU1JaUJhTy9oQjcydkVaSUdnamhBdEJwU0FFMkFtVEZ3cndBeW9FSHhBRktZUE1hTzhkSkNGQVk1bkd5SkxZciYjeGE7OEpYUE5mYnpFMEFsaHBjdmhyaG9xQmFnWTlnVXE1cmlBY1FoazQwb3BBUDk1TmNRMXFUeExld04xQzVRdHBHVDY1cTJFWnB0VTducSYjeGE7d0F0OW5IMUFjNExpb2x6WDB4cTcxSzR5bzBMOEFTWDNoQnU2T0F0aHdoVWNtaGEwRDEySGpiRTBFSjZOVm9YclF2NEMyV2dFT0JwOCYjeGE7aUtHa3l5NUVYc01CU0xBd0VBNEhoeUY0bmpnSjlxYkVnWG5Ed2lXWENKWFNwbHk0TnBWckEzWm9BdE1BbzFDY0I5TmdBc2h1T0ZGTSYjeGE7UCt6S2h2QWtQY0dlVmpqY1liZWh6WEZJNkdxZ2xucllsN2hyTEI1eW9BU01DZTRQUytMdGh5eGFpUk1PbWFzcVFod0F0RGdmMDdDVyYjeGE7TFpmS2lrVWVwY3NBVk5Cem1SQVlzajRZcVNMZ1dVaEltT3dhNVE3N0pwbVZDZXpTeDFlOTRlckwrVHkwY295TG5OdzdPenY2ZFhveSYjeGE7L09YcTZPVGJLYWdDb0c3S1lINUlJbURKUVBQbnloZWdtSlA0eDJ3eDlyY0FvSUhxQWVHRWc5c1FZTEhEYzlrdnlmUlJCb1FENEN5QSYjeGE7VVFmTWU5ei9sWnFMNGNLQkNJRk5PQmNCYkdHRDBjN25nbXcrRjRnZ0JESm9YQVJRTEJ4ZStmejM3V3ZsTisyTGN6bnh5UUFvMk5kZiYjeGE7SUl3cksvbDhZSktTRWQ1MXBvYm5YOTVjZlR2N01qeTVzckw4K2ZQdHJ4Zm5OMGQ4TmNZVkJnai83MGQ0SitMcUsxL3pjZDhMZ1BzTiYjeGE7QUIwYk5vSnJTcHA1Q1h2Z2hBR0xhZmdTL0lpUFhDQVErQTU0RnBnYTlnMmxDam9xaEdzRkJnT2VtNkFjYk4rbEpEVllGaElOc0VOUSYjeGE7RWdoaFFFTmNPWGhwUUtmbm5LY2F2ZzlXeERRMC9JQk1ZK3Z2U2MyeXBJNExualVuM1lhQ2JJK05oVGdnYVR3VlFFNUFna1BQampBUSYjeGE7Um9ibGhwSk1qSFA5NmlNVzdNV0VuZXh2WlVJS0JVck5LRlVpdVdIaGxBNGRqeFZLR0lrbktTdEFhbFllK3lLSGdNUFFOS1IzR1NraCYjeGE7Rkh2TG1wTHNnUnNxQUU4SVNnRzFnWklzcUJqVUdCeXg2L0VMQVpRS0RUbEJDMEFZTVFFd0V4b0JVN0QrM1dmbWp3Q0FJV0M0cklSQyYjeGE7c1JRSDcvRlhUNGM0V2FDUDIzQTBNQ2ZRTW9SSWFtbzNRcG9BV0dBaUJnc09Td2lrd0JQcURQZ2dOSDRQUmtNQnMybG9GSmdHR0laNyYjeGE7aFJUbVFNcWk3d0JvQzRFRWdoalFtQTQ0dk1CcVNORGRJR25od29kZDFYQWx5SUptajNXdHpDeUVjOUFPcUhsMGc3dVlKUUJpR2JDVCYjeGE7eEZFczFXTjhsV1lGZFp6bXNCdndCQUtOV1NWTk1FUnMrdm0wQjdFSTZnQ1FCYkt6REVncUFXczAxbFJmVFFtNzlDeTc5SExacFdBQiYjeGE7QnRBRHh1NkhtRzlZaWdiUUFCTUR5YkRHWmxWSzRES1FEN29UVUV1RURWOXJISXhrZ2ordUIzc0dTb1IrQUloUXJHMmpUUmR0c0E2ZiYjeGE7ZFF5aFFZQlpZaXpSWUxvbWNCRENIR2lFRTBEQUM5aGNpSjIzM1RvenpXbUh0RWNZVzdIU29GWnpwT1NORUFkSG9nPT0mI3hhOwkmI3hhOwkmI3hhOwlod25KVlA2bVhhMzBhVmNpYUNqaE1oeFA0Wkt0S0F5V1E1R2Z6QkwwdEsrTWNpK3BEelZZRFdWWUZ1aFNHY3J4TEtsOGtRQkFPQURFJiN4YTtFNkY5WTR0aTVqdndCTERLanJxL1RLVlRuelV1d1pTby9mRWtCZU4wd1pjVVdhZXhlYm5nQXlRTmdIZ1RTZUVBelhCcDJpZERKQXFBJiN4YTt4ZUFJUWZhQmk0cVVCVjhKR1dNQzhob3FTemRBWmpHdXdIVXhCWkswaGEvd25IRS9tZzhFM3FXakhRdFUycWpFa28rZzV4aEdSWmNhJiN4YTtCQVBCeG95Z0hTNG5acmxweldZaXdHd3lLdHdYK3lBSUZteFhkREZDMlFsWkMwVzZBQzh3Yk40b2I1aTZFR09ad2U1NG8vU0tZQ2poJiN4YTtjZm5HWCsyd3JUQ0lUNkNJOUJnQXBFcXc5Nm9JU1RxZ011bVFrQkF5eE5NbGRXSEhZY0MxQ0J3anZvQWdPUUhrTDdCbHlHa2hCUUFRJiN4YTtPOGY4NStFZ2hxdnZwNFIwdUpaMDRHTHlhTWNjWkJhUHhCK01FMGlsQmNteWd0QkVuNDhQQW1yT0lRUkM0QlpOSlJES1N0Z2ZLQmN1JiN4YTtBeGhpSW1vQ3lDb2doenJBUGlSSlBUUThTTUU0Qy9Zc0ora0Exa1A4Qk8ySDJPSkJXQXFBWlhpZ0ZHVTAwUE5BVjA4RThnbkNJZGxEJiN4YTtrRzJiUXhJT1g0RmJNYUFQRTJyaTJKems1Q0M2Z0ZZY0hnZ3RHSTlnZHlaUTU0REZqMnZ0Q0hmT2xBK0liV0FtM0JFMWRGNnFOS1ozJiN4YTtrSTA1VWlod0JVMUtvbDFDSmlnVUdLZFJsL0hkT2hOQjZGSU9CRlBJaDlDZmpWVmI0YzdCdmpBUXZtb202c1BSQ2ZBbklDVzNCRVlOJiN4YTtJVWNIRENjbWFHdVdRS3BCbkxBcnFXc1JKeHF0SU1vQ3owUEhjSFp0WUVvS0JVb0JzUGNzUFZHNEM5b0VRUEdKeFdHREpkUVU4QmJJJiN4YTtBaHBMSXh3MkFBbVIvU0NGNlNrQi9BTzVNWjNydEEyVUJQcHFFenhBL0FNOUVSUnFCZnVjaEM1WnFnSXkrYVFFdkV4ZkdyR0RjallrJiN4YTtUTTF5QklvUFhDY0VTa3NzRitqT25HU1c4UVY5Z2V3SDRZVDNxaUFSbWN3NHlET2hDU3B6YVlJRUVOSytTM3JpTXpVdUlGbFNPRmVmJiN4YTs5TVIzWGNWUzlzd1ZnbzdoTXl5T2Rld0ZwUnhMVHhqUlFIbWF4WVU1RDZETUI1M0ROZU9lREQwUlJDbFFHd1o5VzFFa0pKOEJwY05yJiN4YTtZSjZrSjU0RDdTV1FySVpseWp6Uktpa1ZZVWhiaFFLU0dXNGI4aEVyeVZWZlR3azVVYVdTQ0lWd0tnTTRPSkFPMTlCUW4xUVd5cHBSJiN4YTtvdGhsQjFJVkJUekF2UW1RQlZQQTBqMGFNUjJxWHVRSjVDcVF0a2dWdGVIWnBoRWJCRllGNnR5U1JLQ3E0U1dJYUpCYURjLzJOSldnJiN4YTtnTlNyemt5VVJHUURUQUZDQ0p2K1drbUUwaDhBRC93SEdyT1JSUDZlWGEzMGFWY1FUU2h3Qy9aWGNQRUdaRldXNFdBbE5VQWVJTE92JiN4YTt1TzZZQW9jeFdXS0ErLzhGdUYrbHcwczVaYXhGakd2a09VQ205a3o1UGR3YXhDb1gwaFlFSmUxRDN3WW5Ba1JqTmphaWR3SW84Wkk2JiN4YTtIV3VkQjdUSXBKUjRjUGJBcEk3aGJLa2xnYW9Bd0NucE9TRUxhcEozellHYk1kVEUxNVFMRmRHMndjaDFod1lNRnN2QUV3Mm9sR3hVJiN4YTs0Qm12dG1ka1RlaUlQcFVKcUpnbUNoYnNNNlNsSG9pdVZCMGR2aE84cU9GUldMNUlDZUwwd05CZkdFQWM4S2cwQW5kOU5taGczVkU2JiN4YTt4WDd4SFdyVU9BZUo4L0ZERTUrc0dNRU5ZVkdRWk8yWWR3RFVFSktoNVVmdVp3blpVcHNvQVNoRHd6K0hKSDF5bERzWlRnQTVoMEFMJiN4YTtTQUZ1c1FBak1JYTRBRldMQVFhZ2UxQmtJbjhiNnkwR1ZJMEQrNFluSU0vVEY2SnRtb0NtSlF1VE9xd0N0TXA1QUJNNGFVR1RDbUUwJiN4YTtJT1pDcERjOVpIM1hyZ1hZS0NYTDFFSDRNVlZBU0JnSVE1UnlUUDh1amdjSVlITVkyd1VPT2diVk1VamJPQ0R6Qmp0ZjRBRk9DbFBUJiN4YTtMUWtaMmpjNUVaNnhGdUFkdHBiMldGYWNsZzBUd3V5UkRJY2U4RFl3cWdSUUEwaUtRd0pTbVVFVVhidjRYK0FZU2w5eFE2dEZ2QlBLJiN4YTtaRUlVNTNMcDhJQ1lUdzJCQml4Ti9RcE1CZGp0R2djUnRRa2NnaUROb0hqSThoRytnUEFQNmduU3duTG93M04wNkFIK2dROGhpSVhiJiN4YTtGT3loenRDZUFTa2M0aks5cFEyUHNpdGRsb3BnQWVXWW5lekRrUEtnWWpZL01Gb2JXaGVFSUVwWWxVazlvWTRWTW91R3hUZE5CQVZJJiN4YTtOU2dWczlHQ1NMWUg0Y0NsTWlPYXZSeUhjU0xZRFNabHN4OU5aYmpHVkZyU2ZpcU5KaWVZRHpvWFFxdHFrQjdTYlNWQ1ljUjdZRzBBJiN4YTtMUWxzbEozREpVazBRSVBVamxZY0QrZlhwNDFSOG5hd0s2aUR6SWN3ZmpOSTFnMWNGeGc1WlhFWG5LUGVaS0RURG12YnMwT0VNdFZmJiN4YTtHdGFBSzF6MmJQYWp5UlRMeDRHK0U4c0NrNUJCRXpZM2l3dG5WSG05MmNEbGFGc3h6Vi9ZQ29hcE9SN1pETmdyTUVOYXBhSWZkMFo5JiN4YTtMQ1QvMEtaU3YzR1VNd21MNW5kR3l4dkZZcU9jcUJvWXJ5U3FrMWhvZzUwTlhRZE1yT21veUg3cjVkZlRveXY3bGZuNFhNUHpUODl2JiN4YTtYcHgrUHI4NkFWTHk0OStIZ1BNdlRvOStQam5Dd3Y0djVobWVYRjErdEJsUmdWZC9uVi85c2g5RnpHSjRjdm5rL1BqMGNQbFJlSWp6JiN4YTtlWG56bjUrbmgrMlZKMWlLb0YwSDVFWFdJQzhacHhydm9Ha1RBdlJEbVdYd0JDUUI0aHFJdnh1d1Zsc0lHUWFzRll4R0VqeG9PYVVYJiN4YTtCTHpEU2pVT1JTN2FSZHdBak1hOEF3SU13c2R5ODdTK09xUXV2b21UY2RqeTAwemwwcEpLc3hoaktSUjFVOWJFRmtROVFmcGZ1WnlkJiN4YTtQNFNxbWxoWHNDRlFVZkl2ayt4a2FncUJPOUFOenB4Q1ZrNENha2RpbFdmOGFpeUtCNmtJNUlsVmpnM2lnQlF3bXM4akd6UG1KN0JSJiN4YTthaGtlZCs0MTZhcG0ySUJTcHBDZUJwSWFVenZrUXg5czJwRzE1Z0p6RGh1c0tnWXNwVkdmaERXZ2FPeXhLQ3drb0RBaXJEZ3h4NmVCJiN4YTtURkpFakdMc1daaFprTVZSd092UDFpeXhjM3htL1FzYjNtSUtONW5BQVkrV090ZXcrRHFUYWRBYnlHOGF1Z1BiblJyb1luMGFVRGJYJiN4YTtaYS83YURJRjl1eERMUWg5MXhTcWhUU0oyL01nSklLVXE3cHpNWEdVamtQTzVSUGF5Wmd3bldKdkJiOUpWL3R3WjV3TGtPYUdFaXBqJiN4YTtTQnF1ZVJraFBRWVFoa1Vkdit1QXNQNGpoRlVad3FZSUFxN2hoNlpYVGNqQWVKLytOMFBzakhySUhCZmY0SWV4L3pLWm45MDNta1RUJiN4YTtJNUVOV1I3VzBGNGFDUWt5R2lLQmZRWHFEUVNZa0VQeEJiclc2S3NHTEVWRXRYd3BmeFJOOVlFZkxvTWxHV2RrYUNvZHZiUnp1QXBhJiN4YTtvOFVaeUlBUURSVjl3UkhPc0Y0aVZxTG8yVE51VzVjaUhNdUlXSWJsMEFjQTZVbmhhWXlta256NzBIVXdzY1ZQbDg1TW54MkpWSzI1JiN4YTs4RTFhWW56YVlFTDZsVUZTRmNVakhEWXZ4RzJUVk9FRURBRXp2V1F0U2ZWcGJZQ093V2pIUHUyc1RWSVZHVy9nWWxPaEphbkdXNG9GJiN4YTtnSzU2ZFdlRDVnenBGdFNhS3FLQkxTTUhzelFSdUVPTXBtSTZ0dThrcVkySUtwMjFvQ09hN2RwcnppWVlRZ2xZZzVoSk9EWEtQVjM4JiN4YTtpdTVsdDAxVmU3NDF6aVdVUTBlZkVpYm9BWElHeTIyR05KZGgwd09xK3FkU1ZZZTJWNCtKRDlEUFRJd0NGTEtBWVlwMFZqWEZWYnBJJiN4YTtBTFRRczB5alJjYlphQVliMERzVFNhdFE5anhHVjdvR2l3Uzk5WXArWnJvd200U1hMaEtYam4yak8rRVNGWTB0ckRQcHRxVFZzdFg4JiN4YTtTWlFWaUlNQmZjaHpuc202MHNiZkNYR2RObTV0S1lJeVRXc29uRGhOdkdGVkpwZDkyT2lnTnlLZEtVeUxZOEwvbWJOMW9LdlMzNnV4JiN4YTtpSVMwS256b3h3TGtKNUo4SEd3bkpPdXBOWmVWVnZHT0pCbjEvWWkwTWh4RmtlQUdRWXUwS3AvV0l0ZDQ2ZzFsaGRMaENkcU1OSlhzJiN4YTsvdXlzUlZtcHY3TzVhdWcxS1N2WnVPOUlIQzBFejFxemFRcW5wb3BjUUt1am9lUFNPTHZaNmk3MDI1UTFZRVlQZUtBWG1PYVJOSDQ2JiN4YTtiZ2dabXZwV1VIZTJ3Tk0wQUxsc3BHeGxCTzRXTkpyMXVWUkNYdTN0MW95ODZqSit6S05xWjZZeXNxelBxQmxSSi9waFFGai9BY0pLJiN4YTtpZ2kxaVE0Q0FVWEtKTThiZ0lia0ZkSjJaQWlyeG5rd05JL1JCMUUxUHVoenJrbUxBUlR2Uk8vUTRrTTY0N2tSOFEwQVJBd0c4ZDBtJiN4YTs5YVgzUnNnUUEza1IyUXlrYWZvRG9rM1NXcm1lUDRxMGhzcWh1RTBoM2JlazFXVThGMnNSaDVIUXl0TUlHUWVtYU5HMGlPT0Iyd0JMJiN4YTtHREVKdlBFcFU3R2NzWkxHQ2txZkZVTjBJWTlBeG10VFZwQWR5RjhNbTFmRVVaZktLRVJDaDBKZ25ha01ZY1c1ZThiUGd6dHFFbGJIJiN4YTtTSG9RaUdLRTFUTW56bUJNYlNsclNMdUhRK3U3cWpWYjljYmFoSlZPTzdvMFExTWVnNFExQktHbkF5Rmd6R3l0eWZBWHd6ZGR0ckVSJiN4YTtOb1lScWhGVUlseEo2TWJvS21OYVRLZGVFWkZWMDZBWFFDajl1amRHUTZwUEdVSXJXd21KUWFxZ3paQVFFbGFBWG0rTVV5bis2eEFhJiN4YTtYZE43S2VRTktKclMzSUc0K3VkU1ZjR1lZd2Y0dzBJeGpFbGxEM1llQjJPclNGUUpEQkJTdEZLTVplVXJ4RUUyNUFSYytVWmE1U3VFJiN4YTtYbHJneWZNWmtXNEtORE1MR0lxWHBhbVlTZEs2TDlpRG11LzQxS1pvU1hPYUpMVjhNWDhTUldVNHNVZDNJME1oRFVVRkQyRWJIbnlaJiN4YTtNUkpFR3Zwc3dYdVVZSmFsUlJvNjVEVk5jVlE2Z1RVQ2tpMHRaWkE5cERrVFNGZjBEQWJnTkU2TXBCclBoUW5zQ0MyQ0NuTzZycTkxJiN4YTtyYWxBT2dLZ0tGMG5ncllBUTFKWldkdDNmS2o5b2V1M3pRQ01Sd2FkQ0czK3FHVFlMNFBMd0RLaHNmZHBZMDJTeW1oS1ZsWlZ1Q2xMJiN4YTtValZrV2wvYmlJcWc3bXdNM3BNZS9hV3NyMExRQXJFR1dWYWdZVjdUUWVhdzdvUEFHMUtGcmlIZ0JBQjYyRjBHOHF0Nkp5a1pmZW5iJiN4YTtBdVFnaG1adm9TZVpvUmF3bW4vTUN0RHJwWEVxUmljeTdJN0dWSVpBTUtRWWx3TkM3THZlZ0tyK3FWU1ZNaWF1MzZTTUdHNEl1Y0ZoJiN4YTthVHFtV1ljdEk0QU1UTlJEYUhPRzZlRm52cUhaYWlTSFF0ZGpwbytQZ3pSdFFkaUYzR05PSzlzZ1IyWUF4YmdHbDJFN3Jxa2g1VEJhJiN4YTtCRk94Z0pCcW1nb1lQc0k2S0l3dk1MSnF3R0pHZ3NHZmtZazI5T2thQThnNjBxNllXaXJWUzBhMzJIZU1YMHk3RU1xRWlZV0NpQlVJJiN4YTt4UmdGREJSWmNpV0RwaGx4UkMyZTRSRUI4MVU4QmhFenVTSm9ZQ0lDdlJPU2c1aVFZY1U4R3NHc2F3REJmeUxaR3ZxZ29IdkdNd0VTJiN4YTtpc0lJQkxUQUZCa2p4d0ZpaElDVVFHbGJvUXZVQm5TRFZwSkFLUHNHS1plQ2JzemUwdWJzSUwvUjFXTDhMNnVXYjFGajhCemRORll5JiN4YTtOZzE2SUNSamhoaEhmRXVEc1FGdmhXTk5NVGdWZG9YU0RJYjJtdSt3RFE0anRCbXpZdTRTTkFYd3piZ0czZEk3Nkp6Qy8xeGJWWUcyJiN4YTtSQk1mN3Z1Vy9WVkF6Wi9DLzVnUzc5SEFRSE1FOUloaFUvR0NDaFlFV2RvbjhBQTNad3JQTTNnTmxKMGVlY2tzRm1ZVk04TWxNQVlOJiN4YTszNXcyTkJEY0ppRUJMTVlYTGs4V0lrQ1Qrekh5bU55REl3c1NVb1lZMDFGTGF1dlhtc3NZd1UyWWZhQUJkWWI3QVdMbzFUVXhkTllJJiN4YTtMbGgwVllLakc0T3VLNFlwTDlQenBuaFVXRmVmOW1WQ3NxM3JrZWxpN0hjdU1SZndEcWZNaUJMR0JkYWJDOENvOFIzQXVhQ1JnK0VhJiN4YTtMSXlxS1oxRHYyaWFhVUF3YUh2MndJdTBINWpRTmtBSUo5SU9SZlo2azlIZ3hEQW1pQUZzQ0dWc1FrUmRabDQ3anFlYm5LOFBGNGE1JiN4YTtvSkdCK2pEV0toVFdxd2g5QXdPQ1B6R2pic0Q2L2tqV1o4clc0REtodUlKWUd3WUFmVlVDRHhqL1NzWVhOTUF0Z0dQTVJzQ2VXQXZZJiN4YTs4QS9sTWNESUpOZVJMVEV1R0hEbG1pRllpbDh5ZXRNNHJ5VURpWVZ2c2xtWXk4OUtPRFJ1Y0FyR0V0c2tVbzhKV1d4bXJyUXRjcUdzJiN4YTtZRXVRQldmQ09rRGtmWVl0RVZZMTBkUWpWUHFVNUkybE1HZ1luWnZ1bG9DNXFud0Q5MG8zZk9pUi9hNXlOOEEveGx5NXJKMXBFNGRJJiN4YTtBeFVETmNHeVRjZ2c1VmtUcmVUaUdFeGtLL1A1WEdBazg2OU1uQ1RvRFAxa0xtc2ptVUltUURWVFNJT0Qyb0pLUEZQUUZCbHgxWkI1JiN4YTtqQ3d4R0pwK1plWWRuRFNrWEp5U0NVemszc0RsOFFKVGkzL3lIUWp6N0ZIdDA5bHF0c3dXaDFEaVdXYmFoa2xxaGc9PSYjeGE7CSYjeGE7CSYjeGE7CTB2Qk1TQmdzN2RJbXNzS3d4ZUdxQy81VGdnb1pmQWNaWERPNGdSOHBFM3dYc2pscUFKSlBXb2xyRVBUajBxTG5RQ1F4ZE1pbjNaNTUmI3hhO25meWFZandjVlJPZnZWTHB3K09CTUdZREdteEFxYUlWVTZnWVZzemlWaVpBRGVkSU5RY0xKUWpYbW9tK1FocWlXQTJGOGxJVVZNaHImI3hhO0J4Z1FmaUlOelFaenM2TTNkQjNUaUpLUkZ1UmlUT3RrakV3L05oYUYrVW1QRlZRd3ZnZG81Q1g1TG9zSFVYaGpGWXlhaDhqTVZvQnomI3hhO3lLYWJVYndybURHd1N0T3UxTlFHcWVzejlKeXA3SUh4WENpZ000dHpZSjJDV1hnMUorUDNJWXNCUUJrdXlKUm94NVRyY0UwZ1RUdW0mI3hhO3NPYzdZMUpVUU05RFNPWFdsZzlTeG0rQ1QwR2gvRUZRNFovSnBVd3dvRS9TNmRFZ1lJTldORDFFbnNsK2FEb1RUT1lIWGE2K2tYWmMmI3hhO3V1Y2xFOUxKcUNLaEhwcU43MEJMODYwemljWU1ocW94NDFhMUFnK0JxNHJKNDRGTnVUQTFlZkNESVFoTlowTHBldjRVMGQ4NEU4QWYmI3hhOzJkeFFtcGFlak5ZVE5CSUpoOEh0eGxpczhUK2dMbk9VbThaaVRTWXZHVUxuV29zN3krNG8yakpDRTlEdjBpaW9HTmJIYUllNEs0R3UmI3hhO1M1ZE5SNXVHYVpmOGlpYkVPbk5GdmdTR0xBa21wTnFJUXRxcFBhWkZZUXN0VjRJWDB1RU9NVDJNcXZiNnZJQ1FmZVZBdC9xMHM1WXYmI3hhO2dmb2pJL3pwUlRLR0wraTFvV0txTnVpTlczYzI1akhqWmtQYTZ3eUkrb3diZ0FUQTRMOVkrSXNmMEhuQ0ZDNnByVGRCTTRzSnpEOWsmI3hhO01Fbk4yWmo5VHlNQjR3d01yTHNtdThCaGRwaEllQk42dXpUalRxQ294MklkSmpCVGcza3pYQmNYYVh6b0Erbi9UNlNyNWVWQWltcVomI3hhO0tkTVlpMFhoZUdhMmhnbGtiSjlReGNJNU5wV0laaERJQUZUTlhkdnFnQlhNQXVDclpvVE1qbjFIMFZydG1iaENaaExSd3NKYTlxNnkmI3hhO0JqVm1FakVWa25udDJsYkxBeWdEWGdQSXRFeTNaMjRPT1RyVExWZ3RoYjVBNWxWVEFBNk1wd3N2aE1ZaXpnaEczeVlTTVpGTW1Gb2gmI3hhO1VrV0pSS3dnNkxIcXNEUmxCNG1lQ3RoT1c1cXlLMkVyV0EvM1Q4ZXN5UkppK1NYS1BoQW5STFFTSUJ3MEVXWlZHem1iWlYwWXJzNUUmI3hhO3BtR2JpdVFhNXVOb214Y2ltVGdCSFZrd3o4MnVoRDdxZ0w1ZjVXbXpGSkkreHZRQnZhenlRVU05aVFnN25Oc1NpY29HamdOSVRUNWomI3hhOytlMnNEcDM5L1Vob0lKY1ZDM0JVekNjRWVYVU50YVVxUmc4U0NLNlVrWjNWQzUzQUNuR09KU1U0VWVBZUZEMGNiOFNpR1dna0djUHMmI3hhOzJYRWc2VW5vb0I1OVhCR3JOMnFkOFk1UUZOWk10R2M1QWxyNHdzQnJ2bE82bnAxLzdxeDgxcnRqdEFKdWwxWVlocFE1VE5ZTkdRb20mI3hhO29uaGZWdkNWQnBaZDZ6Qm1TbzNSVFFNbU1PME1OYk9SRk5ORFdXdUM4VFBHRld5U3QxUXpOQTJrbnVrMWpBb3k0b3dDbWpMRUJpeFcmI3hhO3Q5NHBYYzgvZUZibXJoM1AxR3BnOXAwNUIxcWZmQ2pVWVZNOFpHUzk2UUhJN2s1Mi9ZS3pNWGxSTjBVL24zek15b2lHSkFWMDZBUWUmI3hhOzgzNTkwWUlyS09sTWVBcXRiWjdoS3pndFZpNzBXM0JWdXA1LzlLekFtRUhKZk5aMmxyWUFLU2dLZGtCWFl4TUZIWVdyWlZTRkRFeFAmI3hhO1RJVjFhOHBBUWRqTXptRytEclZCa21jVEZzR1dDUUYzYkxKcTdFU0M1UnB4NERiZUVkQUZGVjh5cVVzR3JYZEtGdk1QbmhOcktOSE4mI3hhO1NONmlEQm55UUNoQWNwZ1JMNk80VU9hdm1GWkh0bzZiWmo0eGk3R0FvOG1tcDBFd1BqdGsrYnpRdWpvQllZSUdBQmJ3akx6eHdDR2MmI3hhO0VYZ0RUZHVhMFhWTWRtTEFNU3RQN1ZTdjVoOGxWSVluK3F4T0YwcVROVXdqdkVuZFkwNUFrMUM1RUdBRGxtMnhiSm9lZVpyY1BEcHEmI3hhO21nUUdqTXo0WkxUTkNUWkpPeEN4Z0o1aDBIeUgvaW1HeExBNkNaMW5NdkMwWTZLbFdzRmdSRDAzb0ovR01ueGEwWUhyakI1WHJYZVkmI3hhO3VzOTh3OUI2ZDBKV1NnM29JRk54K0tVemlpVFdMTm1rZ1R2Vzd0ZDZKUURyRmxGWlU5RmdrV0dQR2ZIZ1M1RlBVRWdhS2JCb3RqK3cmI3hhO1UvblMxUDhMZzZBWmE4R1lZTTNjU3BBSnc0ZU1XdXJhZWd0TkNEQVdTVUNKT1I0Nm04blptZnpKMGdEbUhaTXc3N09VRkd2U21hMjcmI3hhOzlFWXJpaHl0ZDVndTVMSWtFV013UXpyZU5DRU4waThrREVNRlBjazBhekpPSTRPWU1oYWtsaENVVGNLNzQyTk9oa1Q3T0VGamFHVUEmI3hhO24wbHR0dlpObHU3UkhoTUpXTmVPVm1HL1FVNFJzaG9lZFMyVEp4c3lGUVczcEszVUZaaGdVTkFla0o3aGFzRDZCeVVaV2xVcHpMTG4mI3hhO0daRFdtS3VaN1V0b1pDQ3J0WnQ3MUpsQTZrSlRvd29TSTVVSDN3aTVya2tVeGxXeDZ5WjlwTnFJakFHTkROaWNNTFcxV1MwSVIySmwmI3hhO1dSRWF5emxMdnJIQUlKUXRlOHcrZlpLYUdjQ2VuY1UwdXpGRk1CamtScXU0WnNFeEdzWjhZUnk0SG5NdHFLN1FyR3plOEpuZ3dScEEmI3hhO1h1amI2MlNyZHRhR2NxenJOV2lZM3V5K0c1cjBJV000WjhFUkZqOWtIU01qSWtONFlKa3NWalNrdGRyRGhRcEtYejd4SVRRcDdyeGkmI3hhO210YnBNYVBkUENBQVVMSU5QZCsrd0hZQjlDVXpMTTAwSHFTOW4zNTFNbWxqT01lbkxCUXFUUXRnODQ2dHdBZUNJbzNyMndqSmpNcUEmI3hhO3lzelNlTVp3THMyQlVMZGdPZklRKzJGbFB0SnJ5UG5HY0E3RndoUXlkaGhpV1huRm4vOVpIczY2ZzhZSno1Skxpc1c5bVVYRG5wVkEmI3hhOzJZaUpzMm9MZHEwY20vdkN4RURCV2kwMHIwZFVrTjRHeWVvb0lyRHBsUFQxbTN3WFJ6WkpISzBQUEx3b1hTd0FlUU1lYWsyQnNQbE8mI3hhOzZYTCtPZTVVWE56eTJVQ1AvYmZyc1lVbVZtVnF5Q2llS091cU9xNHBidXNNejdtc1NjUHFNQkRQSFcwTHY3TGlDYjNZcmdsMCs4MEcmI3hhO1dXQWhWVkRGQWdyU2xENkFTS01wWmJNT0ZCTk1odWM4ckVsSllkSytXZkhBV053WUFjd0tsWXIxQjIwdlNkYUpoUmpwZWpaZ2p6MWQmI3hhO21PRk1wbTByV2VIMEc1U3hjRW1TcGR2blFsd0dMNCtGaWtBZWRiMjU1aGlmenlCU1EyVjVrb1IvVm1DMEtTcUJjWnV3ZkFYZXdHaVUmI3hhO2EyaTVaZFppYUVJTm1GMEtmdDJmbmEzODRsektrQ09NTDFtMmJvNW1XOEZ2TU9pYlJXSHJ6YVVhNERQSzlLUmlPaVBETVJqZUIveGwmI3hhO3pVRmxETEw5T2tabDR0WUZ5N1l5ak5GMFlHQmxFVVlUT215TE9qQ1MvbjFHMGw0b1JKV3I2bDluNHlxam8wQjgzQzVkTGRTWVdKVWkmI3hhOzc0eE1BZzRyRGpzc1Z5Qi9QeFVWckQyRXR6QWw1QXZnSDNoUHlBSlBJWjEyZ2dTQkJTMDlsbE1nQnpIeHVvSVdNQVk2VThtd0FTTUImI3hhOzlSR0hkY3BEMXlidHNtcWFwdmVEOFJXV2lwcnBvQVlTeDNXRS9veTNZSDFlVXI5YWs1R0s2Z1lqUk1ERlhBOG5hYW1veXl3a1NWSm0mI3hhO3FTZ2ppc0hESFphVXgwbGliUHExNklobkFYaXZiMXN6Wk5UMVRjUUp2eFJLUTBhWnJrSmJCSU5aWkwyNUtBQ0JJVE81MFdFSk5GT0QmI3hhO2lQRTFkSFMxYUdoZkRsSEpoalU3UVZpaDZHcnE3NFlzcUNpNVYzZVFEZmozMHRBdXFVTmxTdmEvemZKZElZa3lKQ2VnZksyTWZGSjgmI3hhO1Nvd1hZMzhlNysrUVJDbFVoUjdqb0JtemJva284NkNaRmNZVGFLRWtxMmlidmhOdGxLUTNtdEtOSVRTZ01Dd0ZIRkNmMEtaV2hURVQmI3hhO1VGdVdMVUhVcC8yUzVTa0NaYkRmTmFXZFExTlN3YTAxRlNtb2d0S0RmMFAreWxCVm4vb1lnNzlaM0YyM0tDaGtRbUVTNXRsYWloU1UmI3hhOytpbVROQUpxOG4zWlYwUS9LVC80a0IrMXN1U1Nwa1pjbVpDbXZHQ3RxVWcvQmF0NWhLeXg0WnVnWUlaS3Ntc0NNNlhiVW1qdlo2Z1kmI3hhOzZjNjY5NTVwR1U3eTZZTjZza1E2VzVZTXlPZmZMWUoyUnhxcVJkQi9tVHVzZ29DeXZHRUExY29FeXJOOFlmNHBzWjJwWW1NWnJPZnYmI3hhO29KK0tyZ3BtNFBtc2wwejZ5ZTRlTG1VMVJna1poR1Nnak1zR0RrQm5pNUNhb1QwYTc3SzVEd2tOWFdRc1dJWlYvdi90bmQ5cUcwY1kmI3hhO3haL0E3NkFiUWFIWTJabmRtZDI1NkVYZHBwRGkwQkphTUpSaUZLeWtibFRiMkdsQzNyN245ODJ1N0xxeXRNaXloT2hTQ3JhODhleU0mI3hhO2Q4LzMveHhuZjRsU0Zxa2kyKzVDVEhNRTFSMTcyRkFWWTdadnYxR2FDdXg4NXhhdVdpdzdvUVdoaHo1RVIwQVFDbjJ0MGVJMFpTdVEmI3hhO2dXb0xXTU9FZFpEbEJFSnhDYWwxTVFVWE43VzFES0swYjF1bFVmdUxHVVFSRzZLNXM0d2RzSzFhRFBGSXhsZE5hY0dtSFl3UmllRnYmI3hhO2dTSGplY2ViTzBmQmFEUTdSQWtKalFlTDVSMzJGQm04Y21oNDJqcVFyZ1VSSzhjQzk2bFV2aFJESFkyZ2VsZ3RzdU9sZXV4ODVPRTImI3hhO2FJQXhDcndWREtVMEJBR2RmbkdMb2JCMkVCb1dyZjhrMTl1WVpKMmZ2NHROcVp0c3FJZGJOZElJUW13a0lqZjFJZ3RKb0ZuQzZ6VUgmI3hhO1VFYXVkTHlvaXRtTHo1Q3pBb1pTUnJWMmZaWnE0VE5DUDRsMkZPUUxkWDJFcGhWLzNpSy85d2FmRFp4T1RKaVhUUXVmaVo0QW85S1AmI3hhO205bldIRHd0bFVUeTBiWGd5YTZhVUdUcHZSNUxwU1BJSkR3eW1UQ3Ftd0tQdDNJNVZNTCtEanFmZklJbGsyeU1UaFNNVmNaY0pHeXcmI3hhO05nbi9JQk9HRHNDNVBlQmNFeGVXQStlKzljNHNRMDRtQk5BemNGV20vM3ZzZ0toYVdYdENRZzFoRzhEcEttK041QTJYR1hCU0t0ZTImI3hhO0dkekpMeU8wblluMjlxSUtYVFNveFptc3BTeGpIaG9HekFmS3dwVjVhSG83bTl3SlFBbTR5NEJDSnl0MzNkRmtrNU4zelBqSVJRcWgmI3hhOzdMZFdCazlHMGVFREk0UzFCS2hpR29ReW9XZS84ejBycExnREV6b1pPNkhCb0J4a1FvdWIyVmlIbmd6MUk2UUhWMHBHVDlrZStCdjAmI3hhO2s5aHZNVnhQbUljOGVtME1oK042RXM5SHVDRm9ienJlMkNuaWVhSnRoejU4TkM2Nm1ycW84UTdBeXo1d1RHd1hRTmVFaDFVWjBLR2wmI3hhO2JtaXAyMDFMM1RKYktEaHlTQ0NWcVVod21EeFdNUVd4Q2dOVitQdWYzeGg2b0pBUlZibkFiZTJmODJjTVBNK0tId2Fqd0tnWjB1TXgmI3hhO2NGYWdSOGNud29yQjdWdkt0MExxQnlpRnZqMTczQkR1Slo3K0tzNERDY3Y2UUlQa1hadEJvR1hGTTFuYXhINkx0Y2xzaFRsRUVqejgmI3hhO2xvbEIvb0pqWkNyZXJDRWlsd29pS0o1VTJadUhaUmh2amZJbnllek5iTTNNSWF3UG5Ldk1NNTExTE1aRUk4cXpCY0ZCdjhVc0UwTjUmI3hhO3BvSnRPZGhFTDNHUEkrL0VuUDA4bk5qQU9XSVBtNURwN25UNzFsVVJTUzNDR1NPTE9KakRyWnJEZFJGaU5VbkYwRzM3UCsrMlhaSGUmI3hhO2FtRDZKKzlSTzN5Q1JZK2RQNUozb0NqVzVDNkVJczl0bUxRZVBudENFQjV5Y0JBdG1ZQUhlbjdCK2lBaStSQjJpV3A0WFdXeVRyd2smI3hhO2g4SnhsYURwQVZCMXcvS2t2UFdjV1FIRjRvc0c4OSsxcVRpa2lJUEpLQmU1U3cxU0hxMHRQd1RCMTE1cllaZUtJM3FDQzVnZDlaakkmI3hhO0xxR05tNkNSME5HR2JKZXFxcWIrNFVpMjBxc0JmeWlFcERYTmRFV1ROclF6TTB1d3ZTWVRtSUhrRkxOVW9IUmVRcEplUWwvVmJ5MkYmI3hhO2V4VlJGRFJHcHN1VjhGQnJaM0tiZGQyVldUZHlqTlpaQ09jYmtNVGpyRWd2d0dJWXlkaFdmYVF5QjdPMDBUVFhXdml3dWo2d1gyMzQmI3hhO3l6djk2QnIzdEFkVXhvWHdhQVVsa1JndUxQVGFVcEcxNU4wSjhWNlJsU3FQUEx3dTZZeUFEWXJ3VmtSbzA4NW8zcU1UNWN5OHlLeVImI3hhO3pLWmtsNWtEYWQ5WGJFQ1VlTDlkdWpJWmR0Unp1ajdmWUgzTzJMRmVhK1U4VnduSm12Y21EMmx0S3Fhbm96QlJRZDIvYXF5a2UxTGwmI3hhOzc5Vlk0WWlxdXd6ZWszZDJ2OFNxVUQzR25FTExKVllJTlNKTWxiM1d3dEJEL0lXb3NEeU5OczlWRVZKRHc5R1U5OXFsbjN5TU9QYUomI3hhO2JuT3lFd2pjV0tJTG10dVVXZDBIQ04xeXE5ODY4TENDZm1JeHdRVERPWjFPc0xQL1RpZkR0TTYrVCt1OEcxZ25lbmZrNyt5czlyRDMmI3hhO2RxZlAxWjYxMmUzd3JQYXFsV1puNTdSdmxmTWRBdFZRSWh0S1pMc3BrZTNzb1IveTRFTWVmTGMyZkwvU1hiczZxbDhYci92aTllVDImI3hhO2czM2xSaStPcjY1bW82OU9MaTQvVE0velB5MjZEMTlkZnByZWZPdytQdjNHZnFiSWVIejJ0LzRIay9WODBJMm5Zdz09JiN4YTsJJiN4YTsJJiN4YTsJVEphRmtSOElVN2dRbG1yYVgxeEZBMVNEZUU1dEkzcUdwd1Y5cVhBTnVNeFNqcjRBNzBMTjhLU1pOV2IxbmVCZllELzZwRi9EUmZJZyYjeGE7OU81b3JaaGRMcDhvdGhMNjROblA4aTN4TGMxTE5UUHhKbnhUbytZam1FVXNaZGJydnJucStLMGR6NklraE0vRWxndXlEcytkaHRUTiYjeGE7MCsrdlBTS1RvcGV4b1pRRGJUQnBBWWhuUjRmTkVYSW9rZEJQRmlnM2I5RXo2WEhyNVo5cTN4eDVZMlk2MFpNRzNXeUFTNVVoWm9obCYjeGE7SytNbkg1OVpDZzJKVUNyeFlUNmxRSSthUjIyRVg5NW51VnpMOGRwTk1wYjhtTnVWYTVOK0M3dzE1TkJJVjVFRlpQaU1ZV1JHV1R4ayYjeGE7Mmg0S1hFK0t3dlhjSGdJbzFMb1VSVGZPUEhpOWl6Z2djcEo4c0hHUHplMnVGTGFrNEppY2xzTVVmYXNwRTQxNzNWaG9iWFB2N08xNSYjeGE7TkVrNDVQNDRIc3YrdFMvZjRnemdzcGZ2WVpKdmZ1QmRYbTk4QmlLbStYZW5YOXNHZEYvNVB1WncrTjNzNHZwYTUvNEFFTCsvdUoyOCYjeGE7blhXQXlONjBLOEQwUVFvenB3eFB2K2liSC9YRm4vcm84OGdWbzllajMzNHZSdWY2K1BUTnc1empLZzdjLzM1bDZjbWpTakZvelRPcSYjeGE7NXhJS2NCSmdaWTJmbEZCVU42MTVFNDVrZWwzaGgzRlVGdzRoUnllL3RrQ1R0NENoV1E0d25oZ09DSmZrbGxTbkZ3TjFGUjZmY08vYiYjeGE7Z21ydjVDQWdHNE1MQkpFelBreFU5TmJZNUs3K0ppbVJEUTE2clN0VGJra21WYzQxREhraEZaSDBhSUszdXFaQ00wQnhCS2pnUnJFRSYjeGE7b2ZSZ1VzeFZ6TU0xSzllYXlkRGVIYytKL3ZMZnZncG5MeS9QVHlaZnBqZUhod2ZqOGMrVDk5TmZiaVlYcytuTndmdmJ5YWZwYUhKNSYjeGE7aWEyZFh1c25ldENtdHgrdmJxYWoyeit1UHZPSi9rbDMrWGo4OHFjZkR2NEJLOHFWT2c9PSYjeGE7CSYjeGE7JiN4YTs8L3N2Zz4=;" vertex="1" parent="1">
          <mxGeometry x="814" y="255" width="72" height="90" as="geometry" />
        </mxCell>
        <mxCell id="CGhPLYTZZGcvYnQnzDXN-10" value="" style="whiteSpace=wrap;html=1;fillColor=none;strokeWidth=2;strokeColor=light-dark(#000000,#0080C0);rounded=1;" vertex="1" parent="1">
          <mxGeometry x="130" y="550" width="290" height="480" as="geometry" />
        </mxCell>
        <mxCell id="CGhPLYTZZGcvYnQnzDXN-12" value="" style="whiteSpace=wrap;html=1;fillColor=none;strokeWidth=2;strokeColor=light-dark(#000000,#0080C0);rounded=1;" vertex="1" parent="1">
          <mxGeometry x="780" y="575" width="250" height="105" as="geometry" />
        </mxCell>
        <mxCell id="CGhPLYTZZGcvYnQnzDXN-13" value="" style="whiteSpace=wrap;html=1;fillColor=none;strokeWidth=2;strokeColor=light-dark(#000000,#0080C0);rounded=1;" vertex="1" parent="1">
          <mxGeometry x="477" y="680" width="250" height="100" as="geometry" />
        </mxCell>
        <mxCell id="CGhPLYTZZGcvYnQnzDXN-14" value="" style="image;points=[];aspect=fixed;html=1;align=center;shadow=0;dashed=0;image=img/lib/allied_telesis/computer_and_terminals/Server_Desktop.svg;" vertex="1" parent="1">
          <mxGeometry x="160.22" y="570" width="94.67" height="120" as="geometry" />
        </mxCell>
        <mxCell id="CGhPLYTZZGcvYnQnzDXN-16" value="" style="shape=image;verticalLabelPosition=bottom;labelBackgroundColor=default;verticalAlign=top;aspect=fixed;imageAspect=0;image=https://camo.githubusercontent.com/fdffb57ca7bf0ba2900bab738df7bf002dee35f15e55f2029a97de1d2bdc1e07/68747470733a2f2f7777772e70726f786d6f782e636f6d2f696d616765732f70726f786d6f782f50726f786d6f782d6c6f676f2d737461636b65642d38343070782e706e67;" vertex="1" parent="1">
          <mxGeometry x="203.01" y="620" width="42" height="40" as="geometry" />
        </mxCell>
        <mxCell id="CGhPLYTZZGcvYnQnzDXN-18" value="" style="shape=image;verticalLabelPosition=bottom;labelBackgroundColor=default;verticalAlign=top;aspect=fixed;imageAspect=0;image=https://www.asustor.com/images/feature/content_img/AS1102T/banner_model.png;" vertex="1" parent="1">
          <mxGeometry x="300" y="585" width="99.21" height="90" as="geometry" />
        </mxCell>
        <mxCell id="CGhPLYTZZGcvYnQnzDXN-21" value="" style="whiteSpace=wrap;html=1;fillColor=none;strokeWidth=2;strokeColor=light-dark(#000000,#0080C0);rounded=1;" vertex="1" parent="1">
          <mxGeometry x="150" y="770" width="120" height="220" as="geometry" />
        </mxCell>
        <mxCell id="CGhPLYTZZGcvYnQnzDXN-22" value="" style="image;sketch=0;aspect=fixed;html=1;points=[];align=center;fontSize=12;image=img/lib/mscae/VM_Linux.svg;" vertex="1" parent="1">
          <mxGeometry x="177.39" y="790" width="65.22" height="60" as="geometry" />
        </mxCell>
        <mxCell id="CGhPLYTZZGcvYnQnzDXN-23" value="" style="shape=image;verticalLabelPosition=bottom;labelBackgroundColor=default;verticalAlign=top;aspect=fixed;imageAspect=0;image=https://upload.wikimedia.org/wikipedia/commons/thumb/b/bb/Gitea_Logo.svg/512px-Gitea_Logo.svg.png;" vertex="1" parent="1">
          <mxGeometry x="160.22" y="880" width="84.79" height="52.33" as="geometry" />
        </mxCell>
        <mxCell id="CGhPLYTZZGcvYnQnzDXN-28" value="" style="shape=mxgraph.signs.tech.computer;html=1;pointerEvents=1;fillColor=#000000;strokeColor=none;verticalLabelPosition=bottom;verticalAlign=top;align=center;" vertex="1" parent="1">
          <mxGeometry x="814" y="594" width="60" height="62" as="geometry" />
        </mxCell>
        <mxCell id="CGhPLYTZZGcvYnQnzDXN-29" value="" style="shape=mxgraph.signs.tech.computer;html=1;pointerEvents=1;fillColor=#000000;strokeColor=none;verticalLabelPosition=bottom;verticalAlign=top;align=center;" vertex="1" parent="1">
          <mxGeometry x="940" y="594" width="60" height="62" as="geometry" />
        </mxCell>
        <mxCell id="CGhPLYTZZGcvYnQnzDXN-35" style="edgeStyle=orthogonalEdgeStyle;rounded=0;orthogonalLoop=1;jettySize=auto;html=1;endArrow=none;startFill=0;" edge="1" parent="1">
          <mxGeometry relative="1" as="geometry">
            <mxPoint x="654" y="485.05882352941194" as="sourcePoint" />
            <mxPoint x="911" y="540" as="targetPoint" />
          </mxGeometry>
        </mxCell>
        <mxCell id="CGhPLYTZZGcvYnQnzDXN-38" value="" style="whiteSpace=wrap;html=1;fillColor=none;strokeWidth=2;strokeColor=light-dark(#000000,#0080C0);rounded=1;" vertex="1" parent="1">
          <mxGeometry x="950" y="140" width="440" height="140" as="geometry" />
        </mxCell>
        <mxCell id="CGhPLYTZZGcvYnQnzDXN-39" value="" style="whiteSpace=wrap;html=1;fillColor=none;strokeWidth=2;strokeColor=light-dark(#000000,#0080C0);rounded=1;" vertex="1" parent="1">
          <mxGeometry x="950" y="330" width="440" height="140" as="geometry" />
        </mxCell>
        <mxCell id="CGhPLYTZZGcvYnQnzDXN-40" value="" style="shape=image;verticalLabelPosition=bottom;labelBackgroundColor=default;verticalAlign=top;aspect=fixed;imageAspect=0;image=https://static.ui.com/fingerprint/0/4619_129x129.png;" vertex="1" parent="1">
          <mxGeometry x="950" y="145.5" width="94.5" height="94.5" as="geometry" />
        </mxCell>
        <mxCell id="CGhPLYTZZGcvYnQnzDXN-41" value="" style="shape=image;verticalLabelPosition=bottom;labelBackgroundColor=default;verticalAlign=top;aspect=fixed;imageAspect=0;image=https://static.ui.com/fingerprint/0/4619_129x129.png;" vertex="1" parent="1">
          <mxGeometry x="1010" y="145.5" width="94.5" height="94.5" as="geometry" />
        </mxCell>
        <mxCell id="CGhPLYTZZGcvYnQnzDXN-42" value="" style="shape=image;verticalLabelPosition=bottom;labelBackgroundColor=default;verticalAlign=top;aspect=fixed;imageAspect=0;image=https://static.ui.com/fingerprint/0/4619_129x129.png;" vertex="1" parent="1">
          <mxGeometry x="1070" y="145.5" width="94.5" height="94.5" as="geometry" />
        </mxCell>
        <mxCell id="CGhPLYTZZGcvYnQnzDXN-43" value="" style="shape=image;verticalLabelPosition=bottom;labelBackgroundColor=default;verticalAlign=top;aspect=fixed;imageAspect=0;image=https://images.svc.ui.com/?u=https://static.ui.com/fingerprint/ui/images/142cd194-8164-46a1-ba48-bef078757393/default/015d558b57f631225c3ba6a73660d4df.png&amp;w=64?q=75;" vertex="1" parent="1">
          <mxGeometry x="554" y="250" width="100" height="100" as="geometry" />
        </mxCell>
        <mxCell id="CGhPLYTZZGcvYnQnzDXN-61" style="edgeStyle=orthogonalEdgeStyle;rounded=0;orthogonalLoop=1;jettySize=auto;html=1;endArrow=none;startFill=0;" edge="1" parent="1" source="CGhPLYTZZGcvYnQnzDXN-44">
          <mxGeometry relative="1" as="geometry">
            <mxPoint x="604" y="670" as="targetPoint" />
          </mxGeometry>
        </mxCell>
        <mxCell id="CGhPLYTZZGcvYnQnzDXN-44" value="" style="shape=image;verticalLabelPosition=bottom;labelBackgroundColor=default;verticalAlign=top;aspect=fixed;imageAspect=0;image=https://images.svc.ui.com/?u=https://static.ui.com/fingerprint/ui/images/b6a7f692-39e2-4942-989e-874e5166ef3b/default/1ed05326d26c963560c53bcd6fb1b2ae.png&amp;w=64?q=75;" vertex="1" parent="1">
          <mxGeometry x="544" y="414" width="120" height="120" as="geometry" />
        </mxCell>
        <mxCell id="CGhPLYTZZGcvYnQnzDXN-45" value="" style="shape=image;verticalLabelPosition=bottom;labelBackgroundColor=default;verticalAlign=top;aspect=fixed;imageAspect=0;image=https://static.ui.com/fingerprint/0/2014_129x129.png;" vertex="1" parent="1">
          <mxGeometry x="559.5" y="690" width="85" height="85" as="geometry" />
        </mxCell>
        <mxCell id="CGhPLYTZZGcvYnQnzDXN-46" value="" style="shape=image;verticalLabelPosition=bottom;labelBackgroundColor=default;verticalAlign=top;aspect=fixed;imageAspect=0;image=https://static.ui.com/fingerprint/0/3788_129x129.png;" vertex="1" parent="1">
          <mxGeometry x="960" y="358.5" width="129" height="83" as="geometry" />
        </mxCell>
        <mxCell id="CGhPLYTZZGcvYnQnzDXN-47" value="" style="shape=image;verticalLabelPosition=bottom;labelBackgroundColor=default;verticalAlign=top;aspect=fixed;imageAspect=0;image=https://static.ui.com/fingerprint/0/4624_129x129.png;" vertex="1" parent="1">
          <mxGeometry x="1091.38" y="355.5" width="51.74" height="89" as="geometry" />
        </mxCell>
        <mxCell id="CGhPLYTZZGcvYnQnzDXN-48" value="" style="shape=image;verticalLabelPosition=bottom;labelBackgroundColor=default;verticalAlign=top;aspect=fixed;imageAspect=0;image=https://static.ui.com/fingerprint/0/5116_129x129.png;" vertex="1" parent="1">
          <mxGeometry x="1130" y="353.87" width="92.25" height="92.25" as="geometry" />
        </mxCell>
        <mxCell id="CGhPLYTZZGcvYnQnzDXN-49" value="" style="shape=image;verticalLabelPosition=bottom;labelBackgroundColor=default;verticalAlign=top;aspect=fixed;imageAspect=0;image=https://static.ui.com/fingerprint/0/2112_129x129.png;" vertex="1" parent="1">
          <mxGeometry x="1222.25" y="347.74" width="60.76" height="104.51" as="geometry" />
        </mxCell>
        <mxCell id="CGhPLYTZZGcvYnQnzDXN-50" value="" style="shape=image;verticalLabelPosition=bottom;labelBackgroundColor=default;verticalAlign=top;aspect=fixed;imageAspect=0;image=https://static.ui.com/fingerprint/0/2777_129x129.png;" vertex="1" parent="1">
          <mxGeometry x="1154.01" y="146" width="129" height="104" as="geometry" />
        </mxCell>
        <mxCell id="CGhPLYTZZGcvYnQnzDXN-59" value="" style="shape=image;verticalLabelPosition=bottom;labelBackgroundColor=light-dark(#FFFFFF,#FFFFFF);verticalAlign=top;aspect=fixed;imageAspect=0;image=https://cdn2.iconfinder.com/data/icons/smart-home-control-1/100/smart_pet_feeder_home_control_technology_network-512.png;textShadow=0;labelBorderColor=none;" vertex="1" parent="1">
          <mxGeometry x="1270" y="146" width="110" height="110" as="geometry" />
        </mxCell>
      </root>
    </mxGraphModel>
  </diagram>
</mxfile>
